<?xml version="1.0" encoding="UTF-8"?>
<svg width="38px" height="38px" viewBox="0 0 38 38" version="1.1" xmlns="http://www.w3.org/2000/svg" xmlns:xlink="http://www.w3.org/1999/xlink">
    <!-- Generator: Sketch 55.2 (78181) - https://sketchapp.com -->
    <title>icon/myPage/concert</title>
    <desc>Created with Sketch.</desc>
    <defs>
        <polygon id="path-1" points="0 0.70608 33.3241 0.70608 33.3241 26.70608 0 26.70608"></polygon>
    </defs>
    <g id="icon/myPage/concert" stroke="none" stroke-width="1" fill="none" fill-rule="evenodd" opacity="0.6">
        <g id="icon/musical">
            <rect id="Rectangle" x="0" y="0" width="38" height="38"></rect>
            <g id="Group-11" transform="translate(1.900000, 4.650000)">
                <mask id="mask-2" fill="white">
                    <use xlink:href="#path-1"></use>
                </mask>
                <g id="Clip-2"></g>
                <path d="M3.02195,15.05623 L7.95625,15.05623 L7.95625,8.41858 L3.02195,8.41858 L3.02195,15.05623 Z M8.67825,16.50118 L2.29995,16.50118 C1.90095,16.50118 1.577,16.17723 1.577,15.77823 L1.577,7.69658 C1.577,7.29758 1.90095,6.97363 2.29995,6.97363 L8.67825,6.97363 C9.07725,6.97363 9.40025,7.29758 9.40025,7.69658 L9.40025,15.77823 C9.40025,16.17723 9.07725,16.50118 8.67825,16.50118 L8.67825,16.50118 Z" id="Fill-3" stroke="#FFFFFF" fill="#1F1F1F" stroke-linecap="round" stroke-linejoin="round" mask="url(#mask-2)"></path>
                <path d="M5.54496,11.27998 C5.19251,11.27998 4.90466,11.56688 4.90466,11.92028 C4.90466,12.27368 5.19251,12.56153 5.54496,12.56153 C5.89836,12.56153 6.18621,12.27368 6.18621,11.92028 C6.18621,11.56688 5.89836,11.27998 5.54496,11.27998 M5.54496,14.00553 C4.39546,14.00553 3.46066,13.07073 3.46066,11.92028 C3.46066,10.77078 4.39546,9.83503 5.54496,9.83503 C6.69541,9.83503 7.63021,10.77078 7.63021,11.92028 C7.63021,13.07073 6.69541,14.00553 5.54496,14.00553" id="Fill-4" stroke="#FFFFFF" fill="#1F1F1F" stroke-linecap="round" stroke-linejoin="round" mask="url(#mask-2)"></path>
                <path d="M24.6848,15.05623 L29.61815,15.05623 L29.61815,8.41858 L24.6848,8.41858 L24.6848,15.05623 Z M30.3411,16.50118 L23.96185,16.50118 C23.5638,16.50118 23.2408,16.17723 23.2408,15.77823 L23.2408,7.69658 C23.2408,7.29758 23.5638,6.97363 23.96185,6.97363 L30.3411,6.97363 C30.7401,6.97363 31.0631,7.29758 31.0631,7.69658 L31.0631,15.77823 C31.0631,16.17723 30.7401,16.50118 30.3411,16.50118 L30.3411,16.50118 Z" id="Fill-6" stroke="#FFFFFF" fill="#1F1F1F" stroke-linecap="round" stroke-linejoin="round" mask="url(#mask-2)"></path>
                <path d="M27.208475,11.27998 C26.855075,11.27998 26.567225,11.56688 26.567225,11.92028 C26.567225,12.27368 26.855075,12.56153 27.208475,12.56153 C27.561875,12.56153 27.848775,12.27368 27.848775,11.92028 C27.848775,11.56688 27.561875,11.27998 27.208475,11.27998 M27.208475,14.00553 C26.058975,14.00553 25.123225,13.07073 25.123225,11.92028 C25.123225,10.77078 26.058975,9.83503 27.208475,9.83503 C28.357975,9.83503 29.292775,10.77078 29.292775,11.92028 C29.292775,13.07073 28.357975,14.00553 27.208475,14.00553" id="Fill-7" stroke="#FFFFFF" fill="#1F1F1F" stroke-linecap="round" stroke-linejoin="round" mask="url(#mask-2)"></path>
                <path d="M31.33689,20.157065 L1.08319,20.157065 C0.68419,20.157065 0.36119,19.834065 0.36119,19.435065 C0.36119,19.036065 0.68419,18.712115 1.08319,18.712115 L31.33689,18.712115 C31.73589,18.712115 32.05984,19.036065 32.05984,19.435065 C32.05984,19.834065 31.73589,20.157065 31.33689,20.157065" id="Fill-8" stroke="#FFFFFF" fill="#1F1F1F" stroke-linecap="round" stroke-linejoin="round" mask="url(#mask-2)"></path>
                <path d="M16.5781326,16.5008 C16.0829726,16.5008 15.6763195,16.18445 15.6691433,15.78925 L15.4885414,5.9007 C15.4801692,5.5017 15.8820381,5.17395 16.3843744,5.16825 L16.3975308,5.16825 C16.8938868,5.16825 17.2993439,5.4846 17.3053241,5.8798 L17.488318,15.76835 C17.4954943,16.16735 17.0948213,16.4951 16.5924851,16.5008 L16.5781326,16.5008 Z" id="Fill-10" stroke="#FFFFFF" fill="#1F1F1F" stroke-linecap="round" stroke-linejoin="round" mask="url(#mask-2)"></path>
                <path d="M15.4260232,5.05087295 C15.3490103,4.79117956 15.3076538,4.51625306 15.3076538,4.23178599 C15.3076538,2.64319326 16.5995342,1.35 18.1881269,1.35 C19.7767196,1.35 21.0686,2.64319326 21.0686,4.23178599 C21.0686,5.82169161 19.7767196,7.11357198 18.1881269,7.11357198 C17.5915704,7.11357198 17.0368561,6.93139216 16.5766842,6.61966333 L13.6297941,8.54989317 C13.4597524,8.66879452 13.2641405,8.72504892 13.0723641,8.72504892 C12.7668004,8.72504892 12.4637938,8.58057739 12.2758529,8.30953347 C11.9677323,7.86972634 12.075127,7.26371304 12.5149341,6.95687086 L15.4260232,5.05087295 Z M18.1881269,3.34690045 C17.6997331,3.34690045 17.3032414,3.74470508 17.3032414,4.23178599 C17.3032414,4.72017979 17.6997331,5.11798442 18.1881269,5.11798442 C18.6765207,5.11798442 19.0743253,4.72017979 19.0743253,4.23178599 C19.0743253,3.74470508 18.6765207,3.34690045 18.1881269,3.34690045 Z" id="Combined-Shape" stroke="#FFFFFF" fill="#1F1F1F" stroke-linecap="round" stroke-linejoin="round" mask="url(#mask-2)"></path>
                <path d="M1.462525,24.732455 L31.862525,24.732455 L31.862525,17.132455 L1.462525,17.132455 L1.462525,24.732455 Z M0.673515876,26.70608 C0.0602597041,26.70608 -0.43795,26.22158 -0.43795,25.62308 L-0.43795,16.24278 C-0.43795,15.64428 0.0602597041,15.15978 0.673515876,15.15978 L32.6505841,15.15978 C33.2648153,15.15978 33.76205,15.64428 33.76205,16.24278 L33.76205,25.62308 C33.76205,26.22158 33.2648153,26.70608 32.6505841,26.70608 L0.673515876,26.70608 Z" id="Fill-1" stroke="#FFFFFF" fill="#1F1F1F" stroke-linecap="round" stroke-linejoin="round" mask="url(#mask-2)"></path>
            </g>
        </g>
    </g>
</svg>