<?xml version="1.0" encoding="UTF-8"?>
<svg width="38px" height="38px" viewBox="0 0 38 38" version="1.1" xmlns="http://www.w3.org/2000/svg" xmlns:xlink="http://www.w3.org/1999/xlink">
    <!-- Generator: Sketch 55.2 (78181) - https://sketchapp.com -->
    <title>icon/myPage/exhibition</title>
    <desc>Created with Sketch.</desc>
    <g id="icon/myPage/exhibition" stroke="none" stroke-width="1" fill="none" fill-rule="evenodd" opacity="0.6">
        <g id="icon/exhibition">
            <rect id="Rectangle" x="0" y="0" width="38" height="38"></rect>
            <g id="Group-23" transform="translate(2.000000, 1.000000)" fill="#1F1F1F" stroke="#FFFFFF" stroke-linejoin="round">
                <path d="M11.5943579,1.96663158 C11.1953053,1.96663158 10.8696211,2.29142105 10.8696211,2.69136842 L10.8696211,17.2290526 C10.8696211,17.6281053 11.1953053,17.9537895 11.5943579,17.9537895 L22.0994632,17.9537895 C22.4994105,17.9537895 22.8242,17.6281053 22.8242,17.2290526 L22.8242,2.69136842 C22.8242,2.29142105 22.4994105,1.96663158 22.0994632,1.96663158 L11.5943579,1.96663158 Z M28.2516737,22.7046377 C27.6720015,23.1748061 26.9742216,23.6075497 26.1659526,23.9937105 C23.7421105,25.1515 20.5407421,25.7894474 17.1523737,25.7894474 C13.7640053,25.7894474 10.5626368,25.1515 8.13879474,23.9937105 C6.96315025,23.4320313 6.02125977,22.7718002 5.33656842,22.0411978 L5.33656842,30.3528737 L7.59246842,30.3528737 C8.13467895,30.3528737 8.57578421,30.7930842 8.57578421,31.3361895 C8.57578421,31.8792947 8.13467895,32.3195053 7.59246842,32.3195053 L0.983047368,32.3195053 C0.439942105,32.3195053 0.00062631579,31.8792947 0.00062631579,31.3361895 C0.00062631579,30.7930842 0.439942105,30.3528737 0.983047368,30.3528737 L3.23841053,30.3528737 L3.23841053,19.8181035 C2.21307877,19.4237256 1.45026705,18.4667596 1.36205789,17.3003632 C1.30211053,16.5183632 1.54995263,15.7605211 2.06084737,15.1655211 C2.57084737,14.5705211 3.28305789,14.2099421 4.06505789,14.1508895 C4.84705789,14.0918368 5.6049,14.3387842 6.1999,14.8496789 C6.79400526,15.3605737 7.15458421,16.0718895 7.21453158,16.8538895 C7.27358421,17.6358895 7.02574211,18.3937316 6.51484737,18.9887316 C6.37139347,19.1558014 6.21213782,19.3043887 6.03995256,19.4330081 C6.5673531,21.5899615 10.9833167,23.8228158 17.1523737,23.8228158 C20.2535316,23.8228158 23.1542684,23.2537632 25.3186368,22.2194474 C26.7911106,21.5157017 27.7786014,20.6559924 28.1515279,19.7789798 C27.878085,19.6622003 27.6211653,19.5028276 27.3891474,19.3036789 C26.7941474,18.7927842 26.4344632,18.0814684 26.3745158,17.3003632 C26.2510421,15.6862579 27.4634105,14.2734684 29.0775158,14.1508895 C29.8595158,14.0918368 30.6173579,14.3387842 31.2123579,14.8496789 C31.8073579,15.3605737 32.1679368,16.0718895 32.2278842,16.8538895 C32.2869368,17.6358895 32.0390947,18.3937316 31.5273053,18.9887316 C31.2045404,19.3652905 30.8007848,19.6479575 30.3498316,19.8197224 L30.3498316,30.3528737 L32.6058211,30.3528737 C33.1480316,30.3528737 33.5891368,30.7930842 33.5891368,31.3361895 C33.5891368,31.8792947 33.1480316,32.3195053 32.6058211,32.3195053 L25.9964,32.3195053 C25.4532947,32.3195053 25.0130842,31.8792947 25.0130842,31.3361895 C25.0130842,30.7930842 25.4532947,30.3528737 25.9964,30.3528737 L28.2516737,30.3528737 L28.2516737,22.7046377 Z M29.1404785,18.0326311 C29.1927489,18.0240276 29.2464078,18.0195526 29.3011105,18.0195526 C29.3555638,18.0195526 29.4089827,18.0239869 29.4610273,18.0325137 C29.6845924,17.9952346 29.8865818,17.8812672 30.0357789,17.7074684 C30.2039895,17.5115211 30.2863053,17.2609947 30.2666211,17.0033105 C30.2469368,16.7456263 30.1279368,16.5103105 29.9310947,16.3421 C29.7548316,16.1899947 29.5338316,16.1085737 29.3020947,16.1085737 C29.2779368,16.1085737 29.2519895,16.1094684 29.2269368,16.1112579 C28.6945684,16.1515211 28.2946211,16.6176789 28.3357789,17.1509421 C28.3545684,17.4086263 28.4735684,17.6430474 28.6704105,17.8112579 C28.8060565,17.9283222 28.9682865,18.0037953 29.1404785,18.0326311 Z M11.5943579,19.9204211 C10.1108842,19.9204211 8.90298947,18.7125263 8.90298947,17.2290526 L8.90298947,2.69136842 C8.90298947,1.207 10.1108842,0 11.5943579,0 L22.0994632,0 C23.5829368,0 24.7908316,1.207 24.7908316,2.69136842 L24.7908316,17.2290526 C24.7908316,18.7125263 23.5829368,19.9204211 22.0994632,19.9204211 L11.5943579,19.9204211 Z M4.28963684,16.1085737 C4.26458421,16.1085737 4.23863684,16.1094684 4.21447895,16.1112579 C3.9559,16.1309421 3.72147895,16.2499421 3.55326842,16.4458895 C3.38416316,16.6427316 3.30184737,16.8923632 3.32242632,17.1509421 C3.36268947,17.6824158 3.82884737,18.0841526 4.36121579,18.0429947 C4.6189,18.0233105 4.85421579,17.9034158 5.02242632,17.7074684 C5.19153158,17.5115211 5.27295263,17.2609947 5.25326842,17.0033105 C5.23358421,16.7456263 5.11458421,16.5103105 4.91863684,16.3421 C4.74147895,16.1899947 4.52047895,16.1085737 4.28963684,16.1085737 Z" id="Fill-21"></path>
            </g>
        </g>
    </g>
</svg>