<?xml version="1.0" encoding="UTF-8"?>
<svg width="38px" height="38px" viewBox="0 0 38 38" version="1.1" xmlns="http://www.w3.org/2000/svg" xmlns:xlink="http://www.w3.org/1999/xlink">
    <!-- Generator: Sketch 55.2 (78181) - https://sketchapp.com -->
    <title>icon/myPage/play</title>
    <desc>Created with Sketch.</desc>
    <g id="icon/myPage/play" stroke="none" stroke-width="1" fill="none" fill-rule="evenodd" opacity="0.6">
        <g id="icon/musical">
            <rect id="Rectangle" x="0" y="0" width="38" height="38"></rect>
            <g id="Group-17" transform="translate(0.950000, 2.929167)" fill="#1F1F1F" stroke="#FFFFFF">
                <path d="M8.84329433,17.0208333 C8.48005401,17.0208333 8.18658866,16.7016645 8.18658866,16.3090979 C8.18658866,15.3905143 7.4970477,14.6431921 6.64948695,14.6431921 C5.80192619,14.6431921 5.11238524,15.3905143 5.11238524,16.3090979 C5.11238524,16.7016645 4.81789379,17.0208333 4.45670567,17.0208333 C4.09346535,17.0208333 3.8,16.7016645 3.8,16.3090979 C3.8,14.6064933 5.07749775,13.2208333 6.64948695,13.2208333 C8.22147615,13.2208333 9.5,14.6064933 9.5,16.3090979 C9.5,16.7016645 9.20653465,17.0208333 8.84329433,17.0208333" id="Fill-4"></path>
                <path d="M17.3932943,17.0208333 C17.030054,17.0208333 16.7365887,16.7016645 16.7365887,16.3090979 C16.7365887,15.3905143 16.0470477,14.6431921 15.1994869,14.6431921 C14.3519262,14.6431921 13.6623852,15.3905143 13.6623852,16.3090979 C13.6623852,16.7016645 13.3678938,17.0208333 13.0067057,17.0208333 C12.6434653,17.0208333 12.35,16.7016645 12.35,16.3090979 C12.35,14.6064933 13.6274977,13.2208333 15.1994869,13.2208333 C16.7714761,13.2208333 18.05,14.6064933 18.05,16.3090979 C18.05,16.7016645 17.7565347,17.0208333 17.3932943,17.0208333" id="Fill-6"></path>
                <path d="M11.875,25.5708333 C9.51909201,25.5708333 7.6,23.7256027 7.6,21.4581499 C7.6,21.10663 7.89707627,20.8208333 8.26350484,20.8208333 C8.6278632,20.8208333 8.92493947,21.10663 8.92493947,21.4581499 C8.92493947,23.0235587 10.2488438,24.2962002 11.875,24.2962002 C13.5021913,24.2962002 14.8260956,23.0235587 14.8260956,21.4581499 C14.8260956,21.10663 15.1221368,20.8208333 15.4875303,20.8208333 C15.8539588,20.8208333 16.15,21.10663 16.15,21.4581499 C16.15,23.7256027 14.2319431,25.5708333 11.875,25.5708333" id="Fill-8"></path>
                <path d="M24.0805365,26.5208333 C22.0190694,26.5208333 20.1256567,25.6127462 18.8800173,24.0240883 C18.5520566,23.6076343 18.634556,23.0111457 19.0643678,22.693612 C19.4941797,22.3760782 20.1073235,22.4562036 20.4342657,22.8726575 C21.30713,23.9855094 22.6342503,24.6225553 24.0805365,24.6225553 L24.1110919,24.6225553 C25.5848779,24.6126633 26.9323685,23.9489089 27.8082883,22.8024242 C33.0872329,15.8898827 33.9682453,5.86926951 34.1159294,2.77010059 L14.3109751,2.77010059 C14.2855123,4.26874116 14.3394934,5.74166249 14.4729184,7.16116692 C14.521807,7.68346542 14.1266245,8.14443341 13.5888505,8.19290429 C13.050058,8.24137518 12.5754317,7.85558651 12.5265431,7.33427722 C12.3574702,5.54580055 12.3096002,3.67917695 12.3839515,1.7848557 C12.4033032,1.27541683 12.8351521,0.870833333 13.360704,0.870833333 L35.1222187,0.870833333 C35.6620298,0.870833333 36.0989712,1.29619006 36.1,1.81947776 C36.1010082,2.36254949 36.040916,15.2083227 29.3778144,23.9330817 C28.1331934,25.5642753 26.218392,26.5069845 24.1243325,26.5208333 C24.1090548,26.5208333 24.0947957,26.5208333 24.0805365,26.5208333" id="Fill-10"></path>
                <path d="M27.5494869,11.3208333 C25.9785239,11.3208333 24.7,9.9351734 24.7,8.23145669 C24.7,7.83889011 24.9934653,7.52083333 25.3556796,7.52083333 C25.7189199,7.52083333 26.0123852,7.83889011 26.0123852,8.23145669 C26.0123852,9.15004024 26.7019262,9.89736245 27.5494869,9.89736245 C28.3970477,9.89736245 29.0865887,9.15004024 29.0865887,8.23145669 C29.0865887,7.83889011 29.3810801,7.52083333 29.7432943,7.52083333 C30.1055086,7.52083333 30.4,7.83889011 30.4,8.23145669 C30.4,9.9351734 29.1214761,11.3208333 27.5494869,11.3208333" id="Fill-13"></path>
                <path d="M27.8836135,19.8708333 C27.5426748,19.8708333 27.267227,19.5860325 27.267227,19.2335168 C27.267227,17.6691038 26.0363803,16.3954665 24.5233441,16.3954665 C23.9079208,16.3954665 23.3281322,16.6006027 22.8446541,16.9879717 C22.5740219,17.2040618 22.1878173,17.1532757 21.9788237,16.8744497 C21.7707933,16.5966195 21.8199116,16.196305 22.0886176,15.9812107 C22.7916834,15.4185797 23.6324731,15.1208333 24.5233441,15.1208333 C26.7153685,15.1208333 28.5,16.9660639 28.5,19.2335168 C28.5,19.5860325 28.2245523,19.8708333 27.8836135,19.8708333" id="Fill-15"></path>
                <path d="M1.96183891,8.4691846 C1.78564334,18.3813679 5.16595029,24.8549534 8.08488965,28.573506 C8.96383057,29.6943148 10.308213,30.3333637 11.7615718,30.3226188 C13.2342816,30.3135789 14.5817194,29.649799 15.4576049,28.5022807 C20.7292135,21.6003543 21.6163022,11.5704515 21.7639805,8.4691846 L1.96183891,8.4691846 Z M11.7299992,32.2208333 C9.66861285,32.2208333 7.77629278,31.3127112 6.52968365,29.723992 C3.32964615,25.6453561 -0.394904173,18.4753457 0.0338723339,7.48390171 C0.0542417642,6.97444319 0.486073686,6.57083333 1.01058652,6.57083333 L22.7722673,6.57083333 C23.3110388,6.57083333 23.7489815,6.99521723 23.75,7.51852511 C23.75,8.06161778 23.6909287,20.9078864 17.028088,29.6339711 C15.7824973,31.2642384 13.8667524,32.2079732 11.7748119,32.2208333 L11.7299992,32.2208333 Z" id="Fill-1"></path>
            </g>
        </g>
    </g>
</svg>