<svg xmlns="http://www.w3.org/2000/svg" xmlns:xlink="http://www.w3.org/1999/xlink" width="34" height="34" viewBox="0 0 34 34">
    <defs>
        <path id="a" d="M0 23.52h28.175V0H0z"/>
    </defs>
    <g fill="none" fill-rule="evenodd">
        <g transform="translate(2 5)">
            <path fill="#1F1F1F" d="M19.067 22.44h7.142v-8.816h-7.143l-.917.924a.54.54 0 0 1-.76.005l-.95-.93H1.966v8.818h14.428l.948-1.23a.54.54 0 0 1 .87.018l.855 1.212zm7.681 1.08h-7.96a.54.54 0 0 1-.44-.227l-.597-.844-.665.86a.538.538 0 0 1-.427.21H1.426a.54.54 0 0 1-.539-.54v-9.895a.54.54 0 0 1 .54-.54h15.232a.54.54 0 0 1 .378.154l.723.709.697-.703a.537.537 0 0 1 .383-.16h7.908a.54.54 0 0 1 .54.54v9.896a.54.54 0 0 1-.54.54z"/>
            <path fill="#1F1F1F" d="M17.941 15.962a.216.216 0 0 1-.216-.216v-.504a.216.216 0 1 1 .432 0v.504a.216.216 0 0 1-.216.216M17.941 17.675a.216.216 0 0 1-.216-.216v-.856a.216.216 0 1 1 .432 0v.856a.216.216 0 0 1-.216.216m0 1.713a.215.215 0 0 1-.216-.216v-.856a.216.216 0 1 1 .432 0v.856c0 .12-.097.216-.216.216M17.941 20.748a.216.216 0 0 1-.216-.216v-.503a.216.216 0 1 1 .432 0v.503a.216.216 0 0 1-.216.216M14.342 15.603H3.545a.36.36 0 1 1 0-.72h10.797a.36.36 0 1 1 0 .72M9.844 17.127H3.546a.36.36 0 1 1 0-.72h6.298a.36.36 0 1 1 0 .72M6.245 21.085h-2.7a.36.36 0 1 1 0-.72h2.7a.36.36 0 1 1 0 .72"/>
            <mask id="b" fill="#fff">
                <use xlink:href="#a"/>
            </mask>
            <path fill="#1F1F1F" d="M19.988 20.834h4.791v-5.692h-4.791v5.692zm5.151.72h-5.511a.36.36 0 0 1-.36-.359v-6.414a.36.36 0 0 1 .36-.359h5.511a.36.36 0 0 1 .36.36v6.413a.36.36 0 0 1-.36.36zM1.2 13.573a.539.539 0 0 1-.487-.306l-.66-1.372a.539.539 0 0 1 .25-.718l13.685-6.691a.547.547 0 0 1 .407-.027l.96.319.319-.937a.54.54 0 0 1 .274-.313L23.052.055a.54.54 0 0 1 .722.248l4.347 8.89a.54.54 0 0 1-.248.724l-6.627 3.239a.539.539 0 1 1-.474-.97l6.142-3.003-3.873-7.921-6.417 3.137-.417 1.234a.54.54 0 0 1-.681.339l-1.262-.42-13.005 6.359.427.889a.54.54 0 0 1-.486.773" mask="url(#b)"/>
            <path fill="#1F1F1F" d="M16.546 7.017a.216.216 0 0 1-.194-.121l-.222-.453a.217.217 0 0 1 .389-.19l.22.452a.216.216 0 0 1-.193.312M17.44 8.846a.216.216 0 0 1-.194-.12l-.448-.916a.217.217 0 0 1 .39-.19l.446.914a.217.217 0 0 1-.194.312m.894 1.83a.216.216 0 0 1-.194-.122l-.447-.915a.216.216 0 0 1 .388-.189l.447.914a.216.216 0 0 1-.194.311M19.003 12.042a.216.216 0 0 1-.194-.12l-.222-.454a.217.217 0 0 1 .389-.19l.22.453a.216.216 0 0 1-.193.311M3.392 13.03a.36.36 0 0 1-.158-.683l9.699-4.742a.36.36 0 0 1 .316.648L3.55 12.995a.371.371 0 0 1-.158.036M6.479 13.25a.36.36 0 0 1-.161-.683l3.24-1.615a.36.36 0 1 1 .322.645l-3.241 1.614a.365.365 0 0 1-.16.038M18.119 5.358l2.5 5.115 4.305-2.104-2.501-5.115-4.304 2.104zm2.335 5.956a.364.364 0 0 1-.323-.202L17.314 5.35a.36.36 0 0 1 .166-.481l4.951-2.42a.357.357 0 0 1 .48.165l2.817 5.76a.36.36 0 0 1-.165.482l-4.951 2.42a.376.376 0 0 1-.158.037z" mask="url(#b)"/>
        </g>
        <path d="M0 0h34v34H0z"/>
    </g>
</svg>
