<?xml version="1.0" encoding="UTF-8"?>
<svg width="24px" height="24px" viewBox="0 0 24 24" version="1.1" xmlns="http://www.w3.org/2000/svg" xmlns:xlink="http://www.w3.org/1999/xlink">
    <!-- Generator: Sketch 55.2 (78181) - https://sketchapp.com -->
    <title>icon/search/inactive</title>
    <desc>Created with Sketch.</desc>
    <defs>
        <polygon id="path-1" points="0 0 16 0 16 17 0 17"></polygon>
    </defs>
    <g id="icon/search/inactive" stroke="none" stroke-width="1" fill="none" fill-rule="evenodd">
        <rect id="Rectangle" x="0" y="0" width="24" height="24"></rect>
        <g id="icon_Search" opacity="0.837890625" transform="translate(4.000000, 4.000000)">
            <mask id="mask-2" fill="white">
                <use xlink:href="#path-1"></use>
            </mask>
            <g id="Clip-2"></g>
            <path d="M6.69109617,1.79054173 C9.41844515,1.79054173 11.636689,4.06632026 11.636689,6.86374329 C11.636689,9.66146473 9.41844515,11.9369448 6.69109617,11.9369448 C3.9640381,11.9369448 1.74550335,9.66146473 1.74550335,6.86374329 C1.74550335,4.06632026 3.9640381,1.79054173 6.69109617,1.79054173 M15.7569496,15.4843064 L11.812403,11.2762349 C12.8265404,10.0395675 13.3821923,8.4835867 13.3821923,6.86374329 C13.3821923,3.07913492 10.3805084,0 6.69109617,0 C3.00168392,0 0,3.07913492 0,6.86374329 C0,10.6483516 3.00168392,13.7274866 6.69109617,13.7274866 C8.07615307,13.7274866 9.39604452,13.2989503 10.5245124,12.4854475 L14.4987326,16.7254503 C14.6648464,16.9024155 14.8882708,17 15.1276957,17 C15.3543202,17 15.569308,16.9113682 15.7328035,16.7502194 C16.0792859,16.4079275 16.0903408,15.8406242 15.7569496,15.4843064" id="Fill-1" fill="#292929" mask="url(#mask-2)"></path>
        </g>
    </g>
</svg>