<?xml version="1.0" encoding="UTF-8"?>
<svg width="91px" height="78px" viewBox="0 0 91 78" version="1.1" xmlns="http://www.w3.org/2000/svg" xmlns:xlink="http://www.w3.org/1999/xlink">
    <!-- Generator: Sketch 55.2 (78181) - https://sketchapp.com -->
    <title>Home_card03</title>
    <desc>Created with Sketch.</desc>
    <g id="Page-1" stroke="none" stroke-width="1" fill="none" fill-rule="evenodd" opacity="0.8">
        <g id="Home_some3" transform="translate(-102.000000, -307.000000)">
            <g id="Home_card03" transform="translate(80.000000, 278.000000)">
                <rect id="Rectangle" fill="#FFFFFF" fill-rule="nonzero" x="47.748664" y="76.8592713" width="63.5951417" height="22.4262348" rx="1"></rect>
                <path d="M110.793198,77.4098785 L110.793198,98.7348988 L48.2992713,98.7348988 L48.2992713,77.4098785 L110.793198,77.4098785 L110.793198,77.4098785 Z M110.793198,76.308664 L48.2992713,76.308664 C47.6910872,76.308664 47.1980567,76.8016945 47.1980567,77.4098785 L47.1980567,98.7348988 C47.1980567,99.3430828 47.6910872,99.8361134 48.2992713,99.8361134 L110.793198,99.8361134 C111.401382,99.8361134 111.894413,99.3430828 111.894413,98.7348988 L111.894413,77.4098785 C111.894413,76.8016945 111.401382,76.308664 110.793198,76.308664 Z" id="Shape" fill="#FFFFFF" fill-rule="nonzero"></path>
                <path d="M48.2992713,99.5608097 C47.8431332,99.5608097 47.4733603,99.1910368 47.4733603,98.7348988 L47.4733603,77.4098785 C47.4733603,76.9537405 47.8431332,76.5839676 48.2992713,76.5839676 L110.793198,76.5839676 C111.249336,76.5839676 111.619109,76.9537405 111.619109,77.4098785 L111.619109,98.7348988 C111.619109,99.1910368 111.249336,99.5608097 110.793198,99.5608097 L48.2992713,99.5608097 Z M109.967287,97.9089879 L109.967287,78.2357895 L49.1251822,78.2357895 L49.1251822,97.9089879 L109.967287,97.9089879 Z" id="Shape" fill="#1F1F1F" fill-rule="nonzero"></path>
                <path d="M110.793198,77.1345749 C110.945244,77.1345749 111.068502,77.2578325 111.068502,77.4098785 L111.068502,98.7348988 C111.068502,98.8869448 110.945244,99.0102024 110.793198,99.0102024 L48.2992713,99.0102024 C48.1472253,99.0102024 48.0239676,98.8869448 48.0239676,98.7348988 L48.0239676,77.4098785 C48.0239676,77.2578325 48.1472253,77.1345749 48.2992713,77.1345749 L110.793198,77.1345749 L110.793198,77.1345749 Z M48.5745749,98.4595951 L110.517895,98.4595951 L110.517895,77.6851822 L48.5745749,77.6851822 L48.5745749,98.4595951 L48.5745749,98.4595951 Z M110.793198,76.0333603 L48.2992713,76.0333603 C47.5402948,76.0363782 46.9257709,76.6509021 46.922753,77.4098785 L46.922753,98.7348988 C46.922753,99.4951288 47.5390412,100.111417 48.2992713,100.111417 L110.793198,100.111417 C111.553428,100.111417 112.169717,99.4951288 112.169717,98.7348988 L112.169717,77.4098785 C112.166699,76.6509021 111.552175,76.0363782 110.793198,76.0333603 L110.793198,76.0333603 Z M49.6757895,78.7863968 L109.41668,78.7863968 L109.41668,97.3583806 L49.6757895,97.3583806 L49.6757895,78.7863968 Z" id="Shape" fill="#FFFFFF" fill-rule="nonzero"></path>
                <rect id="Rectangle" fill="#FFFFFF" fill-rule="nonzero" x="37.2155466" y="79.3920648" width="64.145749" height="22.9768421" rx="1.5"></rect>
                <path d="M100.535385,80.2179757 L100.535385,101.542996 L38.0414575,101.542996 L38.0414575,80.2179757 L100.535385,80.2179757 L100.535385,80.2179757 Z M100.535385,78.5661538 L38.0414575,78.5661538 C37.1291815,78.5661538 36.3896356,79.3056997 36.3896356,80.2179757 L36.3896356,101.542996 C36.3896356,102.455272 37.1291815,103.194818 38.0414575,103.194818 L100.535385,103.194818 C101.447661,103.194818 102.187206,102.455272 102.187206,101.542996 L102.187206,80.2179757 C102.187206,79.3056997 101.447661,78.5661538 100.535385,78.5661538 L100.535385,78.5661538 Z" id="Shape" fill="#FFFFFF" fill-rule="nonzero"></path>
                <path d="M38.0414575,102.644211 C37.4332735,102.644211 36.9402429,102.15118 36.9402429,101.542996 L36.9402429,80.2179757 C36.9402429,79.6097917 37.4332735,79.1167611 38.0414575,79.1167611 L100.535385,79.1167611 C101.143569,79.1167611 101.636599,79.6097917 101.636599,80.2179757 L101.636599,101.542996 C101.636599,102.15118 101.143569,102.644211 100.535385,102.644211 L38.0414575,102.644211 Z M99.43417,100.441781 L99.43417,81.3191903 L39.1426721,81.3191903 L39.1426721,100.441781 L99.43417,100.441781 Z" id="Shape" fill="#1F1F1F" fill-rule="nonzero"></path>
                <path d="M100.535385,79.9426721 C100.686201,79.9456014 100.807759,80.0671597 100.810688,80.2179757 L100.810688,101.542996 C100.810688,101.695042 100.687431,101.8183 100.535385,101.8183 L38.0414575,101.8183 C37.8894115,101.8183 37.7661538,101.695042 37.7661538,101.542996 L37.7661538,80.2179757 C37.7661538,80.0659297 37.8894115,79.9426721 38.0414575,79.9426721 L100.535385,79.9426721 L100.535385,79.9426721 Z M38.3167611,101.267692 L100.260081,101.267692 L100.260081,80.4932794 L38.3167611,80.4932794 L38.3167611,101.267692 L38.3167611,101.267692 Z M100.535385,78.2908502 L38.0414575,78.2908502 C36.9771355,78.2908502 36.114332,79.1536537 36.114332,80.2179757 L36.114332,101.542996 C36.114332,102.607318 36.9771355,103.470121 38.0414575,103.470121 L100.535385,103.470121 C101.599707,103.470121 102.46251,102.607318 102.46251,101.542996 L102.46251,80.2179757 C102.46251,79.1536537 101.599707,78.2908502 100.535385,78.2908502 L100.535385,78.2908502 Z M39.968583,82.1451012 L98.6082591,82.1451012 L98.6082591,99.6158704 L39.968583,99.6158704 L39.968583,82.1451012 Z" id="Shape" fill="#FFFFFF" fill-rule="nonzero"></path>
                <path d="M41.1523887,105.402754 C40.8951272,105.403188 40.6525587,105.282923 40.497166,105.077895 L38.7462348,102.781862 L37.0008097,105.077895 C36.845417,105.282923 36.6028485,105.403188 36.345587,105.402754 L25.0526316,105.402754 C24.5964936,105.402754 24.2267206,105.03298 24.2267206,104.576842 L24.2267206,83.2518219 C24.2267206,82.7956839 24.5964936,82.4259098 25.0526316,82.4259098 L36.340081,82.4259098 C36.5973424,82.4254755 36.839911,82.5457405 36.9953036,82.7507692 L38.7407287,85.0523077 L40.4916599,82.7507692 C40.6470526,82.5457405 40.8896211,82.4254755 41.1468826,82.4259098 L87.5465587,82.4259098 C88.0026967,82.4259098 88.3724696,82.7956839 88.3724696,83.2518219 L88.3724696,104.576842 C88.3724696,105.03298 88.0026967,105.402754 87.5465587,105.402754 L41.1523887,105.402754 Z" id="Path" fill="#FFFFFF" fill-rule="nonzero"></path>
                <path d="M87.5465587,83.2518219 L87.5465587,104.576842 L41.1523887,104.576842 L38.7462348,101.416356 L36.340081,104.576842 L25.0526316,104.576842 L25.0526316,83.2518219 L36.340081,83.2518219 L38.7462348,86.4453441 L41.1523887,83.2793522 L87.5465587,83.2793522 L87.5465587,83.2518219 Z M87.5465587,81.6275304 L41.1523887,81.6275304 C40.6353688,81.6279557 40.1483725,81.8704351 39.8364372,82.282753 L38.7352227,83.714332 L37.6340081,82.282753 C37.3324941,81.8661589 36.8541549,81.6137587 36.340081,81.6 L25.0526316,81.6 C24.1403556,81.6 23.4008097,82.3395458 23.4008097,83.2518219 L23.4008097,104.576842 C23.4008097,105.489118 24.1403556,106.228666 25.0526316,106.228666 L36.340081,106.228666 C36.85614,106.229546 37.3429569,105.989193 37.6560324,105.578947 L38.757247,104.141862 L39.8584615,105.578947 C40.171537,105.989193 40.658354,106.229546 41.174413,106.228666 L87.5465587,106.228666 C88.4588347,106.228666 89.1983806,105.489118 89.1983806,104.576842 L89.1983806,83.2518219 C89.1983806,82.3395458 88.4588347,81.6 87.5465587,81.6 L87.5465587,81.6275304 Z" id="Shape" fill="#FFFFFF" fill-rule="nonzero"></path>
                <path d="M41.1523887,105.95336 C40.7195264,105.951644 40.3122643,105.748013 40.0511741,105.402753 L38.7407287,103.684858 L37.4412955,105.413765 C37.1791008,105.757694 36.7725408,105.960974 36.340081,105.964372 L25.0526316,105.964372 C24.2924016,105.964372 23.6761134,105.348084 23.6761134,104.587854 L23.6761134,83.2518219 C23.6761134,82.4915918 24.2924016,81.8753036 25.0526316,81.8753036 L36.340081,81.8753036 C36.7729432,81.8770197 37.1802054,82.0806507 37.4412955,82.4259109 L38.7462348,84.1493117 L40.0566802,82.4259109 C40.3177703,82.0806507 40.7250325,81.8770197 41.1578947,81.8753036 L87.5465587,81.8753036 C87.911634,81.8753036 88.2617568,82.0203293 88.5199041,82.2784765 C88.7780513,82.5366237 88.9230769,82.8867465 88.9230769,83.2518219 L88.9230769,104.576842 C88.9230769,105.337072 88.3067887,105.95336 87.5465587,105.95336 L41.1523887,105.95336 Z M86.1700405,103.200324 L86.1700405,84.6283401 L41.8461538,84.6283401 L39.8584615,87.2492308 C39.59338,87.587829 39.1872667,87.7856552 38.757247,87.7856552 C38.3272272,87.7856552 37.921114,87.587829 37.6560324,87.2492308 L35.6683401,84.6283401 L26.4291498,84.6283401 L26.4291498,103.200324 L35.662834,103.200324 L37.6505263,100.579433 C37.9168191,100.242765 38.3224886,100.046406 38.7517409,100.046406 C39.1809932,100.046406 39.5866626,100.242765 39.8529555,100.579433 L41.8461538,103.200324 L86.1700405,103.200324 Z" id="Shape" fill="#1F1F1F" fill-rule="nonzero"></path>
                <path d="M87.5465587,82.7012146 C87.8506507,82.7012146 88.097166,82.9477299 88.097166,83.2518219 L88.097166,104.576842 C88.097166,104.880934 87.8506507,105.127449 87.5465587,105.127449 L41.1523887,105.127449 C40.9819776,105.12704 40.8213595,105.047747 40.7174089,104.912713 L38.7517409,102.324858 L36.7805668,104.912713 C36.6766162,105.047747 36.5159982,105.12704 36.345587,105.127449 L25.0526316,105.127449 C24.7485396,105.127449 24.5020243,104.880934 24.5020243,104.576842 L24.5020243,83.2518219 C24.5020243,82.9477299 24.7485396,82.7012146 25.0526316,82.7012146 L36.340081,82.7012146 C36.5114483,82.7029348 36.6722438,82.7843502 36.7750607,82.9214575 L38.7462348,85.5093117 L40.7449393,82.9214575 C40.8477562,82.7843502 41.0085517,82.7029348 41.179919,82.7012146 L87.5465587,82.7012146 L87.5465587,82.7012146 Z M38.7517409,86.9574089 C38.5803484,86.9600325 38.4175108,86.8826846 38.3112551,86.7481781 L36.0702834,83.8024291 L25.6087449,83.8024291 L25.6087449,104.026235 L36.0702834,104.026235 L38.3112551,101.080486 C38.4154115,100.943982 38.5772853,100.863882 38.7489879,100.863882 C38.9206905,100.863882 39.0825642,100.943982 39.1867206,101.080486 L41.4276923,104.026235 L86.9959514,104.026235 L86.9959514,83.8024291 L41.4276923,83.8024291 L39.1867206,86.7481781 C39.0816526,86.8811454 38.921207,86.9583218 38.7517409,86.9574089 L38.7517409,86.9574089 Z M87.5465587,81.0493909 L41.1523887,81.0493909 C40.464961,81.0502355 39.817351,81.372004 39.4014575,81.9193522 L38.7517409,82.7782996 L38.0965182,81.9193522 C37.6794533,81.3704623 37.0294448,81.0485145 36.340081,81.0493909 L25.0526316,81.0493909 C23.8362635,81.0493909 22.8502024,82.0354538 22.8502024,83.2518219 L22.8502024,104.576842 C22.8502024,105.79321 23.8362635,106.779271 25.0526316,106.779271 L36.340081,106.779271 C37.0275086,106.778428 37.6751186,106.45666 38.0910121,105.909312 L38.7462348,105.05587 L39.3959514,105.909312 C39.8118449,106.45666 40.4594549,106.778428 41.1468826,106.779271 L87.5465587,106.779271 C88.7629267,106.779271 89.7489879,105.79321 89.7489879,104.576842 L89.7489879,83.2518219 C89.7489879,82.0354538 88.7629267,81.0493909 87.5465587,81.0493909 Z M42.2480972,85.454251 L85.3441296,85.454251 L85.3441296,102.374413 L42.2480972,102.374413 L40.5026721,100.083887 C40.0862073,99.5357415 39.4373962,99.213856 38.7489879,99.213856 C38.0605795,99.213856 37.4117685,99.5357415 36.9953036,100.083887 L35.2388664,102.374413 L27.2550607,102.374413 L27.2550607,85.454251 L35.2388664,85.454251 L36.9842915,87.7502834 C37.4007563,88.2984285 38.0495674,88.620314 38.7379757,88.620314 C39.426384,88.620314 40.0751951,88.2984285 40.4916599,87.7502834 L42.237085,85.454251 L42.2480972,85.454251 Z" id="Shape" fill="#FFFFFF" fill-rule="nonzero"></path>
                <path d="M38.6581377,92.7222672 C37.8979076,92.7222672 37.2816194,92.105979 37.2816194,91.345749 L37.2816194,89.9692308 C37.2816194,89.2090007 37.8979076,88.5927126 38.6581377,88.5927126 C39.4183677,88.5927126 40.0346559,89.2090007 40.0346559,89.9692308 L40.0346559,91.345749 C40.0346559,92.105979 39.4183677,92.7222672 38.6581377,92.7222672 Z" id="Path" fill="#1F1F1F" fill-rule="nonzero"></path>
                <path d="M38.6581377,89.4186235 C38.9622297,89.4186235 39.2087449,89.6651388 39.2087449,89.9692308 L39.2087449,91.345749 C39.2087449,91.649841 38.9622297,91.8963563 38.6581377,91.8963563 C38.3540456,91.8963563 38.1075304,91.649841 38.1075304,91.345749 L38.1075304,89.9692308 C38.1075304,89.6651388 38.3540456,89.4186235 38.6581377,89.4186235 L38.6581377,89.4186235 Z M38.6581377,87.7668016 C37.4417696,87.7668016 36.4557085,88.7528627 36.4557085,89.9692308 L36.4557085,91.345749 C36.4557085,92.562117 37.4417696,93.5481781 38.6581377,93.5481781 C39.8745057,93.5481781 40.8605668,92.562117 40.8605668,91.345749 L40.8605668,89.9692308 C40.8605668,88.7528627 39.8745057,87.7668016 38.6581377,87.7668016 Z" id="Shape" fill="#FFFFFF" fill-rule="nonzero"></path>
                <path d="M38.6581377,96.5985425 C37.8979076,96.5985425 37.2816194,95.9822543 37.2816194,95.2220243 L37.2816194,92.7993522 C37.2816194,92.0391222 37.8979076,91.422834 38.6581377,91.422834 C39.4183677,91.422834 40.0346559,92.0391222 40.0346559,92.7993522 L40.0346559,95.2220243 C40.0346559,95.9822543 39.4183677,96.5985425 38.6581377,96.5985425 Z" id="Path" fill="#1F1F1F" fill-rule="nonzero"></path>
                <path d="M38.6581377,92.2487449 C38.9622297,92.2487449 39.2087449,92.4952602 39.2087449,92.7993522 L39.2087449,95.2220243 C39.2087449,95.5261163 38.9622297,95.7726316 38.6581377,95.7726316 C38.3540456,95.7726316 38.1075304,95.5261163 38.1075304,95.2220243 L38.1075304,92.7993522 C38.1075304,92.4952602 38.3540456,92.2487449 38.6581377,92.2487449 L38.6581377,92.2487449 Z M38.6581377,90.5969231 C37.4417696,90.5969231 36.4557085,91.5829842 36.4557085,92.7993522 L36.4557085,95.2220243 C36.4557085,96.4383923 37.4417696,97.4244534 38.6581377,97.4244534 C39.8745057,97.4244534 40.8605668,96.4383923 40.8605668,95.2220243 L40.8605668,92.7993522 C40.8605668,91.5829842 39.8745057,90.5969231 38.6581377,90.5969231 Z" id="Shape" fill="#FFFFFF" fill-rule="nonzero"></path>
                <path d="M38.6581377,99.43417 C37.8991612,99.4311522 37.2846373,98.8166283 37.2816194,98.0576518 L37.2816194,96.6811336 C37.2816194,95.9209036 37.8979076,95.3046154 38.6581377,95.3046154 C39.4183677,95.3046154 40.0346559,95.9209036 40.0346559,96.6811336 L40.0346559,98.0576518 C40.031638,98.8166283 39.4171141,99.4311522 38.6581377,99.43417 Z" id="Path" fill="#1F1F1F" fill-rule="nonzero"></path>
                <path d="M38.6581377,96.1305263 C38.9622297,96.1305263 39.2087449,96.3770416 39.2087449,96.6811336 L39.2087449,98.0576518 C39.2087449,98.3617438 38.9622297,98.6082591 38.6581377,98.6082591 C38.3540456,98.6082591 38.1075304,98.3617438 38.1075304,98.0576518 L38.1075304,96.6811336 C38.1075304,96.3770416 38.3540456,96.1305263 38.6581377,96.1305263 L38.6581377,96.1305263 Z M38.6581377,94.4787045 C37.4417696,94.4787045 36.4557085,95.4647656 36.4557085,96.6811336 L36.4557085,98.0576518 C36.4557085,99.2740199 37.4417696,100.260081 38.6581377,100.260081 C39.8745057,100.260081 40.8605668,99.2740199 40.8605668,98.0576518 L40.8605668,96.6811336 C40.8605668,95.4647656 39.8745057,94.4787045 38.6581377,94.4787045 Z" id="Shape" fill="#FFFFFF" fill-rule="nonzero"></path>
                <path d="M44.8414575,88.9065587 C44.2332735,88.9065587 43.7402429,88.4135281 43.7402429,87.8053441 C43.7402429,87.1971601 44.2332735,86.7041296 44.8414575,86.7041296 L82.3598381,86.7041296 C82.9680221,86.7041296 83.4610526,87.1971601 83.4610526,87.8053441 C83.4610526,88.4135281 82.9680221,88.9065587 82.3598381,88.9065587 L44.8414575,88.9065587 Z" id="Path" fill="#1F1F1F" fill-rule="nonzero"></path>
                <path d="M82.3598381,87.5465587 C82.5118841,87.5465587 82.6351417,87.6698163 82.6351417,87.8218623 C82.6351417,87.9739084 82.5118841,88.097166 82.3598381,88.097166 L44.8414575,88.097166 C44.6894115,88.097166 44.5661538,87.9739084 44.5661538,87.8218623 C44.5661538,87.6698163 44.6894115,87.5465587 44.8414575,87.5465587 L82.3598381,87.5465587 L82.3598381,87.5465587 Z M82.3598381,85.8947368 L44.8414575,85.8947368 C43.7771355,85.8947368 42.914332,86.7575403 42.914332,87.8218623 C42.914332,88.8861844 43.7771355,89.7489879 44.8414575,89.7489879 L82.3598381,89.7489879 C83.4241601,89.7489879 84.2869636,88.8861844 84.2869636,87.8218623 C84.2869636,86.7575403 83.4241601,85.8947368 82.3598381,85.8947368 Z" id="Shape" fill="#FFFFFF" fill-rule="nonzero"></path>
                <path d="M44.8414575,91.0704453 C44.2332735,91.0704453 43.7402429,90.5774148 43.7402429,89.9692308 C43.7402429,89.3610468 44.2332735,88.8680162 44.8414575,88.8680162 L73.4289879,88.8680162 C74.0371719,88.8680162 74.5302024,89.3610468 74.5302024,89.9692308 C74.5302024,90.5774148 74.0371719,91.0704453 73.4289879,91.0704453 L44.8414575,91.0704453 Z" id="Path" fill="#1F1F1F" fill-rule="nonzero"></path>
                <path d="M73.4289879,89.6939271 C73.5810339,89.6939271 73.7042915,89.8171848 73.7042915,89.9692308 C73.7013622,90.1200468 73.5798038,90.2416051 73.4289879,90.2445344 L44.8414575,90.2445344 C44.6894115,90.2445344 44.5661538,90.1212768 44.5661538,89.9692308 C44.5661538,89.8171848 44.6894115,89.6939271 44.8414575,89.6939271 L73.4289879,89.6939271 L73.4289879,89.6939271 Z M73.4289879,88.0421053 L44.8414575,88.0421053 C43.7771355,88.0421053 42.914332,88.9049087 42.914332,89.9692308 C42.914332,91.0335528 43.7771355,91.8963563 44.8414575,91.8963563 L73.4289879,91.8963563 C74.4933099,91.8963563 75.3561134,91.0335528 75.3561134,89.9692308 C75.3561134,88.9049087 74.4933099,88.0421053 73.4289879,88.0421053 L73.4289879,88.0421053 Z" id="Shape" fill="#FFFFFF" fill-rule="nonzero"></path>
                <path d="M45.7004049,101.311741 C45.0922208,101.311741 44.5991903,100.81871 44.5991903,100.210526 L44.5991903,94.0932794 C44.5991903,93.4850953 45.0922208,92.9920648 45.7004049,92.9920648 C46.3085889,92.9920648 46.8016194,93.4850953 46.8016194,94.0932794 L46.8016194,100.210526 C46.8016194,100.81871 46.3085889,101.311741 45.7004049,101.311741 Z" id="Path" fill="#1F1F1F" fill-rule="nonzero"></path>
                <path d="M45.7004049,93.8179757 C45.8524509,93.8179757 45.9757085,93.9412333 45.9757085,94.0932794 L45.9757085,100.210526 C45.9757085,100.362572 45.8524509,100.48583 45.7004049,100.48583 C45.5483589,100.48583 45.4251012,100.362572 45.4251012,100.210526 L45.4251012,94.0932794 C45.4251012,93.9412333 45.5483589,93.8179757 45.7004049,93.8179757 L45.7004049,93.8179757 Z M45.7004049,92.1661538 C44.6373381,92.1691782 43.7763037,93.0302126 43.7732794,94.0932794 L43.7732794,100.210526 C43.7732794,101.274848 44.6360828,102.137652 45.7004049,102.137652 C46.7647269,102.137652 47.6275304,101.274848 47.6275304,100.210526 L47.6275304,94.0932794 C47.6275304,93.0289573 46.7647269,92.1661538 45.7004049,92.1661538 L45.7004049,92.1661538 Z" id="Shape" fill="#FFFFFF" fill-rule="nonzero"></path>
                <path d="M29.9365182,101.311741 C29.3283342,101.311741 28.8353036,100.81871 28.8353036,100.210526 C28.8353036,99.6023423 29.3283342,99.1093117 29.9365182,99.1093117 L32.3481781,99.1093117 C32.9563622,99.1093117 33.4493927,99.6023423 33.4493927,100.210526 C33.4493927,100.81871 32.9563622,101.311741 32.3481781,101.311741 L29.9365182,101.311741 Z" id="Path" fill="#1F1F1F" fill-rule="nonzero"></path>
                <path d="M32.3481781,99.9407287 C32.5002241,99.9407287 32.6234818,100.063986 32.6234818,100.216032 C32.6234818,100.368078 32.5002241,100.491336 32.3481781,100.491336 L29.9420243,100.491336 C29.7899783,100.491336 29.6667206,100.368078 29.6667206,100.216032 C29.6667206,100.063986 29.7899783,99.9407287 29.9420243,99.9407287 L32.3481781,99.9407287 L32.3481781,99.9407287 Z M32.3481781,98.2889069 L29.9420243,98.2889069 C28.8777023,98.2889069 28.0148988,99.1517104 28.0148988,100.216032 C28.0148988,101.280354 28.8777023,102.143158 29.9420243,102.143158 L32.3481781,102.143158 C33.4125002,102.143158 34.2753036,101.280354 34.2753036,100.216032 C34.2753036,99.1517104 33.4125002,98.2889069 32.3481781,98.2889069 Z" id="Shape" fill="#FFFFFF" fill-rule="nonzero"></path>
                <path d="M29.9365182,88.9065587 C29.3283342,88.9065587 28.8353036,88.4135281 28.8353036,87.8053441 C28.8353036,87.1971601 29.3283342,86.7041296 29.9365182,86.7041296 L32.3481781,86.7041296 C32.9563622,86.7041296 33.4493927,87.1971601 33.4493927,87.8053441 C33.4493927,88.4135281 32.9563622,88.9065587 32.3481781,88.9065587 L29.9365182,88.9065587 Z" id="Path" fill="#1F1F1F" fill-rule="nonzero"></path>
                <path d="M32.3481781,87.5465587 C32.5002241,87.5465587 32.6234818,87.6698163 32.6234818,87.8218623 C32.6234818,87.9739084 32.5002241,88.097166 32.3481781,88.097166 L29.9420243,88.097166 C29.7899783,88.097166 29.6667206,87.9739084 29.6667206,87.8218623 C29.6667206,87.6698163 29.7899783,87.5465587 29.9420243,87.5465587 L32.3481781,87.5465587 L32.3481781,87.5465587 Z M32.3481781,85.8947368 L29.9420243,85.8947368 C28.8777023,85.8947368 28.0148988,86.7575403 28.0148988,87.8218623 C28.0148988,88.8861844 28.8777023,89.7489879 29.9420243,89.7489879 L32.3481781,89.7489879 C33.4125002,89.7489879 34.2753036,88.8861844 34.2753036,87.8218623 C34.2753036,86.7575403 33.4125002,85.8947368 32.3481781,85.8947368 Z" id="Shape" fill="#FFFFFF" fill-rule="nonzero"></path>
                <path d="M48.9489879,101.311741 C48.3408038,101.311741 47.8477733,100.81871 47.8477733,100.210526 L47.8477733,94.0932794 C47.8477733,93.4850953 48.3408038,92.9920648 48.9489879,92.9920648 C49.5571719,92.9920648 50.0502024,93.4850953 50.0502024,94.0932794 L50.0502024,100.210526 C50.0502024,100.81871 49.5571719,101.311741 48.9489879,101.311741 Z" id="Path" fill="#1F1F1F" fill-rule="nonzero"></path>
                <path d="M48.9489879,93.8179757 C49.1010339,93.8179757 49.2242915,93.9412333 49.2242915,94.0932794 L49.2242915,100.210526 C49.2242915,100.362572 49.1010339,100.48583 48.9489879,100.48583 C48.7969419,100.48583 48.6736842,100.362572 48.6736842,100.210526 L48.6736842,94.0932794 C48.6736842,93.9412333 48.7969419,93.8179757 48.9489879,93.8179757 L48.9489879,93.8179757 Z M48.9489879,92.1661538 C47.8846658,92.1661538 47.0218623,93.0289573 47.0218623,94.0932794 L47.0218623,100.210526 C47.0218623,101.274848 47.8846658,102.137652 48.9489879,102.137652 C50.0133099,102.137652 50.8761134,101.274848 50.8761134,100.210526 L50.8761134,94.0932794 C50.8761134,93.0289573 50.0133099,92.1661538 48.9489879,92.1661538 L48.9489879,92.1661538 Z" id="Shape" fill="#FFFFFF" fill-rule="nonzero"></path>
                <path d="M52.7812146,101.311741 C52.1730306,101.311741 51.68,100.81871 51.68,100.210526 L51.68,94.0932794 C51.68,93.4850953 52.1730306,92.9920648 52.7812146,92.9920648 L68.1596761,92.9920648 C68.7678601,92.9920648 69.2608907,93.4850953 69.2608907,94.0932794 L69.2608907,100.210526 C69.2608907,100.81871 68.7678601,101.311741 68.1596761,101.311741 L52.7812146,101.311741 Z M67.0584615,99.1093117 L67.0584615,95.2220243 L53.8824291,95.2220243 L53.8824291,99.1093117 L67.0584615,99.1093117 Z" id="Shape" fill="#1F1F1F" fill-rule="nonzero"></path>
                <path d="M68.1651822,93.8179757 C68.3172282,93.8179757 68.4404858,93.9412333 68.4404858,94.0932794 L68.4404858,100.210526 C68.4404858,100.362572 68.3172282,100.48583 68.1651822,100.48583 L52.7812146,100.48583 C52.6291686,100.48583 52.5059109,100.362572 52.5059109,100.210526 L52.5059109,94.0932794 C52.5059109,93.9412333 52.6291686,93.8179757 52.7812146,93.8179757 L68.1651822,93.8179757 L68.1651822,93.8179757 Z M53.0565182,99.9076923 L67.8898785,99.9076923 L67.8898785,94.368583 L53.0565182,94.368583 L53.0565182,99.9076923 L53.0565182,99.9076923 Z M68.1651822,92.1661538 L52.7812146,92.1661538 C51.7168925,92.1661538 50.8540891,93.0289573 50.8540891,94.0932794 L50.8540891,100.210526 C50.8540891,101.274848 51.7168925,102.137652 52.7812146,102.137652 L68.1651822,102.137652 C69.228249,102.134627 70.0892833,101.273593 70.0923077,100.210526 L70.0923077,94.0932794 C70.0892833,93.0302126 69.228249,92.1691782 68.1651822,92.1661538 L68.1651822,92.1661538 Z M54.7083401,96.0204049 L66.2380567,96.0204049 L66.2380567,98.2558704 L54.7083401,98.2558704 L54.7083401,96.0204049 Z" id="Shape" fill="#FFFFFF" fill-rule="nonzero"></path>
                <path d="M30.5862348,97.8649393 C30.4387418,97.8649393 30.2920943,97.8426672 30.1512551,97.7988664 C29.6597528,97.6343961 29.3008894,97.2097057 29.2207287,96.6976518 L29.0830769,95.7616194 L28.185587,95.3376518 C27.7044273,95.110095 27.397575,94.6255357 27.397575,94.0932794 C27.397575,93.561023 27.7044273,93.0764637 28.185587,92.8489069 L29.0830769,92.4249393 L29.2207287,91.4889069 C29.3008894,90.976853 29.6597528,90.5521626 30.1512551,90.3876923 C30.2920943,90.3438915 30.4387418,90.3215937 30.5862348,90.3215937 C30.9475534,90.3193875 31.2946644,90.4621989 31.5497976,90.7180567 L32.265587,91.4008097 L33.2842105,91.2301215 L33.5154656,91.2301215 C33.9996469,91.2317881 34.4473487,91.4877135 34.6944652,91.904088 C34.9415818,92.3204625 34.9517701,92.8360504 34.7212955,93.2618623 L34.2697976,94.0877733 L34.7212955,94.9081781 C34.9654338,95.3692862 34.9314337,95.9281634 34.6331984,96.3562753 C34.379079,96.713289 33.970155,96.9279741 33.5319838,96.934413 C33.4532617,96.9423248 33.3739448,96.9423248 33.2952227,96.934413 L32.2821053,96.7692308 L31.5497976,97.4574899 C31.2964947,97.7173913 30.9491544,97.8642666 30.5862348,97.8649393 L30.5862348,97.8649393 Z" id="Path" fill="#1F1F1F" fill-rule="nonzero"></path>
                <path d="M30.5862348,91.1475204 C30.7299035,91.1466673 30.8682192,91.2019936 30.9716599,91.3017004 L31.9847773,92.3038057 L33.4218623,92.0670445 L33.5154656,92.0670445 C33.6926826,92.067864 33.8586724,92.1539328 33.9614575,92.2982996 C34.0833627,92.4704565 34.0961932,92.6971295 33.9944939,92.8819433 L33.3282591,94.0987854 L33.9944939,95.3156275 C34.0874984,95.4855944 34.0843263,95.6919346 33.9861411,95.8589623 C33.8879559,96.02599 33.7092093,96.1291208 33.5154656,96.1305263 L33.4218623,96.1305263 L31.9847773,95.8937652 L30.9716599,96.9068826 C30.8691035,97.0086041 30.7306811,97.0659505 30.5862348,97.0665587 C30.5263139,97.0682357 30.4665938,97.0589044 30.4100405,97.0390283 C30.2141386,96.9730849 30.0716732,96.8029769 30.0411336,96.5985425 L29.8319028,95.2330364 L28.5379757,94.6163563 C28.3467587,94.5252844 28.2247291,94.332606 28.2241296,94.1208097 C28.2247291,93.9090134 28.3467587,93.7163351 28.5379757,93.6252632 L29.8319028,93.008583 L30.0411336,91.6430769 C30.0716732,91.4386426 30.2141386,91.2685345 30.4100405,91.2025911 C30.4665938,91.182715 30.5263139,91.1733838 30.5862348,91.1750607 L30.5862348,91.1475204 Z M30.9661538,95.3651822 L31.4121457,94.9246964 C31.5155864,94.8249896 31.6539022,94.7696633 31.7975709,94.7705263 L31.885668,94.7705263 L32.48583,94.8696356 L32.2215385,94.3795951 C32.1231819,94.2092367 32.1231819,93.9993463 32.2215385,93.8289879 L32.48583,93.3389474 L31.885668,93.4380567 L31.7920648,93.4380567 C31.6487504,93.4345537 31.512453,93.3752939 31.4121457,93.2728745 L30.9661538,92.8378947 L30.8780567,93.4215385 C30.8517284,93.6038145 30.7360123,93.7608579 30.5697166,93.84 L30.0576518,94.0822672 L30.5697166,94.3245344 C30.7360123,94.4036766 30.8517284,94.5607199 30.8780567,94.742996 L30.9661538,95.3266397 L30.9661538,95.3651822 Z M30.5862348,89.4846713 C30.3527728,89.4835927 30.1205656,89.5188882 29.8979757,89.5893117 C29.1079313,89.8479556 28.5308309,90.5294025 28.40583,91.3512551 L28.3287449,91.8523077 L27.8331984,92.0945749 C27.0671305,92.4601568 26.5793331,93.2334385 26.5793331,94.0822672 C26.5793331,94.9310959 27.0671305,95.7043776 27.8331984,96.0699595 L28.334251,96.3067206 L28.411336,96.8077733 C28.5342372,97.6281396 29.1076562,98.3098677 29.8948415,98.5714876 C30.6820267,98.8331075 31.5494405,98.6302382 32.1389474,98.0466397 L32.5519028,97.6391903 L33.1575709,97.7382996 C33.2778733,97.756306 33.3993296,97.7655073 33.5209717,97.76583 C34.2972409,97.7649517 35.015723,97.3554825 35.4121171,96.6880497 C35.8085112,96.020617 35.8242725,95.1937958 35.4536032,94.5117409 L35.2168421,94.0822672 L35.4480972,93.6582996 C35.8210318,92.9767132 35.8072591,92.1490569 35.4118532,91.4802561 C35.0164473,90.8114553 34.2979126,90.4004658 33.5209717,90.3987045 C33.3954315,90.3985208 33.270127,90.4095771 33.1465587,90.4317409 L32.5519028,90.5253441 L32.1389474,90.1178947 C31.7264736,89.7116889 31.1706515,89.4842173 30.5917409,89.4846713 L30.5862348,89.4846713 Z" id="Shape" fill="#FFFFFF" fill-rule="nonzero"></path>
                <path d="M67.2126316,62.9013765 C66.9370737,62.9005299 66.6718465,62.7964037 66.4693117,62.6095547 C66.3977328,62.5434818 59.3554656,56.0848583 57.3237247,54.0531174 C55.4076113,52.137004 50.925668,47.6550607 50.925668,42.9473684 C50.925668,37.7991903 54.8294737,33.5870445 59.6197571,33.5870445 C62.8201283,33.6521939 65.7333293,35.448176 67.2291498,38.2782186 C68.7838384,35.4414248 71.7364636,33.6522096 74.9706883,33.5870445 C79.7664777,33.5870445 83.6923077,37.7716599 83.6923077,42.9473684 C83.6923077,47.6825911 79.2103644,52.1645344 77.294251,54.0806478 C75.257004,56.1178947 68.2753036,62.3782996 67.9779757,62.6480972 C67.7640454,62.8262263 67.4905896,62.9167224 67.2126316,62.9013765 Z M59.6197571,35.7894737 C56.0408097,35.7894737 53.1280972,38.988502 53.1280972,42.9473684 C53.1280972,46.768583 57.1585425,50.7990283 58.8819433,52.5224291 C60.4787045,54.1191903 65.28,58.5791093 67.2236437,60.3355466 C69.20583,58.557085 74.1117409,54.1191903 75.708502,52.5224291 C77.4319028,50.771498 81.4898785,46.7410526 81.4898785,42.9473684 C81.4898785,39.0160324 78.577166,35.7894737 74.9982186,35.7894737 C71.7221053,35.7894737 68.7928745,38.459919 68.3358704,41.8461538 C68.3358704,42.4543379 67.8428399,42.9473684 67.2346559,42.9473684 C66.6264719,42.9473684 66.1334413,42.4543379 66.1334413,41.8461538 C65.654413,38.3993522 62.862834,35.7894737 59.6197571,35.7894737 Z" id="Shape" fill="#1F1F1F" fill-rule="nonzero"></path>
                <path d="M74.9706883,34.1376518 C79.4636437,34.1376518 83.1417004,38.08 83.1417004,42.9473684 C83.1417004,47.451336 78.7753846,51.8231579 76.9088259,53.6897166 C74.8880972,55.7104453 67.9063968,61.9488259 67.6090688,62.2351417 C67.5080884,62.3269266 67.3766222,62.3779433 67.2401619,62.3782996 C67.1029651,62.3764411 66.9714054,62.3234245 66.8712551,62.2296356 C66.7996761,62.1690688 59.7574089,55.7104453 57.7421862,53.6897166 C55.8480972,51.7956275 51.4762753,47.4238057 51.4762753,42.9473684 C51.4762753,38.1075304 55.1323077,34.1376518 59.6197571,34.1376518 C63.0283092,34.2104013 66.0449644,36.3620345 67.2236437,39.5611336 C68.4828105,36.3618094 71.5336303,34.2260187 74.9706883,34.1376518 L74.9706883,34.1376518 Z M67.2126316,42.2701215 C66.9344321,42.272481 66.6981815,42.066943 66.6620243,41.7910931 C66.1609717,38.0579757 63.1271255,35.2388664 59.614251,35.2388664 C55.76,35.2388664 52.5719838,38.685668 52.5719838,42.9473684 C52.5719838,46.994332 56.7180567,51.1404049 58.4855061,52.9133603 C60.2529555,54.6863158 65.731498,59.7243725 67.2126316,61.0843725 C68.7212955,59.7298785 74.3705263,54.6477733 76.0939271,52.9133603 C77.8173279,51.1789474 82.0404858,46.9668016 82.0404858,42.9473684 C82.0404858,38.7131984 78.88,35.2388664 74.9982186,35.2388664 C71.4523077,35.2388664 68.2863158,38.1185425 67.7852632,41.7910931 C67.7491059,42.066943 67.5128553,42.272481 67.2346559,42.2701215 L67.2126316,42.2701215 Z M74.9706883,33.0364372 C71.8713417,33.0965358 68.9953407,34.6619021 67.2621862,37.2320648 C65.56868,34.6520771 62.7055923,33.0802667 59.6197571,33.0364372 C54.5211336,33.0364372 50.3750607,37.4412955 50.3750607,42.9473684 C50.3750607,47.902834 54.9726316,52.5059109 56.9327935,54.4660729 C58.9810526,56.514332 66.0288259,62.9784615 66.1004049,63.0445344 C66.401115,63.3206228 66.7934089,63.4755788 67.2016194,63.4795142 C67.6083708,63.478596 68.0004824,63.327633 68.302834,63.0555466 C68.6001619,62.7912551 75.5928745,56.514332 77.6631579,54.4660729 C79.6178138,52.4783806 84.242915,47.902834 84.242915,42.9473684 C84.242915,37.4963563 80.0968421,33.0364372 74.9982186,33.0364372 L74.9706883,33.0364372 Z M67.2126316,43.371336 C68.0453908,43.3787674 68.7534476,42.7651181 68.8644534,41.9397571 C69.2884211,38.8012955 71.9753846,36.340081 74.9817004,36.340081 C78.2853441,36.340081 80.922753,39.291336 80.922753,42.9473684 C80.922753,46.6034008 77.0079352,50.4576518 75.3340891,52.131498 C73.8364372,53.6291498 69.3985425,57.6375709 67.2401619,59.5922267 C65.1148178,57.6375709 60.7760324,53.6291498 59.2838866,52.131498 C57.6320648,50.4796761 53.6897166,46.5373279 53.6897166,42.9473684 C53.6897166,39.3574089 56.3546559,36.340081 59.6307692,36.340081 C62.5985425,36.340081 65.1368421,38.7462348 65.5883401,41.9397571 C65.6993459,42.7651181 66.4074028,43.3787674 67.2401619,43.371336 L67.2126316,43.371336 Z" id="Shape" fill="#FFFFFF" fill-rule="nonzero"></path>
                <path d="M83.8850202,34.1376518 C83.6761732,34.1395761 83.4713436,34.080233 83.2958704,33.9669636 C83.0495938,33.8107554 82.8753384,33.5632336 82.811336,33.2787045 C82.7467946,32.99355 82.798298,32.6944342 82.9544939,32.4472874 L84.242915,30.4045344 C84.4448415,30.0856596 84.7960086,29.8924138 85.1734413,29.8924696 C85.3820267,29.8924209 85.5863364,29.9516134 85.7625911,30.0631579 C86.009411,30.2193853 86.1840473,30.4672766 86.2480702,30.7522821 C86.3120932,31.0372875 86.2602567,31.3360532 86.1039676,31.582834 L84.7935223,33.6145749 C84.5984273,33.9311406 84.2567461,34.1278662 83.8850202,34.1376518 Z" id="Path" fill="#1F1F1F" fill-rule="nonzero"></path>
                <path d="M85.1734413,30.4430769 C85.278944,30.4433503 85.382147,30.473929 85.4707692,30.5311741 C85.5941792,30.6092878 85.6814973,30.7332334 85.7135088,30.8757362 C85.7455203,31.0182389 85.719602,31.1676217 85.6414575,31.2910121 L84.3530364,33.322753 C84.2749227,33.446163 84.1509771,33.5334811 84.0084744,33.5654926 C83.8659716,33.5975041 83.7165888,33.5715858 83.5931984,33.4934413 C83.4697884,33.4153276 83.3824703,33.291382 83.3504588,33.1488792 C83.3184473,33.0063765 83.3443656,32.8569937 83.4225101,32.7336032 L84.7109312,30.7018623 C84.8107145,30.5421959 84.9851654,30.4445865 85.1734413,30.4430769 L85.1734413,30.4430769 Z M85.1734413,29.3418555 C84.6077322,29.3433184 84.0821155,29.6341735 83.7804049,30.1127126 L82.4919838,32.1444534 C82.0039162,32.9153267 82.2331754,33.9358999 83.0040486,34.4239676 C83.7749218,34.9120352 84.7954951,34.682776 85.2835628,33.9119028 L86.5719838,31.8801619 C86.8959522,31.3707959 86.9162588,30.7252706 86.6249461,30.1965494 C86.3336333,29.6678282 85.777102,29.3401268 85.1734413,29.3418555 L85.1734413,29.3418555 Z" id="Shape" fill="#FFFFFF" fill-rule="nonzero"></path>
                <path d="M85.8947368,36.1528745 C85.402495,36.1717569 84.9575896,35.8614329 84.8052748,35.3929687 C84.6529599,34.9245045 84.830291,34.4118687 85.2395142,34.1376518 L87.7392713,32.3536842 C87.9241137,32.2170334 88.1481072,32.1436562 88.3779757,32.144447 C88.8540891,32.1475014 89.2743224,32.4561886 89.4196149,32.9096016 C89.5649075,33.3630145 89.4023496,33.8584525 89.0166802,34.1376518 L86.5169231,35.9271255 C86.3375835,36.064396 86.1203745,36.1432063 85.8947368,36.1528745 Z" id="Path" fill="#1F1F1F" fill-rule="nonzero"></path>
                <path d="M88.3779757,32.711571 C88.5571359,32.7106163 88.7255619,32.7968832 88.8294737,32.942834 C88.9148126,33.0623665 88.9488591,33.2110397 88.9240435,33.3557978 C88.8992278,33.500556 88.8176068,33.6294005 88.6973279,33.7136842 L86.1975709,35.4976518 C86.1046226,35.5649502 85.9929701,35.601526 85.8782186,35.6022752 C85.6990584,35.6032299 85.5306325,35.5169629 85.4267206,35.3710121 C85.3413817,35.2514797 85.3073352,35.1028065 85.3321509,34.9580483 C85.3569666,34.8132901 85.4385875,34.6844457 85.5588664,34.6001619 L88.0586235,32.8161943 C88.1515717,32.7488959 88.2632242,32.7123201 88.3779757,32.711571 L88.3779757,32.711571 Z M88.3779757,31.6103574 L88.3779757,31.6103574 C88.0343244,31.610983 87.699422,31.7187677 87.419919,31.9187045 L84.9201619,33.7026721 C84.176657,34.2317922 84.0028637,35.2634586 84.5319838,36.0069636 C85.0611039,36.7504685 86.0927703,36.9242618 86.8362753,36.3951417 L89.3360324,34.6111741 C89.9244413,34.1953726 90.1754627,33.4461566 89.9563298,32.7597918 C89.7371968,32.0734271 89.0984696,31.6082776 88.3779757,31.6103574 L88.3779757,31.6103574 Z" id="Shape" fill="#FFFFFF" fill-rule="nonzero"></path>
                <path d="M86.9959514,38.8123077 C86.3877674,38.8609624 85.8552944,38.4073743 85.8066397,37.7991903 C85.757985,37.1910063 86.2115731,36.6585333 86.8197571,36.6098785 L89.1983806,36.2299595 C89.2606414,36.2240196 89.3233262,36.2240196 89.385587,36.2299595 C89.9293465,36.2225143 90.3971239,36.6131084 90.4868016,37.1494737 C90.5338838,37.4376767 90.4645643,37.7327797 90.2940891,37.9698785 C90.1272234,38.2109097 89.8681995,38.3723016 89.5782996,38.4158704 L87.188664,38.8123077 C87.124586,38.8187108 87.0600294,38.8187108 86.9959514,38.8123077 L86.9959514,38.8123077 Z" id="Path" fill="#1F1F1F" fill-rule="nonzero"></path>
                <path d="M89.380081,36.7640486 C89.684173,36.7412417 89.9491769,36.9692683 89.9719838,37.2733603 C89.9947907,37.5774523 89.7667641,37.8424563 89.4626721,37.8652632 L87.0730364,38.2561943 L86.9794332,38.2561943 C86.6753412,38.2805217 86.4091047,38.0537276 86.3847773,37.7496356 C86.36045,37.4455436 86.587244,37.1793071 86.891336,37.1549798 L89.2809717,36.7585425 L89.380081,36.7585425 L89.380081,36.7640486 Z M89.380081,35.6573279 L89.380081,35.6573279 C89.2831264,35.6461804 89.1852137,35.6461804 89.0882591,35.6573279 L86.7151417,36.0482591 C86.2717498,36.1164979 85.8751834,36.3621439 85.6165987,36.7287319 C85.3580139,37.09532 85.2596544,37.5513159 85.3441296,37.9919028 C85.4168193,38.4254122 85.6592972,38.8120708 86.0178884,39.0662882 C86.3764796,39.3205056 86.8216068,39.4213133 87.2547368,39.3463968 L89.6278543,38.9554656 C90.0601227,38.8839496 90.446269,38.6436244 90.7013258,38.2873709 C90.9563827,37.9311174 91.0594519,37.4881254 90.9878543,37.0558704 C90.856542,36.2626066 90.1731102,35.6791325 89.3690688,35.6738462 L89.380081,35.6573279 Z" id="Shape" fill="#FFFFFF" fill-rule="nonzero"></path>
                <path d="M46.1133603,54.55417 C45.6952513,54.5536579 45.3134976,54.316408 45.1279154,53.941742 C44.9423331,53.567076 44.9849383,53.1196297 45.2378947,52.7867206 C45.4144914,52.5547643 45.6758603,52.4022991 45.9646964,52.362753 L48.3488259,52.0323887 L48.502996,52.0323887 C49.0575575,52.0273149 49.5293648,52.4354283 49.6042105,52.9849393 C49.6859521,53.5850298 49.2677727,54.1385025 48.6681781,54.2238057 L46.2840486,54.55417 L46.1133603,54.55417 Z" id="Path" fill="#1F1F1F" fill-rule="nonzero"></path>
                <path d="M48.502996,52.5719838 C48.807088,52.5522178 49.0696267,52.7827096 49.0893927,53.0868016 C49.1091587,53.3908936 48.8786669,53.6534324 48.5745749,53.6731984 L46.1904453,54.0035628 L46.1133603,54.0035628 C45.8092683,54.0233287 45.5467296,53.7928369 45.5269636,53.4887449 C45.5071976,53.1846529 45.7376894,52.9221142 46.0417814,52.9023482 L48.4259109,52.5719838 L48.502996,52.5719838 L48.502996,52.5719838 Z M48.502996,51.4707692 L48.502996,51.4707692 C48.4224588,51.4623662 48.3412659,51.4623662 48.2607287,51.4707692 L45.8876113,51.7956275 C44.9753353,51.8579664 44.2863251,52.6480479 44.348664,53.5603239 C44.4110028,54.4725999 45.2010843,55.1616101 46.1133603,55.0992713 C46.1921862,55.1047337 46.2712956,55.1047337 46.3501215,55.0992713 L48.7232389,54.774413 C49.6355149,54.7135946 50.3257577,53.9247457 50.2649393,53.0124696 C50.2041209,52.1001936 49.415272,51.4099508 48.502996,51.4707692 L48.502996,51.4707692 Z" id="Shape" fill="#FFFFFF" fill-rule="nonzero"></path>
                <path d="M47.4788664,58.4855061 C47.1155533,58.485473 46.7756363,58.3062441 46.5703644,58.0064777 C46.4075776,57.7661885 46.3462351,57.4713491 46.3996761,57.1860729 C46.4515524,56.8979818 46.6159966,56.6423999 46.8566802,56.4757895 L49.3894737,54.7413765 C49.5742397,54.6148044 49.7932066,54.5475777 50.017166,54.548664 C50.502918,54.5413612 50.9360674,54.85323 51.0832087,55.3162179 C51.2303501,55.7792058 51.0567161,56.2839153 50.6558704,56.5583806 L48.1175709,58.2927935 C47.9297174,58.4215277 47.7065728,58.4888559 47.4788664,58.4855061 Z" id="Path" fill="#1F1F1F" fill-rule="nonzero"></path>
                <path d="M50.017166,55.0992713 C50.1973377,55.0995678 50.3659662,55.1879949 50.468664,55.3360324 C50.6404518,55.5869134 50.5763613,55.9295511 50.3255061,56.1013765 L47.7927126,57.8412955 C47.700013,57.9036078 47.5905543,57.9362533 47.4788664,57.9348988 C47.2396559,57.9319668 47.0297094,57.7749082 46.9593557,57.5462587 C46.889002,57.3176091 46.974341,57.0696934 47.1705263,56.9327935 L49.7033198,55.1928745 C49.7960194,55.1305623 49.9054781,55.0979167 50.017166,55.0992713 L50.017166,55.0992713 Z M50.017166,53.9980567 L50.017166,53.9980567 C49.6828114,53.9983549 49.3564189,54.1001126 49.0811336,54.2898785 L46.5483401,56.0242915 C46.1849477,56.2686626 45.9365107,56.6502617 45.860081,57.0814575 C45.7702031,57.5633787 45.8990286,58.0603246 46.2117144,58.4378875 C46.5244003,58.8154503 46.988638,59.0346182 47.4788664,59.0361263 C47.8126384,59.0374362 48.1389811,58.9376137 48.4148988,58.7497976 L50.9476923,57.0098785 C51.3100105,56.7634552 51.5595725,56.3831702 51.6414575,55.9527126 C51.7214957,55.5210439 51.6263974,55.0752706 51.377166,54.7138462 C51.0691923,54.2660446 50.5606491,53.9983903 50.017166,53.9980567 L50.017166,53.9980567 Z" id="Shape" fill="#FFFFFF" fill-rule="nonzero"></path>
                <path d="M50.4356275,60.9522267 C50.0297992,60.9514763 49.6572749,60.7275776 49.466177,60.3695569 C49.2750791,60.0115362 49.2963836,59.5774266 49.5216194,59.2398381 L50.8706073,57.2246154 C51.075731,56.921144 51.4183227,56.7395291 51.7846154,56.740081 C52.0045467,56.7375052 52.2199115,56.8028838 52.4012955,56.9272874 C52.9033534,57.2671538 53.0362586,57.9489086 52.6986235,58.4524696 L51.3496356,60.4621862 C51.1457667,60.7677524 50.8029595,60.9515466 50.4356275,60.9522267 L50.4356275,60.9522267 Z" id="Path" fill="#1F1F1F" fill-rule="nonzero"></path>
                <path d="M51.7846154,57.2906869 C51.89443,57.2904431 52.0018094,57.3230404 52.0929555,57.3842915 C52.3422851,57.5540856 52.4085727,57.8928888 52.2416194,58.1441296 L50.8926316,60.1593522 C50.7900697,60.3110879 50.6187739,60.4018954 50.4356275,60.4016208 C50.3258129,60.4018646 50.2184335,60.3692673 50.1272874,60.3080162 C50.0059338,60.2263596 49.9220578,60.0997728 49.8941672,59.9561879 C49.8662766,59.812603 49.8966637,59.6638212 49.9786235,59.5426721 L51.3276113,57.5329555 C51.4301732,57.3812198 51.601469,57.2904123 51.7846154,57.2906869 L51.7846154,57.2906869 Z M51.7846154,56.1894737 L51.7846154,56.1894737 C51.2341381,56.1898789 50.7200355,56.4644799 50.4136032,56.9217814 L49.0646154,58.9149798 C48.5567817,59.6752098 48.7613894,60.7031785 49.5216194,61.2110121 C50.2818495,61.7188458 51.3098182,61.5142381 51.8176518,60.7540081 L53.1666397,58.7442915 C53.6738821,57.9869838 53.4718288,56.9619329 52.7151417,56.4537652 C52.4446088,56.268242 52.123651,56.170225 51.7956275,56.1729555 L51.7846154,56.1894737 Z" id="Shape" fill="#FFFFFF" fill-rule="nonzero"></path>
                <rect id="Rectangle" x="0" y="0" width="135.570526" height="135.570526"></rect>
            </g>
        </g>
    </g>
</svg>