<?xml version="1.0" encoding="UTF-8"?>
<svg width="89px" height="82px" viewBox="0 0 89 82" version="1.1" xmlns="http://www.w3.org/2000/svg" xmlns:xlink="http://www.w3.org/1999/xlink">
    <!-- Generator: Sketch 55.2 (78181) - https://sketchapp.com -->
    <title>Home_card02</title>
    <desc>Created with Sketch.</desc>
    <g id="Page-1" stroke="none" stroke-width="1" fill="none" fill-rule="evenodd" opacity="0.7">
        <g id="Home_some2" transform="translate(-102.000000, -307.000000)">
            <g id="Home_card02" transform="translate(80.000000, 280.000000)">
                <path d="M91.6761134,47.2806478 C91.0679293,47.2806478 90.5748988,46.7876172 90.5748988,46.1794332 L90.5748988,29.0390283 C90.5748988,28.4308443 91.0679293,27.9378138 91.6761134,27.9378138 C96.9276026,28.0631248 101.119504,32.3562466 101.119504,37.6092308 C101.119504,42.8622149 96.9276026,47.1553367 91.6761134,47.2806478 Z M92.7773279,44.9956275 C96.4406246,44.4555624 99.1546159,41.3121232 99.1546159,37.6092308 C99.1546159,33.9063383 96.4406246,30.7628991 92.7773279,30.222834 L92.7773279,44.9956275 Z" id="Shape" fill="#1F1F1F" fill-rule="nonzero"></path>
                <path d="M91.6761134,28.4884211 C96.6261138,28.6100515 100.575561,32.6577362 100.575561,37.6092308 C100.575561,42.5607253 96.6261138,46.60841 91.6761134,46.7300405 C91.3720214,46.7300405 91.1255061,46.4835252 91.1255061,46.1794332 L91.1255061,29.0390283 C91.1255061,28.7349363 91.3720214,28.4884211 91.6761134,28.4884211 L91.6761134,28.4884211 Z M92.2267206,45.6068016 C96.4458881,45.3355367 99.7291942,41.8343565 99.7291942,37.6064777 C99.7291942,33.378599 96.4458881,29.8774188 92.2267206,29.6061538 L92.2267206,45.6068016 L92.2267206,45.6068016 Z M91.6761134,27.3872065 C90.7638373,27.3872065 90.0242915,28.1267523 90.0242915,29.0390283 L90.0242915,46.1794332 C90.0242915,47.0917092 90.7638373,47.8312551 91.6761134,47.8312551 C97.2291646,47.7023668 101.663634,43.1637776 101.663634,37.6092308 C101.663634,32.0546839 97.2291646,27.5160948 91.6761134,27.3872065 L91.6761134,27.3872065 Z M93.3279352,44.3238866 L93.3279352,30.8890688 C96.4228062,31.6464409 98.5996888,34.4202826 98.5996888,37.6064777 C98.5996888,40.7926728 96.4228062,43.5665146 93.3279352,44.3238866 L93.3279352,44.3238866 Z" id="Shape" fill="#FFFFFF" fill-rule="nonzero"></path>
                <path d="M34.7983806,107.632713 C34.1901966,107.632713 33.697166,107.139682 33.697166,106.531498 L33.697166,34.5671255 C33.697166,30.9180214 36.6553493,27.9598381 40.3044534,27.9598381 L91.6761134,27.9598381 C92.2842974,27.9598381 92.7773279,28.4528686 92.7773279,29.0610526 L92.7773279,99.0487449 C92.7742907,103.788281 88.9328961,107.629675 84.1933603,107.632713 L34.7983806,107.632713 Z M84.1933603,105.430283 C87.7165284,105.427247 90.5718629,102.571913 90.5748988,99.0487449 L90.5748988,30.1402429 L40.3209717,30.1402429 C37.8882356,30.1402429 35.9161134,32.1123652 35.9161134,34.5451012 L35.9161134,105.408259 L84.1933603,105.430283 Z" id="Shape" fill="#1F1F1F" fill-rule="nonzero"></path>
                <path d="M91.6761134,28.4884211 C91.9802054,28.4884211 92.2267206,28.7349363 92.2267206,29.0390283 L92.2267206,99.0487449 C92.2206547,103.482932 88.6275477,107.076039 84.1933603,107.082105 L34.7983806,107.082105 C34.4942886,107.082105 34.2477733,106.83559 34.2477733,106.531498 L34.2477733,34.5671255 C34.2477733,31.2221134 36.9594414,28.5104453 40.3044534,28.5104453 L91.6761134,28.5104453 L91.6761134,28.4884211 Z M35.3489879,105.980891 L84.1933603,105.980891 C88.0206203,105.977854 91.1224698,102.876005 91.1255061,99.0487449 L91.1255061,29.5896356 L40.3209717,29.5896356 C37.5841436,29.5896356 35.3655061,31.8082731 35.3655061,34.5451012 L35.3655061,105.958866 L35.3489879,105.980891 Z M91.6761134,27.3872065 L40.3209717,27.3872065 C36.3677756,27.3872065 33.1630769,30.5919051 33.1630769,34.5451012 L33.1630769,106.509474 C33.1630769,107.42175 33.9026228,108.161296 34.8148988,108.161296 L84.2098785,108.161296 C89.2522494,108.155228 93.3383856,104.069092 93.3444534,99.0267206 L93.3444534,29.0390283 C93.3444534,28.1267523 92.6049076,27.3872065 91.6926316,27.3872065 L91.6761134,27.3872065 Z M36.4502024,104.879676 L36.4502024,34.5671255 C36.4502024,32.4384815 38.1758094,30.7128745 40.3044534,30.7128745 L90.0242915,30.7128745 L90.0242915,99.0487449 C90.0212561,102.267821 87.4124365,104.876641 84.1933603,104.879676 L36.4502024,104.879676 Z" id="Shape" fill="#FFFFFF" fill-rule="nonzero"></path>
                <path d="M31.2469636,107.082105 C26.7859338,107.082105 23.1695547,103.465726 23.1695547,99.0046964 C23.1695547,94.5436666 26.7859338,90.9272874 31.2469636,90.9272874 L77.6356275,90.9272874 L77.6356275,92.028502 C74.2163563,92.028502 70.3951417,95.0127935 70.3951417,99.0046964 C70.3951417,102.996599 73.5060729,105.980891 77.6356275,105.980891 L77.6356275,107.082105 L31.2469636,107.082105 Z" id="Path" fill="#FFFFFF" fill-rule="nonzero"></path>
                <path d="M77.6356275,91.4778947 L77.6356275,91.4778947 C73.7813765,91.4778947 69.8445344,94.8476113 69.8445344,99.0046964 C69.8445344,103.161781 73.1481781,106.531498 77.6356275,106.531498 L31.2469636,106.531498 C27.0900258,106.531498 23.7201619,103.161634 23.7201619,99.0046964 C23.7201619,94.8477586 27.0900258,91.4778947 31.2469636,91.4778947 L77.6356275,91.4778947 L77.6356275,91.4778947 Z M77.6356275,90.3766802 L31.2469636,90.3766802 C26.4818418,90.3766802 22.6189474,94.2395746 22.6189474,99.0046964 C22.6189474,103.769818 26.4818418,107.632713 31.2469636,107.632713 L77.6356275,107.632713 L77.6356275,105.430283 C73.819919,105.430283 70.945749,102.677247 70.945749,99.0046964 C70.945749,95.3321457 74.5412146,92.5791093 77.6356275,92.5791093 L77.6356275,90.3766802 L77.6356275,90.3766802 Z" id="Shape" fill="#FFFFFF" fill-rule="nonzero"></path>
                <path d="M31.2469636,107.632713 C26.4818418,107.632713 22.6189474,103.769818 22.6189474,99.0046964 C22.6189474,94.2395746 26.4818418,90.3766802 31.2469636,90.3766802 L77.6356275,90.3766802 C78.2438115,90.3766802 78.7368421,90.8697107 78.7368421,91.4778947 C78.7368421,92.0860788 78.2438115,92.5791093 77.6356275,92.5791093 L77.5640486,92.5791093 C74.4421053,92.6176518 70.9567611,95.3761943 70.9567611,99.0046964 C70.9567611,102.633198 73.8309312,105.430283 77.6466397,105.430283 C78.2548237,105.430283 78.7478543,105.923314 78.7478543,106.531498 C78.7478543,107.139682 78.2548237,107.632713 77.6466397,107.632713 L31.2469636,107.632713 L31.2469636,107.632713 Z M31.2469636,92.5791093 C28.9513224,92.5791093 26.8300624,93.8038192 25.6822417,95.7919028 C24.5344211,97.7799863 24.5344211,100.229406 25.6822417,102.21749 C26.8300624,104.205574 28.9513224,105.430283 31.2469636,105.430283 L71.6505263,105.430283 C69.7651186,103.809189 68.7017938,101.431073 68.75079,98.9450506 C68.7997861,96.4590279 69.9559877,94.124656 71.9038057,92.5791093 L31.2469636,92.5791093 Z" id="Shape" fill="#1F1F1F" fill-rule="nonzero"></path>
                <path d="M77.6356275,90.9272874 C77.9397195,90.9272874 78.1862348,91.1738027 78.1862348,91.4778947 C78.1862348,91.7819867 77.9397195,92.028502 77.6356275,92.028502 L77.5585425,92.028502 C74.1612955,92.0725506 70.4006478,95.0403239 70.4006478,99.0046964 C70.4006478,102.969069 73.5115789,105.980891 77.6411336,105.980891 C77.9452256,105.980891 78.1917409,106.227406 78.1917409,106.531498 C78.1917409,106.83559 77.9452256,107.082105 77.6411336,107.082105 L31.2469636,107.082105 C26.7859338,107.082105 23.1695547,103.465726 23.1695547,99.0046964 C23.1695547,94.5436666 26.7859338,90.9272874 31.2469636,90.9272874 L77.6356275,90.9272874 L77.6356275,90.9272874 Z M31.2469636,105.980891 L73.3794332,105.980891 C70.8500141,104.572497 69.2868728,101.899757 69.2994332,99.0046964 C69.2994332,95.9488259 71.2265587,93.3995142 73.665749,92.028502 L31.2689879,92.028502 C27.4161421,92.028502 24.2927935,95.1518506 24.2927935,99.0046964 C24.2927935,102.857542 27.4161421,105.980891 31.2689879,105.980891 L31.2469636,105.980891 Z M77.6356275,89.8260729 L31.2469636,89.8260729 C26.1777498,89.8260729 22.0683401,93.9354826 22.0683401,99.0046964 C22.0683401,104.07391 26.1777498,108.18332 31.2469636,108.18332 L77.6356275,108.18332 C78.5479036,108.18332 79.2874494,107.443774 79.2874494,106.531498 C79.2874494,105.619222 78.5479036,104.879676 77.6356275,104.879676 C74.1337652,104.879676 71.4963563,102.352389 71.4963563,99.0046964 C71.4963563,95.657004 74.7063968,93.1682591 77.5530364,93.1297166 L77.6356275,93.1297166 C78.5479036,93.1297166 79.2874494,92.3901708 79.2874494,91.4778947 C79.2874494,90.5656187 78.5479036,89.8260729 77.6356275,89.8260729 Z M31.2469636,104.879676 C28.0023019,104.879676 25.3719841,102.249358 25.3719841,99.0046964 C25.3719841,95.7600347 28.0023019,93.1297166 31.2469636,93.1297166 L70.5438057,93.1297166 C69.0615608,94.7301136 68.2257707,96.8235129 68.1982186,99.0046964 C68.1847327,101.15551 68.9426943,103.239905 70.3345749,104.879676 L31.2469636,104.879676 Z" id="Shape" fill="#FFFFFF" fill-rule="nonzero"></path>
                <path d="M100.452794,107.335385 C98.3241495,107.335385 96.5985425,105.609778 96.5985425,103.481134 L96.5985425,101.372308 C96.5985425,100.764124 97.0915731,100.271093 97.6997571,100.271093 L108.546721,100.271093 C109.154905,100.271093 109.647935,100.764124 109.647935,101.372308 L109.647935,103.481134 C109.647935,105.609778 107.922328,107.335385 105.793684,107.335385 L100.452794,107.335385 Z M98.8009717,103.481134 C98.8009717,104.39341 99.5405175,105.132955 100.452794,105.132955 L105.793684,105.132955 C106.70596,105.132955 107.445506,104.39341 107.445506,103.481134 L107.445506,102.473522 L98.8009717,102.473522 L98.8009717,103.481134 Z" id="Shape" fill="#1F1F1F" fill-rule="nonzero"></path>
                <path d="M108.546721,100.8217 C108.850813,100.8217 109.097328,101.068216 109.097328,101.372308 L109.097328,103.481134 C109.097328,105.305686 107.618236,106.784777 105.793684,106.784777 L100.452794,106.784777 C98.6282415,106.784777 97.1491498,105.305686 97.1491498,103.481134 L97.1491498,101.372308 C97.1491498,101.068216 97.3956651,100.8217 97.6997571,100.8217 L108.546721,100.8217 L108.546721,100.8217 Z M100.452794,105.683563 L105.793684,105.683563 C107.010052,105.683563 107.996113,104.697502 107.996113,103.481134 L107.996113,101.922915 L98.2503644,101.922915 L98.2503644,103.481134 C98.2503644,104.697502 99.2364255,105.683563 100.452794,105.683563 L100.452794,105.683563 Z M108.546721,99.7204858 L97.6997571,99.7204858 C96.7874811,99.7204858 96.0479352,100.460032 96.0479352,101.372308 L96.0479352,103.481134 C96.0479352,105.91387 98.0200575,107.885992 100.452794,107.885992 L105.793684,107.885992 C108.22642,107.885992 110.198543,105.91387 110.198543,103.481134 L110.198543,101.372308 C110.198543,100.460032 109.458997,99.7204858 108.546721,99.7204858 Z M99.3515789,103.02413 L106.894899,103.02413 L106.894899,103.481134 C106.894899,104.089318 106.401868,104.582348 105.793684,104.582348 L100.452794,104.582348 C99.8446095,104.582348 99.3515789,104.089318 99.3515789,103.481134 L99.3515789,103.02413 Z" id="Shape" fill="#FFFFFF" fill-rule="nonzero"></path>
                <path d="M100.871255,59.2233198 C100.492348,59.2231568 100.140138,59.0282058 99.9388152,58.7072081 C99.7374926,58.3862105 99.7153375,57.984256 99.8801619,57.6430769 L102.132146,52.9574089 C102.316144,52.5775005 102.701118,52.3362026 103.123239,52.3362026 C103.545359,52.3362026 103.930334,52.5775005 104.114332,52.9574089 L106.366316,57.6430769 C106.53114,57.984256 106.508985,58.3862105 106.307663,58.7072081 C106.10634,59.0282058 105.754129,59.2231568 105.375223,59.2233198 L100.871255,59.2233198 Z M103.624291,57.0208907 L103.123239,55.9747368 L102.622186,57.0208907 L103.624291,57.0208907 Z" id="Shape" fill="#1F1F1F" fill-rule="nonzero"></path>
                <path d="M103.123239,52.8582996 C103.335035,52.8588991 103.527714,52.9809288 103.618785,53.1721457 L105.870769,57.8578138 C105.960752,58.0330591 105.950253,58.2430255 105.843239,58.4084211 C105.742414,58.569741 105.565458,58.6675872 105.375223,58.6672076 L100.871255,58.6672076 C100.681019,58.6675872 100.504064,58.569741 100.403239,58.4084211 C100.304882,58.2380626 100.304882,58.0281723 100.403239,57.8578138 L102.655223,53.1721457 C102.746295,52.9809288 102.938973,52.8588991 103.150769,52.8582996 L103.123239,52.8582996 Z M101.774251,57.5494737 L104.527287,57.5494737 L103.150769,54.6808097 L101.774251,57.5494737 L101.774251,57.5494737 Z M103.123239,51.757085 C102.489102,51.7578676 101.911392,52.1216108 101.636599,52.6931174 L99.3846154,57.3842915 C99.1386631,57.8958147 99.1725593,58.4977896 99.4743809,58.9784685 C99.7762026,59.4591473 100.303674,59.7512028 100.871255,59.7519065 L105.375223,59.7519065 C105.943782,59.7530972 106.472994,59.4618044 106.776138,58.9808005 C107.079283,58.4997966 107.113746,57.8966969 106.867368,57.3842915 L104.615385,52.7151417 C104.339731,52.1418426 103.759364,51.7777744 103.123239,51.7791093 L103.123239,51.757085 Z" id="Shape" fill="#FFFFFF" fill-rule="nonzero"></path>
                <path d="M105.303644,67.3337652 C105.154174,67.3342241 105.006176,67.3042498 104.868664,67.245668 L103.106721,66.491336 L101.157571,67.2566802 C101.030141,67.3091573 100.89343,67.3353757 100.755628,67.3337652 C100.585543,67.3335837 100.417813,67.2940068 100.265587,67.2181377 L97.2097166,65.7094737 C96.9498072,65.5793454 96.7518862,65.3517363 96.6591093,65.0762753 C96.545427,64.7397022 96.6011955,64.3689584 96.8086162,64.0806165 C97.016135,63.7922745 97.3500107,63.6217542 97.7052632,63.6226721 C97.8736546,63.6222803 98.0397286,63.6619116 98.1897976,63.7382996 L100.810688,65.0322267 L102.726802,64.2778947 C102.855,64.2280403 102.991198,64.2019202 103.128745,64.2008097 C103.278067,64.2018126 103.42578,64.2317293 103.563725,64.2889069 L105.292632,65.0267206 L108.089717,63.7272874 C108.235648,63.6570242 108.395773,63.6212316 108.557733,63.6226721 C108.985843,63.6237533 109.374526,63.8728542 109.554332,64.2613765 C109.676656,64.5266865 109.68854,64.8297312 109.587368,65.1038057 C109.490886,65.3730725 109.29342,65.5942342 109.036761,65.7204858 L105.788178,67.2291498 C105.637745,67.3033878 105.471306,67.3393236 105.303644,67.3337652 L105.303644,67.3337652 Z" id="Path" fill="#1F1F1F" fill-rule="nonzero"></path>
                <path d="M108.552227,64.1732794 C108.811869,64.171871 109.03721,64.3520404 109.092973,64.6056278 C109.148735,64.8592152 109.019763,65.1172963 108.783482,65.2249393 L105.534899,66.7336032 C105.462313,66.7666772 105.383408,66.7835855 105.303644,66.7831579 C105.22964,66.7850719 105.156181,66.7700035 105.088907,66.7391093 L103.117733,65.8966802 L100.959352,66.7446154 C100.817342,66.8075192 100.65537,66.8075192 100.51336,66.7446154 L97.4574899,65.2194332 C97.2251208,65.1069592 97.1020954,64.8481426 97.1615923,64.5969337 C97.2210891,64.3457248 97.4471312,64.169582 97.7052632,64.1732794 C97.7891591,64.172936 97.8720241,64.1917689 97.9475304,64.2283401 L100.761134,65.6323887 L102.902996,64.7899595 C102.965677,64.7634904 103.033182,64.7503642 103.101215,64.751417 C103.175022,64.7515589 103.248048,64.7665386 103.315951,64.7954656 L105.270607,65.6323887 L108.293441,64.222834 C108.368085,64.1901177 108.448704,64.1732222 108.530202,64.1732794 L108.552227,64.1732794 Z M108.530202,63.0720648 L108.530202,63.0720648 C108.288758,63.0727573 108.050283,63.1253346 107.830931,63.2262348 L105.276113,64.4210526 L103.772955,63.7768421 C103.56754,63.6893349 103.346516,63.6443809 103.123239,63.6446964 C102.917645,63.6446449 102.713936,63.6838916 102.523077,63.7603239 L100.832713,64.4210526 L98.4265587,63.237247 C97.8947546,62.9549476 97.251473,62.9843653 96.7476541,63.3140243 C96.2438353,63.6436834 95.9592914,64.2213611 96.0050215,64.8217087 C96.0507515,65.4220564 96.4195111,65.9499702 96.9674494,66.1995142 L100.02332,67.7081781 C100.251383,67.8196943 100.501761,67.8780531 100.755628,67.8788664 C100.960628,67.8780312 101.163846,67.8407434 101.355789,67.7687449 L103.095709,67.0804858 L104.653927,67.7467206 C105.083099,67.9387 105.573743,67.9387 106.002915,67.7467206 L109.245992,66.2380567 C109.644801,66.0528401 109.953302,65.7162553 110.103158,65.3028583 C110.253014,64.8894614 110.231857,64.4333756 110.044372,64.0356275 C109.773483,63.4558915 109.192127,63.0847677 108.552227,63.0830769 L108.530202,63.0720648 Z" id="Shape" fill="#FFFFFF" fill-rule="nonzero"></path>
                <path d="M105.435789,93.99417 C104.827605,93.99417 104.334575,93.5011395 104.334575,92.8929555 L104.334575,70.0757895 C104.334575,69.4676055 104.827605,68.9745749 105.435789,68.9745749 C106.043973,68.9745749 106.537004,69.4676055 106.537004,70.0757895 L106.537004,92.8929555 C106.537004,93.5011395 106.043973,93.99417 105.435789,93.99417 L105.435789,93.99417 Z" id="Path" fill="#1F1F1F" fill-rule="nonzero"></path>
                <path d="M105.435789,69.5251822 C105.739881,69.5251822 105.986397,69.7716975 105.986397,70.0757895 L105.986397,92.8929555 C105.986397,93.1970475 105.739881,93.4435628 105.435789,93.4435628 C105.131697,93.4435628 104.885182,93.1970475 104.885182,92.8929555 L104.885182,70.0757895 C104.885182,69.7716975 105.131697,69.5251822 105.435789,69.5251822 L105.435789,69.5251822 Z M105.435789,68.4239676 C104.523513,68.4239676 103.783968,69.1635134 103.783968,70.0757895 L103.783968,92.8929555 C103.783968,93.8052315 104.523513,94.5447773 105.435789,94.5447773 C106.348065,94.5447773 107.087611,93.8052315 107.087611,92.8929555 L107.087611,70.0757895 C107.087611,69.1635134 106.348065,68.4239676 105.435789,68.4239676 Z" id="Shape" fill="#FFFFFF" fill-rule="nonzero"></path>
                <path d="M100.970364,98.371498 C100.36218,98.371498 99.8691498,97.8784674 99.8691498,97.2702834 L99.8691498,70.0757895 C99.8691498,69.4676055 100.36218,68.9745749 100.970364,68.9745749 C101.578548,68.9745749 102.071579,69.4676055 102.071579,70.0757895 L102.071579,97.2702834 C102.071579,97.8784674 101.578548,98.371498 100.970364,98.371498 Z" id="Path" fill="#1F1F1F" fill-rule="nonzero"></path>
                <path d="M100.970364,69.5251822 C101.274456,69.5251822 101.520972,69.7716975 101.520972,70.0757895 L101.520972,97.2702834 C101.520972,97.5743754 101.274456,97.8208907 100.970364,97.8208907 C100.666272,97.8208907 100.419757,97.5743754 100.419757,97.2702834 L100.419757,70.0757895 C100.419757,69.7716975 100.666272,69.5251822 100.970364,69.5251822 L100.970364,69.5251822 Z M100.970364,68.4239676 C100.058088,68.4239676 99.3185425,69.1635134 99.3185425,70.0757895 L99.3185425,97.2702834 C99.3185425,98.1825594 100.058088,98.9221053 100.970364,98.9221053 C101.88264,98.9221053 102.622186,98.1825594 102.622186,97.2702834 L102.622186,70.0757895 C102.622186,69.1635134 101.88264,68.4239676 100.970364,68.4239676 Z" id="Shape" fill="#FFFFFF" fill-rule="nonzero"></path>
                <path d="M105.435789,97.6006478 C104.827605,97.6006478 104.334575,97.1076172 104.334575,96.4994332 L104.334575,95.7451012 C104.334575,95.1369172 104.827605,94.6438866 105.435789,94.6438866 C106.043973,94.6438866 106.537004,95.1369172 106.537004,95.7451012 L106.537004,96.4994332 C106.537004,97.1076172 106.043973,97.6006478 105.435789,97.6006478 Z" id="Path" fill="#1F1F1F" fill-rule="nonzero"></path>
                <path d="M105.435789,95.1944939 C105.739881,95.1944939 105.986397,95.4410092 105.986397,95.7451012 L105.986397,96.4994332 C105.986397,96.8035252 105.739881,97.0500405 105.435789,97.0500405 C105.131697,97.0500405 104.885182,96.8035252 104.885182,96.4994332 L104.885182,95.7451012 C104.885182,95.4410092 105.131697,95.1944939 105.435789,95.1944939 L105.435789,95.1944939 Z M105.435789,94.0932794 C104.523513,94.0932794 103.783968,94.8328252 103.783968,95.7451012 L103.783968,96.4994332 C103.783968,97.4117092 104.523513,98.1512551 105.435789,98.1512551 C106.348065,98.1512551 107.087611,97.4117092 107.087611,96.4994332 L107.087611,95.7451012 C107.087611,94.8328252 106.348065,94.0932794 105.435789,94.0932794 Z" id="Shape" fill="#FFFFFF" fill-rule="nonzero"></path>
                <path d="M97.6997571,102.198219 C97.2436191,102.198219 96.8738462,101.828446 96.8738462,101.372308 L96.8738462,64.7238866 C96.8749889,64.6005936 96.9012163,64.4788233 96.9509312,64.3659919 L102.379919,53.0730364 C102.519337,52.7890944 102.80693,52.6080173 103.123239,52.6050202 C103.440308,52.6050202 103.729162,52.7872832 103.866559,53.0730364 L109.295547,64.3659919 C109.345711,64.4786771 109.371958,64.6005418 109.372632,64.7238866 L109.372632,101.372308 C109.372632,101.828446 109.002859,102.198219 108.546721,102.198219 L97.6997571,102.198219 Z M107.72081,100.546397 L107.72081,64.9110931 L103.123239,55.3415385 L98.525668,64.9110931 L98.525668,100.546397 L107.72081,100.546397 Z" id="Shape" fill="#1F1F1F" fill-rule="nonzero"></path>
                <path d="M103.123239,52.8582996 C103.335035,52.8588991 103.527714,52.9809288 103.618785,53.1721457 L109.047773,64.4651012 C109.081637,64.5393727 109.098564,64.6202444 109.097391,64.7018623 L109.097391,101.350283 C109.097391,101.654375 108.850813,101.900891 108.546721,101.900891 L97.6997571,101.900891 C97.3956651,101.900891 97.1490814,101.654375 97.1490814,101.350283 L97.1490814,64.7238866 C97.1477913,64.6416431 97.1667014,64.56033 97.2042105,64.4871255 L102.627692,53.19417 C102.718764,53.0029531 102.911443,52.8809234 103.123239,52.8803239 L103.123239,52.8582996 Z M98.2503644,100.8217 L107.996113,100.8217 L107.996113,64.8505263 L103.123239,54.702834 L98.2503644,64.8505263 L98.2503644,100.8217 L98.2503644,100.8217 Z M103.123239,52.3076923 C102.700897,52.3076923 102.315865,52.5495887 102.132146,52.9298785 L96.7031579,64.222834 C96.6327294,64.372619 96.5969713,64.5363533 96.5984929,64.7018623 L96.5984929,101.350283 C96.5984929,101.958467 97.0915731,102.451498 97.6997571,102.451498 L108.546721,102.451498 C109.154905,102.451498 109.647947,101.958467 109.647947,101.350283 L109.647947,64.7238866 C109.648683,64.5602332 109.612944,64.3984706 109.54332,64.2503644 L104.114332,52.9574089 C103.932188,52.5749749 103.546831,52.3309157 103.123239,52.3297166 L103.123239,52.3076923 Z M98.8009717,64.9716599 L103.123239,55.9692308 L107.445506,64.9716599 L107.445506,100.265587 L98.8009717,100.265587 L98.8009717,64.9716599 Z" id="Shape" fill="#FFFFFF" fill-rule="nonzero"></path>
                <path d="M43.294251,62.4278543 C42.686067,62.4278543 42.1930364,61.9348237 42.1930364,61.3266397 L42.1930364,37.6064777 C42.1930364,36.9982937 42.686067,36.5052632 43.294251,36.5052632 L83.1802429,36.5052632 C83.7884269,36.5052632 84.2814575,36.9982937 84.2814575,37.6064777 L84.2814575,61.3266397 C84.2814575,61.9348237 83.7884269,62.4278543 83.1802429,62.4278543 L43.294251,62.4278543 Z M82.0790283,60.2254251 L82.0790283,38.7076923 L44.3954656,38.7076923 L44.3954656,60.2254251 L82.0790283,60.2254251 Z" id="Shape" fill="#1F1F1F" fill-rule="nonzero"></path>
                <path d="M83.1802429,37.0558704 C83.4843349,37.0558704 83.7308502,37.3023857 83.7308502,37.6064777 L83.7308502,61.3266397 C83.7308502,61.6307317 83.4843349,61.877247 83.1802429,61.877247 L43.294251,61.877247 C42.990159,61.877247 42.7436437,61.6307317 42.7436437,61.3266397 L42.7436437,37.6064777 C42.7436437,37.3023857 42.990159,37.0558704 43.294251,37.0558704 L83.1802429,37.0558704 L83.1802429,37.0558704 Z M43.8448583,60.7760324 L82.6296356,60.7760324 L82.6296356,38.157085 L43.8448583,38.157085 L43.8448583,60.7760324 L43.8448583,60.7760324 Z M83.1802429,35.9546559 L43.294251,35.9546559 C42.381975,35.9546559 41.6424291,36.6942017 41.6424291,37.6064777 L41.6424291,61.3266397 C41.6424291,62.2389157 42.381975,62.9784615 43.294251,62.9784615 L83.1802429,62.9784615 C84.0925189,62.9784615 84.8320648,62.2389157 84.8320648,61.3266397 L84.8320648,37.6064777 C84.8320648,36.6942017 84.0925189,35.9546559 83.1802429,35.9546559 Z M44.9460729,39.2582996 L81.5284211,39.2582996 L81.5284211,59.6748178 L44.9460729,59.6748178 L44.9460729,39.2582996 Z" id="Shape" fill="#FFFFFF" fill-rule="nonzero"></path>
                <path d="M43.9329555,71.622996 C43.3247714,71.622996 42.8317409,71.1299654 42.8317409,70.5217814 C42.8317409,69.9135974 43.3247714,69.4205668 43.9329555,69.4205668 L49.5987045,69.4205668 C50.2068885,69.4205668 50.699919,69.9135974 50.699919,70.5217814 C50.699919,71.1299654 50.2068885,71.622996 49.5987045,71.622996 L43.9329555,71.622996 Z" id="Path" fill="#1F1F1F" fill-rule="nonzero"></path>
                <path d="M49.5987045,69.9711741 C49.9027964,69.9711741 50.1493117,70.2176894 50.1493117,70.5217814 C50.1493117,70.8258734 49.9027964,71.0723887 49.5987045,71.0723887 L43.9329555,71.0723887 C43.6288635,71.0723887 43.3823482,70.8258734 43.3823482,70.5217814 C43.3823482,70.2176894 43.6288635,69.9711741 43.9329555,69.9711741 L49.5987045,69.9711741 L49.5987045,69.9711741 Z M49.5987045,68.8699595 L43.9329555,68.8699595 C43.0206794,68.8699595 42.2811336,69.6095054 42.2811336,70.5217814 C42.2811336,71.4340574 43.0206794,72.1736032 43.9329555,72.1736032 L49.5987045,72.1736032 C50.5109805,72.1736032 51.2505263,71.4340574 51.2505263,70.5217814 C51.2505263,69.6095054 50.5109805,68.8699595 49.5987045,68.8699595 L49.5987045,68.8699595 Z" id="Shape" fill="#FFFFFF" fill-rule="nonzero"></path>
                <path d="M54.1026721,71.622996 C53.494488,71.622996 53.0014575,71.1299654 53.0014575,70.5217814 C53.0014575,69.9135974 53.494488,69.4205668 54.1026721,69.4205668 L74.045668,69.4205668 C74.653852,69.4205668 75.1468826,69.9135974 75.1468826,70.5217814 C75.1468826,71.1299654 74.653852,71.622996 74.045668,71.622996 L54.1026721,71.622996 Z" id="Path" fill="#1F1F1F" fill-rule="nonzero"></path>
                <path d="M74.045668,69.9711741 C74.34976,69.9711741 74.5962752,70.2176894 74.5962752,70.5217814 C74.5962752,70.8258734 74.34976,71.0723887 74.045668,71.0723887 L54.1026721,71.0723887 C53.7985801,71.0723887 53.5520648,70.8258734 53.5520648,70.5217814 C53.5520648,70.2176894 53.7985801,69.9711741 54.1026721,69.9711741 L74.045668,69.9711741 L74.045668,69.9711741 Z M74.045668,68.8699595 L54.1026721,68.8699595 C53.190396,68.8699595 52.4508502,69.6095054 52.4508502,70.5217814 C52.4508502,71.4340574 53.190396,72.1736032 54.1026721,72.1736032 L74.045668,72.1736032 C74.957944,72.1736032 75.6974899,71.4340574 75.6974899,70.5217814 C75.6974899,69.6095054 74.957944,68.8699595 74.045668,68.8699595 L74.045668,68.8699595 Z" id="Shape" fill="#FFFFFF" fill-rule="nonzero"></path>
                <path d="M43.9329555,76.7711741 C43.3247714,76.7711741 42.8317409,76.2781435 42.8317409,75.6699595 C42.8317409,75.0617755 43.3247714,74.5687449 43.9329555,74.5687449 L49.5987045,74.5687449 C50.2068885,74.5687449 50.699919,75.0617755 50.699919,75.6699595 C50.699919,76.2781435 50.2068885,76.7711741 49.5987045,76.7711741 L43.9329555,76.7711741 Z" id="Path" fill="#1F1F1F" fill-rule="nonzero"></path>
                <path d="M49.5987045,75.1193522 C49.9027965,75.1193522 50.1493117,75.3658675 50.1493117,75.6699595 C50.1493117,75.9740515 49.9027965,76.2205668 49.5987045,76.2205668 L43.9329555,76.2205668 C43.6288635,76.2205668 43.3823482,75.9740515 43.3823482,75.6699595 C43.3823482,75.3658675 43.6288635,75.1193522 43.9329555,75.1193522 L49.5987045,75.1193522 L49.5987045,75.1193522 Z M49.5987045,74.0181377 L43.9329555,74.0181377 C43.0206794,74.0181377 42.2811336,74.7576835 42.2811336,75.6699595 C42.2811336,76.5822355 43.0206794,77.3217814 43.9329555,77.3217814 L49.5987045,77.3217814 C50.5109805,77.3217814 51.2505263,76.5822355 51.2505263,75.6699595 C51.2505263,74.7576835 50.5109805,74.0181377 49.5987045,74.0181377 L49.5987045,74.0181377 Z" id="Shape" fill="#FFFFFF" fill-rule="nonzero"></path>
                <path d="M43.9329555,81.8532794 C43.3247714,81.8532794 42.8317409,81.3602488 42.8317409,80.7520648 C42.8317409,80.1438808 43.3247714,79.6508502 43.9329555,79.6508502 L82.4093927,79.6508502 C83.0175767,79.6508502 83.5106073,80.1438808 83.5106073,80.7520648 C83.5106073,81.3602488 83.0175767,81.8532794 82.4093927,81.8532794 L43.9329555,81.8532794 Z" id="Path" fill="#1F1F1F" fill-rule="nonzero"></path>
                <path d="M82.4093927,80.2014575 C82.7134847,80.2014575 82.96,80.4479728 82.96,80.7520648 C82.96,81.0561568 82.7134847,81.3026721 82.4093927,81.3026721 L43.9329555,81.3026721 C43.6288635,81.3026721 43.3823482,81.0561568 43.3823482,80.7520648 C43.3823482,80.4479728 43.6288635,80.2014575 43.9329555,80.2014575 L82.4093927,80.2014575 L82.4093927,80.2014575 Z M82.4093927,79.1002429 L43.9329555,79.1002429 C43.0206794,79.1002429 42.2811336,79.8397888 42.2811336,80.7520648 C42.2811336,81.6643408 43.0206794,82.4038866 43.9329555,82.4038866 L82.4093927,82.4038866 C83.3216687,82.4038866 84.0612146,81.6643408 84.0612146,80.7520648 C84.0612146,79.8397888 83.3216687,79.1002429 82.4093927,79.1002429 Z" id="Shape" fill="#FFFFFF" fill-rule="nonzero"></path>
                <path d="M54.1026721,76.7711741 C53.494488,76.7711741 53.0014575,76.2781435 53.0014575,75.6699595 C53.0014575,75.0617755 53.494488,74.5687449 54.1026721,74.5687449 L74.045668,74.5687449 C74.653852,74.5687449 75.1468826,75.0617755 75.1468826,75.6699595 C75.1468826,76.2781435 74.653852,76.7711741 74.045668,76.7711741 L54.1026721,76.7711741 Z" id="Path" fill="#1F1F1F" fill-rule="nonzero"></path>
                <path d="M74.045668,75.1193522 C74.34976,75.1193522 74.5962753,75.3658675 74.5962753,75.6699595 C74.5962753,75.9740515 74.34976,76.2205668 74.045668,76.2205668 L54.1026721,76.2205668 C53.7985801,76.2205668 53.5520648,75.9740515 53.5520648,75.6699595 C53.5520648,75.3658675 53.7985801,75.1193522 54.1026721,75.1193522 L74.045668,75.1193522 L74.045668,75.1193522 Z M74.045668,74.0181377 L54.1026721,74.0181377 C53.190396,74.0181377 52.4508502,74.7576835 52.4508502,75.6699595 C52.4508502,76.5822355 53.190396,77.3217814 54.1026721,77.3217814 L74.045668,77.3217814 C74.957944,77.3217814 75.6974899,76.5822355 75.6974899,75.6699595 C75.6974899,74.7576835 74.957944,74.0181377 74.045668,74.0181377 L74.045668,74.0181377 Z" id="Shape" fill="#FFFFFF" fill-rule="nonzero"></path>
                <rect id="Rectangle" x="0" y="0" width="135.570526" height="135.570526"></rect>
            </g>
        </g>
    </g>
</svg>