<?xml version="1.0" encoding="UTF-8"?>
<svg width="80px" height="83px" viewBox="0 0 80 83" version="1.1" xmlns="http://www.w3.org/2000/svg" xmlns:xlink="http://www.w3.org/1999/xlink">
    <!-- Generator: Sketch 55.2 (78181) - https://sketchapp.com -->
    <title>Home_card01</title>
    <desc>Created with Sketch.</desc>
    <defs>
        <polygon id="path-1" points="0 135.571628 135.571628 135.571628 135.571628 0 0 0"></polygon>
    </defs>
    <g id="Page-1" stroke="none" stroke-width="1" fill="none" fill-rule="evenodd" opacity="0.7">
        <g id="Home_some1" transform="translate(-108.000000, -306.000000)">
            <g id="Home_card01" transform="translate(80.000000, 280.000000)">
                <path d="M79.2657004,97.9331595 C78.8103482,97.9331595 78.4397895,97.5626008 78.4397895,97.1072486 C78.4397895,96.6518964 78.8103482,96.2813377 79.2657004,96.2813377 L101.155644,96.2813377 C101.610996,96.2813377 101.981555,96.6518964 101.981555,97.1072486 C101.981555,97.5626008 101.610996,97.9331595 101.155644,97.9331595 L79.2657004,97.9331595 Z" id="Fill-1" fill="#1F1F1F"></path>
                <path d="M101.155589,95.7307304 L79.2656453,95.7307304 C78.5069085,95.7307304 77.8891271,96.3485117 77.8891271,97.1072486 C77.8891271,97.8659854 78.5069085,98.4837668 79.2656453,98.4837668 L101.155589,98.4837668 C101.914326,98.4837668 102.532107,97.8659854 102.532107,97.1072486 C102.532107,96.3485117 101.914326,95.7307304 101.155589,95.7307304 M101.155589,96.8319449 C101.307556,96.8319449 101.430892,96.955281 101.430892,97.1072486 C101.430892,97.2592162 101.307556,97.3825522 101.155589,97.3825522 L79.2656453,97.3825522 C79.1136777,97.3825522 78.9903417,97.2592162 78.9903417,97.1072486 C78.9903417,96.955281 79.1136777,96.8319449 79.2656453,96.8319449 L101.155589,96.8319449" id="Fill-3" fill="#FFFFFF"></path>
                <path d="M79.2657004,35.3278996 C78.8103482,35.3278996 78.4397895,34.9573409 78.4397895,34.5019887 C78.4397895,34.0466364 78.8103482,33.6760777 79.2657004,33.6760777 L101.155644,33.6760777 C101.610996,33.6760777 101.981555,34.0466364 101.981555,34.5019887 C101.981555,34.9573409 101.610996,35.3278996 101.155644,35.3278996 L79.2657004,35.3278996 Z" id="Fill-5" fill="#1F1F1F"></path>
                <path d="M101.155589,33.1254704 L79.2656453,33.1254704 C78.5069085,33.1254704 77.8891271,33.7427012 77.8891271,34.5019887 C77.8891271,35.2612761 78.5069085,35.8785069 79.2656453,35.8785069 L101.155589,35.8785069 C101.914326,35.8785069 102.532107,35.2612761 102.532107,34.5019887 C102.532107,33.7427012 101.914326,33.1254704 101.155589,33.1254704 M101.155589,34.226685 C101.307556,34.226685 101.430892,34.3500211 101.430892,34.5019887 C101.430892,34.6539563 101.307556,34.7772923 101.155589,34.7772923 L79.2656453,34.7772923 C79.1136777,34.7772923 78.9903417,34.6539563 78.9903417,34.5019887 C78.9903417,34.3500211 79.1136777,34.226685 79.2656453,34.226685 L101.155589,34.226685" id="Fill-7" fill="#FFFFFF"></path>
                <path d="M79.2657004,39.5198381 C78.8103482,39.5198381 78.4397895,39.1492794 78.4397895,38.6939271 C78.4397895,38.2385749 78.8103482,37.8680162 79.2657004,37.8680162 L101.155644,37.8680162 C101.610996,37.8680162 101.981555,38.2385749 101.981555,38.6939271 C101.981555,39.1492794 101.610996,39.5198381 101.155644,39.5198381 L79.2657004,39.5198381 Z" id="Fill-13" fill="#1F1F1F"></path>
                <path d="M101.155589,37.3174089 L79.2656453,37.3174089 C78.5069085,37.3174089 77.8891271,37.9346397 77.8891271,38.6939271 C77.8891271,39.4532146 78.5069085,40.0704453 79.2656453,40.0704453 L101.155589,40.0704453 C101.914326,40.0704453 102.532107,39.4532146 102.532107,38.6939271 C102.532107,37.9346397 101.914326,37.3174089 101.155589,37.3174089 M101.155589,38.4186235 C101.307556,38.4186235 101.430892,38.5419595 101.430892,38.6939271 C101.430892,38.8458947 101.307556,38.9692308 101.155589,38.9692308 L79.2656453,38.9692308 C79.1136777,38.9692308 78.9903417,38.8458947 78.9903417,38.6939271 C78.9903417,38.5419595 79.1136777,38.4186235 79.2656453,38.4186235 L101.155589,38.4186235" id="Fill-15" fill="#FFFFFF"></path>
                <path d="M77.7725085,105.498063 L80.0630348,102.930581 C80.2722656,102.696573 80.571796,102.562776 80.8845409,102.562776 C81.1978364,102.562776 81.4973668,102.696573 81.706047,102.930581 L83.9932696,105.49476 L86.2804923,102.930581 C86.4897231,102.696573 86.7892534,102.562776 87.1019984,102.562776 C87.4152939,102.562776 87.7148243,102.696573 87.9235045,102.930581 L90.2107271,105.49476 L92.4979498,102.930581 C92.7071806,102.696573 93.0067109,102.562776 93.3194559,102.562776 C93.6327514,102.562776 93.9322818,102.696573 94.1409619,102.930581 L96.4281846,105.49476 L98.7154073,102.930581 C98.9246381,102.696573 99.2241684,102.562776 99.5369134,102.562776 C99.8502089,102.562776 100.149739,102.696573 100.358419,102.930581 L102.645642,105.49476 L104.653156,103.244428 L104.653156,29.5241684 L75.768298,29.5241684 L75.768298,103.268104 L77.7725085,105.498063 Z M77.7769134,108.249998 C77.464719,108.249998 77.1657393,108.117302 76.9576097,107.886047 L73.8477798,104.427683 C73.6660794,104.224509 73.5658688,103.963521 73.5658688,103.69097 L73.5658688,28.4229538 C73.5658688,27.815634 74.0603142,27.3217393 74.6670834,27.3217393 L105.754371,27.3217393 C106.361691,27.3217393 106.855585,27.815634 106.855585,28.4229538 L106.855585,103.66399 C106.855585,103.934889 106.756476,104.195877 106.576428,104.397399 L103.467148,107.882193 C103.262873,108.110144 102.963893,108.241189 102.645642,108.241189 C102.327391,108.241189 102.028411,108.110144 101.824687,107.882193 L99.5369134,105.318015 L97.2496907,107.882193 C97.0454154,108.110144 96.7464356,108.241189 96.4281846,108.241189 C96.1099336,108.241189 95.8109538,108.110144 95.6072291,107.882193 L93.3194559,105.318015 L91.0322332,107.882193 C90.8279579,108.110144 90.5289781,108.241189 90.2107271,108.241189 C89.8924761,108.241189 89.5934964,108.110144 89.3897717,107.882193 L87.1019984,105.318015 L84.8147757,107.882193 C84.6105004,108.110144 84.3115206,108.241189 83.9932696,108.241189 C83.6750186,108.241189 83.3760389,108.110144 83.1723142,107.882193 L80.8845409,105.318015 L78.5973182,107.882193 C78.3891887,108.1151 78.0907595,108.248897 77.7791158,108.249998 L77.7769134,108.249998 Z" id="Fill-17" fill="#1F1F1F"></path>
                <path d="M76.3191255,30.0745555 L104.102769,30.0745555 L104.102769,103.034426 L102.645312,104.668078 L100.769943,102.564207 C100.456097,102.21347 100.006802,102.011948 99.5371336,102.011948 C99.0674656,102.011948 98.61817,102.21347 98.3054251,102.563106 L96.4278543,104.667527 L94.5519352,102.564207 C94.2380891,102.21347 93.7893441,102.011948 93.3196761,102.011948 C92.8494575,102.011948 92.4012632,102.21347 92.0879676,102.563106 L90.2103968,104.667527 L88.3350283,102.564207 C88.0211822,102.21347 87.5718866,102.011948 87.1022186,102.011948 C86.6325506,102.011948 86.1832551,102.21347 85.8705101,102.563106 L83.9934899,104.667527 L82.1170202,102.564207 C81.8031741,102.21347 81.3549798,102.011948 80.8847611,102.011948 C80.4145425,102.011948 79.9663482,102.21347 79.6530526,102.563106 L77.7716275,104.672483 L76.3191255,103.057551 L76.3191255,30.0745555 Z M105.754591,26.7709117 L74.6673036,26.7709117 C73.7565992,26.7709117 73.0154818,27.5120291 73.0154818,28.4227336 L73.0154818,103.69075 C73.0154818,104.0993 73.165247,104.491883 73.4388988,104.795268 L76.5470769,108.253082 C76.8614737,108.601616 77.3091174,108.800385 77.7760324,108.800385 C78.249004,108.799284 78.6955466,108.598313 79.0077409,108.249228 L80.8847611,106.145357 L82.7601296,108.248677 C83.0695709,108.593908 83.5183158,108.792126 83.9934899,108.792126 C84.4681134,108.792126 84.9168583,108.593908 85.2251984,108.249228 L87.1022186,106.145357 L88.9781377,108.248677 C89.2870283,108.593908 89.7357733,108.792126 90.2103968,108.792126 C90.6855709,108.792126 91.1343158,108.593908 91.4426559,108.249228 L93.3196761,106.145357 L95.1950445,108.248677 C95.5044858,108.593908 95.9532308,108.792126 96.4278543,108.792126 C96.9030283,108.792126 97.3517733,108.593908 97.6601134,108.249228 L99.5371336,106.145357 L101.413053,108.248677 C101.721943,108.593908 102.170688,108.792126 102.645312,108.792126 C103.120486,108.792126 103.569231,108.593908 103.877571,108.249228 L106.98685,104.763333 C107.256648,104.4616 107.406413,104.070669 107.406413,103.66377 L107.406413,28.4227336 C107.406413,27.5120291 106.665296,26.7709117 105.754591,26.7709117 L105.754591,26.7709117 Z M77.7743806,106.323203 L80.4740081,103.297066 C80.5780729,103.180337 80.7278381,103.113163 80.8847611,103.113163 C81.0416842,103.113163 81.1914494,103.180337 81.2955142,103.297066 L83.9934899,106.322102 L86.6914656,103.297066 C86.7955304,103.180337 86.9452955,103.113163 87.1022186,103.113163 C87.2591417,103.113163 87.4089069,103.180337 87.5129717,103.297066 L90.2103968,106.322102 L92.9089231,103.297066 C93.0129879,103.180337 93.162753,103.113163 93.3196761,103.113163 C93.4765992,103.113163 93.6263644,103.180337 93.7304291,103.297066 L96.4278543,106.322102 L99.1263806,103.297066 C99.2304453,103.180337 99.3802105,103.113163 99.5371336,103.113163 C99.6940567,103.113163 99.8438219,103.180337 99.9478866,103.297066 L102.645312,106.322102 L105.203984,103.454539 L105.203984,28.9733409 L75.2179109,28.9733409 L75.2179109,103.479317 L77.7743806,106.323203 L77.7743806,106.323203 Z M105.754591,27.8721263 C106.059077,27.8721263 106.305198,28.1182478 106.305198,28.4227336 L106.305198,103.66377 C106.305198,103.798669 106.255644,103.929713 106.165344,104.030474 L103.056615,107.515268 C102.952,107.631997 102.798931,107.690912 102.645312,107.690912 C102.492243,107.690912 102.339174,107.631997 102.234559,107.515268 L99.5371336,104.490782 L96.8391579,107.515268 C96.7345425,107.631997 96.5814737,107.690912 96.4278543,107.690912 C96.2747854,107.690912 96.1217166,107.631997 96.0171012,107.515268 L93.3196761,104.490782 L90.6217004,107.515268 C90.517085,107.631997 90.3640162,107.690912 90.2103968,107.690912 C90.0573279,107.690912 89.9042591,107.631997 89.7996437,107.515268 L87.1022186,104.490782 L84.4042429,107.515268 C84.2996275,107.631997 84.1465587,107.690912 83.9934899,107.690912 C83.8398704,107.690912 83.6868016,107.631997 83.5821862,107.515268 L80.8847611,104.490782 L78.1867854,107.515268 C78.08217,107.631997 77.9335061,107.699171 77.776583,107.699171 L77.7760324,107.699171 C77.6196599,107.699171 77.470996,107.633098 77.36583,107.51692 L74.2576518,104.059106 C74.1668016,103.958345 74.1166964,103.82675 74.1166964,103.69075 L74.1166964,28.4227336 C74.1166964,28.1182478 74.3628178,27.8721263 74.6673036,27.8721263 L105.754591,27.8721263 L105.754591,27.8721263 Z" id="Fill-19" fill="#FFFFFF"></path>
                <path d="M89.7750866,73.8268567 C89.1611595,73.7640874 88.7206737,73.2217393 88.7812405,72.6188243 L89.3351514,67.2201198 C89.3758964,66.8253344 89.6269733,66.4823061 89.9909247,66.3237312 C94.2840097,64.4533182 97.5683822,62.7359741 97.5683822,59.1316988 C97.5683822,56.3566381 94.1904065,53.9235045 90.3383579,53.9235045 C87.3584713,53.9235045 85.0150866,55.7531725 84.2403822,57.5608162 C83.9199287,58.3079903 83.726115,59.3959903 84.6197506,60.3347757 C85.0376615,60.7752615 85.0205927,61.4734316 84.5806575,61.8918931 C84.3747304,62.0873587 84.1054834,62.1947271 83.8219206,62.1947271 C83.5229409,62.1947271 83.2322202,62.0708405 83.0251919,61.8550024 C81.7004308,60.4630672 81.4064065,58.5821927 82.2157992,56.6930591 C83.2751676,54.2224842 86.4059206,51.7210753 90.3383579,51.7210753 C95.4518478,51.7210753 99.7708113,55.114468 99.7708113,59.1316988 C99.7708113,64.3074073 94.8814186,66.5880227 91.4615968,68.0851239 L90.9732081,72.8434721 C90.9148437,73.4067433 90.4446251,73.8318121 89.8780502,73.8318121 C89.8439126,73.8318121 89.8097749,73.8301603 89.7750866,73.8268567" id="Fill-21" fill="#1F1F1F"></path>
                <path d="M90.3386332,51.1702478 C86.1672324,51.1702478 82.8404632,53.8395919 81.7095158,56.4764502 C80.8224874,58.546183 81.1644146,60.6985069 82.6246251,62.2330494 C82.9384713,62.5595595 83.373451,62.7451142 83.822196,62.7451142 C84.2472648,62.7451142 84.6508599,62.5843368 84.9592,62.2919644 C85.6204794,61.6637215 85.6469085,60.6153652 85.0186656,59.9557377 C84.4669571,59.3759482 84.3755563,58.6436405 84.7466656,57.7780858 C85.4332729,56.1763692 87.6263417,54.4738915 90.3386332,54.4738915 C93.8344389,54.4738915 97.0180502,56.6939401 97.0180502,59.1314785 C97.0180502,62.1333895 94.6812729,63.6800453 89.7715077,65.818604 C89.2258559,66.0564664 88.8492405,66.5718348 88.7881231,67.163187 L88.2342121,72.5618915 C88.1422607,73.4681911 88.8029895,74.2803368 89.7076372,74.3739401 C89.7792162,74.3799968 89.8287709,74.3821992 89.8777749,74.3821992 C90.7279126,74.3821992 91.4337911,73.744596 91.5202364,72.8994138 L91.9766899,68.4604178 C95.508285,66.9027498 100.321694,64.512013 100.321694,59.1314785 C100.321694,54.8158186 95.7500016,51.1702478 90.3386332,51.1702478 M90.3386332,52.2714623 C95.1531433,52.2714623 99.2204794,55.4126769 99.2204794,59.1314785 C99.2204794,63.9779239 94.7088032,66.0669279 90.9465036,67.7093895 L90.4250785,72.7870899 C90.3958964,73.070102 90.1569328,73.2809846 89.8777749,73.2809846 C89.8590543,73.2809846 89.8403336,73.2798834 89.8210623,73.2782316 C89.5187789,73.2473976 89.298536,72.9764988 89.32937,72.6742154 L89.883281,67.2766121 C89.9036534,67.0794947 90.0291919,66.9077053 90.2114429,66.8278672 C94.6917344,64.876515 98.1192648,63.0699725 98.1192648,59.1314785 C98.1192648,56.0640453 94.4830543,53.3726769 90.3386332,53.3726769 C87.1208842,53.3726769 84.5803822,55.3702802 83.7346494,57.3442073 C83.4191514,58.0803692 83.0618073,59.4970818 84.2208356,60.7144745 C84.430617,60.9347174 84.4218073,61.2832518 84.2015644,61.4930332 C84.0947466,61.5943449 83.958196,61.6438996 83.822196,61.6438996 C83.676285,61.6438996 83.5314753,61.587187 83.4224551,61.4737619 C82.2584713,60.2503126 82.0029895,58.5869279 82.7220826,56.9103287 C83.7104227,54.604936 86.6440583,52.2714623 90.3386332,52.2714623" id="Fill-23" fill="#FFFFFF"></path>
                <path d="M48.1171304,33.004502 C47.5098105,33.004502 47.0159158,32.5106073 47.0159158,31.9032874 C47.0159158,31.2959676 47.5098105,30.8020729 48.1171304,30.8020729 L55.6125474,30.8020729 C56.2198672,30.8020729 56.7137619,31.2959676 56.7137619,31.9032874 C56.7137619,32.5106073 56.2198672,33.004502 55.6125474,33.004502 L48.1171304,33.004502 Z" id="Fill-25" fill="#1F1F1F"></path>
                <path d="M55.6127126,30.2514656 L48.1172955,30.2514656 C47.2060405,30.2514656 46.4654737,30.992583 46.4654737,31.9032874 C46.4654737,32.8139919 47.2060405,33.5551093 48.1172955,33.5551093 L55.6127126,33.5551093 C56.523417,33.5551093 57.2645344,32.8139919 57.2645344,31.9032874 C57.2645344,30.992583 56.523417,30.2514656 55.6127126,30.2514656 M55.6127126,31.3526802 C55.9171984,31.3526802 56.1633198,31.5988016 56.1633198,31.9032874 C56.1633198,32.2077733 55.9171984,32.4538947 55.6127126,32.4538947 L48.1172955,32.4538947 C47.8128097,32.4538947 47.5666883,32.2077733 47.5666883,31.9032874 C47.5666883,31.5988016 47.8128097,31.3526802 48.1172955,31.3526802 L55.6127126,31.3526802" id="Fill-27" fill="#FFFFFF"></path>
                <path d="M45.0173215,33.004502 C44.4100016,33.004502 43.9161069,32.5106073 43.9161069,31.9032874 C43.9161069,31.2959676 44.4100016,30.8020729 45.0173215,30.8020729 L46.0750381,30.8020729 C46.6818073,30.8020729 47.1762526,31.2959676 47.1762526,31.9032874 C47.1762526,32.5106073 46.6818073,33.004502 46.0750381,33.004502 L45.0173215,33.004502 Z" id="Fill-29" fill="#1F1F1F"></path>
                <path d="M46.074983,30.2514656 L45.0172664,30.2514656 C44.1065619,30.2514656 43.3654445,30.992583 43.3654445,31.9032874 C43.3654445,32.8139919 44.1065619,33.5551093 45.0172664,33.5551093 L46.074983,33.5551093 C46.9856874,33.5551093 47.7268049,32.8139919 47.7268049,31.9032874 C47.7268049,30.992583 46.9856874,30.2514656 46.074983,30.2514656 M46.074983,31.3526802 C46.3794688,31.3526802 46.6255903,31.5988016 46.6255903,31.9032874 C46.6255903,32.2077733 46.3794688,32.4538947 46.074983,32.4538947 L45.0172664,32.4538947 C44.7127806,32.4538947 44.4666591,32.2077733 44.4666591,31.9032874 C44.4666591,31.5988016 44.7127806,31.3526802 45.0172664,31.3526802 L46.074983,31.3526802" id="Fill-31" fill="#FFFFFF"></path>
                <path d="M49.1135093,104.609768 C48.5061895,104.609768 48.0122947,104.115874 48.0122947,103.508554 C48.0122947,102.901234 48.5061895,102.407339 49.1135093,102.407339 L51.5169101,102.407339 C52.12423,102.407339 52.6181247,102.901234 52.6181247,103.508554 C52.6181247,104.115874 52.12423,104.609768 51.5169101,104.609768 L49.1135093,104.609768 Z" id="Fill-33" fill="#1F1F1F"></path>
                <path d="M51.5170202,101.856732 L49.1136194,101.856732 C48.2023644,101.856732 47.4617976,102.597849 47.4617976,103.508554 C47.4617976,104.419258 48.2023644,105.160376 49.1136194,105.160376 L51.5170202,105.160376 C52.4277247,105.160376 53.1688421,104.419258 53.1688421,103.508554 C53.1688421,102.597849 52.4277247,101.856732 51.5170202,101.856732 M51.5170202,102.957947 C51.8215061,102.957947 52.0676275,103.204068 52.0676275,103.508554 C52.0676275,103.81304 51.8215061,104.059161 51.5170202,104.059161 L49.1136194,104.059161 C48.8091336,104.059161 48.5630121,103.81304 48.5630121,103.508554 C48.5630121,103.204068 48.8091336,102.957947 49.1136194,102.957947 L51.5170202,102.957947" id="Fill-35" fill="#FFFFFF"></path>
                <path d="M49.9007126,73.5505069 C49.6331174,73.5416972 49.3605668,73.4178105 49.1595951,73.2019725 C48.9591741,72.986685 48.8551093,72.7058753 48.8661215,72.411851 L49.5218947,54.3965312 C49.5422672,53.820596 50.0350607,53.3333085 50.5988826,53.3333085 C50.6170526,53.3333085 50.6776194,53.3366121 50.6957895,53.338264 C50.9551255,53.3465231 51.2276761,53.4704097 51.4280972,53.6862478 C51.6290688,53.9015352 51.7331336,54.1823449 51.7221215,54.4763692 L51.0663482,72.4916891 C51.0448745,73.0868955 50.5619919,73.5532599 49.9667854,73.5532599 C49.951919,73.5532599 49.9155789,73.5521587 49.9007126,73.5505069" id="Fill-37" fill="#1F1F1F"></path>
                <path d="M50.5991579,52.7828113 L50.5991579,52.7828113 C49.732502,52.7828113 49.0023968,53.4980502 48.9710121,54.37737 L48.3163401,72.3915887 C48.2992713,72.8326251 48.4556437,73.2532891 48.7568259,73.5770462 C49.0574575,73.9008032 49.4660081,74.0869085 49.9075951,74.1028761 C49.9290688,74.1034267 49.9505425,74.1039773 49.9670607,74.1039773 C50.8595951,74.1039773 51.5841943,73.4047061 51.6166802,72.5116211 L52.2724534,54.4957506 C52.2884211,54.056366 52.1320486,53.6346008 51.831417,53.3113943 C51.5379433,52.9958964 51.1420567,52.8108923 50.7131336,52.7872162 C50.6756923,52.7844632 50.6365992,52.7828113 50.5991579,52.7828113 M50.5986073,53.8840259 C50.6129231,53.8840259 50.6272389,53.8845765 50.6415547,53.8862283 C50.9454899,53.8966899 51.1833522,54.1521717 51.1717895,54.4561069 L50.5165668,72.4719773 C50.5055547,72.7693053 50.2616356,73.0027628 49.9670607,73.0027628 C49.9599028,73.0027628 49.9527449,73.0027628 49.9461377,73.0022121 C49.642753,72.9912 49.4048907,72.7357182 49.4164534,72.4323336 L50.0716761,54.4164632 C50.0821377,54.1273943 50.3315628,53.8840259 50.5986073,53.8840259" id="Fill-39" fill="#FFFFFF"></path>
                <path d="M50.8916955,75.8217619 C50.8916955,76.3486931 50.4644243,76.7759644 49.9374931,76.7759644 C49.4100113,76.7759644 48.9821895,76.3486931 48.9821895,75.8217619 C48.9821895,75.2942802 49.4100113,74.8670089 49.9374931,74.8670089 C50.4644243,74.8670089 50.8916955,75.2942802 50.8916955,75.8217619" id="Fill-41" fill="#1F1F1F"></path>
                <path d="M49.9372729,75.1420923 C49.5623093,75.1420923 49.2578235,75.4471287 49.2578235,75.8215417 C49.2578235,76.1959547 49.5623093,76.5009911 49.9372729,76.5009911 C50.3116858,76.5009911 50.6161717,76.1959547 50.6161717,75.8215417 C50.6161717,75.4471287 50.3116858,75.1420923 49.9372729,75.1420923 M49.9372729,77.0515984 C49.2589247,77.0515984 48.7072162,76.4998899 48.7072162,75.8215417 C48.7072162,75.1431935 49.2589247,74.591485 49.9372729,74.591485 C50.6150704,74.591485 51.1667789,75.1431935 51.1667789,75.8215417 C51.1667789,76.4998899 50.6150704,77.0515984 49.9372729,77.0515984" id="Fill-43" fill="#1F1F1F"></path>
                <path d="M90.9198543,75.8217619 C90.9198543,76.3486931 90.492583,76.7759644 89.9656518,76.7759644 C89.43817,76.7759644 89.0103482,76.3486931 89.0103482,75.8217619 C89.0103482,75.2942802 89.43817,74.8670089 89.9656518,74.8670089 C90.492583,74.8670089 90.9198543,75.2942802 90.9198543,75.8217619" id="Fill-45" fill="#1F1F1F"></path>
                <path d="M89.9654316,75.1420923 C89.590468,75.1420923 89.2859822,75.4471287 89.2859822,75.8215417 C89.2859822,76.1959547 89.590468,76.5009911 89.9654316,76.5009911 C90.3398445,76.5009911 90.6443304,76.1959547 90.6443304,75.8215417 C90.6443304,75.4471287 90.3398445,75.1420923 89.9654316,75.1420923 M89.9654316,77.0515984 C89.2870834,77.0515984 88.7353749,76.4998899 88.7353749,75.8215417 C88.7353749,75.1431935 89.2870834,74.591485 89.9654316,74.591485 C90.6432291,74.591485 91.1949377,75.1431935 91.1949377,75.8215417 C91.1949377,76.4998899 90.6432291,77.0515984 89.9654316,77.0515984" id="Fill-47" fill="#1F1F1F"></path>
                <path d="M32.0199611,29.5771919 C31.4126413,29.5771919 30.9187466,30.0710866 30.9187466,30.6784065 L30.9187466,104.94652 C30.9187466,105.553289 31.4126413,106.047734 32.0199611,106.047734 L68.6105684,106.047734 C69.2178883,106.047734 69.711783,105.553289 69.711783,104.94652 L69.711783,30.6784065 C69.711783,30.0710866 69.2178883,29.5771919 68.6105684,29.5771919 L32.0199611,29.5771919 Z M32.0199611,108.250164 C30.1980016,108.250164 28.7163174,106.767929 28.7163174,104.94652 L28.7163174,30.6784065 C28.7163174,28.856447 30.1980016,27.3747628 32.0199611,27.3747628 L68.6105684,27.3747628 C70.4325279,27.3747628 71.9142121,28.856447 71.9142121,30.6784065 L71.9142121,104.94652 C71.9142121,106.767929 70.4325279,108.250164 68.6105684,108.250164 L32.0199611,108.250164 Z" id="Fill-49" fill="#1F1F1F"></path>
                <path d="M32.0199611,105.497017 C31.7160259,105.497017 31.4693538,105.250345 31.4693538,104.94641 L31.4693538,30.6782964 C31.4693538,30.3743611 31.7160259,30.1276891 32.0199611,30.1276891 L68.6105684,30.1276891 C68.9145036,30.1276891 69.1611757,30.3743611 69.1611757,30.6782964 L69.1611757,104.94641 C69.1611757,105.250345 68.9145036,105.497017 68.6105684,105.497017 L32.0199611,105.497017 Z M68.6105684,26.8240453 L32.0199611,26.8240453 C29.894617,26.8240453 28.1657101,28.5529522 28.1657101,30.6782964 L28.1657101,104.94641 C28.1657101,107.071203 29.894617,108.800661 32.0199611,108.800661 L68.6105684,108.800661 C70.7359126,108.800661 72.4648194,107.071203 72.4648194,104.94641 L72.4648194,30.6782964 C72.4648194,28.5529522 70.7359126,26.8240453 68.6105684,26.8240453 L68.6105684,26.8240453 Z M32.0199611,106.598232 L68.6105684,106.598232 C69.5212729,106.598232 70.2623903,105.857114 70.2623903,104.94641 L70.2623903,30.6782964 C70.2623903,29.7675919 69.5212729,29.0264745 68.6105684,29.0264745 L32.0199611,29.0264745 C31.1092567,29.0264745 30.3681393,29.7675919 30.3681393,30.6782964 L30.3681393,104.94641 C30.3681393,105.857114 31.1092567,106.598232 32.0199611,106.598232 L32.0199611,106.598232 Z M68.6105684,27.9252599 C70.1285927,27.9252599 71.3636049,29.1602721 71.3636049,30.6782964 L71.3636049,104.94641 C71.3636049,106.464434 70.1285927,107.699446 68.6105684,107.699446 L32.0199611,107.699446 C30.5019368,107.699446 29.2669247,106.464434 29.2669247,104.94641 L29.2669247,30.6782964 C29.2669247,29.1602721 30.5019368,27.9252599 32.0199611,27.9252599 L68.6105684,27.9252599 L68.6105684,27.9252599 Z" id="Fill-51" fill="#FFFFFF"></path>
                <path d="M35.0805668,35.6032032 C34.3807449,35.6032032 33.8119676,36.1416972 33.8119676,36.8029765 L33.8119676,97.7909927 C33.8119676,98.4528227 34.3807449,98.9902154 35.0805668,98.9902154 L65.5495223,98.9902154 C66.2487935,98.9902154 66.8186721,98.4528227 66.8186721,97.7909927 L66.8186721,36.8029765 C66.8186721,36.1416972 66.2487935,35.6032032 65.5495223,35.6032032 L35.0805668,35.6032032 Z M35.0805668,101.192645 C33.1666559,101.192645 31.6095385,99.6669117 31.6095385,97.7909927 L31.6095385,36.8029765 C31.6095385,34.9265069 33.1666559,33.4007741 35.0805668,33.4007741 L65.5495223,33.4007741 C67.4634332,33.4007741 69.0211012,34.9265069 69.0211012,36.8029765 L69.0211012,97.7909927 C69.0211012,99.6669117 67.4634332,101.192645 65.5495223,101.192645 L35.0805668,101.192645 Z" id="Fill-53" fill="#1F1F1F"></path>
                <path d="M35.0805668,98.4396632 C34.6846802,98.4396632 34.3625749,98.1489425 34.3625749,97.7910478 L34.3625749,36.8030316 C34.3625749,36.4451368 34.6846802,36.1538656 35.0805668,36.1538656 L65.5495223,36.1538656 C65.9454089,36.1538656 66.2680648,36.4451368 66.2680648,36.8030316 L66.2680648,97.7910478 C66.2680648,98.1489425 65.9454089,98.4396632 65.5495223,98.4396632 L35.0805668,98.4396632 Z M65.5495223,32.8502219 L35.0805668,32.8502219 C32.8632713,32.8502219 31.0589312,34.6237279 31.0589312,36.8030316 L31.0589312,97.7910478 C31.0589312,99.9703514 32.8632713,101.743307 35.0805668,101.743307 L65.5495223,101.743307 C67.7668178,101.743307 69.5717085,99.9703514 69.5717085,97.7910478 L69.5717085,36.8030316 C69.5717085,34.6237279 67.7668178,32.8502219 65.5495223,32.8502219 L65.5495223,32.8502219 Z M35.0805668,99.5408777 L65.5495223,99.5408777 C66.5527287,99.5408777 67.3692794,98.7557117 67.3692794,97.7910478 L67.3692794,36.8030316 C67.3692794,35.837817 66.5527287,35.052651 65.5495223,35.052651 L35.0805668,35.052651 C34.0779109,35.052651 33.2613603,35.837817 33.2613603,36.8030316 L33.2613603,97.7910478 C33.2613603,98.7557117 34.0779109,99.5408777 35.0805668,99.5408777 L35.0805668,99.5408777 Z M65.5495223,33.9514364 C67.1600486,33.9514364 68.4704939,35.2304972 68.4704939,36.8030316 L68.4704939,97.7910478 C68.4704939,99.3635822 67.1600486,100.642092 65.5495223,100.642092 L35.0805668,100.642092 C33.4700405,100.642092 32.1601457,99.3635822 32.1601457,97.7910478 L32.1601457,36.8030316 C32.1601457,35.2304972 33.4700405,33.9514364 35.0805668,33.9514364 L65.5495223,33.9514364 L65.5495223,33.9514364 Z" id="Fill-55" fill="#FFFFFF"></path>
                <mask id="mask-2" fill="white">
                    <use xlink:href="#path-1"></use>
                </mask>
                <g id="Clip-58"></g>
                <path d="M80.091336,92.7910931 L100.329457,92.7910931 L100.329457,89.1157895 L80.091336,89.1157895 L80.091336,92.7910931 Z M79.2659757,94.442915 C78.8100729,94.442915 78.4400648,94.0723563 78.4400648,93.617004 L78.4400648,88.2898785 C78.4400648,87.8345263 78.8100729,87.4639676 79.2659757,87.4639676 L101.155368,87.4639676 C101.611271,87.4639676 101.981279,87.8345263 101.981279,88.2898785 L101.981279,93.617004 C101.981279,94.0723563 101.611271,94.442915 101.155368,94.442915 L79.2659757,94.442915 Z" id="Fill-57" fill="#1F1F1F" mask="url(#mask-2)"></path>
                <path d="M80.6424939,92.2404858 L99.7794008,92.2404858 L99.7794008,89.6663968 L80.6424939,89.6663968 L80.6424939,92.2404858 Z M101.155368,86.9133603 L79.2659757,86.9133603 C78.5072389,86.9133603 77.8894575,87.5311417 77.8894575,88.2898785 L77.8894575,93.617004 C77.8894575,94.3762915 78.5072389,94.9935223 79.2659757,94.9935223 L101.155368,94.9935223 C101.914105,94.9935223 102.531887,94.3762915 102.531887,93.617004 L102.531887,88.2898785 C102.531887,87.5311417 101.914105,86.9133603 101.155368,86.9133603 L101.155368,86.9133603 Z M79.5412794,93.3417004 L100.880615,93.3417004 L100.880615,88.5651822 L79.5412794,88.5651822 L79.5412794,93.3417004 Z M101.155368,88.0145749 C101.307887,88.0145749 101.430672,88.1379109 101.430672,88.2898785 L101.430672,93.617004 C101.430672,93.7689717 101.307887,93.8923077 101.155368,93.8923077 L79.2659757,93.8923077 C79.1134575,93.8923077 78.9906721,93.7689717 78.9906721,93.617004 L78.9906721,88.2898785 C78.9906721,88.1379109 79.1134575,88.0145749 79.2659757,88.0145749 L101.155368,88.0145749 L101.155368,88.0145749 Z" id="Fill-59" fill="#FFFFFF" mask="url(#mask-2)"></path>
                <path d="M40.1959838,92.7910931 L60.4341053,92.7910931 L60.4341053,89.1157895 L40.1959838,89.1157895 L40.1959838,92.7910931 Z M39.3700729,94.442915 C38.9147206,94.442915 38.5441619,94.0723563 38.5441619,93.617004 L38.5441619,88.2898785 C38.5441619,87.8345263 38.9147206,87.4639676 39.3700729,87.4639676 L61.2600162,87.4639676 C61.715919,87.4639676 62.0859271,87.8345263 62.0859271,88.2898785 L62.0859271,93.617004 C62.0859271,94.0723563 61.715919,94.442915 61.2600162,94.442915 L39.3700729,94.442915 Z" id="Fill-60" fill="#1F1F1F" mask="url(#mask-2)"></path>
                <path d="M40.7465911,92.2404858 L59.883498,92.2404858 L59.883498,89.6663968 L40.7465911,89.6663968 L40.7465911,92.2404858 Z M61.2600162,86.9133603 L39.3700729,86.9133603 C38.6118866,86.9133603 37.9935547,87.5311417 37.9935547,88.2898785 L37.9935547,93.617004 C37.9935547,94.3762915 38.6118866,94.9935223 39.3700729,94.9935223 L61.2600162,94.9935223 C62.018753,94.9935223 62.6365344,94.3762915 62.6365344,93.617004 L62.6365344,88.2898785 C62.6365344,87.5311417 62.018753,86.9133603 61.2600162,86.9133603 L61.2600162,86.9133603 Z M39.6453765,93.3417004 L60.9847126,93.3417004 L60.9847126,88.5651822 L39.6453765,88.5651822 L39.6453765,93.3417004 Z M61.2600162,88.0145749 C61.4125344,88.0145749 61.5353198,88.1379109 61.5353198,88.2898785 L61.5353198,93.617004 C61.5353198,93.7689717 61.4125344,93.8923077 61.2600162,93.8923077 L39.3700729,93.8923077 C39.2181053,93.8923077 39.0947692,93.7689717 39.0947692,93.617004 L39.0947692,88.2898785 C39.0947692,88.1379109 39.2181053,88.0145749 39.3700729,88.0145749 L61.2600162,88.0145749 L61.2600162,88.0145749 Z" id="Fill-61" fill="#FFFFFF" mask="url(#mask-2)"></path>
                <path d="M69.6591449,42.4115725 C69.3546591,42.4115725 69.1085377,42.165451 69.1085377,41.8609652 L69.1085377,40.1628923 C69.1085377,39.8584065 69.3546591,39.612285 69.6591449,39.612285 L72.2337846,39.612285 C72.5382704,39.612285 72.7843919,39.8584065 72.7843919,40.1628923 L72.7843919,41.8609652 C72.7843919,42.165451 72.5382704,42.4115725 72.2337846,42.4115725 L69.6591449,42.4115725 Z" id="Fill-62" fill="#FFFFFF" mask="url(#mask-2)"></path>
                <path d="M72.2331239,39.0617328 L69.6595854,39.0617328 C69.0511644,39.0617328 68.5583709,39.5550769 68.5583709,40.1629474 L68.5583709,41.8610202 C68.5583709,42.4688907 69.0511644,42.9622348 69.6595854,42.9622348 L72.2331239,42.9622348 C72.8415449,42.9622348 73.3343385,42.4688907 73.3343385,41.8610202 L73.3343385,40.1629474 C73.3343385,39.5550769 72.8415449,39.0617328 72.2331239,39.0617328 L72.2331239,39.0617328 Z M69.6595854,41.8610202 L72.2331239,41.8610202 L72.2331239,40.1629474 L69.6595854,40.1629474 L69.6595854,41.8610202 Z" id="Fill-63" fill="#FFFFFF" mask="url(#mask-2)"></path>
                <path d="M69.6591449,48.8597344 C69.3546591,48.8597344 69.1085377,48.613613 69.1085377,48.3091271 L69.1085377,46.6110543 C69.1085377,46.3065684 69.3546591,46.060447 69.6591449,46.060447 L72.2337846,46.060447 C72.5382704,46.060447 72.7843919,46.3065684 72.7843919,46.6110543 L72.7843919,48.3091271 C72.7843919,48.613613 72.5382704,48.8597344 72.2337846,48.8597344 L69.6591449,48.8597344 Z" id="Fill-64" fill="#FFFFFF" mask="url(#mask-2)"></path>
                <path d="M72.2331239,45.5098397 L69.6595854,45.5098397 C69.0511644,45.5098397 68.5583709,46.0031838 68.5583709,46.6110543 L68.5583709,48.3091271 C68.5583709,48.916447 69.0511644,49.4103417 69.6595854,49.4103417 L72.2331239,49.4103417 C72.8415449,49.4103417 73.3343385,48.916447 73.3343385,48.3091271 L73.3343385,46.6110543 C73.3343385,46.0031838 72.8415449,45.5098397 72.2331239,45.5098397 L72.2331239,45.5098397 Z M69.6595854,48.3091271 L72.2331239,48.3091271 L72.2331239,46.6110543 L69.6595854,46.6110543 L69.6595854,48.3091271 Z" id="Fill-65" fill="#FFFFFF" mask="url(#mask-2)"></path>
            </g>
        </g>
    </g>
</svg>