<?xml version="1.0" encoding="UTF-8"?>
<svg width="94px" height="87px" viewBox="0 0 94 87" version="1.1" xmlns="http://www.w3.org/2000/svg" xmlns:xlink="http://www.w3.org/1999/xlink">
    <!-- Generator: Sketch 55.2 (78181) - https://sketchapp.com -->
    <title>Onboarding02</title>
    <desc>Created with Sketch.</desc>
    <g id="Page-1" stroke="none" stroke-width="1" fill="none" fill-rule="evenodd">
        <g id="Onboarding2" transform="translate(-132.000000, -144.000000)">
            <g id="Onboarding02" transform="translate(104.000000, 107.000000)">
                <rect id="Rectangle" fill="#FFFFFF" fill-rule="nonzero" x="44.8535156" y="38.2089844" width="60.2929688" height="42.1230469"></rect>
                <path d="M105.146484,81.5039062 L44.8535156,81.5039062 C44.2063069,81.5039062 43.6816406,80.9792399 43.6816406,80.3320312 L43.6816406,38.2089844 C43.6816406,37.5617757 44.2063069,37.0371094 44.8535156,37.0371094 L105.146484,37.0371094 C105.793693,37.0371094 106.318359,37.5617757 106.318359,38.2089844 L106.318359,80.3320312 C106.318359,80.9792399 105.793693,81.5039062 105.146484,81.5039062 Z M46.0253906,79.1601562 L103.974609,79.1601562 L103.974609,39.3808594 L46.0253906,39.3808594 L46.0253906,79.1601562 Z" id="Shape" fill="#F15642" fill-rule="nonzero"></path>
                <path d="M104.103516,88.4765625 L94.4238281,88.4765625 C94.1002238,88.4765625 93.8378906,88.2142293 93.8378906,87.890625 L93.8378906,84.6035156 C93.8378906,84.2799113 94.1002238,84.0175781 94.4238281,84.0175781 L104.103516,84.0175781 C104.42712,84.0175781 104.689453,84.2799113 104.689453,84.6035156 L104.689453,87.890625 C104.689453,88.0460253 104.627721,88.1950608 104.517836,88.3049454 C104.407951,88.41483 104.258916,88.4765625 104.103516,88.4765625 Z M95.0097656,87.3046875 L103.517578,87.3046875 L103.517578,85.1894531 L95.0097656,85.1894531 L95.0097656,87.3046875 Z" id="Shape" fill="#1F1F1F" fill-rule="nonzero"></path>
                <path d="M97.6699219,123.632812 C97.1845154,123.632812 96.7910156,123.239313 96.7910156,122.753906 L96.7910156,98.6484375 C83.7546878,107.956606 66.2453122,107.956606 53.2089844,98.6484375 L53.2089844,122.753906 C53.2089844,123.239313 52.8154846,123.632812 52.3300781,123.632812 C51.8446716,123.632812 51.4511719,123.239313 51.4511719,122.753906 L51.4511719,96.796875 C51.4534457,96.4484459 51.6613364,96.134259 51.9811388,95.9959317 C52.3009413,95.8576045 52.6722634,95.9212588 52.9277344,96.1582031 C53.015625,96.234375 61.3652344,103.869141 75,103.869141 C88.6347656,103.869141 96.984375,96.2519531 97.0664062,96.1582031 C97.3214869,95.9172649 97.6954333,95.8511296 98.0176796,95.9899629 C98.3399259,96.1287963 98.5488281,96.4459942 98.5488281,96.796875 L98.5488281,122.753906 C98.5488281,123.239313 98.1553284,123.632812 97.6699219,123.632812 Z" id="Path" fill="#1F1F1F" fill-rule="nonzero"></path>
                <path d="M29.6601563,107.976562 C29.1747497,107.976562 28.78125,107.583063 28.78125,107.097656 C28.78125,106.61225 29.1747497,106.21875 29.6601562,106.21875 C43.2363281,106.21875 51.5683594,96.3398437 51.6503906,96.2578125 C51.8503058,96.0149835 52.1645828,95.8972538 52.4748365,95.948971 C52.7850901,96.0006882 53.0441855,96.2139952 53.154524,96.5085413 C53.2648624,96.8030875 53.2096808,97.1341242 53.0097656,97.3769531 C52.6523438,97.7929688 44.0859375,107.976562 29.6601563,107.976562 Z" id="Path" fill="#1F1F1F" fill-rule="nonzero"></path>
                <path d="M120.339844,107.976562 C105.914062,107.976562 97.3476562,97.7929688 96.9902344,97.359375 C96.6811922,96.983994 96.7349705,96.4291593 97.1103516,96.1201172 C97.4857326,95.811075 98.0405672,95.8648533 98.3496094,96.2402344 C98.4316406,96.3398437 106.763672,106.201172 120.339844,106.201172 C120.82525,106.201172 121.21875,106.594672 121.21875,107.080078 C121.21875,107.565485 120.82525,107.958984 120.339844,107.958984 L120.339844,107.976562 Z" id="Path" fill="#1F1F1F" fill-rule="nonzero"></path>
                <path d="M52.3300781,94.8867188 C51.8446716,94.8867188 51.4511719,94.493219 51.4511719,94.0078125 L51.4511719,92.578125 C51.4511719,92.0927185 51.8446716,91.6992188 52.3300781,91.6992188 C52.8154846,91.6992188 53.2089844,92.0927185 53.2089844,92.578125 L53.2089844,94.0195312 C53.2025728,94.5003552 52.8109448,94.8867615 52.3300781,94.8867188 Z" id="Path" fill="#1F1F1F" fill-rule="nonzero"></path>
                <path d="M97.6699219,94.8867188 C97.1845154,94.8867188 96.7910156,94.493219 96.7910156,94.0078125 L96.7910156,92.578125 C96.7910156,92.0927185 97.1845154,91.6992188 97.6699219,91.6992188 C98.1553284,91.6992188 98.5488281,92.0927185 98.5488281,92.578125 L98.5488281,94.0195312 C98.5424166,94.5003552 98.1507885,94.8867615 97.6699219,94.8867188 Z" id="Path" fill="#1F1F1F" fill-rule="nonzero"></path>
                <path d="M93.2695313,55.2421875 C90.9216911,55.2421875 89.0177929,53.3400159 89.0156411,50.9921767 C89.0134929,48.6443376 90.9139041,46.7386911 93.2617403,46.7343748 C95.6095764,46.7300732 97.5169696,48.6287313 97.5234537,50.9765625 C97.5265511,52.1067976 97.0797479,53.1918083 96.281648,53.9921069 C95.4835481,54.7924054 94.3997707,55.2421875 93.2695313,55.2421875 L93.2695313,55.2421875 Z M93.2695312,47.8535156 C91.9976717,47.8535156 90.8513894,48.6206402 90.3663283,49.7963708 C89.8812672,50.9721014 90.1532033,52.3243082 91.0550642,53.2211213 C91.956925,54.1179345 93.3106368,54.3822768 94.4836264,53.8906243 C95.656616,53.3989718 96.4172749,52.2484022 96.4102058,50.9765625 C96.3972999,49.2502492 94.9958895,47.8566826 93.2695312,47.8535156 Z" id="Shape" fill="#1F1F1F" fill-rule="nonzero"></path>
                <path d="M83.2382812,49.2832031 C82.6610348,49.3290454 82.1147037,49.0163573 81.8618516,48.495415 C81.6089995,47.9744728 81.7013282,47.3517956 82.094465,46.9266386 C82.4876018,46.5014816 83.1011604,46.3607784 83.640268,46.5721503 C84.1793755,46.7835221 84.5337985,47.3037489 84.5332031,47.8828125 C84.5474661,48.2403063 84.4189886,48.5887995 84.1760867,48.8514853 C83.9331847,49.1141712 83.5957965,49.2694875 83.2382812,49.2832031 Z M83.2382812,47.0625 C82.8971094,47.0136141 82.5614355,47.1816586 82.39614,47.4840911 C82.2308445,47.7865236 82.2706612,48.1597937 82.4960325,48.4205538 C82.7214037,48.6813139 83.0849719,48.7747702 83.4081551,48.6550176 C83.7313382,48.535265 83.9462254,48.2274673 83.9472656,47.8828125 C83.9742319,47.4617694 83.6587907,47.0967961 83.2382812,47.0625 Z" id="Shape" fill="#1F1F1F" fill-rule="nonzero"></path>
                <path d="M68.7246094,61.2363281 C68.1478963,61.2821255 67.6019827,60.9700509 67.3488241,60.4498527 C67.0956656,59.9296546 67.1869262,59.3074941 67.5788148,58.8819137 C67.9707034,58.4563333 68.5832441,58.3141848 69.1225103,58.5236778 C69.6617764,58.7331708 70.0177157,59.2515524 70.0195312,59.8300781 C70.0492754,60.5756197 69.47007,61.204621 68.7246094,61.2363281 Z M68.7246094,59.015625 C68.3829069,58.9666644 68.0467829,59.1353084 67.8817686,59.4385047 C67.7167544,59.741701 67.7576376,60.1155307 67.9842845,60.3758938 C68.2109314,60.6362568 68.575561,60.7282641 68.898604,60.6066048 C69.221647,60.4849455 69.4350003,60.1752676 69.4335937,59.8300781 C69.4604533,59.4101553 69.1442273,59.0468876 68.7246094,59.015625 Z" id="Shape" fill="#1F1F1F" fill-rule="nonzero"></path>
                <path d="M53.3203125,47.5898438 C52.7435995,47.6356411 52.1976858,47.3235665 51.9445273,46.8033684 C51.6913687,46.2831702 51.7826294,45.6610097 52.174518,45.2354293 C52.5664066,44.8098489 53.1789472,44.6677004 53.7182134,44.8771934 C54.2574796,45.0866864 54.6134188,45.605068 54.6152344,46.1835938 C54.6449786,46.9291353 54.0657732,47.5581367 53.3203125,47.5898438 Z M53.3203125,45.3691406 C52.97861,45.32018 52.6424861,45.488824 52.4774718,45.7920203 C52.3124575,46.0952167 52.3533407,46.4690464 52.5799876,46.7294094 C52.8066346,46.9897724 53.1712642,47.0817797 53.4943071,46.9601204 C53.8173501,46.8384612 54.0307034,46.5287832 54.0292969,46.1835937 C54.0561564,45.763671 53.7399305,45.4004032 53.3203125,45.3691406 L53.3203125,45.3691406 Z" id="Shape" fill="#1F1F1F" fill-rule="nonzero"></path>
                <path d="M100.810547,76.7578223 L49.21875,76.7578223 C49.0630061,76.7587129 48.9133118,76.6975702 48.8027344,76.5878906 C48.6930548,76.4773132 48.6319121,76.3276189 48.6328027,76.171875 L48.7148438,67.1777344 C48.7161252,66.9807649 48.8162885,66.7976192 48.9814397,66.6902709 C49.146591,66.5829226 49.3546288,66.5657376 49.5351562,66.6445312 C49.5644531,66.6445312 52.0253906,67.7285156 53.7597656,67.5820312 C54.421875,67.5234375 56.1679688,67.6171875 58.3769531,67.7285156 C62.2207031,67.9277344 68.6425781,68.2617188 69.7910156,67.6640625 C70.4415962,67.270664 71.0153525,66.7624231 71.484375,66.1640625 C72.3339844,65.2148438 73.3007812,64.1308594 75,64.1308594 C76.1961418,64.2009694 77.3444172,64.625199 78.2988281,65.3496094 C79.1894531,65.9355469 79.7636719,66.2460938 80.3789062,66.0878906 C81.1689124,65.7794171 81.9232877,65.3865133 82.6289062,64.9160156 C84.6210937,63.7441406 87.3574219,62.1503906 90.2460937,62.0742188 C92.8183594,62.015625 95.4609375,60.8085938 97.5820312,59.8417969 C98.5429098,59.3530526 99.5497612,58.9605179 100.587891,58.6699219 C100.763203,58.6322197 100.946128,58.676871 101.084353,58.7911066 C101.222578,58.9053423 101.300883,59.0765833 101.296875,59.2558594 L101.378916,76.1777344 C101.379807,76.3334783 101.318664,76.4831726 101.208984,76.59375 C101.101831,76.6970596 100.959377,76.7557172 100.810547,76.7578223 Z M49.8046875,75.5859375 L100.248047,75.5859375 L100.171875,60.0351563 C99.5859375,60.2460938 98.8828125,60.5683594 98.109375,60.9257813 C95.8886719,61.9335938 93.1289062,63.1992188 90.3164062,63.2695312 C87.7089844,63.3339844 85.125,64.8457031 83.2441406,65.9472656 C82.4497739,66.4738169 81.59376,66.9008399 80.6953125,67.21875 C79.5234375,67.5117188 78.609375,66.9199219 77.6953125,66.3398438 C76.9246911,65.741317 75.9960567,65.3808602 75.0234375,65.3027344 C73.8164063,65.3027344 73.1367188,66.0644531 72.3515625,66.9492188 C71.7925112,67.6553867 71.1070341,68.2514537 70.3300781,68.7070313 C69,69.3984375 64.3125,69.2167969 58.3125,68.90625 C56.2324219,68.8007813 54.4394531,68.7070313 53.8535156,68.7539063 C52.4937441,68.7799793 51.1420602,68.5391049 49.875,68.0449219 L49.8046875,75.5859375 Z" id="Shape" fill="#1F1F1F" fill-rule="nonzero"></path>
                <path d="M55.6640625,76.171875 C55.6640625,76.171875 55.9921875,67.8691406 55.9921875,67.2480469 C55.9921875,66.6269531 55.2421875,59.1210937 55.2421875,59.1210937 L55.6171875,53.2617187 L58.2421875,60.0820312 L59.3671875,46.1191406 L60.3046875,60.6445312 L62.1796875,69.1347656 L63.6796875,60.6445312 L65.7421875,66.84375 L66.8496094,76.171875 L55.6640625,76.171875 Z" id="Path" fill="#FFFFFF" fill-rule="nonzero"></path>
                <path d="M55.6640625,77.0683594 C55.4258127,77.065587 55.1983295,76.968696 55.03125,76.7988281 C54.8657464,76.6262869 54.7788205,76.3930712 54.7910156,76.1542969 C54.9199219,72.8261719 55.1132813,67.7109375 55.1132813,67.265625 C55.1132813,66.8203125 54.7324219,62.8359375 54.3691406,59.2265625 C54.3634952,59.1798575 54.3634952,59.1326425 54.3691406,59.0859375 L54.7441406,53.2265625 C54.7718443,52.814737 55.0806231,52.4767823 55.4882813,52.4121094 L55.6171875,52.4121094 C55.9860358,52.417318 56.3129465,52.6508256 56.4375,52.9980469 L57.6796875,56.2207031 L58.4765625,46.0546875 C58.4765625,45.569281 58.8700622,45.1757812 59.3554688,45.1757812 C59.8408753,45.1757812 60.234375,45.569281 60.234375,46.0546875 L61.171875,60.5332031 L62.0742188,64.6347656 L62.8066406,60.4980469 C62.8779728,60.1025368 63.2084921,59.8057932 63.609375,59.7773437 L63.6738281,59.7773437 C64.0475373,59.7759031 64.3812915,60.0109413 64.5058594,60.3632812 L66.5683594,66.5566406 C66.5856543,66.611983 66.5974305,66.6689009 66.6035156,66.7265625 L67.7285156,76.0722656 C67.7625567,76.3217794 67.6864538,76.5737678 67.5199896,76.7627271 C67.3535254,76.9516864 67.1131427,77.058952 66.8613281,77.0566406 L55.6640625,77.0683594 Z M65.8769531,75.3105469 L64.8808594,67.0429688 L63.9433594,64.21875 L63.046875,69.2929688 C62.9724343,69.7046187 62.6181689,70.0067563 62.1999294,70.0152918 C61.78169,70.0238273 61.4153925,69.7363951 61.3242188,69.328125 L59.4492188,60.84375 C59.4440355,60.7989776 59.4440355,60.7537567 59.4492188,60.7089844 L59.2910156,58.2773437 L59.1386719,60.1582031 C59.0937529,60.5707553 58.7663927,60.8956726 58.3535156,60.9375 L58.21875,60.9375 C57.8515033,60.931554 57.5266803,60.6978684 57.4042969,60.3515625 L56.2324219,57.2753906 L56.109375,59.1796875 C56.1855469,59.8945312 56.8535156,66.6328125 56.8535156,67.2949219 C56.8535156,67.7929688 56.6601562,72.8671875 56.5605469,75.3398437 L65.8769531,75.3105469 Z" id="Shape" fill="#1F1F1F" fill-rule="nonzero"></path>
                <path d="M59.3554688,45.5390615 C59.6658265,45.5385034 59.9227853,45.7800446 59.9414062,46.0898438 L60.8789062,60.5683594 L62.1035156,66.1347656 L63.09375,60.5507812 C63.1411177,60.2877698 63.3604463,60.090133 63.6269531,60.0703125 L63.6738281,60.0703125 C63.9251269,60.0730155 64.1467168,60.2356719 64.2246094,60.4746094 L66.2871094,66.6679688 C66.2904542,66.7069596 66.2904542,66.7461654 66.2871094,66.7851562 L67.4121094,76.125 C67.4307737,76.2912707 67.3774664,76.4575893 67.265625,76.5820312 C67.1559038,76.7069464 66.998281,76.7793676 66.8320312,76.78126 L55.6640625,76.78126 C55.5054411,76.7821764 55.3532217,76.7187517 55.2421875,76.6054688 C55.1302175,76.4896378 55.070879,76.3328147 55.078125,76.171875 C55.1894531,73.3066406 55.4003906,67.7519531 55.4003906,67.2714844 C55.4003906,66.7910156 54.9550781,62.2089844 54.65625,59.203125 C54.6503848,59.1721502 54.6503848,59.1403498 54.65625,59.109375 L55.03125,53.25 C55.0496757,52.9775838 55.2538163,52.7540012 55.5234375,52.7109375 L55.6113281,52.7109375 C55.8550455,52.7092221 56.074375,52.8585528 56.1621094,53.0859375 L57.8613281,57.5097656 L58.78125,46.1074219 C58.8057404,45.8022528 59.0610388,45.5673782 59.3671875,45.5683594 L59.3671875,45.5683594 L59.3554688,45.5390615 Z M58.2304688,60.703125 C57.9910366,60.7000158 57.7775889,60.5515304 57.6914063,60.328125 L56.015625,55.9746094 L55.8164062,59.1328125 C55.9101562,60.09375 56.5605469,66.6386719 56.5605469,67.265625 C56.5605469,67.7988281 56.3320312,73.6640625 56.2558594,75.6035156 L66.2167969,75.6035156 L65.1738281,66.9785156 L63.8671875,63.0292969 L62.7714844,69.2402344 C62.722484,69.5244585 62.4739334,69.7307554 62.1855469,69.7265625 L62.1855469,69.7265625 C61.9044769,69.7328166 61.6585791,69.5385574 61.5996094,69.2636719 L59.7246094,60.7792969 C59.721749,60.7500698 59.721749,60.7206333 59.7246094,60.6914062 L59.3027344,54.2460937 L58.828125,60.1582031 C58.8065246,60.430228 58.6000004,60.6513303 58.3300781,60.6914062 L58.2363281,60.6914062 L58.2304688,60.703125 Z M59.3730469,44.9707031 L59.3730469,44.9707031 C58.7607496,44.9687409 58.2501528,45.4384899 58.2011719,46.0488281 L57.4746094,54.8671875 L56.6953125,52.8515625 C56.5225088,52.3964968 56.0863803,52.095638 55.5996094,52.0957031 C55.5411571,52.0899448 55.4822804,52.0899448 55.4238281,52.0957031 C54.8802587,52.1798596 54.4683711,52.6307426 54.4335938,53.1796875 L54.0585938,59.0390625 C54.0527144,59.0994666 54.0527144,59.160299 54.0585938,59.2207031 C54.4277344,62.8828125 54.8027344,66.8789063 54.8027344,67.2363281 C54.8027344,67.6816406 54.609375,72.7910156 54.4804688,76.1132812 C54.4642846,76.4361499 54.5821942,76.7513628 54.8063026,76.9843467 C55.030411,77.2173307 55.340809,77.3473881 55.6640625,77.3438243 L66.8554688,77.3438243 C67.1890995,77.3431345 67.5066514,77.2003427 67.7285156,76.9511719 C67.9517064,76.6998897 68.0562653,76.3648743 68.015625,76.03125 L66.890625,66.6914063 C66.8789826,66.6144714 66.8633364,66.5381959 66.84375,66.4628906 L64.7753906,60.2636719 C64.6168847,59.7860812 64.1711713,59.4629979 63.6679688,59.4609375 L63.5742188,59.4609375 C63.0416429,59.503753 62.6054551,59.9013827 62.5136719,60.4277344 L62.0390625,63.1054688 L61.453125,60.4628906 L60.5214844,46.0546875 C60.4842424,45.4350892 59.9703249,44.9520068 59.3496094,44.9531231 L59.3730469,44.9707031 Z M56.4433594,59.1386719 L56.4433594,58.6992187 L57.1464844,60.5273437 C57.3196387,60.9761246 57.7494573,61.2735126 58.2304687,61.2773437 L58.4179687,61.2773437 C58.7022729,61.2343893 58.9608629,61.088411 59.1445312,60.8671875 C59.1417719,60.8885833 59.1417719,60.9102448 59.1445312,60.9316406 L61.0195312,69.421875 C61.1398885,69.9693108 61.6310484,70.3548714 62.1914062,70.3417969 C62.7681794,70.3501827 63.2652804,69.9375889 63.3632812,69.3691406 L64.0605469,65.4375 L64.6464844,67.1367187 L65.6015625,75.046875 L56.8652344,75.046875 C56.9707031,72.4804687 57.1464844,67.78125 57.1464844,67.2949219 C57.1464844,66.6328125 56.5019531,60.1113281 56.4023438,59.1503906 L56.4433594,59.1386719 Z" id="Shape" fill="#FFFFFF" fill-rule="nonzero"></path>
                <path d="M100.810547,76.7578125 L49.21875,76.7578125 C48.8951457,76.7578125 48.6328125,76.4954793 48.6328125,76.171875 L48.6328125,42.3515625 C48.6328125,42.0279582 48.8951457,41.765625 49.21875,41.765625 L100.839844,41.765625 C101.163448,41.765625 101.425782,42.0279582 101.425782,42.3515625 L101.425782,76.171875 C101.425782,76.3324871 101.360244,76.4861404 101.243939,76.5969075 C101.127634,76.7076745 100.970958,76.7658432 100.810547,76.7578125 Z M49.8046875,75.5859375 L100.253906,75.5859375 L100.253906,42.9375 L49.8046875,42.9375 L49.8046875,75.5859375 Z" id="Shape" fill="#F15642" fill-rule="nonzero"></path>
                <path d="M79.0488281,54.4160156 C78.1816406,54.4160156 77.2382812,54.1582031 76.8339844,53.6367188 C76.5996094,53.3378906 76.3535156,52.7109375 77.2910156,51.8496094 C77.4089004,51.7365104 77.5950059,51.7365104 77.7128906,51.8496094 C77.8267304,51.969464 77.8267304,52.1574891 77.7128906,52.2773438 C77.2617187,52.6816406 77.1269531,53.015625 77.3203125,53.2558594 C77.7714844,53.8417969 79.546875,53.9648438 80.1328125,53.5839844 C80.71875,53.203125 81.609375,52.265625 81.5039063,51.4042969 C81.421875,50.7304688 80.7597656,50.1679688 79.5292969,49.734375 C76.6875,48.7207031 73.5761719,49.8398438 70.8339844,50.8242188 C70.0371094,51.1054688 69.28125,51.375 68.578125,51.5800781 C67.40625,51.9140625 66.4511719,51.8554688 65.7597656,51.4042969 C65.2527083,51.0599036 64.9062008,50.5253524 64.7988281,49.921875 C64.8020163,49.7742141 64.9126003,49.6510311 65.0590631,49.631991 C65.205526,49.6129508 65.3439296,49.7037654 65.3847656,49.8457031 L65.3847656,49.8457031 C65.470589,50.2779132 65.7231952,50.6589275 66.0878906,50.90625 C66.6269531,51.2578125 67.40625,51.2871094 68.4316406,51 C69.1171875,50.8066406 69.8613281,50.5429688 70.6464844,50.2617188 C73.4882813,49.2421875 76.7050781,48.0878906 79.7460938,49.1660156 C81.2109375,49.6875 82.0078125,50.4140625 82.0898438,51.3339844 C82.2421875,52.5585938 81.0820313,53.6777344 80.4492188,54.0820313 C80.0218822,54.3196744 79.5374201,54.4352156 79.0488281,54.4160156 Z" id="Path" fill="#1F1F1F" fill-rule="nonzero"></path>
                <rect id="Rectangle" x="0" y="0" width="150" height="150"></rect>
            </g>
        </g>
    </g>
</svg>