<?xml version="1.0" encoding="UTF-8"?>
<svg width="104px" height="83px" viewBox="0 0 104 83" version="1.1" xmlns="http://www.w3.org/2000/svg" xmlns:xlink="http://www.w3.org/1999/xlink">
    <!-- Generator: Sketch 55.2 (78181) - https://sketchapp.com -->
    <title>Onboarding01</title>
    <desc>Created with Sketch.</desc>
    <defs>
        <polygon id="path-1" points="0 150 150 150 150 0 0 0"></polygon>
    </defs>
    <g id="Page-1" stroke="none" stroke-width="1" fill="none" fill-rule="evenodd">
        <g id="Onboarding1" transform="translate(-131.000000, -146.000000)">
            <g id="Onboarding01" transform="translate(106.000000, 108.000000)">
                <path d="M42.9802734,61.2035742 L89.1908203,61.2035742 L89.1908203,40.2680273 L42.9802734,40.2680273 L40.7800781,43.2738867 C40.4496094,43.7262305 39.6931641,43.7262305 39.3615234,43.2738867 L37.1607422,40.2680273 L26.9173828,40.2680273 L26.9173828,61.2035742 L37.1607422,61.2035742 L39.3615234,58.196543 C39.5267578,57.9703711 39.7904297,57.8367773 40.0705078,57.8367773 C40.3511719,57.8367773 40.6142578,57.9703711 40.7800781,58.196543 L42.9802734,61.2035742 Z M90.0697266,62.9613867 L42.534375,62.9613867 C42.2537109,62.9613867 41.990625,62.827207 41.8248047,62.6016211 L40.0705078,60.2039648 L38.3162109,62.6016211 C38.1503906,62.827207 37.8873047,62.9613867 37.6066406,62.9613867 L26.0384766,62.9613867 C25.5527344,62.9613867 25.1595703,62.5676367 25.1595703,62.0824805 L25.1595703,39.3891211 C25.1595703,38.9033789 25.5527344,38.5102148 26.0384766,38.5102148 L37.6066406,38.5102148 C37.8873047,38.5102148 38.1503906,38.6438086 38.3162109,38.8699805 L40.0705078,41.2670508 L41.8248047,38.8699805 C41.990625,38.6438086 42.2537109,38.5102148 42.534375,38.5102148 L90.0697266,38.5102148 C90.5554688,38.5102148 90.9486328,38.9033789 90.9486328,39.3891211 L90.9486328,62.0824805 C90.9486328,62.5676367 90.5554688,62.9613867 90.0697266,62.9613867 L90.0697266,62.9613867 Z" id="Fill-1" fill="#1F1F1F"></path>
                <path d="M39.9753516,48.2866406 C39.4896094,48.2866406 39.0964453,47.8928906 39.0964453,47.4077344 L39.0964453,47.1147656 C39.0964453,46.6296094 39.4896094,46.2358594 39.9753516,46.2358594 C40.4610938,46.2358594 40.8542578,46.6296094 40.8542578,47.1147656 L40.8542578,47.4077344 C40.8542578,47.8928906 40.4610938,48.2866406 39.9753516,48.2866406" id="Fill-3" fill="#1F1F1F"></path>
                <path d="M39.9753516,51.9183984 C39.4896094,51.9183984 39.0964453,51.5246484 39.0964453,51.0394922 L39.0964453,50.6363672 C39.0964453,50.150625 39.4896094,49.7574609 39.9753516,49.7574609 C40.4610938,49.7574609 40.8542578,50.150625 40.8542578,50.6363672 L40.8542578,51.0394922 C40.8542578,51.5246484 40.4610938,51.9183984 39.9753516,51.9183984" id="Fill-5" fill="#1F1F1F"></path>
                <path d="M39.9753516,55.4391797 C39.4896094,55.4391797 39.0964453,55.0454297 39.0964453,54.5602734 L39.0964453,54.2673047 C39.0964453,53.7821484 39.4896094,53.3883984 39.9753516,53.3883984 C40.4610938,53.3883984 40.8542578,53.7821484 40.8542578,54.2673047 L40.8542578,54.5602734 C40.8542578,55.0454297 40.4610938,55.4391797 39.9753516,55.4391797" id="Fill-7" fill="#1F1F1F"></path>
                <path d="M46.3106836,44.8190625 C45.9866602,44.8190625 45.7247461,44.5571484 45.7247461,44.233125 C45.7247461,43.9091016 45.9866602,43.6471875 46.3106836,43.6471875 L84.7552148,43.6471875 C85.0786523,43.6471875 85.3411523,43.9091016 85.3411523,44.233125 C85.3411523,44.5571484 85.0786523,44.8190625 84.7552148,44.8190625 L46.3106836,44.8190625 Z" id="Fill-9" fill="#1F1F1F"></path>
                <path d="M47.1839648,57.9923438 C46.8605273,57.9923438 46.5980273,57.7304297 46.5980273,57.4064063 L46.5980273,50.9241797 C46.5980273,50.6007422 46.8605273,50.3382422 47.1839648,50.3382422 C47.5074023,50.3382422 47.7699023,50.6007422 47.7699023,50.9241797 L47.7699023,57.4064063 C47.7699023,57.7304297 47.5074023,57.9923438 47.1839648,57.9923438" id="Fill-11" fill="#1F1F1F"></path>
                <path d="M33.5119922,44.8190625 L31.0446094,44.8190625 C30.7205859,44.8190625 30.4586719,44.5571484 30.4586719,44.233125 C30.4586719,43.9091016 30.7205859,43.6471875 31.0446094,43.6471875 L33.5119922,43.6471875 C33.8354297,43.6471875 34.0979297,43.9091016 34.0979297,44.233125 C34.0979297,44.5571484 33.8354297,44.8190625 33.5119922,44.8190625" id="Fill-15" fill="#1F1F1F"></path>
                <path d="M50.5225195,57.9923438 C50.199082,57.9923438 49.936582,57.7304297 49.936582,57.4064063 L49.936582,50.9241797 C49.936582,50.6007422 50.199082,50.3382422 50.5225195,50.3382422 C50.845957,50.3382422 51.108457,50.6007422 51.108457,50.9241797 L51.108457,57.4064063 C51.108457,57.7304297 50.845957,57.9923438 50.5225195,57.9923438" id="Fill-17" fill="#1F1F1F"></path>
                <mask id="mask-2" fill="white">
                    <use xlink:href="#path-1"></use>
                </mask>
                <g id="Clip-20"></g>
                <path d="M55.0347656,56.8212891 L69.6216797,56.8212891 L69.6216797,51.5109375 L55.0347656,51.5109375 L55.0347656,56.8212891 Z M70.2070312,57.9931641 L54.4488281,57.9931641 C54.1253906,57.9931641 53.8628906,57.7306641 53.8628906,57.4072266 L53.8628906,50.9244141 C53.8628906,50.6003906 54.1253906,50.3384766 54.4488281,50.3384766 L70.2070312,50.3384766 C70.5310547,50.3384766 70.7929688,50.6003906 70.7929688,50.9244141 L70.7929688,57.4072266 C70.7929688,57.7306641 70.5310547,57.9931641 70.2070312,57.9931641 L70.2070312,57.9931641 Z" id="Fill-19" fill="#1F1F1F" mask="url(#mask-2)"></path>
                <path d="M46.3495898,86.774707 L46.3495898,85.3098633 C46.3495898,84.8493164 46.722832,84.4754883 47.1839648,84.4754883 C47.6450977,84.4754883 48.0183398,84.8493164 48.0183398,85.3098633 L48.0183398,86.774707 C48.0183398,87.2352539 47.6450977,87.609082 47.1839648,87.609082 C46.722832,87.609082 46.3495898,87.2352539 46.3495898,86.774707 Z" id="Fill-22" fill="#1F1F1F" mask="url(#mask-2)"></path>
                <path d="M47.1839648,82.0169531 C46.722832,82.0169531 46.3495898,81.643125 46.3495898,81.1825781 L46.3495898,78.2347266 C46.3495898,77.7741797 46.722832,77.4003516 47.1839648,77.4003516 C47.6450977,77.4003516 48.0183398,77.7741797 48.0183398,78.2347266 L48.0183398,81.1825781 C48.0183398,81.643125 47.6450977,82.0169531 47.1839648,82.0169531" id="Fill-23" fill="#1F1F1F" mask="url(#mask-2)"></path>
                <path d="M47.1839648,74.9410547 C46.722832,74.9410547 46.3495898,74.5672266 46.3495898,74.1066797 L46.3495898,72.6418359 C46.3495898,72.1812891 46.722832,71.8074609 47.1839648,71.8074609 C47.6450977,71.8074609 48.0183398,72.1812891 48.0183398,72.6418359 L48.0183398,74.1066797 C48.0183398,74.5672266 47.6450977,74.9410547 47.1839648,74.9410547" id="Fill-24" fill="#1F1F1F" mask="url(#mask-2)"></path>
                <path d="M52.4321484,73.6901953 C52.108125,73.6901953 51.8462109,73.4282812 51.8462109,73.1042578 C51.8462109,72.7802344 52.108125,72.5183203 52.4321484,72.5183203 L90.8766797,72.5183203 C91.2001172,72.5183203 91.4626172,72.7802344 91.4626172,73.1042578 C91.4626172,73.4282812 91.2001172,73.6901953 90.8766797,73.6901953 L52.4321484,73.6901953 Z" id="Fill-25" fill="#1F1F1F" mask="url(#mask-2)"></path>
                <path d="M52.4319727,76.9541016 C52.1085352,76.9541016 51.8460352,76.6921875 51.8460352,76.3681641 C51.8460352,76.0441406 52.1085352,75.7822266 52.4319727,75.7822266 L69.4470117,75.7822266 C69.7704492,75.7822266 70.0329492,76.0441406 70.0329492,76.3681641 C70.0329492,76.6921875 69.7704492,76.9541016 69.4470117,76.9541016 L52.4319727,76.9541016 Z" id="Fill-26" fill="#1F1F1F" mask="url(#mask-2)"></path>
                <path d="M39.6791016,86.5328125 L42.2830078,86.5328125 L42.2830078,81.540625 L39.6791016,81.540625 L39.6791016,86.5328125 Z M42.8689453,87.7046875 L39.0931641,87.7046875 C38.7697266,87.7046875 38.5072266,87.4421875 38.5072266,87.11875 L38.5072266,80.9546875 C38.5072266,80.6306641 38.7697266,80.36875 39.0931641,80.36875 L42.8689453,80.36875 C43.1923828,80.36875 43.4548828,80.6306641 43.4548828,80.9546875 L43.4548828,87.11875 C43.4548828,87.4421875 43.1923828,87.7046875 42.8689453,87.7046875 L42.8689453,87.7046875 Z" id="Fill-31" fill="#1F1F1F" mask="url(#mask-2)"></path>
                <path d="M34.2106641,90.0741797 L96.4841016,90.0741797 L96.4841016,69.1392187 L34.2106641,69.1392187 L34.2106641,76.0485937 C35.6883984,76.5776953 36.7284375,77.9927344 36.7284375,79.6064062 C36.7284375,81.2206641 35.6883984,82.6357031 34.2106641,83.1642187 L34.2106641,90.0741797 Z M97.3630078,91.8319922 L33.3317578,91.8319922 C32.8460156,91.8319922 32.4528516,91.4382422 32.4528516,90.9530859 L32.4528516,82.4786719 C32.4528516,82.0392187 32.7774609,81.6671484 33.2128125,81.6079687 C34.2147656,81.4708594 34.970625,80.6107031 34.970625,79.6064062 C34.970625,78.6026953 34.2147656,77.7419531 33.2128125,77.6054297 C32.7774609,77.5456641 32.4528516,77.1735937 32.4528516,76.7341406 L32.4528516,68.2603125 C32.4528516,67.7745703 32.8460156,67.3814062 33.3317578,67.3814062 L97.3630078,67.3814062 C97.84875,67.3814062 98.2419141,67.7745703 98.2419141,68.2603125 L98.2419141,90.9530859 C98.2419141,91.4382422 97.84875,91.8319922 97.3630078,91.8319922 L97.3630078,91.8319922 Z" id="Fill-32" fill="#1F1F1F" mask="url(#mask-2)"></path>
                <path d="M54.5800195,104.840449 C54.0942773,104.840449 53.7011133,104.446699 53.7011133,103.961543 L53.7011133,103.668574 C53.7011133,103.183418 54.0942773,102.789668 54.5800195,102.789668 C55.0657617,102.789668 55.4589258,103.183418 55.4589258,103.668574 L55.4589258,103.961543 C55.4589258,104.446699 55.0657617,104.840449 54.5800195,104.840449" id="Fill-33" fill="#1F1F1F" mask="url(#mask-2)"></path>
                <path d="M54.5800195,109.814062 C54.0942773,109.814062 53.7011133,109.420312 53.7011133,108.935156 L53.7011133,108.224414 C53.7011133,107.739258 54.0942773,107.345508 54.5800195,107.345508 C55.0657617,107.345508 55.4589258,107.739258 55.4589258,108.224414 L55.4589258,108.935156 C55.4589258,109.420312 55.0657617,109.814062 54.5800195,109.814062" id="Fill-34" fill="#1F1F1F" mask="url(#mask-2)"></path>
                <path d="M54.5800195,114.369375 C54.0942773,114.369375 53.7011133,113.975625 53.7011133,113.490469 L53.7011133,113.1975 C53.7011133,112.712344 54.0942773,112.318594 54.5800195,112.318594 C55.0657617,112.318594 55.4589258,112.712344 55.4589258,113.1975 L55.4589258,113.490469 C55.4589258,113.975625 55.0657617,114.369375 54.5800195,114.369375" id="Fill-35" fill="#1F1F1F" mask="url(#mask-2)"></path>
                <path d="M99.3598828,104.000449 L68.3620313,104.000449 C68.0380078,104.000449 67.7760938,103.738535 67.7760938,103.414512 C67.7760938,103.090488 68.0380078,102.828574 68.3620313,102.828574 L99.3598828,102.828574 C99.6833203,102.828574 99.9458203,103.090488 99.9458203,103.414512 C99.9458203,103.738535 99.6833203,104.000449 99.3598828,104.000449" id="Fill-36" fill="#1F1F1F" mask="url(#mask-2)"></path>
                <path d="M89.0648437,114.563086 L98.7738281,114.563086 L98.7738281,109.252734 L89.0648437,109.252734 L89.0648437,114.563086 Z M99.3597656,115.734961 L88.4789062,115.734961 C88.1554687,115.734961 87.8929687,115.472461 87.8929687,115.149023 L87.8929687,108.666211 C87.8929687,108.342187 88.1554687,108.080273 88.4789062,108.080273 L99.3597656,108.080273 C99.6832031,108.080273 99.9457031,108.342187 99.9457031,108.666211 L99.9457031,115.149023 C99.9457031,115.472461 99.6832031,115.734961 99.3597656,115.734961 L99.3597656,115.734961 Z" id="Fill-41" fill="#1F1F1F" mask="url(#mask-2)"></path>
                <path d="M57.5846484,118.944727 L103.795781,118.944727 L103.795781,98.0097656 L57.5846484,98.0097656 L55.3844531,101.015625 C55.2186328,101.241797 54.9555469,101.375977 54.6748828,101.375977 C54.3948047,101.375977 54.1311328,101.241797 53.9658984,101.015625 L51.7651172,98.0097656 L41.5217578,98.0097656 L41.5217578,98.7638672 C42.6162891,99.2537109 43.3533984,100.347656 43.3533984,101.591602 C43.3533984,102.835547 42.616875,103.929492 41.5217578,104.419922 L41.5217578,105.649219 C42.616875,106.139648 43.3533984,107.233594 43.3533984,108.477539 C43.3533984,109.721484 42.6162891,110.81543 41.5217578,111.305273 L41.5217578,112.535156 C42.616875,113.025 43.3533984,114.119531 43.3533984,115.363477 C43.3533984,116.607422 42.6162891,117.701367 41.5217578,118.191211 L41.5217578,118.944727 L51.7651172,118.944727 L53.9658984,115.938281 C54.2963672,115.486523 55.0528125,115.486523 55.3844531,115.938281 L57.5846484,118.944727 Z M104.674688,120.702539 L57.13875,120.702539 C56.8586719,120.702539 56.5955859,120.568359 56.4297656,120.342773 L54.6748828,117.945703 L52.9205859,120.342773 C52.7547656,120.568359 52.4916797,120.702539 52.2116016,120.702539 L40.6428516,120.702539 C40.1576953,120.702539 39.7639453,120.308789 39.7639453,119.823633 L39.7639453,117.549023 C39.7639453,117.123633 40.0692187,116.75918 40.4881641,116.68418 C41.1297656,116.56875 41.5955859,116.013281 41.5955859,115.363477 C41.5955859,114.713086 41.1297656,114.157617 40.4875781,114.042187 C40.0686328,113.966602 39.7639453,113.602148 39.7639453,113.176758 L39.7639453,110.663086 C39.7639453,110.237695 40.0692187,109.873242 40.4881641,109.798242 C41.1297656,109.682812 41.5955859,109.127344 41.5955859,108.477539 C41.5955859,107.827148 41.1297656,107.27168 40.4875781,107.15625 C40.0686328,107.080664 39.7639453,106.716211 39.7639453,106.29082 L39.7639453,103.777734 C39.7639453,103.35293 40.0686328,102.988477 40.4875781,102.912891 C41.1297656,102.796875 41.5955859,102.241406 41.5955859,101.591602 C41.5955859,100.941211 41.1297656,100.385742 40.4881641,100.270898 C40.0692187,100.195898 39.7639453,99.8314453 39.7639453,99.4054687 L39.7639453,97.1308594 C39.7639453,96.6451172 40.1576953,96.2519531 40.6428516,96.2519531 L52.2116016,96.2519531 C52.4916797,96.2519531 52.7547656,96.3855469 52.9205859,96.6117187 L54.6748828,99.0087891 L56.4297656,96.6117187 C56.5955859,96.3855469 56.8586719,96.2519531 57.13875,96.2519531 L104.674688,96.2519531 C105.159844,96.2519531 105.553594,96.6451172 105.553594,97.1308594 L105.553594,119.823633 C105.553594,120.308789 105.159844,120.702539 104.674688,120.702539 L104.674688,120.702539 Z" id="Fill-43" fill="#1F1F1F" mask="url(#mask-2)"></path>
                <path d="M100.028892,85.2327003 L104.289383,89.4931921 C105.209296,88.7422297 106.57115,88.795665 107.427598,89.6515625 L126.528574,108.753125 C126.970957,109.194336 127.215293,109.783203 127.215293,110.410156 C127.215293,111.035937 126.971543,111.624219 126.528574,112.067187 L123.418418,115.176758 C122.961387,115.634375 122.361387,115.862305 121.761387,115.862305 C121.161387,115.862305 120.560801,115.634375 120.10377,115.176758 L101.003965,96.0769531 C100.560996,95.6339844 100.317246,95.0457031 100.317246,94.4199219 C100.317246,93.9454093 100.456873,93.4927136 100.716821,93.1088305 L96.4209192,88.8124964 C91.9909996,92.3782616 86.5912127,94.1607617 81.1914258,94.1607617 C74.9664258,94.1607617 68.7414258,91.7918164 64.0023633,87.0527539 C54.5242383,77.5746289 54.5242383,62.1527539 64.0023633,52.6746289 C68.5937695,48.0832227 74.6980664,45.5543164 81.1914258,45.5543164 C87.6841992,45.5543164 93.789082,48.0832227 98.3804883,52.6746289 C102.971895,57.2660352 105.500215,63.370332 105.500215,69.8636914 C105.500215,75.5324703 103.573257,80.9047254 100.028892,85.2327003 Z M92.8688133,57.9249798 C86.3531883,51.4093548 75.7893211,51.4093548 69.2731102,57.9249798 C62.7574852,64.4406048 62.7574852,75.004472 69.2731102,81.5206829 C75.7893211,88.0363079 86.3531883,88.0363079 92.8688133,81.5206829 C99.3844383,75.004472 99.3844383,64.4406048 92.8688133,57.9249798 Z" id="Combined-Shape" stroke="#FFFFFF" stroke-width="3" fill="#FFFFFF" mask="url(#mask-2)"></path>
                <path d="M125.699883,111.238496 L122.589727,114.348652 C122.132109,114.80627 121.390313,114.80627 120.932695,114.348652 L101.832305,95.2482617 C101.374688,94.7906445 101.374688,94.0482617 101.832305,93.5912305 L104.942461,90.4804883 C105.400078,90.023457 106.141875,90.023457 106.599492,90.4804883 L125.699883,109.581465 C126.1575,110.038496 126.1575,110.780879 125.699883,111.238496" id="Fill-44" fill="#FFFFFF" mask="url(#mask-2)"></path>
                <path d="M105.771152,91.3091797 L102.660996,94.4199219 L121.761387,113.519727 L124.872129,110.408984 L105.771152,91.3091797 Z M121.761387,115.862305 C121.161387,115.862305 120.560801,115.634375 120.10377,115.176758 L101.003965,96.0769531 C100.560996,95.6339844 100.317246,95.0457031 100.317246,94.4199219 C100.317246,93.7929688 100.560996,93.2041016 101.003965,92.7617188 L104.113535,89.6521484 C105.027598,88.7386719 106.514707,88.7392578 107.427598,89.6515625 L126.528574,108.753125 C126.970957,109.194336 127.215293,109.783203 127.215293,110.410156 C127.215293,111.035938 126.971543,111.624219 126.528574,112.067188 L123.418418,115.176758 C122.961387,115.634375 122.361387,115.862305 121.761387,115.862305 L121.761387,115.862305 Z" id="Fill-45" fill="#F15642" mask="url(#mask-2)"></path>
                <polygon id="Fill-46" fill="#FFFFFF" mask="url(#mask-2)" points="104.281113 91.1421289 102.34459 93.0792383 96.5203711 87.2550195 98.4574805 85.3184961"></polygon>
                <path d="M98.1776953,87.2551367 L102.344297,91.4217383 L102.623789,91.1422461 L98.4571875,86.9750586 L98.1776953,87.2551367 Z M102.344297,94.2506445 C102.03375,94.2506445 101.735508,94.1275977 101.515781,93.9078711 L95.6921484,88.0836523 C95.2345313,87.6260352 95.2345313,86.8842383 95.6915625,86.4266211 L97.6286719,84.4895117 C98.068125,84.0500586 98.84625,84.0494727 99.2857031,84.4895117 L105.109922,90.3137305 C105.567539,90.7713477 105.567539,91.5131445 105.109922,91.9707617 L103.173398,93.9078711 C102.953086,94.1275977 102.65543,94.2506445 102.344297,94.2506445 L102.344297,94.2506445 Z" id="Fill-47" fill="#F15642" mask="url(#mask-2)"></path>
                <path d="M92.5050558,81.1772861 C86.2565626,87.4252338 76.126289,87.4252338 69.8777957,81.1772861 C63.6293025,74.9287929 63.6293025,64.7985193 69.8777957,58.5494805 C76.126289,52.3009872 86.2565626,52.3009872 92.5050558,58.5494805 C98.7535491,64.7985193 98.7535491,74.9287929 92.5050558,81.1772861 M97.5519727,53.5031445 C88.5162305,44.4674023 73.8666211,44.4674023 64.8308789,53.5031445 C55.7951367,62.5388867 55.7951367,77.1884961 64.8308789,86.2242383 C73.8666211,95.2588086 88.5162305,95.2588086 97.5519727,86.2242383 C106.587129,77.1884961 106.587129,62.5388867 97.5519727,53.5031445" id="Fill-48" fill="#FFFFFF" mask="url(#mask-2)"></path>
                <path d="M81.1914258,53.8517773 C76.914668,53.8517773 72.8939648,55.5170117 69.8693555,58.5410352 C63.6261914,64.7847852 63.6261914,74.9425977 69.8693555,81.1857617 C76.1125195,87.4283398 86.270332,87.427168 92.5134961,81.1857617 C98.7560742,74.9425977 98.7560742,64.7847852 92.5134961,58.5410352 C89.4888867,55.5170117 85.4681836,53.8517773 81.1914258,53.8517773 L81.1914258,53.8517773 Z M81.1914097,86.8628722 C76.8360652,86.8628722 72.4807208,85.2053222 69.1650778,81.8896792 C62.5332488,75.2583931 62.5332488,64.4677586 69.1650778,57.8364725 C72.3770221,54.6239852 76.6482132,52.8551356 81.1914097,52.8551356 C85.7346061,52.8551356 90.0057972,54.6239852 93.2177415,57.8364725 C99.8490276,64.4677586 99.8490276,75.2583931 93.2177415,81.8896792 C89.9020985,85.2053222 85.5467541,86.8628722 81.1914097,86.8628722 L81.1914097,86.8628722 Z M81.1914258,48.8636818 C75.8111215,48.8636818 70.4308173,50.9115602 66.3350607,55.0073168 C58.1435475,63.19883 58.1435475,76.5279733 66.3350607,84.7200469 C74.5271343,92.9109997 87.8557172,92.9109997 96.0477909,84.7200469 C104.239304,76.5279733 104.239304,63.19883 96.0477909,55.0073168 C91.9514738,50.9115602 86.5711696,48.8636818 81.1914258,48.8636818 L81.1914258,48.8636818 Z M81.1914258,94.1607617 C74.9664258,94.1607617 68.7414258,91.7918164 64.0023633,87.0527539 C54.5242383,77.5746289 54.5242383,62.1527539 64.0023633,52.6746289 C68.5937695,48.0832227 74.6980664,45.5543164 81.1914258,45.5543164 C87.6841992,45.5543164 93.789082,48.0832227 98.3804883,52.6746289 C102.971895,57.2660352 105.500215,63.370332 105.500215,69.8636914 C105.500215,76.3570508 102.971895,82.4613477 98.3804883,87.0527539 C93.6414258,91.7918164 87.4164258,94.1607617 81.1914258,94.1607617 L81.1914258,94.1607617 Z" id="Fill-49" fill="#F15642" mask="url(#mask-2)"></path>
                <g id="Group-52" mask="url(#mask-2)">
                    <g transform="translate(63.867188, 52.320312)">
                        <path d="M29.1217969,5.74552734 C35.6374219,12.2611523 35.6374219,22.8250195 29.1217969,29.3412305 C22.6061719,35.8568555 12.0423047,35.8568555 5.52609375,29.3412305 C-0.98953125,22.8250195 -0.98953125,12.2611523 5.52609375,5.74552734 C12.0423047,-0.770097656 22.6061719,-0.770097656 29.1217969,5.74552734" id="Fill-50" fill="#FFFFFF" opacity="0.7"></path>
                        <path d="M17.3240625,1.45224609 C13.2014063,1.45224609 9.07933594,3.02138672 5.94046875,6.15966797 C-0.33609375,12.4368164 -0.33609375,22.649707 5.94046875,28.9268555 C12.2176172,35.2040039 22.4305078,35.2040039 28.7076563,28.9268555 C34.9842188,22.649707 34.9842188,12.4368164 28.7076563,6.15966797 C25.5687891,3.02138672 21.4467188,1.45224609 17.3240625,1.45224609 M17.3240625,34.8055664 C12.9014063,34.8055664 8.47875,33.122168 5.11195313,29.7553711 C-1.62164062,23.0217773 -1.62164062,12.0647461 5.11195313,5.33115234 C11.8455469,-1.40244141 22.8025781,-1.40244141 29.5361719,5.33115234 C36.2697656,12.0647461 36.2697656,23.0217773 29.5361719,29.7553711 C26.169375,33.122168 21.7467187,34.8055664 17.3240625,34.8055664" id="Fill-51" fill="#F15642"></path>
                    </g>
                </g>
            </g>
        </g>
    </g>
</svg>