<?xml version="1.0" encoding="UTF-8"?>
<svg width="34px" height="34px" viewBox="0 0 34 34" version="1.1" xmlns="http://www.w3.org/2000/svg" xmlns:xlink="http://www.w3.org/1999/xlink">
    <!-- Generator: Sketch 55.2 (78181) - https://sketchapp.com -->
    <title>icon/mypage/unselected </title>
    <desc>Created with Sketch.</desc>
    <g id="icon/mypage/unselected-" stroke="none" stroke-width="1" fill="none" fill-rule="evenodd">
        <g id="Group-6">
            <path d="M7.8469,26.6576 L25.9839,26.6576 C25.5299,22.0536 21.6359,18.4456 16.9159,18.4456 C12.1949,18.4456 8.3009,22.0536 7.8469,26.6576 M26.9299,28.4596 L6.9009,28.4596 C6.4039,28.4596 5.9999,28.0556 5.9999,27.5576 C5.9999,21.5396 10.8969,16.6426 16.9159,16.6426 C22.9339,16.6426 27.8309,21.5396 27.8309,27.5576 C27.8309,28.0556 27.4279,28.4596 26.9299,28.4596 Z M16.9158,6.8022 C14.7058,6.8022 12.9068,8.6012 12.9068,10.8112 C12.9068,13.0212 14.7058,14.8202 16.9158,14.8202 C19.1258,14.8202 20.9238,13.0212 20.9238,10.8112 C20.9238,8.6012 19.1258,6.8022 16.9158,6.8022 Z M16.9158,16.6222 C13.7108,16.6222 11.1038,14.0152 11.1038,10.8112 C11.1038,7.6072 13.7108,5.0002 16.9158,5.0002 C20.1198,5.0002 22.7268,7.6072 22.7268,10.8112 C22.7268,14.0152 20.1198,16.6222 16.9158,16.6222 Z" id="Fill-3" fill="#626261"></path>
            <rect id="Rectangle" x="0" y="0" width="34" height="34"></rect>
        </g>
    </g>
</svg>