<?xml version="1.0" encoding="UTF-8"?>
<svg width="34px" height="34px" viewBox="0 0 34 34" version="1.1" xmlns="http://www.w3.org/2000/svg" xmlns:xlink="http://www.w3.org/1999/xlink">
    <!-- Generator: Sketch 55.2 (78181) - https://sketchapp.com -->
    <title>icon/list/unselected</title>
    <desc>Created with Sketch.</desc>
    <g id="icon/list/unselected" stroke="none" stroke-width="1" fill="none" fill-rule="evenodd">
        <g id="icon/list/selected">
            <path d="M21.1369,18.1081 C19.2489,18.1081 17.7139,19.6441 17.7139,21.5321 C17.7139,23.4201 19.2489,24.9551 21.1369,24.9551 C23.0249,24.9551 24.5599,23.4201 24.5599,21.5321 C24.5599,19.6441 23.0249,18.1081 21.1369,18.1081 M25.2473774,24.6172413 L28.1629,27.5336 C28.4989,27.8696 28.4989,28.4136 28.1629,28.7486 C27.9959,28.9166 27.7759,29.0006 27.5559,29.0006 C27.3359,29.0006 27.1169,28.9166 26.9489,28.7486 L24.0000763,25.7997763 C23.1811672,26.3504888 22.1958689,26.6721 21.1369,26.6721 C18.3019,26.6721 15.9949,24.3671 15.9949,21.5321 C15.9949,18.6971 18.3019,16.3901 21.1369,16.3901 C23.9719,16.3901 26.2789,18.6971 26.2789,21.5321 C26.2789,22.688929 25.8947686,23.7575094 25.2473774,24.6172413 Z M12.9065,20.5045 L8.7135,20.5045 C8.2395,20.5045 7.8545,20.1195 7.8545,19.6455 C7.8545,19.1705 8.2395,18.7865 8.7135,18.7865 L12.9065,18.7865 C13.3815,18.7865 13.7655,19.1705 13.7655,19.6455 C13.7655,20.1195 13.3815,20.5045 12.9065,20.5045 Z M17.862,28.235 L5.859,28.235 C5.384,28.235 5,27.85 5,27.376 L5,5.859 C5,5.384 5.384,5 5.859,5 L25.323,5 C25.798,5 26.182,5.384 26.182,5.859 L26.182,16.792 C26.182,17.266 25.798,17.651 25.323,17.651 C24.849,17.651 24.465,17.266 24.465,16.792 L24.465,6.717 L6.718,6.717 L6.718,26.517 L17.862,26.517 C18.337,26.517 18.721,26.901 18.721,27.376 C18.721,27.85 18.337,28.235 17.862,28.235 Z M21.864,11.5329 L8.714,11.5329 C8.239,11.5329 7.855,11.1479 7.855,10.6749 C7.855,10.1999 8.239,9.8149 8.714,9.8149 L21.864,9.8149 C22.339,9.8149 22.723,10.1999 22.723,10.6749 C22.723,11.1479 22.339,11.5329 21.864,11.5329 Z M17.6785,15.9235 L8.7135,15.9235 C8.2395,15.9235 7.8545,15.5385 7.8545,15.0645 C7.8545,14.5895 8.2395,14.2055 8.7135,14.2055 L17.6785,14.2055 C18.1535,14.2055 18.5375,14.5895 18.5375,15.0645 C18.5375,15.5385 18.1535,15.9235 17.6785,15.9235 Z" id="Fill-9" fill="#626261"></path>
            <rect id="Rectangle" x="0" y="-0.0003" width="34" height="34"></rect>
        </g>
    </g>
</svg>