<?xml version="1.0" encoding="UTF-8"?>
<svg width="56px" height="56px" viewBox="0 0 56 56" version="1.1" xmlns="http://www.w3.org/2000/svg" xmlns:xlink="http://www.w3.org/1999/xlink">
    <!-- Generator: Sketch 57.1 (83088) - https://sketch.com -->
    <title>icon/login/google</title>
    <desc>Created with Sketch.</desc>
    <defs>
        <path d="M11.4860455,5.09449091 C13.1338895,5.09449091 14.6589087,4.56861526 15.9024355,3.67553145 L20.129883,7.08099725 C17.8431984,9.14859187 14.8116696,10.4077636 11.4860455,10.4077636 C6.47637533,10.4077636 2.13406502,7.55045665 -9.85880505e-05,3.37662957 L4.32880193,0.01523592 C5.36176806,2.97278996 8.17613185,5.09449091 11.4860455,5.09449091 Z" id="path-1"></path>
        <path d="M1.46198781,0.0163321701 L5.78732366,3.34094233 C5.48079944,4.16422928 5.31327273,5.05517339 5.31327273,5.98524545 C5.31327273,6.89564946 5.47378904,7.76856288 5.76806438,8.57722841 L1.41557082,11.8645982 C0.51066179,10.1016951 0,8.103106 0,5.98524545 C0,3.83143864 0.528143742,1.80098641 1.46198781,0.0163321701 Z" id="path-3"></path>
        <path d="M11.4547909,0 C15.0258562,0 18.257814,1.45189171 20.5925688,3.79757957 L16.8491736,7.56846606 C15.4749245,6.17617257 13.5656282,5.31327273 11.4547909,5.31327273 C8.19897134,5.31327273 5.42263635,7.36619031 4.34961457,10.2481969 L0.0243455248,6.92345905 C2.17774544,2.80824372 6.48831794,0 11.4547909,0 Z" id="path-5"></path>
    </defs>
    <g id="icon/login/google" stroke="none" stroke-width="1" fill="none" fill-rule="evenodd">
        <g id="Group">
            <g>
                <circle id="Oval" stroke="#C4C4C4" opacity="0.4" cx="28" cy="28" r="28"></circle>
                <g id="Google" transform="translate(15.000000, 15.000000)">
                    <g id="Group-5" transform="translate(12.970636, 10.220236)" fill="#4285F4">
                        <path d="M12.5370691,1.77635684e-15 C12.7187902,0.862148393 12.8143636,1.75604483 12.8143636,2.67226364 C12.8143636,3.12483971 12.791044,3.5719692 12.7455407,4.01251605 C12.4095137,7.265815 10.8637358,10.1601401 8.56570122,12.2379973 L4.34222781,8.82967537 C5.55469398,7.95771535 6.49913506,6.73648597 7.0282655,5.31327278 L-3.55271368e-15,5.31327273 L-3.55271368e-15,1.77635684e-15 L12.5370691,1.77635684e-15 Z" id="Combined-Shape"></path>
                    </g>
                    <g id="Group-5" transform="translate(1.406455, 15.377236)">
                        <mask id="mask-2" fill="white">
                            <use xlink:href="#path-1"></use>
                        </mask>
                        <use id="Combined-Shape" fill="#34A853" xlink:href="#path-1"></use>
                    </g>
                    <g id="Group-5" transform="translate(0.000000, 6.907255)">
                        <mask id="mask-4" fill="white">
                            <use xlink:href="#path-3"></use>
                        </mask>
                        <use id="Combined-Shape" fill="#FBBC05" xlink:href="#path-3"></use>
                    </g>
                    <g id="Group-5" transform="translate(1.437709, 0.000000)">
                        <mask id="mask-6" fill="white">
                            <use xlink:href="#path-5"></use>
                        </mask>
                        <use id="Combined-Shape" fill="#EA4335" xlink:href="#path-5"></use>
                    </g>
                </g>
            </g>
        </g>
    </g>
</svg>