<?xml version="1.0" encoding="UTF-8"?>
<svg width="106px" height="85px" viewBox="0 0 106 85" version="1.1" xmlns="http://www.w3.org/2000/svg" xmlns:xlink="http://www.w3.org/1999/xlink">
    <!-- Generator: Sketch 55.2 (78181) - https://sketchapp.com -->
    <title>Onboarding01_v1</title>
    <desc>Created with Sketch.</desc>
    <g id="Page-1" stroke="none" stroke-width="1" fill="none" fill-rule="evenodd">
        <g id="Onboarding1" transform="translate(-128.000000, -145.000000)">
            <g id="Onboarding01_v1" transform="translate(105.000000, 108.000000)">
                <rect id="Rectangle" x="0" y="0" width="150" height="150"></rect>
                <path d="M42.5332031,63.5449219 C42.0725659,63.5430957 41.6391714,63.3263985 41.3613281,62.9589844 L40.0839844,61.2011719 L38.8007813,62.9589844 C38.5235353,63.3271164 38.0897594,63.5440043 37.6289063,63.5449219 L26.0390625,63.5449219 C25.2300516,63.5449219 24.5742188,62.889089 24.5742188,62.0800781 L24.5742188,39.3867188 C24.5742188,38.5777079 25.2300516,37.921875 26.0390625,37.921875 L37.6054688,37.921875 C38.066106,37.9237011 38.4995005,38.1403984 38.7773438,38.5078125 L40.0605469,40.265625 L41.3378906,38.5078125 C41.6163248,38.1411099 42.0493431,37.9246008 42.5097656,37.921875 L90.046875,37.921875 C90.8558859,37.921875 91.5117188,38.5777079 91.5117188,39.3867188 L91.5117188,62.109375 C91.5117188,62.9183859 90.8558859,63.5742188 90.046875,63.5742188 L42.5332031,63.5449219 Z M88.6054688,60.6152344 L88.6054688,40.8515625 L43.2773438,40.8515625 L41.25,43.6230469 C40.9653586,43.9792943 40.5341217,44.1867195 40.078125,44.1867195 C39.6221283,44.1867195 39.1908914,43.9792943 38.90625,43.6230469 L36.8789062,40.8515625 L27.5039063,40.8515625 L27.5039063,60.6152344 L36.8789062,60.6152344 L38.90625,57.8496094 C39.1828922,57.4807532 39.6170547,57.2636719 40.078125,57.2636719 C40.5391953,57.2636719 40.9733578,57.4807532 41.25,57.8496094 L43.2773438,60.6152344 L88.6054688,60.6152344 Z" id="Shape" fill="#1F1F1F" fill-rule="nonzero"></path>
                <path d="M90.0703125,38.5078125 C90.555719,38.5078125 90.9492187,38.9013122 90.9492187,39.3867188 L90.9492187,62.109375 C90.9492187,62.5947815 90.555719,62.9883131 90.0703125,62.9883131 L42.5332031,62.9883131 C42.2530093,62.9906804 41.988923,62.857546 41.8242188,62.6308594 L40.0664063,60.234375 L38.3085938,62.6308594 C38.1438895,62.857546 37.8798032,62.9906804 37.5996094,62.9883131 L26.0390625,62.9883131 C25.553656,62.9883131 25.1601562,62.5947815 25.1601562,62.109375 L25.1601562,39.3867188 C25.1601562,38.9013122 25.553656,38.5078125 26.0390625,38.5078125 L37.6054688,38.5078125 C37.8864911,38.5078125 38.1503662,38.6429511 38.3144531,38.8710938 L40.0722656,41.2675781 L41.8300781,38.8710938 C41.994165,38.6429511 42.2580401,38.5078125 42.5390625,38.5078125 L90.0761719,38.5078125 L90.0703125,38.5078125 Z M40.0722656,43.6113281 C39.794796,43.6197889 39.530472,43.4930882 39.3632812,43.2714844 L37.1601562,40.265625 L26.9179688,40.265625 L26.9179688,61.2011719 L37.1601562,61.2011719 L39.3632812,58.1953125 C39.530292,57.9716028 39.7930908,57.8398401 40.0722656,57.8398401 C40.3514405,57.8398401 40.6142392,57.9716028 40.78125,58.1953125 L42.9785156,61.2011719 L89.1914063,61.2011719 L89.1914063,40.265625 L42.9785156,40.265625 L40.78125,43.2714844 C40.6128009,43.4915446 40.3493201,43.6178412 40.0722656,43.6113281 L40.0722656,43.6113281 Z M90.0703125,37.3359375 L42.5332031,37.3359375 C41.8796442,37.3386682 41.2662892,37.6518707 40.8808594,38.1796875 L40.0722656,39.2578125 L39.2578125,38.1796875 C38.8699085,37.6516834 38.2547813,37.3386858 37.5996094,37.3359375 L26.0390625,37.3359375 C24.9064473,37.3359375 23.9882812,38.2541035 23.9882812,39.3867187 L23.9882812,62.109375 C23.9882812,63.2419902 24.9064473,64.1601562 26.0390625,64.1601562 L37.6054688,64.1601562 C38.2651218,64.1483287 38.8793068,63.8216346 39.2578125,63.28125 L40.0664062,62.1738281 L40.8808594,63.28125 C41.266278,63.8083346 41.8802365,64.1196682 42.5332031,64.1191406 L90.0703125,64.1191406 C91.2029277,64.1191406 92.1210937,63.2009746 92.1210937,62.0683594 L92.1210937,39.3867188 C92.1210937,38.2541035 91.2029277,37.3359375 90.0703125,37.3359375 L90.0703125,37.3359375 Z M43.5761719,41.4375 L88.0195312,41.4375 L88.0195312,60.0292969 L43.5761719,60.0292969 L41.7246094,57.5039062 C41.3369318,56.9781668 40.7225555,56.6678559 40.0693359,56.6678559 C39.4161164,56.6678559 38.8017401,56.9781668 38.4140625,57.5039062 L36.5683594,60.0292969 L28.0898438,60.0292969 L28.0898438,41.4375 L36.5683594,41.4375 L38.4140625,43.9453125 C38.8075096,44.4630063 39.422049,44.7648472 40.0722656,44.7597656 C40.7214959,44.767682 41.3354648,44.4650519 41.7246094,43.9453125 L43.5761719,41.4199219 L43.5761719,41.4375 Z" id="Shape" fill="#FFFFFF" fill-rule="nonzero"></path>
                <path d="M39.9726562,48.8730469 C39.1649794,48.8698354 38.511024,48.21588 38.5078125,47.4082031 L38.5078125,47.1152344 C38.5078125,46.3062235 39.1636454,45.6503906 39.9726562,45.6503906 C40.7816671,45.6503906 41.4375,46.3062235 41.4375,47.1152344 L41.4375,47.4082031 C41.4375,48.217214 40.7816671,48.8730469 39.9726562,48.8730469 Z" id="Path" fill="#1F1F1F" fill-rule="nonzero"></path>
                <path d="M39.9726562,46.2363281 C40.4580628,46.2363281 40.8515625,46.6298279 40.8515625,47.1152344 L40.8515625,47.4082031 C40.8515625,47.8936096 40.4580628,48.2871094 39.9726562,48.2871094 C39.4872497,48.2871094 39.09375,47.8936096 39.09375,47.4082031 L39.09375,47.1152344 C39.09375,46.6298279 39.4872497,46.2363281 39.9726562,46.2363281 L39.9726562,46.2363281 Z M39.9726562,45.0644531 C38.840041,45.0644531 37.921875,45.9826192 37.921875,47.1152344 L37.921875,47.4082031 C37.921875,48.5408183 38.840041,49.4589844 39.9726562,49.4589844 C41.1052715,49.4589844 42.0234375,48.5408183 42.0234375,47.4082031 L42.0234375,47.1152344 C42.0234375,45.9826192 41.1052715,45.0644531 39.9726562,45.0644531 Z" id="Shape" fill="#FFFFFF" fill-rule="nonzero"></path>
                <path d="M39.9726562,52.5058594 C39.1649794,52.5026479 38.511024,51.8486925 38.5078125,51.0410156 L38.5078125,50.6367188 C38.5078125,49.8277079 39.1636454,49.171875 39.9726562,49.171875 C40.7816671,49.171875 41.4375,49.8277079 41.4375,50.6367188 L41.4375,51.0410156 C41.4375,51.8500265 40.7816671,52.5058594 39.9726562,52.5058594 L39.9726562,52.5058594 Z" id="Path" fill="#1F1F1F" fill-rule="nonzero"></path>
                <path d="M39.9726562,49.7578125 C40.4580628,49.7578125 40.8515625,50.1513122 40.8515625,50.6367187 L40.8515625,51.0410156 C40.8515625,51.5264221 40.4580628,51.9199219 39.9726562,51.9199219 C39.4872497,51.9199219 39.09375,51.5264221 39.09375,51.0410156 L39.09375,50.6367187 C39.09375,50.1513122 39.4872497,49.7578125 39.9726562,49.7578125 L39.9726562,49.7578125 Z M39.9726562,48.5859375 C38.840041,48.5859375 37.921875,49.5041035 37.921875,50.6367187 L37.921875,51.0410156 C37.921875,52.1736308 38.840041,53.0917969 39.9726562,53.0917969 C41.1052715,53.0917969 42.0234375,52.1736308 42.0234375,51.0410156 L42.0234375,50.6367187 C42.0234375,49.5041035 41.1052715,48.5859375 39.9726562,48.5859375 Z" id="Shape" fill="#FFFFFF" fill-rule="nonzero"></path>
                <path d="M39.9726562,56.0273438 C39.1649794,56.0241323 38.511024,55.3701769 38.5078125,54.5625 L38.5078125,54.2695312 C38.5078125,53.4605204 39.1636454,52.8046875 39.9726562,52.8046875 C40.7816671,52.8046875 41.4375,53.4605204 41.4375,54.2695312 L41.4375,54.5625 C41.4375,55.3715109 40.7816671,56.0273438 39.9726562,56.0273438 Z" id="Path" fill="#1F1F1F" fill-rule="nonzero"></path>
                <path d="M39.9726562,53.390625 C40.4580628,53.390625 40.8515625,53.7841247 40.8515625,54.2695312 L40.8515625,54.5625 C40.8515625,55.0479065 40.4580628,55.4414062 39.9726562,55.4414062 C39.4872497,55.4414062 39.09375,55.0479065 39.09375,54.5625 L39.09375,54.2695312 C39.09375,53.7841247 39.4872497,53.390625 39.9726562,53.390625 L39.9726562,53.390625 Z M39.9726562,52.21875 C38.840041,52.21875 37.921875,53.136916 37.921875,54.2695312 L37.921875,54.5625 C37.921875,55.6951152 38.840041,56.6132812 39.9726562,56.6132812 C41.1052715,56.6132812 42.0234375,55.6951152 42.0234375,54.5625 L42.0234375,54.2695312 C42.0234375,53.136916 41.1052715,52.21875 39.9726562,52.21875 Z" id="Shape" fill="#FFFFFF" fill-rule="nonzero"></path>
                <path d="M46.2890625,45.4042969 C45.6418538,45.4042969 45.1171875,44.8796306 45.1171875,44.2324219 C45.1171875,43.5852132 45.6418538,43.0605469 46.2890625,43.0605469 L84.7324219,43.0605469 C85.3796306,43.0605469 85.9042969,43.5852132 85.9042969,44.2324219 C85.9042969,44.8796306 85.3796306,45.4042969 84.7324219,45.4042969 L46.2890625,45.4042969 Z" id="Path" fill="#1F1F1F" fill-rule="nonzero"></path>
                <path d="M84.7558594,43.6464844 C85.0794637,43.6464844 85.3417969,43.9088175 85.3417969,44.2324219 C85.3417969,44.5560262 85.0794637,44.8183594 84.7558594,44.8183594 L46.2890625,44.8183594 C45.9654582,44.8183594 45.703125,44.5560262 45.703125,44.2324219 C45.703125,43.9088175 45.9654582,43.6464844 46.2890625,43.6464844 L84.7324219,43.6464844 L84.7558594,43.6464844 Z M84.7324219,42.4746094 L46.2890625,42.4746094 C45.3182495,42.4746094 44.53125,43.2616088 44.53125,44.2324219 C44.53125,45.2032349 45.3182495,45.9902344 46.2890625,45.9902344 L84.7324219,45.9902344 C85.7032349,45.9902344 86.4902344,45.2032349 86.4902344,44.2324219 C86.4902344,43.2616088 85.7032349,42.4746094 84.7324219,42.4746094 Z" id="Shape" fill="#FFFFFF" fill-rule="nonzero"></path>
                <path d="M47.1855469,58.59375 C46.5383382,58.59375 46.0136719,58.0690837 46.0136719,57.421875 L46.0136719,50.9238281 C46.0136719,50.2766194 46.5383382,49.7519531 47.1855469,49.7519531 C47.8327556,49.7519531 48.3574219,50.2766194 48.3574219,50.9238281 L48.3574219,57.421875 C48.3574219,58.0690837 47.8327556,58.59375 47.1855469,58.59375 Z" id="Path" fill="#1F1F1F" fill-rule="nonzero"></path>
                <path d="M47.1855469,50.3378906 C47.5091512,50.3378906 47.7714844,50.6002238 47.7714844,50.9238281 L47.7714844,57.421875 C47.7714844,57.7454793 47.5091512,58.0078125 47.1855469,58.0078125 C46.8619425,58.0078125 46.5996094,57.7454793 46.5996094,57.421875 L46.5996094,50.9238281 C46.5996094,50.6002238 46.8619425,50.3378906 47.1855469,50.3378906 L47.1855469,50.3378906 Z M47.1855469,49.1660156 C46.2147338,49.1660156 45.4277344,49.9530151 45.4277344,50.9238281 L45.4277344,57.421875 C45.4277344,58.392688 46.2147338,59.1796875 47.1855469,59.1796875 C48.1563599,59.1796875 48.9433594,58.392688 48.9433594,57.421875 L48.9433594,50.9238281 C48.9433594,49.9530151 48.1563599,49.1660156 47.1855469,49.1660156 Z" id="Shape" fill="#FFFFFF" fill-rule="nonzero"></path>
                <path d="M31.0546875,45.4042969 C30.4074788,45.4042969 29.8828125,44.8796306 29.8828125,44.2324219 C29.8828125,43.5852132 30.4074788,43.0605469 31.0546875,43.0605469 L33.5214844,43.0605469 C34.1686931,43.0605469 34.6933594,43.5852132 34.6933594,44.2324219 C34.6933594,44.8796306 34.1686931,45.4042969 33.5214844,45.4042969 L31.0546875,45.4042969 Z" id="Path" fill="#1F1F1F" fill-rule="nonzero"></path>
                <path d="M33.5097656,43.6464844 C33.83337,43.6464844 34.0957031,43.9088175 34.0957031,44.2324219 C34.0957031,44.5560262 33.83337,44.8183594 33.5097656,44.8183594 L31.0546875,44.8183594 C30.7310832,44.8183594 30.46875,44.5560262 30.46875,44.2324219 C30.46875,43.9088175 30.7310832,43.6464844 31.0546875,43.6464844 L33.5214844,43.6464844 L33.5097656,43.6464844 Z M33.5214844,42.4746094 L31.0546875,42.4746094 C30.0838745,42.4746094 29.296875,43.2616088 29.296875,44.2324219 C29.296875,45.2032349 30.0838745,45.9902344 31.0546875,45.9902344 L33.5214844,45.9902344 C34.4922974,45.9902344 35.2792969,45.2032349 35.2792969,44.2324219 C35.2792969,43.2616088 34.4922974,42.4746094 33.5214844,42.4746094 L33.5214844,42.4746094 Z" id="Shape" fill="#FFFFFF" fill-rule="nonzero"></path>
                <path d="M50.5253906,58.59375 C49.8781819,58.59375 49.3535156,58.0690837 49.3535156,57.421875 L49.3535156,50.9238281 C49.3535156,50.2766194 49.8781819,49.7519531 50.5253906,49.7519531 C51.1725993,49.7519531 51.6972656,50.2766194 51.6972656,50.9238281 L51.6972656,57.421875 C51.6972656,58.0690837 51.1725993,58.59375 50.5253906,58.59375 Z" id="Path" fill="#1F1F1F" fill-rule="nonzero"></path>
                <path d="M50.5253906,50.3378906 C50.848995,50.3378906 51.1113281,50.6002238 51.1113281,50.9238281 L51.1113281,57.421875 C51.1113281,57.7454793 50.848995,58.0078125 50.5253906,58.0078125 C50.2017863,58.0078125 49.9394531,57.7454793 49.9394531,57.421875 L49.9394531,50.9238281 C49.9394531,50.6002238 50.2017863,50.3378906 50.5253906,50.3378906 L50.5253906,50.3378906 Z M50.5253906,49.1660156 C49.5545776,49.1660156 48.7675781,49.9530151 48.7675781,50.9238281 L48.7675781,57.421875 C48.7675781,58.392688 49.5545776,59.1796875 50.5253906,59.1796875 C51.4962037,59.1796875 52.2832031,58.392688 52.2832031,57.421875 L52.2832031,50.9238281 C52.2832031,49.9530151 51.4962037,49.1660156 50.5253906,49.1660156 L50.5253906,49.1660156 Z" id="Shape" fill="#FFFFFF" fill-rule="nonzero"></path>
                <path d="M54.4511719,58.59375 C53.8039632,58.59375 53.2792969,58.0690837 53.2792969,57.421875 L53.2792969,50.9238281 C53.2792969,50.2766194 53.8039632,49.7519531 54.4511719,49.7519531 L70.2070312,49.7519531 C70.8542399,49.7519531 71.3789062,50.2766194 71.3789062,50.9238281 L71.3789062,57.421875 C71.3789062,58.0690837 70.8542399,58.59375 70.2070312,58.59375 L54.4511719,58.59375 Z M69.0351562,56.25 L69.0351562,52.0957031 L55.6230469,52.0957031 L55.6230469,56.25 L69.0351562,56.25 Z" id="Shape" fill="#1F1F1F" fill-rule="nonzero"></path>
                <path d="M70.2070312,50.3378906 C70.5306356,50.3378906 70.7929688,50.6002238 70.7929688,50.9238281 L70.7929688,57.421875 C70.7929688,57.7454793 70.5306356,58.0078125 70.2070312,58.0078125 L54.4511719,58.0078125 C54.1275675,58.0078125 53.8652344,57.7454793 53.8652344,57.421875 L53.8652344,50.9238281 C53.8652344,50.6002238 54.1275675,50.3378906 54.4511719,50.3378906 L70.2070312,50.3378906 L70.2070312,50.3378906 Z M55.0371094,56.8359375 L69.6210938,56.8359375 L69.6210938,51.5097656 L55.0371094,51.5097656 L55.0371094,56.8359375 L55.0371094,56.8359375 Z M70.2070312,49.1835938 L54.4511719,49.1835938 C53.4803588,49.1835938 52.6933594,49.9705932 52.6933594,50.9414062 L52.6933594,57.421875 C52.6933594,58.392688 53.4803588,59.1796875 54.4511719,59.1796875 L70.2070312,59.1796875 C71.1778443,59.1796875 71.9648438,58.392688 71.9648438,57.421875 L71.9648438,50.9238281 C71.9648438,49.9530151 71.1778443,49.1660156 70.2070312,49.1660156 L70.2070312,49.1835938 Z M56.2089844,52.6992188 L68.4492188,52.6992188 L68.4492188,55.6640625 L56.2089844,55.6640625 L56.2089844,52.6816406 L56.2089844,52.6992188 Z" id="Shape" fill="#FFFFFF" fill-rule="nonzero"></path>
                <path d="M47.1855469,88.1953125 C46.4014709,88.1953125 45.7649454,87.5614131 45.7617187,86.7773438 L45.7617187,85.3125 C45.7277042,84.7830849 45.9908416,84.2786614 46.4444962,84.0036436 C46.8981509,83.7286258 47.4670835,83.7286258 47.9207381,84.0036436 C48.3743928,84.2786614 48.6375301,84.7830849 48.6035156,85.3125 L48.6035156,86.7773438 C48.600305,87.5591325 47.9673356,88.1921018 47.1855469,88.1953125 Z" id="Path" fill="#1F1F1F" fill-rule="nonzero"></path>
                <path d="M47.1855469,84.4746094 C47.4118018,84.4682781 47.6309937,84.5537526 47.7932349,84.711579 C47.955476,84.8694054 48.0469636,85.0861565 48.0468751,85.3125 L48.0468751,86.7773437 C48.010479,87.2114348 47.6475282,87.5452277 47.2119141,87.5452277 C46.7762999,87.5452277 46.4133492,87.2114348 46.3769531,86.7773437 L46.3769531,85.3125 C46.3769531,85.0902776 46.4652306,84.8771568 46.6223656,84.7200219 C46.7795006,84.5628869 46.9926213,84.4746094 47.2148438,84.4746094 L47.1855469,84.4746094 Z M47.2148438,83.3027344 C46.1062166,83.3059525 45.2082962,84.2038728 45.2050781,85.3125 L45.2050781,86.7773438 C45.2627136,87.8435995 46.1441017,88.6786318 47.2119141,88.6786318 C48.2797264,88.6786318 49.1611146,87.8435995 49.21875,86.7773437 L49.21875,85.3125 C49.21875,84.2048213 48.3225177,83.3059638 47.2148438,83.3027344 L47.2148438,83.3027344 Z" id="Shape" fill="#FFFFFF" fill-rule="nonzero"></path>
                <path d="M47.1855469,82.6171875 C46.8079242,82.6171875 46.4457679,82.4671775 46.1787484,82.2001579 C45.9117288,81.9331383 45.7617188,81.5709821 45.7617188,81.1933594 L45.7617188,78.2636719 C45.8098652,77.514302 46.4317022,76.9311354 47.1826172,76.9311354 C47.9335321,76.9311354 48.5553692,77.514302 48.6035156,78.2636719 L48.6035156,81.1933594 C48.6035156,81.9774354 47.9696162,82.6139608 47.1855469,82.6171875 Z" id="Path" fill="#1F1F1F" fill-rule="nonzero"></path>
                <path d="M47.1855469,77.4023438 C47.4112464,77.3943916 47.6304823,77.4785285 47.7929135,77.6354349 C47.9553447,77.7923412 48.047015,78.0085355 48.046875,78.234375 L48.046875,81.1640625 C48.073286,81.4790638 47.9201702,81.7821178 47.6509267,81.9477418 C47.3816831,82.1133658 47.042145,82.1133658 46.7729014,81.9477418 C46.5036579,81.7821178 46.3505421,81.4790638 46.3769531,81.1640625 L46.3769531,78.234375 C46.3769476,78.0126876 46.4654117,77.8001644 46.6227174,77.6439587 C46.7800231,77.4877531 46.9931619,77.4007826 47.2148438,77.4023438 L47.1855469,77.4023438 Z M47.2148438,76.2304688 C46.1071651,76.2304688 45.2083075,77.126701 45.2050781,78.234375 L45.2050781,81.1640625 C45.1649242,81.9069108 45.5384007,82.6111762 46.1758657,82.9946788 C46.8133308,83.3781814 47.6104973,83.3781814 48.2479624,82.9946788 C48.8854274,82.6111762 49.258904,81.9069108 49.21875,81.1640625 L49.21875,78.234375 C49.21875,77.1276481 48.3215706,76.2304688 47.2148437,76.2304688 L47.2148438,76.2304688 Z" id="Shape" fill="#FFFFFF" fill-rule="nonzero"></path>
                <path d="M47.1855469,75.5273438 C46.4014709,75.5273504 45.7649454,74.8934444 45.7617187,74.109375 L45.7617187,72.65625 C45.7617187,71.8634194 46.404435,71.2207031 47.1972656,71.2207031 C47.9900963,71.2207031 48.6328125,71.8634194 48.6328125,72.65625 L48.6328125,74.1210938 C48.6281891,74.4997558 48.4729104,74.8609765 48.2013151,75.1248748 C47.9297198,75.388773 47.5641853,75.5336056 47.1855469,75.5273438 L47.1855469,75.5273438 Z" id="Path" fill="#1F1F1F" fill-rule="nonzero"></path>
                <path d="M47.1855469,71.8066406 C47.4138499,71.8002284 47.6348767,71.8872904 47.7974773,72.0476787 C47.9600779,72.2080671 48.0501593,72.4278806 48.046875,72.65625 L48.046875,74.1210938 C48.010479,74.5551848 47.6475282,74.8889777 47.2119141,74.8889777 C46.7762999,74.8889777 46.4133492,74.5551848 46.3769531,74.1210938 L46.3769531,72.65625 C46.3769531,72.4340276 46.4652306,72.2209068 46.6223656,72.0637719 C46.7795006,71.9066369 46.9926213,71.8183594 47.2148438,71.8183594 L47.1855469,71.8066406 Z M47.2148438,70.6464844 C46.6772317,70.6402305 46.1594018,70.8490214 45.7764861,71.2264354 C45.3935704,71.6038495 45.1773078,72.1186038 45.1757812,72.65625 L45.1757812,74.1210938 C45.2334167,75.1873495 46.1148049,76.0223818 47.1826172,76.0223818 C48.2504295,76.0223818 49.1318177,75.1873495 49.1894531,74.1210938 L49.1894531,72.65625 C49.1894531,71.5485713 48.2932209,70.6497138 47.1855469,70.6464844 L47.2148438,70.6464844 Z" id="Shape" fill="#FFFFFF" fill-rule="nonzero"></path>
                <path d="M52.4296875,74.2734375 C51.7824788,74.2734375 51.2578125,73.7487712 51.2578125,73.1015625 C51.2578125,72.4543538 51.7824788,71.9296875 52.4296875,71.9296875 L90.8789062,71.9296875 C91.5261149,71.9296875 92.0507812,72.4543538 92.0507812,73.1015625 C92.0507812,73.7487712 91.5261149,74.2734375 90.8789062,74.2734375 L52.4296875,74.2734375 Z" id="Path" fill="#1F1F1F" fill-rule="nonzero"></path>
                <path d="M90.8789062,72.515625 C91.2025106,72.515625 91.4648437,72.7779582 91.4648437,73.1015625 C91.4648437,73.4251668 91.2025106,73.6875 90.8789062,73.6875 L52.4296875,73.6875 C52.1060832,73.6875 51.84375,73.4251668 51.84375,73.1015625 C51.84375,72.7779582 52.1060832,72.515625 52.4296875,72.515625 L90.8789062,72.515625 L90.8789062,72.515625 Z M90.8789062,71.34375 L52.4296875,71.34375 C51.4588745,71.34375 50.671875,72.1307495 50.671875,73.1015625 C50.671875,74.0723755 51.4588745,74.859375 52.4296875,74.859375 L90.8789062,74.859375 C91.8497193,74.859375 92.6367187,74.0723755 92.6367187,73.1015625 C92.6367187,72.1307495 91.8497193,71.34375 90.8789062,71.34375 L90.8789062,71.34375 Z" id="Shape" fill="#FFFFFF" fill-rule="nonzero"></path>
                <path d="M52.4296875,77.5429688 C51.7824788,77.5429688 51.2578125,77.0183024 51.2578125,76.3710938 C51.2578125,75.7238851 51.7824788,75.1992188 52.4296875,75.1992188 L69.421875,75.1992188 C70.0690837,75.1992188 70.59375,75.7238851 70.59375,76.3710938 C70.59375,77.0183024 70.0690837,77.5429688 69.421875,77.5429688 L52.4296875,77.5429688 Z" id="Path" fill="#1F1F1F" fill-rule="nonzero"></path>
                <path d="M69.4453125,75.7792969 C69.7689168,75.7792969 70.03125,76.04163 70.03125,76.3652344 C70.03125,76.6888387 69.7689168,76.9511719 69.4453125,76.9511719 L52.453125,76.9511719 C52.1295207,76.9511719 51.8671875,76.6888387 51.8671875,76.3652344 C51.8671875,76.04163 52.1295207,75.7792969 52.453125,75.7792969 L69.4453125,75.7792969 L69.4453125,75.7792969 Z M69.4453125,74.6074219 L52.453125,74.6074219 C51.482312,74.6074219 50.6953125,75.3944213 50.6953125,76.3652344 C50.6953125,77.3360474 51.482312,78.1230469 52.453125,78.1230469 L69.4453125,78.1230469 C70.4161255,78.1230469 71.203125,77.3360474 71.203125,76.3652344 C71.203125,75.3944213 70.4161255,74.6074219 69.4453125,74.6074219 L69.4453125,74.6074219 Z" id="Shape" fill="#FFFFFF" fill-rule="nonzero"></path>
                <path d="M52.8457031,87.4511719 C52.1984944,87.4511719 51.6738281,86.9265056 51.6738281,86.2792969 L51.6738281,82.7636719 C51.6738281,82.1164632 52.1984944,81.5917969 52.8457031,81.5917969 C53.4929118,81.5917969 54.0175781,82.1164632 54.0175781,82.7636719 L54.0175781,86.2792969 C54.0175781,86.9265056 53.4929118,87.4511719 52.8457031,87.4511719 Z" id="Path" fill="#1F1F1F" fill-rule="nonzero"></path>
                <path d="M52.8457031,82.1835938 C53.1693075,82.1835938 53.4316406,82.4459269 53.4316406,82.7695312 L53.4316406,86.2851562 C53.4316406,86.6087606 53.1693075,86.8710938 52.8457031,86.8710938 C52.5220988,86.8710938 52.2597656,86.6087606 52.2597656,86.2851562 L52.2597656,82.7695312 C52.2597656,82.4459269 52.5220988,82.1835938 52.8457031,82.1835938 L52.8457031,82.1835938 Z M52.8457031,81.0117188 C51.8748901,81.0117188 51.0878906,81.7987182 51.0878906,82.7695312 L51.0878906,86.2851562 C51.0878906,87.2559693 51.8748901,88.0429688 52.8457031,88.0429688 C53.8165162,88.0429688 54.6035156,87.2559693 54.6035156,86.2851562 L54.6035156,82.7695312 C54.6035156,81.7987182 53.8165162,81.0117188 52.8457031,81.0117188 Z" id="Shape" fill="#FFFFFF" fill-rule="nonzero"></path>
                <path d="M39.09375,87.3046875 C38.4465413,87.3046875 37.921875,86.7800212 37.921875,86.1328125 L37.921875,79.9570313 C37.921875,79.3098226 38.4465413,78.7851563 39.09375,78.7851563 L42.8671875,78.7851563 C43.5143962,78.7851563 44.0390625,79.3098226 44.0390625,79.9570313 L44.0390625,86.1328125 C44.0390625,86.7800212 43.5143962,87.3046875 42.8671875,87.3046875 L39.09375,87.3046875 Z M41.6953125,84.9609375 L41.6953125,81.140625 L40.265625,81.140625 L40.265625,84.9609375 L41.6953125,84.9609375 Z" id="Shape" fill="#1F1F1F" fill-rule="nonzero"></path>
                <path d="M42.8671875,79.3710938 C43.1907918,79.3710938 43.453125,79.6334269 43.453125,79.9570312 L43.453125,86.1328125 C43.453125,86.4564168 43.1907918,86.71875 42.8671875,86.71875 L39.09375,86.71875 C38.7701457,86.71875 38.5078125,86.4564168 38.5078125,86.1328125 L38.5078125,79.9570312 C38.5078125,79.6334269 38.7701457,79.3710938 39.09375,79.3710938 L42.8671875,79.3710938 L42.8671875,79.3710938 Z M39.6796875,85.546875 L42.28125,85.546875 L42.28125,80.5546875 L39.6796875,80.5546875 L39.6796875,85.546875 L39.6796875,85.546875 Z M42.8671875,78.2109375 L39.09375,78.2109375 C38.122937,78.2109375 37.3359375,78.997937 37.3359375,79.96875 L37.3359375,86.1328125 C37.3359375,87.1036255 38.122937,87.890625 39.09375,87.890625 L42.8671875,87.890625 C43.8380005,87.890625 44.625,87.1036255 44.625,86.1328125 L44.625,79.9570312 C44.625,78.9862182 43.8380005,78.1992187 42.8671875,78.1992187 L42.8671875,78.2109375 Z M40.8515625,81.7265625 L41.109375,81.7265625 L41.109375,84.375 L40.8515625,84.375 L40.8515625,81.7265625 Z" id="Shape" fill="#FFFFFF" fill-rule="nonzero"></path>
                <path d="M33.3339844,92.4199219 C32.5249735,92.4199219 31.8691406,91.764089 31.8691406,90.9550781 L31.8691406,82.4765625 C31.8736415,81.746998 32.4123131,81.131017 33.1347656,81.0292969 C33.8412925,80.9275844 34.3657582,80.3222091 34.3657582,79.6083984 C34.3657582,78.8945877 33.8412925,78.2892125 33.1347656,78.1875 C32.420061,78.084512 31.8846819,77.479732 31.8691406,76.7578125 L31.8691406,68.2617188 C31.8691406,67.4527079 32.5249735,66.796875 33.3339844,66.796875 L97.3652344,66.796875 C98.1729113,66.8000865 98.8268666,67.4540419 98.8300781,68.2617188 L98.8300781,90.9550781 C98.8268666,91.762755 98.1729113,92.4167104 97.3652344,92.4199219 L33.3339844,92.4199219 Z M95.9003906,89.4902344 L95.9003906,69.7265625 L34.7988281,69.7265625 L34.7988281,75.65625 C36.3322884,76.3730529 37.3121745,77.912747 37.3121745,79.6054688 C37.3121745,81.2981905 36.3322884,82.8378846 34.7988281,83.5546875 L34.7988281,89.4902344 L95.9003906,89.4902344 Z" id="Shape" fill="#1F1F1F" fill-rule="nonzero"></path>
                <path d="M97.3652344,67.3828125 C97.8506409,67.3828125 98.2441406,67.7763122 98.2441406,68.2617187 L98.2441406,90.9550781 C98.2441406,91.4404846 97.8506409,91.8339844 97.3652344,91.8339844 L33.3339844,91.8339844 C32.8485779,91.8339844 32.4550757,91.4404846 32.4550757,90.9550781 L32.4550757,82.4765625 C32.454055,82.0389048 32.777239,81.66812 33.2109375,81.609375 C34.2229146,81.4867007 34.9839992,80.6277839 34.9839992,79.6083984 C34.9839992,78.589013 34.2229146,77.7300962 33.2109375,77.6074219 C32.7862484,77.5450654 32.4675807,77.1868729 32.4550757,76.7578125 L32.4550757,68.2617187 C32.4550757,67.7763122 32.8485779,67.3828125 33.3339844,67.3828125 L97.3652344,67.3828125 L97.3652344,67.3828125 Z M34.2128906,90.0761719 L96.4863281,90.0761719 L96.4863281,69.140625 L34.2128906,69.140625 L34.2128906,76.0488281 C35.7191079,76.5826894 36.7257179,78.0074392 36.7257179,79.6054687 C36.7257179,81.2034983 35.7191079,82.6282481 34.2128906,83.1621094 L34.2128906,90.0761719 L34.2128906,90.0761719 Z M97.3652344,66.2109375 L33.3339844,66.2109375 C32.2013692,66.2109375 31.2832031,67.1291035 31.2832031,68.2617187 L31.2832031,76.7578125 C31.2864977,77.7766975 32.0333036,78.6405031 33.0410156,78.7910156 C33.4587905,78.8515788 33.7687345,79.2096941 33.7687345,79.6318359 C33.7687345,80.0539778 33.4587905,80.412093 33.0410156,80.4726562 C32.0329316,80.6181599 31.2843968,81.4814701 31.2832031,82.5 L31.2832031,90.9785156 C31.2832031,92.1111308 32.2013692,93.0292969 33.3339844,93.0292969 L97.3652344,93.0292969 C98.4978496,93.0292969 99.4160156,92.1111308 99.4160156,90.9785156 L99.4160156,68.2617187 C99.4160156,67.1291035 98.4978496,66.2109375 97.3652344,66.2109375 Z M35.3847656,70.3125 L95.3144531,70.3125 L95.3144531,88.9042969 L35.3847656,88.9042969 L35.3847656,83.9121094 C36.9383724,83.0351932 37.8992424,81.3894743 37.8992424,79.6054687 C37.8992424,77.8214632 36.9383724,76.1757443 35.3847656,75.2988281 L35.3847656,70.3125 Z" id="Shape" fill="#FFFFFF" fill-rule="nonzero"></path>
                <path d="M54.5800781,105.427734 C53.7710673,105.427734 53.1152344,104.771901 53.1152344,103.962891 L53.1152344,103.669922 C53.1152344,102.860911 53.7710673,102.205078 54.5800781,102.205078 C55.389089,102.205078 56.0449219,102.860911 56.0449219,103.669922 L56.0449219,103.962891 C56.0449219,104.771901 55.389089,105.427734 54.5800781,105.427734 Z" id="Path" fill="#1F1F1F" fill-rule="nonzero"></path>
                <path d="M54.5800781,102.791016 C55.0654846,102.791016 55.4589844,103.184515 55.4589844,103.669922 L55.4589844,103.962891 C55.4589844,104.448297 55.0654846,104.841797 54.5800781,104.841797 C54.0946716,104.841797 53.7011719,104.448297 53.7011719,103.962891 L53.7011719,103.669922 C53.7011719,103.184515 54.0946716,102.791016 54.5800781,102.791016 L54.5800781,102.791016 Z M54.5800781,101.619141 C53.4474629,101.619141 52.5292969,102.537307 52.5292969,103.669922 L52.5292969,103.962891 C52.5292969,105.095506 53.4474629,106.013672 54.5800781,106.013672 C55.7126933,106.013672 56.6308594,105.095506 56.6308594,103.962891 L56.6308594,103.669922 C56.6308594,102.537307 55.7126933,101.619141 54.5800781,101.619141 Z" id="Shape" fill="#FFFFFF" fill-rule="nonzero"></path>
                <path d="M54.5800781,110.402344 C53.7710673,110.402344 53.1152344,109.746511 53.1152344,108.9375 L53.1152344,108.222656 C53.1152344,107.413645 53.7710673,106.757812 54.5800781,106.757812 C55.389089,106.757812 56.0449219,107.413645 56.0449219,108.222656 L56.0449219,108.9375 C56.0449219,109.746511 55.389089,110.402344 54.5800781,110.402344 Z" id="Path" fill="#1F1F1F" fill-rule="nonzero"></path>
                <path d="M54.5800781,107.34375 C55.0654846,107.34375 55.4589844,107.73725 55.4589844,108.222656 L55.4589844,108.9375 C55.4589844,109.422907 55.0654846,109.816406 54.5800781,109.816406 C54.0946716,109.816406 53.7011719,109.422907 53.7011719,108.9375 L53.7011719,108.222656 C53.7011719,107.73725 54.0946716,107.34375 54.5800781,107.34375 L54.5800781,107.34375 Z M54.5800781,106.171875 C53.4474629,106.171875 52.5292969,107.090041 52.5292969,108.222656 L52.5292969,108.9375 C52.5292969,110.070115 53.4474629,110.988281 54.5800781,110.988281 C55.7126933,110.988281 56.6308594,110.070115 56.6308594,108.9375 L56.6308594,108.222656 C56.6308594,107.090041 55.7126933,106.171875 54.5800781,106.171875 Z" id="Shape" fill="#FFFFFF" fill-rule="nonzero"></path>
                <path d="M54.5800781,114.955078 C53.7710673,114.955078 53.1152344,114.299245 53.1152344,113.490234 L53.1152344,113.197266 C53.1152344,112.388255 53.7710673,111.732422 54.5800781,111.732422 C55.389089,111.732422 56.0449219,112.388255 56.0449219,113.197266 L56.0449219,113.490234 C56.0449219,114.299245 55.389089,114.955078 54.5800781,114.955078 Z" id="Path" fill="#1F1F1F" fill-rule="nonzero"></path>
                <path d="M54.5800781,112.318359 C55.0654846,112.318359 55.4589844,112.711859 55.4589844,113.197266 L55.4589844,113.490234 C55.4589844,113.975641 55.0654846,114.369141 54.5800781,114.369141 C54.0946716,114.369141 53.7011719,113.975641 53.7011719,113.490234 L53.7011719,113.197266 C53.7011719,112.711859 54.0946716,112.318359 54.5800781,112.318359 L54.5800781,112.318359 Z M54.5800781,111.146484 C53.4474629,111.146484 52.5292969,112.06465 52.5292969,113.197266 L52.5292969,113.490234 C52.5292969,114.62285 53.4474629,115.541016 54.5800781,115.541016 C55.7126933,115.541016 56.6308594,114.62285 56.6308594,113.490234 L56.6308594,113.197266 C56.6308594,112.06465 55.7126933,111.146484 54.5800781,111.146484 L54.5800781,111.146484 Z" id="Shape" fill="#FFFFFF" fill-rule="nonzero"></path>
                <path d="M68.3613281,104.583984 C67.7141194,104.583984 67.1894531,104.059318 67.1894531,103.412109 C67.1894531,102.764901 67.7141194,102.240234 68.3613281,102.240234 L99.3574219,102.240234 C100.004631,102.240234 100.529297,102.764901 100.529297,103.412109 C100.529297,104.059318 100.004631,104.583984 99.3574219,104.583984 L68.3613281,104.583984 Z" id="Path" fill="#1F1F1F" fill-rule="nonzero"></path>
                <path d="M99.3574219,102.826172 C99.6810262,102.826172 99.9433594,103.088505 99.9433594,103.412109 C99.9433594,103.735714 99.6810262,103.998047 99.3574219,103.998047 L68.3613281,103.998047 C68.0377238,103.998047 67.7753906,103.735714 67.7753906,103.412109 C67.7753906,103.088505 68.0377238,102.826172 68.3613281,102.826172 L99.3574219,102.826172 L99.3574219,102.826172 Z M99.3574219,101.654297 L68.3613281,101.654297 C67.3905151,101.654297 66.6035156,102.441296 66.6035156,103.412109 C66.6035156,104.382922 67.3905151,105.169922 68.3613281,105.169922 L99.3574219,105.169922 C100.328235,105.169922 101.115234,104.382922 101.115234,103.412109 C101.115234,102.441296 100.328235,101.654297 99.3574219,101.654297 Z" id="Shape" fill="#FFFFFF" fill-rule="nonzero"></path>
                <path d="M88.4765625,116.320312 C87.8293538,116.320312 87.3046875,115.795646 87.3046875,115.148438 L87.3046875,108.667969 C87.3046875,108.02076 87.8293538,107.496094 88.4765625,107.496094 L99.3574219,107.496094 C100.004631,107.496094 100.529297,108.02076 100.529297,108.667969 L100.529297,115.148438 C100.529297,115.795646 100.004631,116.320312 99.3574219,116.320312 L88.4765625,116.320312 Z M98.1855469,113.976562 L98.1855469,109.839844 L89.6484375,109.839844 L89.6484375,113.976562 L98.1855469,113.976562 Z" id="Shape" fill="#1F1F1F" fill-rule="nonzero"></path>
                <path d="M99.3574219,108.082031 C99.6810262,108.082031 99.9433594,108.344364 99.9433594,108.667969 L99.9433594,115.148438 C99.9433594,115.472042 99.6810262,115.734375 99.3574219,115.734375 L88.4765625,115.734375 C88.1529582,115.734375 87.890625,115.472042 87.890625,115.148438 L87.890625,108.667969 C87.890625,108.344364 88.1529582,108.082031 88.4765625,108.082031 L99.3574219,108.082031 L99.3574219,108.082031 Z M89.0625,114.5625 L98.7714844,114.5625 L98.7714844,109.253906 L89.0625,109.253906 L89.0625,114.5625 L89.0625,114.5625 Z M99.3574219,106.910156 L88.4765625,106.910156 C87.5057495,106.910156 86.71875,107.697156 86.71875,108.667969 L86.71875,115.148438 C86.71875,116.119251 87.5057495,116.90625 88.4765625,116.90625 L99.3574219,116.90625 C100.328235,116.90625 101.115234,116.119251 101.115234,115.148438 L101.115234,108.667969 C101.115234,107.697156 100.328235,106.910156 99.3574219,106.910156 Z M90.234375,110.425781 L97.5996094,110.425781 L97.5996094,113.390625 L90.234375,113.390625 L90.234375,110.425781 Z" id="Shape" fill="#FFFFFF" fill-rule="nonzero"></path>
                <path d="M57.140625,121.289063 C56.6797718,121.288145 56.245996,121.071257 55.96875,120.703125 L54.6855469,118.945312 L53.4023438,120.703125 C53.1257016,121.071981 52.691539,121.289063 52.2304688,121.289063 L40.640625,121.289063 C39.8329481,121.285851 39.1789927,120.631896 39.1757747,119.824219 L39.1757747,117.550781 C39.1736684,116.840571 39.6832692,116.232019 40.3828125,116.109375 C40.7434377,116.045123 41.0060894,115.731539 41.0060894,115.365234 C41.0060894,114.99893 40.7434377,114.685346 40.3828125,114.621094 C39.6858025,114.494079 39.1784162,113.888171 39.1757747,113.179687 L39.1757747,110.666016 C39.1757747,109.955322 39.6836334,109.346165 40.3828125,109.21875 C40.7472274,109.158625 41.0148254,108.84395 41.015625,108.474609 C41.0129464,108.108009 40.7495008,107.795321 40.3886719,107.730469 C39.6904014,107.605624 39.1819174,106.998406 39.1816406,106.289062 L39.1816406,103.775391 C39.1842756,103.066907 39.6916619,102.460999 40.3886719,102.333984 C40.7492971,102.269732 41.0119487,101.956148 41.0119487,101.589844 C41.0119487,101.223539 40.7492971,100.909955 40.3886719,100.845703 C39.6891285,100.723059 39.1795278,100.114507 39.1816406,99.4042969 L39.1816406,97.1308594 C39.1848521,96.3231825 39.8388075,95.6692271 40.6464844,95.6660156 L52.2128906,95.6660156 C52.6739609,95.6660156 53.1081235,95.8830969 53.3847656,96.2519531 L54.6679688,98.0097656 L55.9511719,96.2519531 C56.2284178,95.8838211 56.6621937,95.6669332 57.1230469,95.6660156 L104.654297,95.6660156 C105.463308,95.6660156 106.119141,96.3218485 106.119141,97.1308594 L106.119141,119.824219 C106.119141,120.63323 105.463308,121.289063 104.654297,121.289063 L57.140625,121.289063 Z M103.207031,118.359375 L103.207031,98.5957031 L57.8847656,98.5957031 L55.8574219,101.367188 C55.5793716,101.733861 55.1457226,101.949253 54.6855469,101.949253 C54.2253711,101.949253 53.7917222,101.733861 53.5136719,101.367188 L51.4921875,98.6015625 L42.3984375,98.6015625 C43.4147324,99.3296477 43.9926409,100.523291 43.9334568,101.772075 C43.8742728,103.020859 43.1860666,104.154497 42.1054688,104.783203 L42.1054688,105.298828 C43.2418888,105.956696 43.9416238,107.170295 43.9416238,108.483398 C43.9416238,109.796502 43.2418888,111.010101 42.1054688,111.667969 L42.1054688,112.183594 C43.1860666,112.8123 43.8742728,113.945938 43.9334568,115.194722 C43.9926409,116.443506 43.4147324,117.637149 42.3984375,118.365234 L51.46875,118.365234 L53.4902344,115.599609 C53.7748758,115.243362 54.2061127,115.035937 54.6621094,115.035937 C55.118106,115.035937 55.5493429,115.243362 55.8339844,115.599609 L57.8847656,118.359375 L103.207031,118.359375 Z" id="Shape" fill="#1F1F1F" fill-rule="nonzero"></path>
                <path d="M104.671875,96.2519531 C105.157282,96.2519531 105.550781,96.6454529 105.550781,97.1308594 L105.550781,119.824219 C105.550781,120.309625 105.157282,120.703125 104.671875,120.703125 L57.140625,120.703125 C56.8596026,120.703125 56.5957275,120.567986 56.4316406,120.339844 L54.6738281,117.943359 L52.9160156,120.339844 C52.7519287,120.567986 52.4880536,120.703125 52.2070313,120.703125 L40.640625,120.703125 C40.1552185,120.703125 39.7617173,120.309625 39.7617173,119.824219 L39.7617173,117.550781 C39.7609484,117.123549 40.0675154,116.757647 40.4882812,116.683594 C41.1292317,116.570229 41.5963816,116.013203 41.5963816,115.362305 C41.5963816,114.711406 41.1292317,114.154381 40.4882812,114.041016 C40.0696898,113.96735 39.7637866,113.604707 39.7617173,113.179687 L39.7617173,110.666016 C39.7609484,110.238784 40.0675154,109.872881 40.4882812,109.798828 C41.1292317,109.685463 41.5963816,109.128438 41.5963816,108.477539 C41.5963816,107.82664 41.1292317,107.269615 40.4882812,107.15625 C40.0675154,107.082197 39.7609484,106.716294 39.7617173,106.289062 L39.7617173,103.775391 C39.7637866,103.350372 40.0696898,102.987728 40.4882812,102.914062 C41.1292317,102.800698 41.5963816,102.243672 41.5963816,101.592773 C41.5963816,100.941875 41.1292317,100.384849 40.4882812,100.271484 C40.0675154,100.197431 39.7609484,99.8315288 39.7617173,99.4042969 L39.7617173,97.1308594 C39.7617173,96.6454529 40.1552185,96.2519531 40.640625,96.2519531 L52.2128906,96.2519531 C52.49241,96.2524119 52.7552742,96.3849302 52.921875,96.609375 L54.6796875,99.0058594 L56.4375,96.609375 C56.6041008,96.3849302 56.866965,96.2524119 57.1464844,96.2519531 L104.677734,96.2519531 L104.671875,96.2519531 Z M54.6738281,101.367187 C54.3936343,101.369587 54.129548,101.236452 53.9648437,101.009766 L51.7675781,98.0039062 L41.5195312,98.0039062 L41.5195312,98.7597656 C42.6368243,99.2562935 43.3568893,100.36426 43.3568893,101.586914 C43.3568893,102.809568 42.6368243,103.917535 41.5195312,104.414062 L41.5195312,105.644531 C42.6368243,106.141059 43.3568893,107.249025 43.3568893,108.47168 C43.3568893,109.694334 42.6368243,110.8023 41.5195312,111.298828 L41.5195312,112.529297 C42.6368243,113.025825 43.3568893,114.133791 43.3568893,115.356445 C43.3568893,116.5791 42.6368243,117.687066 41.5195312,118.183594 L41.5195312,118.945312 L51.7675781,118.945312 L53.9648437,115.939453 C54.1372013,115.724164 54.3980448,115.598854 54.6738281,115.598854 C54.9496115,115.598854 55.2104549,115.724164 55.3828125,115.939453 L57.5859375,118.945312 L103.792969,118.945312 L103.792969,98.0097656 L57.5859375,98.0097656 L55.3828125,101.015625 C55.2181082,101.242312 54.9540219,101.375446 54.6738281,101.373047 L54.6738281,101.367187 Z M104.671875,95.0800781 L57.140625,95.0800781 C56.48627,95.0805182 55.8709451,95.391442 55.4824219,95.9179688 L54.6738281,97.0253906 L53.8652344,95.9179688 C53.4791852,95.3916267 52.8656308,95.080498 52.2128906,95.0800781 L40.640625,95.0800781 C39.5080098,95.0800781 38.5898437,95.9982442 38.5898437,97.1308594 L38.5898437,99.4042969 C38.5912065,100.398951 39.3041878,101.250088 40.2832031,101.425781 C40.3645584,101.437519 40.4246706,101.50765 40.4238281,101.589844 C40.4221906,101.674331 40.3606677,101.745698 40.2773437,101.759766 C39.3015661,101.935394 38.5911606,102.783934 38.5898437,103.775391 L38.5898437,106.289063 C38.590692,107.281871 39.3006573,108.132351 40.2773437,108.310547 C40.3610269,108.319563 40.4243125,108.390443 40.4238281,108.474609 C40.4227413,108.557271 40.3642028,108.628005 40.2832031,108.644531 C39.3041878,108.820224 38.5912065,109.671361 38.5898437,110.666016 L38.5898437,113.179688 C38.5911606,114.171144 39.3015661,115.019684 40.2773437,115.195313 C40.3606677,115.209381 40.4221906,115.280747 40.4238281,115.365234 C40.4246706,115.447428 40.3645584,115.517559 40.2832031,115.529297 C39.3041878,115.70499 38.5912065,116.556127 38.5898437,117.550781 L38.5898437,119.824219 C38.5898437,120.956834 39.5080098,121.875 40.640625,121.875 L52.2128906,121.875 C52.8649568,121.871778 53.4773229,121.561252 53.8652344,121.037109 L54.6738281,119.929687 L55.4824219,121.037109 C55.8727899,121.561448 56.4869373,121.871777 57.140625,121.875 L104.671875,121.875 C105.80449,121.875 106.722656,120.956834 106.722656,119.824219 L106.722656,97.1308594 C106.722656,95.9982442 105.80449,95.0800781 104.671875,95.0800781 Z M58.1777344,99.1816406 L102.621094,99.1816406 L102.621094,117.773437 L58.1777344,117.773437 L56.3320312,115.248047 C55.9386436,114.731119 55.3263487,114.427649 54.6767578,114.427649 C54.0271669,114.427649 53.414872,114.731119 53.0214844,115.248047 L51.1699219,117.773437 L43.78125,117.773437 C45.0827208,115.868624 44.6365432,113.274569 42.7734375,111.914062 C43.8712189,111.110737 44.5200236,109.831994 44.5200236,108.47168 C44.5200236,107.111365 43.8712189,105.832622 42.7734375,105.029297 C44.6345689,103.666997 45.0781016,101.073239 43.7753906,99.1699219 L51.1699219,99.1699219 L53.0214844,101.695312 C53.4091619,102.221052 54.0235382,102.531363 54.6767578,102.531363 C55.3299774,102.531363 55.9443537,102.221052 56.3320312,101.695312 L58.1777344,99.1699219 L58.1777344,99.1816406 Z" id="Shape" fill="#FFFFFF" fill-rule="nonzero"></path>
                <path d="M121.763672,116.865234 C120.984519,116.869001 120.23675,116.558487 119.689453,116.003906 L100.587891,96.9023438 C99.7313701,96.0381506 99.4981579,94.7344944 100.001953,93.6269531 L95.3144531,88.9394531 C94.6290155,88.253162 94.6290155,87.1413693 95.3144531,86.4550781 L97.2480469,84.5214844 C97.9427413,83.8510248 99.0435868,83.8510248 99.7382813,84.5214844 L104.425781,89.2089844 C104.859087,88.9726918 105.344349,88.8478526 105.837891,88.8457031 C106.608496,88.8474016 107.347402,89.1526479 107.894531,89.6953125 L126.996094,108.796875 C127.547119,109.346509 127.8568,110.092809 127.8568,110.871094 C127.8568,111.649378 127.547119,112.395678 126.996094,112.945312 L123.884766,116.050781 C123.318291,116.600012 122.552157,116.89419 121.763672,116.865234 L121.763672,116.865234 Z" id="Path" fill="#FFFFFF" fill-rule="nonzero"></path>
                <path d="M98.4375,84.5742188 C98.7473168,84.5692936 99.0464741,84.6872712 99.2695312,84.9023438 L104.279297,89.9179688 C104.698667,89.5732356 105.224704,89.3847736 105.767578,89.3847656 C106.383203,89.3835151 106.973828,89.6282027 107.408203,90.0644531 L126.509766,109.166016 C126.949868,109.605629 127.197156,110.202166 127.197156,110.824219 C127.197156,111.446272 126.949868,112.042809 126.509766,112.482422 L123.398437,115.59375 C122.483607,116.506367 121.002721,116.506367 120.087891,115.59375 L100.986328,96.4921875 C100.546902,96.0522724 100.300292,95.4557726 100.300781,94.8339844 C100.299737,94.3665406 100.438493,93.9094625 100.699219,93.5214844 L95.6894531,88.4765625 C95.4694019,88.2567559 95.3457578,87.9584874 95.3457578,87.6474609 C95.3457578,87.3364345 95.4694019,87.0381659 95.6894531,86.8183594 L97.6289062,84.8789062 C97.8505149,84.6652711 98.1472812,84.5474065 98.4550781,84.5507107 L98.4375,84.5742188 Z M98.4550781,83.3788666 L98.4550781,83.3788666 C97.8369934,83.3768528 97.2431188,83.6190357 96.8027344,84.0527344 L94.8632812,85.9863281 C94.4231788,86.4259412 94.1758906,87.0224783 94.1758906,87.6445312 C94.1758906,88.2665842 94.4231788,88.8631213 94.8632812,89.3027344 L99.3105469,93.75 C99.2000355,94.0925954 99.1446577,94.4505733 99.1464844,94.8105469 C99.1427408,95.7435404 99.5143743,96.6388393 100.177734,97.2949219 L119.273438,116.396484 C119.932857,117.056638 120.827663,117.42757 121.760742,117.42757 C122.693822,117.42757 123.588627,117.056638 124.248047,116.396484 L127.359375,113.285156 C128.73025,111.912574 128.73025,109.688989 127.359375,108.316406 L108.263672,89.2148438 C107.609474,88.5565336 106.719101,88.1873029 105.791016,88.1894531 C105.349874,88.1917576 104.912918,88.2751765 104.501953,88.4355469 L100.119141,84.0527344 C99.6773143,83.6176016 99.0810488,83.3753029 98.4609375,83.3788666 L98.4550781,83.3788666 Z" id="Shape" fill="#FFFFFF" fill-rule="nonzero"></path>
                <path d="M112.396811,88.1453794 L115.140951,88.1453794 C116.245521,88.1453794 117.140951,89.0408099 117.140951,90.1453794 L117.140951,115.500848 C117.140951,116.605418 116.245521,117.500848 115.140951,117.500848 L112.396811,117.500848 C111.292241,117.500848 110.396811,116.605418 110.396811,115.500848 L110.396811,90.1453794 C110.396811,89.0408099 111.292241,88.1453794 112.396811,88.1453794 Z" id="Rectangle" fill="#FFFFFF" fill-rule="nonzero" transform="translate(113.768881, 102.823114) rotate(-45.000000) translate(-113.768881, -102.823114) "></path>
                <path d="M121.763672,116.279298 C121.141884,116.279786 120.545384,116.033176 120.105469,115.59375 L101.003906,96.4921875 C100.563804,96.0525744 100.316516,95.4560373 100.316516,94.8339844 C100.316516,94.2119314 100.563804,93.6153944 101.003906,93.1757813 L104.115234,90.0644531 C105.030064,89.151836 106.510951,89.151836 107.425781,90.0644531 L126.527344,109.166016 C126.967446,109.605629 127.214734,110.202166 127.214734,110.824219 C127.214734,111.446272 126.967446,112.042809 126.527344,112.482422 L123.416016,115.59375 C122.977537,116.031743 122.38343,116.278234 121.763672,116.279298 Z M105.773438,91.7226562 L102.662109,94.8339844 L121.763672,113.935547 L124.875,110.824219 L105.773438,91.7226562 Z" id="Shape" fill="#F15642" fill-rule="nonzero"></path>
                <path d="M97.5527344,54.4921875 C90.935596,47.8733206 80.9827666,45.8925664 72.3356956,49.473639 C63.6886245,53.0547116 58.0504142,61.4922934 58.0504142,70.8515625 C58.0504142,80.2108316 63.6886245,88.6484134 72.3356956,92.229486 C80.9827666,95.8105586 90.935596,93.8298044 97.5527344,87.2109375 C106.582866,78.1738743 106.582866,63.5292507 97.5527344,54.4921875 L97.5527344,54.4921875 Z M93.3398438,83.0039062 C86.6283748,89.715014 75.7472565,89.7148188 69.0360283,83.0034702 C62.3248001,76.2921216 62.3248001,65.4110034 69.0360283,58.6996548 C75.7472565,51.9883062 86.6283748,51.988111 93.3398438,58.6992188 C96.5665451,61.9226356 98.3795634,66.2964989 98.3795634,70.8574219 C98.3795634,75.4183448 96.5665451,79.7922081 93.3398438,83.015625 L93.3398438,83.0039062 Z" id="Shape" fill="#FFFFFF" fill-rule="nonzero"></path>
                <g id="Group" opacity="0.7" transform="translate(63.867188, 53.320312)" fill="#FFFFFF" fill-rule="nonzero">
                    <circle id="Oval" cx="17.3496094" cy="17.5429688" r="16.9863281"></circle>
                </g>
                <path d="M81.1933594,95.162166 C69.322823,95.1670047 59.1023068,86.7849696 56.7834842,75.1431175 C54.4646616,63.5012654 60.6935225,51.8428455 71.6600046,47.2990664 C82.6264868,42.7552873 95.275489,46.5919792 101.869885,56.4623189 C108.46428,66.3326586 107.166967,79.4869143 98.7714844,87.8789062 C94.1181357,92.5541136 87.7896476,95.1762172 81.1933594,95.162166 L81.1933594,95.162166 Z M81.1933594,49.6287594 C71.3426704,49.6381635 62.8702544,56.6044975 60.9573788,66.2676785 C59.0445031,75.9308595 64.2239135,85.5996417 73.3281652,89.3611255 C82.4324169,93.1226094 92.9259288,89.9292022 98.3914417,81.7338176 C103.856955,73.538433 102.772295,62.6235279 95.8007813,55.6640625 C91.9335406,51.781497 86.6732714,49.6081808 81.1933594,49.6287594 Z M81.1933594,88.1251263 C72.6920876,88.1139339 65.381849,82.1006442 63.7314519,73.7611038 C62.0810547,65.4215634 66.549908,57.0771885 74.4061652,53.8289634 C82.2624224,50.5807382 91.3191955,53.3328472 96.0400053,60.4029038 C100.760815,67.4729603 99.8315647,76.892925 93.8203125,82.9042969 C90.4785626,86.2626722 85.9310443,88.1428758 81.1933594,88.1251263 L81.1933594,88.1251263 Z M81.1933594,54.8496094 C75.683654,54.8496094 70.5924762,57.7890019 67.8376235,62.5605467 C65.0827707,67.3320915 65.0827707,73.2108772 67.8376235,77.982422 C70.5924762,82.7539668 75.683654,85.6933594 81.1933594,85.6933594 L81.1933594,85.6933594 C89.7106256,85.6933594 96.6152341,78.7887506 96.6152341,70.2714844 C96.6152341,61.7542181 89.7106256,54.8496094 81.1933594,54.8496094 L81.1933594,54.8496094 Z" id="Shape" fill="#F15642" fill-rule="nonzero"></path>
                <path d="M81.1933594,45.9667008 C92.7912273,45.9679931 102.773187,54.1616359 105.034732,65.5368703 C107.296276,76.9121047 101.207542,88.3008106 90.4921183,92.7381792 C79.7766948,97.1755478 67.4189382,93.4257263 60.9762841,83.781933 C54.53363,74.1381397 55.800424,61.2862705 64.0019531,53.0859375 C68.5516489,48.5121382 74.7420772,45.9486173 81.1933594,45.9667008 L81.1933594,45.9667008 Z M81.1933594,91.5117542 C91.323264,91.5036413 100.03694,84.3413032 102.005845,74.404581 C103.97475,64.4678589 98.6505695,54.5239992 89.2891191,50.6538209 C79.9276688,46.7836425 69.1359897,50.0649391 63.5133549,58.4911489 C57.8907201,66.9173587 59.0029594,78.1418929 66.1699219,85.3007812 C70.1523092,89.2868993 75.558784,91.5220254 81.1933594,91.5117542 L81.1933594,91.5117542 Z M81.1933594,53.003839 C89.4336993,53.003839 96.5268244,58.8240507 98.1351774,66.9059071 C99.7435303,74.9877635 95.4192051,83.0803539 87.8065946,86.234932 C80.1939841,89.3895102 71.4131037,86.7275662 66.8335997,79.8769206 C62.2540957,73.026275 63.1513019,63.8947457 68.9765625,58.0664062 C72.2087124,54.81418 76.608209,52.9910792 81.1933594,53.003839 L81.1933594,53.003839 Z M81.1933594,86.2793205 C88.8264116,86.2743157 95.3933025,80.8788073 96.878879,73.3917135 C98.3644555,65.9046197 94.3550856,58.4105874 87.3021931,55.4916459 C80.2493007,52.5727044 72.1166371,55.0415805 67.8767059,61.3887448 C63.6367746,67.7359091 64.4701086,76.1941075 69.8671875,81.5917969 C72.868181,84.5995339 76.9445489,86.2865976 81.1933594,86.2793205 L81.1933594,86.2793205 Z M81.1933594,44.7948368 C69.0395357,44.7948368 58.5781009,53.3800404 56.2065216,65.3002351 C53.8349424,77.2204298 60.2136917,89.1559842 71.441982,93.8079652 C82.6702723,98.4599463 95.6210802,94.5328004 102.374616,84.4280896 C109.128152,74.3233788 107.80359,60.855215 99.2109375,52.2597656 C94.4428492,47.4653523 87.9550721,44.7774082 81.1933594,44.7948368 L81.1933594,44.7948368 Z M81.1933594,90.3400046 C71.6316457,90.325943 63.4109358,83.5604479 61.5576866,74.1800412 C59.7044374,64.7996346 64.734669,55.4162043 73.5727052,51.7671389 C82.4107414,48.1180736 92.5957124,51.2194219 97.9001368,59.1749008 C103.204561,67.1303796 102.151471,77.7248591 95.3847656,84.4804688 C91.6271384,88.2512066 86.5166825,90.3612214 81.1933594,90.3400046 L81.1933594,90.3400046 Z M81.1933594,51.8319914 C72.3930335,51.8293911 64.8165072,58.0439775 63.0977335,66.6748268 C61.3789598,75.305676 65.9967029,83.9486665 74.1266599,87.3175745 C82.2566169,90.6864825 91.6341897,87.8428993 96.5238694,80.5260166 C101.413549,73.2091338 100.453317,63.4570679 94.2304688,57.234375 C90.7792781,53.7667887 86.0856766,51.8218446 81.1933594,51.8319914 L81.1933594,51.8319914 Z M81.1933594,85.1075215 C74.1187381,85.1000843 68.0343656,80.0965868 66.6608443,73.1565754 C65.287323,66.2165639 69.0071495,59.2726841 75.5456445,56.5711284 C82.0841394,53.8695727 89.6204711,56.1626669 93.5461618,62.0481806 C97.4718525,67.9336944 96.6936809,75.7726373 91.6875,80.7714844 C88.9090571,83.5605318 85.1301501,85.1218893 81.1933594,85.1075215 L81.1933594,85.1075215 Z" id="Shape" fill="#FFFFFF" fill-rule="nonzero"></path>
                <polygon id="Rectangle" fill="#FFFFFF" fill-rule="nonzero" transform="translate(100.396947, 89.616621) rotate(-45.000000) translate(-100.396947, -89.616621) " points="99.0287827 85.4974803 101.765111 85.4974803 101.765111 93.7357615 99.0287827 93.7357615"></polygon>
                <path d="M102.345703,94.664133 C102.034215,94.6658634 101.734827,94.5435779 101.513672,94.3242188 L95.6894531,88.4765625 C95.4694019,88.2567559 95.3457578,87.9584874 95.3457578,87.6474609 C95.3457578,87.3364345 95.4694019,87.0381659 95.6894531,86.8183594 L97.6289062,84.8789062 C98.0941761,84.439158 98.8218395,84.439158 99.2871094,84.8789062 L105.111328,90.703125 C105.331379,90.9229316 105.455023,91.2212001 105.455023,91.5322266 C105.455023,91.843253 105.331379,92.1415216 105.111328,92.3613281 L103.171875,94.3359375 C102.950266,94.5495726 102.6535,94.6674373 102.345703,94.664133 Z M98.1796875,87.6679688 L102.345703,91.8339844 L102.626953,91.5585938 L98.4375,87.3867188 L98.1796875,87.6679688 Z" id="Shape" fill="#F15642" fill-rule="nonzero"></path>
            </g>
        </g>
    </g>
</svg>