<?xml version="1.0" encoding="UTF-8"?>
<svg width="104px" height="81px" viewBox="0 0 104 81" version="1.1" xmlns="http://www.w3.org/2000/svg" xmlns:xlink="http://www.w3.org/1999/xlink">
    <!-- Generator: Sketch 55.2 (78181) - https://sketchapp.com -->
    <title>Onboarding03</title>
    <desc>Created with Sketch.</desc>
    <g id="Page-1" stroke="none" stroke-width="1" fill="none" fill-rule="evenodd">
        <g id="Onboarding3" transform="translate(-130.000000, -145.000000)">
            <g id="Onboarding03" transform="translate(105.000000, 109.000000)">
                <path d="M97.5175781,116.666036 L51.9726563,116.666036 C51.7432043,116.667577 51.5226138,116.577519 51.359814,116.415819 C51.1970141,116.25412 51.1054687,116.034145 51.1054687,115.804688 L51.1054687,37.0078125 C51.1054687,36.5288781 51.4937218,36.140625 51.9726562,36.140625 L97.5175781,36.140625 C97.7470354,36.140625 97.9670102,36.2321704 98.1287101,36.3949702 C98.2904099,36.5577701 98.3804672,36.7783606 98.3789262,37.0078125 L98.3789262,115.804687 C98.3789262,116.280386 97.9932765,116.666036 97.5175781,116.666036 Z M52.8339844,114.908203 L96.6796875,114.908203 L96.6796875,37.8691406 L52.8339844,37.8691406 L52.8339844,114.908203 Z" id="Shape" fill="#1F1F1F" fill-rule="nonzero"></path>
                <path d="M92.8007812,66.1113281 L56.6835938,66.1113281 C56.1981872,66.1113281 55.8046875,65.7178284 55.8046875,65.2324219 L55.8046875,42.6210938 C55.8046875,42.1356872 56.1981872,41.7421875 56.6835937,41.7421875 L92.8007812,41.7421875 C93.2861878,41.7421875 93.6796875,42.1356872 93.6796875,42.6210937 L93.6796875,65.2324219 C93.6796875,65.7178284 93.2861878,66.1113281 92.8007812,66.1113281 Z M57.5625,64.3535156 L91.921875,64.3535156 L91.921875,43.5 L57.5625,43.5 L57.5625,64.3535156 Z" id="Shape" fill="#1F1F1F" fill-rule="nonzero"></path>
                <path d="M92.2734375,74.1035156 L66.0703125,74.1035156 C65.7467082,74.1035156 65.484375,73.8411825 65.484375,73.5175781 C65.484375,73.1939738 65.7467082,72.9316406 66.0703125,72.9316406 L92.2734375,72.9316406 C92.5970418,72.9316406 92.859375,73.1939738 92.859375,73.5175781 C92.859375,73.8411825 92.5970418,74.1035156 92.2734375,74.1035156 L92.2734375,74.1035156 Z" id="Path" fill="#1F1F1F" fill-rule="nonzero"></path>
                <path d="M92.2734375,78.5742188 L66.0703125,78.5742188 C65.7467082,78.5742188 65.484375,78.3118856 65.484375,77.9882812 C65.484375,77.6646769 65.7467082,77.4023438 66.0703125,77.4023438 L92.2734375,77.4023438 C92.5970418,77.4023438 92.859375,77.6646769 92.859375,77.9882812 C92.859375,78.3118856 92.5970418,78.5742188 92.2734375,78.5742188 L92.2734375,78.5742188 Z" id="Path" fill="#1F1F1F" fill-rule="nonzero"></path>
                <path d="M80.6191406,89.1269531 L57.2109375,89.1269531 C56.8873332,89.1269531 56.625,88.86462 56.625,88.5410156 C56.625,88.2174113 56.8873332,87.9550781 57.2109375,87.9550781 L80.6484375,87.9550781 C80.9720418,87.9550781 81.234375,88.2174113 81.234375,88.5410156 C81.234375,88.86462 80.9720418,89.1269531 80.6484375,89.1269531 L80.6191406,89.1269531 Z" id="Path" fill="#1F1F1F" fill-rule="nonzero"></path>
                <path d="M78.84375,94.1191406 L57.2109375,94.1191406 C56.8873332,94.1191406 56.625,93.8568075 56.625,93.5332031 C56.625,93.2095988 56.8873332,92.9472656 57.2109375,92.9472656 L78.84375,92.9472656 C79.1673543,92.9472656 79.4296875,93.2095988 79.4296875,93.5332031 C79.4296875,93.8568075 79.1673543,94.1191406 78.84375,94.1191406 Z" id="Path" fill="#1F1F1F" fill-rule="nonzero"></path>
                <path d="M77.8828125,99.1054687 L57.2109375,99.1054687 C56.8873332,99.1054687 56.625,98.8431356 56.625,98.5195312 C56.625,98.1959269 56.8873332,97.9335937 57.2109375,97.9335937 L77.8828125,97.9335937 C78.2064168,97.9335937 78.46875,98.1959269 78.46875,98.5195312 C78.46875,98.8431356 78.2064168,99.1054687 77.8828125,99.1054687 L77.8828125,99.1054687 Z" id="Path" fill="#1F1F1F" fill-rule="nonzero"></path>
                <path d="M76.6523438,104.097656 L57.2109375,104.097656 C56.8873332,104.097656 56.625,103.835323 56.625,103.511719 C56.625,103.188114 56.8873332,102.925781 57.2109375,102.925781 L76.6523438,102.925781 C76.9759481,102.925781 77.2382812,103.188114 77.2382812,103.511719 C77.2382812,103.835323 76.9759481,104.097656 76.6523438,104.097656 Z" id="Path" fill="#1F1F1F" fill-rule="nonzero"></path>
                <path d="M62.6132812,74.1035156 L57.2109375,74.1035156 C56.8873332,74.1035156 56.625,73.8411825 56.625,73.5175781 C56.625,73.1939738 56.8873332,72.9316406 57.2109375,72.9316406 L62.6132812,72.9316406 C62.9368856,72.9316406 63.1992188,73.1939738 63.1992188,73.5175781 C63.1992188,73.8411825 62.9368856,74.1035156 62.6132812,74.1035156 Z" id="Path" fill="#1F1F1F" fill-rule="nonzero"></path>
                <path d="M62.6132812,78.5742188 L57.2109375,78.5742188 C56.8873332,78.5742188 56.625,78.3118856 56.625,77.9882812 C56.625,77.6646769 56.8873332,77.4023438 57.2109375,77.4023438 L62.6132812,77.4023438 C62.9368856,77.4023438 63.1992188,77.6646769 63.1992188,77.9882812 C63.1992188,78.3118856 62.9368856,78.5742188 62.6132812,78.5742188 Z" id="Path" fill="#1F1F1F" fill-rule="nonzero"></path>
                <path d="M124.646484,79.3710941 C124.337024,79.3713407 124.040029,79.2491724 123.820312,79.03125 L114.357422,69.5625 C113.903058,69.1054249 113.903058,68.3672314 114.357422,67.9101563 L116.384766,65.8769531 C117.15397,65.1076704 118.197282,64.6754853 119.285156,64.6754853 C120.373031,64.6754853 121.416343,65.1076704 122.185547,65.8769531 L127.505859,71.1972656 C128.275142,71.9664698 128.707327,73.0097817 128.707327,74.0976563 C128.707327,75.1855308 128.275142,76.2288427 127.505859,76.9980469 L125.472656,79.03125 C125.25294,79.2491724 124.955944,79.3713407 124.646484,79.3710941 Z M116.841797,68.7363281 L124.646484,76.5410156 L125.847656,75.3691406 C126.533094,74.6828495 126.533094,73.5710568 125.847656,72.8847656 L120.527344,67.5644531 C119.841053,66.8790155 118.72926,66.8790155 118.042969,67.5644531 L116.841797,68.7363281 Z" id="Shape" fill="#F15642" fill-rule="nonzero"></path>
                <polygon id="Path" stroke="#FFFFFF" stroke-width="5" fill="#FFFFFF" fill-rule="nonzero" stroke-linejoin="round" points="84.2695312 99.6503906 81.4277344 111.955078 93.7324219 109.113281 124.646484 78.1992188 115.183594 68.7363281"></polygon>
                <polygon id="Path" fill="#F15642" fill-rule="nonzero" points="82.3652344 107.912109 85.4765625 111.017578 81.4277344 111.955078"></polygon>
                <path d="M93.75,109.699219 C93.5098806,109.699451 93.2939222,109.553157 93.2050781,109.330078 L91.5234375,105.046875 L88.2246094,103.927734 C88.0249469,103.859723 87.8772478,103.689645 87.8378906,103.482422 L87.3808594,101.138672 L84.1054688,100.195312 C83.9045068,100.136699 83.7500805,99.9753253 83.7003607,99.7719802 C83.6506408,99.5686351 83.7131811,99.3542113 83.8644232,99.2094802 C84.0156652,99.064749 84.2326318,99.0116986 84.4335938,99.0703125 L88.03125,100.125 C88.2400048,100.185836 88.3979048,100.35727 88.4414062,100.570313 L88.9042969,102.914063 L92.1386719,104.009766 C92.302008,104.064947 92.4327527,104.189261 92.4960937,104.349609 L94.2539062,108.890625 C94.3694443,109.191554 94.2202108,109.529293 93.9199219,109.646484 C93.8665931,109.673353 93.8091705,109.691174 93.75,109.699219 L93.75,109.699219 Z" id="Path" fill="#F15642" fill-rule="nonzero"></path>
                <path d="M91.03125,98.7304688 C90.8755061,98.7313692 90.7258118,98.6702265 90.6152344,98.5605469 C90.3880526,98.3320093 90.3880526,97.9629126 90.6152344,97.734375 L109.851563,78.515625 C110.0801,78.2884432 110.449197,78.2884432 110.677734,78.515625 C110.78866,78.6256445 110.851054,78.7754077 110.851054,78.9316406 C110.851054,79.0878736 110.78866,79.2376368 110.677734,79.3476562 L91.4472656,98.578125 C91.3338759,98.6813951 91.1845156,98.7360904 91.03125,98.7304688 L91.03125,98.7304688 Z" id="Path" fill="#F15642" fill-rule="nonzero"></path>
                <path d="M94.4941406,102.791088 C94.3395883,102.788814 94.1921663,102.725633 94.0839844,102.615234 C93.8568026,102.386697 93.8568026,102.0176 94.0839844,101.789062 L118.048828,77.8242188 C118.158848,77.7132934 118.308611,77.6508994 118.464844,77.6508994 C118.621077,77.6508994 118.77084,77.7132934 118.880859,77.8242188 C119.108041,78.0527563 119.108041,78.4218531 118.880859,78.6503906 L94.921875,102.615234 C94.8094273,102.729994 94.6547888,102.793544 94.4941406,102.791088 Z" id="Path" fill="#F15642" fill-rule="nonzero"></path>
                <path d="M81.4453125,113.126953 C81.0880276,113.126953 80.7501553,112.964407 80.5276576,112.684859 C80.3051599,112.40531 80.2223452,112.03953 80.3027344,111.691406 L83.1445313,99.3867188 C83.189473,99.1655802 83.2973068,98.9621202 83.4550781,98.8007812 L114.375,67.8867188 C114.832075,67.4323552 115.570269,67.4323552 116.027344,67.8867188 L125.490234,77.3496094 C125.710305,77.5683693 125.834629,77.8654823 125.835938,78.1757813 C125.835938,78.4881121 125.711742,78.7876193 125.490234,79.0078125 L94.5761719,109.921875 C94.414833,110.079646 94.2113729,110.18748 93.9902344,110.232422 L81.6855469,113.074219 C81.6072436,113.099083 81.5268306,113.116734 81.4453125,113.126953 L81.4453125,113.126953 Z M85.3535156,100.236328 L83.0097656,110.384766 L93.1582031,108.041016 L123.005859,78.1933594 L115.201172,70.3886719 L85.3535156,100.236328 Z" id="Shape" fill="#F15642" fill-rule="nonzero"></path>
                <path d="M111.867187,77.8945411 C111.711444,77.8954317 111.561749,77.834289 111.451172,77.7246094 C111.340246,77.6145899 111.277853,77.4648267 111.277853,77.3085938 C111.277853,77.1523608 111.340246,77.0025976 111.451172,76.8925781 L112.089844,76.2597656 C112.199863,76.1488402 112.349626,76.0864463 112.505859,76.0864463 C112.662092,76.0864463 112.811856,76.1488402 112.921875,76.2597656 C113.149057,76.4883032 113.149057,76.8573999 112.921875,77.0859375 L112.283203,77.7246094 C112.172626,77.834289 112.022931,77.8954317 111.867187,77.8945411 Z" id="Path" fill="#F15642" fill-rule="nonzero"></path>
                <path d="M46.875,116.683672 L25.9804688,116.683672 C25.4950622,116.683672 25.1015599,116.290094 25.1015599,115.804687 L25.1015599,72.0175781 C25.1009453,71.7628358 25.2123675,71.5207067 25.40625,71.3554687 L27.2578125,69.7265625 L25.40625,68.1152344 C25.2123675,67.9499964 25.1009453,67.7078673 25.1015599,67.453125 L25.1015599,56.8359375 C25.1015599,56.350531 25.4950622,55.9570312 25.9804688,55.9570312 L46.875,55.9570312 C47.3604065,55.9570312 47.7539062,56.350531 47.7539062,56.8359375 L47.7539062,67.4882812 C47.7534919,67.738628 47.6470398,67.9770809 47.4609375,68.1445312 L45.609375,69.7265625 L47.4609375,71.3554688 C47.65482,71.5207067 47.7662422,71.7628358 47.7656276,72.0175781 L47.7656276,115.804687 C47.7656276,116.039833 47.6714402,116.26518 47.50407,116.430348 C47.3366998,116.595516 47.1101242,116.686729 46.875,116.683672 Z M26.8476562,114.925781 L46.0078125,114.925781 L46.0078125,72.4160156 L43.6640625,70.4121094 C43.4708432,70.2451575 43.3597859,70.0024262 43.3597859,69.7470703 C43.3597859,69.4917144 43.4708432,69.2489831 43.6640625,69.0820312 L46.0078125,67.078125 L46.0078125,57.703125 L26.859375,57.703125 L26.859375,67.078125 L29.1738281,69.0820312 C29.3670474,69.2489831 29.4781047,69.4917144 29.4781047,69.7470703 C29.4781047,70.0024262 29.3670474,70.2451575 29.1738281,70.4121094 L26.859375,72.4160156 L26.8476562,114.925781 Z" id="Shape" fill="#1F1F1F" fill-rule="nonzero"></path>
                <path d="M41.015625,70.5410156 L40.4296875,70.5410156 C39.944281,70.5410156 39.5507812,70.1475159 39.5507812,69.6621094 C39.5507812,69.1767029 39.944281,68.7832031 40.4296875,68.7832031 L41.015625,68.7832031 C41.5010315,68.7832031 41.8945312,69.1767029 41.8945312,69.6621094 C41.8945312,70.1475159 41.5010315,70.5410156 41.015625,70.5410156 L41.015625,70.5410156 Z" id="Path" fill="#1F1F1F" fill-rule="nonzero"></path>
                <path d="M37.0195312,70.5410156 L35.6601562,70.5410156 C35.1747497,70.5410156 34.78125,70.1475159 34.78125,69.6621094 C34.78125,69.1767029 35.1747497,68.7832031 35.6601562,68.7832031 L37.0195312,68.7832031 C37.5049378,68.7832031 37.8984375,69.1767029 37.8984375,69.6621094 C37.8984375,70.1475159 37.5049378,70.5410156 37.0195312,70.5410156 L37.0195312,70.5410156 Z" id="Path" fill="#1F1F1F" fill-rule="nonzero"></path>
                <path d="M32.2734375,70.5410156 L31.6875,70.5410156 C31.2020935,70.5410156 30.8085937,70.1475159 30.8085937,69.6621094 C30.8085937,69.1767029 31.2020935,68.7832031 31.6875,68.7832031 L32.2734375,68.7832031 C32.758844,68.7832031 33.1523437,69.1767029 33.1523437,69.6621094 C33.1523437,70.1475159 32.758844,70.5410156 32.2734375,70.5410156 L32.2734375,70.5410156 Z" id="Path" fill="#1F1F1F" fill-rule="nonzero"></path>
                <path d="M42.421875,111.492188 C42.0982707,111.492188 41.8359375,111.229854 41.8359375,110.90625 L41.8359375,75.4921875 C41.8359375,75.1685832 42.0982707,74.90625 42.421875,74.90625 C42.7454793,74.90625 43.0078125,75.1685832 43.0078125,75.4921875 L43.0078125,110.90625 C43.0078125,111.229854 42.7454793,111.492188 42.421875,111.492188 Z" id="Path" fill="#1F1F1F" fill-rule="nonzero"></path>
                <path d="M36.2578125,76.8867188 L30.2871094,76.8867188 C29.963505,76.8867188 29.7011719,76.6243856 29.7011719,76.3007812 C29.7011719,75.9771769 29.963505,75.7148438 30.2871094,75.7148438 L36.2578125,75.7148438 C36.5814168,75.7148438 36.84375,75.9771769 36.84375,76.3007812 C36.84375,76.6243856 36.5814168,76.8867188 36.2578125,76.8867188 Z" id="Path" fill="#1F1F1F" fill-rule="nonzero"></path>
                <path d="M30.2578125,64.2890625 C29.9342082,64.2890625 29.671875,64.0267293 29.671875,63.703125 L29.671875,61.4355469 C29.671875,61.1119425 29.9342082,60.8496094 30.2578125,60.8496094 C30.5814168,60.8496094 30.84375,61.1119425 30.84375,61.4355469 L30.84375,63.703125 C30.84375,64.0267293 30.5814168,64.2890625 30.2578125,64.2890625 Z" id="Path" fill="#1F1F1F" fill-rule="nonzero"></path>
                <path d="M42.421875,64.2890625 C42.0982707,64.2890625 41.8359375,64.0267293 41.8359375,63.703125 L41.8359375,61.4355469 C41.8359375,61.1119425 42.0982707,60.8496094 42.421875,60.8496094 C42.7454793,60.8496094 43.0078125,61.1119425 43.0078125,61.4355469 L43.0078125,63.703125 C43.0078125,64.0267293 42.7454793,64.2890625 42.421875,64.2890625 Z" id="Path" fill="#1F1F1F" fill-rule="nonzero"></path>
                <path d="M36.2578125,79.9628906 L30.2871094,79.9628906 C29.963505,79.9628906 29.7011719,79.7005575 29.7011719,79.3769531 C29.7011719,79.0533488 29.963505,78.7910156 30.2871094,78.7910156 L36.2578125,78.7910156 C36.5814168,78.7910156 36.84375,79.0533488 36.84375,79.3769531 C36.84375,79.7005575 36.5814168,79.9628906 36.2578125,79.9628906 Z" id="Path" fill="#1F1F1F" fill-rule="nonzero"></path>
                <path d="M36.2578125,98.0917969 L30.2871094,98.0917969 C29.963505,98.0917969 29.7011719,97.8294637 29.7011719,97.5058594 L29.7011719,82.9921875 C29.7011719,82.6685832 29.963505,82.40625 30.2871094,82.40625 L36.2578125,82.40625 C36.5814168,82.40625 36.84375,82.6685832 36.84375,82.9921875 L36.84375,97.5058594 C36.84375,97.8294637 36.5814168,98.0917969 36.2578125,98.0917969 Z M30.8730469,96.9199219 L35.671875,96.9199219 L35.671875,83.578125 L30.8730469,83.578125 L30.8730469,96.9199219 Z" id="Shape" fill="#1F1F1F" fill-rule="nonzero"></path>
                <path d="M34.8046875,65.390625 C34.6825729,65.3898363 34.5637561,65.3509135 34.4648437,65.2792969 C34.279229,65.1463319 34.187758,64.9176546 34.2304688,64.6933594 L34.453125,63.3808594 L33.4980469,62.4492188 C33.3445642,62.2960553 33.2882135,62.0706526 33.3515625,61.8632812 C33.4189861,61.6485471 33.6034497,61.4914115 33.8261719,61.4589844 L35.1445312,61.2714844 L35.7304688,60.0996094 C35.829588,59.9007337 36.0326753,59.7750388 36.2548828,59.7750388 C36.4770903,59.7750388 36.6801776,59.9007337 36.7792969,60.0996094 L37.3652344,61.2714844 L38.6835938,61.4589844 C38.9049789,61.4911074 39.0887548,61.6464824 39.1572504,61.8594416 C39.2257461,62.0724007 39.1670073,62.3057775 39.0058594,62.4609375 L38.0859375,63.3925781 L38.3144531,64.7050781 C38.3571638,64.9293733 38.2656929,65.1580506 38.0800781,65.2910156 C37.8993575,65.420212 37.6611151,65.4360948 37.4648437,65.3320312 L36.2929687,64.7460937 L35.1210937,65.3320312 C35.02316,65.380708 34.9135577,65.4010047 34.8046875,65.390625 L34.8046875,65.390625 Z M36.2578125,63.4570312 C36.3534952,63.4557057 36.4480465,63.4778347 36.5332031,63.5214844 L36.9316406,63.7324219 L36.8554687,63.28125 C36.8222341,63.0900068 36.8858678,62.894717 37.0253906,62.7597656 L37.3476562,62.4433594 L36.9023437,62.3789062 C36.7117783,62.3502837 36.5474694,62.2297905 36.4628906,62.0566406 L36.2578125,61.6523438 L36.0585937,62.0566406 C35.974015,62.2297905 35.8097061,62.3502837 35.6191406,62.3789062 L35.1679687,62.4433594 L35.4960937,62.7597656 C35.6334906,62.8958666 35.6948804,63.0909986 35.6601562,63.28125 L35.5839844,63.7265625 L35.9882812,63.515625 C36.0715233,63.4730497 36.1644077,63.4528575 36.2578125,63.4570313 L36.2578125,63.4570312 Z" id="Shape" fill="#1F1F1F" fill-rule="nonzero"></path>
                <rect id="Rectangle" x="0" y="0" width="150" height="150"></rect>
            </g>
        </g>
    </g>
</svg>