<svg xmlns="http://www.w3.org/2000/svg" width="94" height="87" viewBox="0 0 94 87">
    <g fill="none" fill-rule="evenodd">
        <path fill="#FFF" fill-rule="nonzero" d="M16.854 1.209h60.293v42.123H16.854z"/>
        <path fill="#F15642" fill-rule="nonzero" d="M77.146 44.504H16.854a1.172 1.172 0 0 1-1.172-1.172V1.209c0-.647.524-1.172 1.172-1.172h60.292c.648 0 1.172.525 1.172 1.172v42.123c0 .647-.524 1.172-1.172 1.172zm-59.12-2.344h57.949V2.38h-57.95v39.78z"/>
        <path fill="#393939" fill-rule="nonzero" d="M76.104 51.477h-9.68a.586.586 0 0 1-.586-.586v-3.287c0-.324.262-.586.586-.586h9.68c.323 0 .585.262.585.586v3.287a.586.586 0 0 1-.585.586zm-9.094-1.172h8.508v-2.116H67.01v2.116zM69.67 86.633a.879.879 0 0 1-.879-.88V61.649a37.5 37.5 0 0 1-43.582 0v24.106a.879.879 0 1 1-1.758 0V59.797a.879.879 0 0 1 1.477-.639c.088.076 8.437 7.711 22.072 7.711s21.984-7.617 22.066-7.71a.879.879 0 0 1 1.483.638v25.957a.879.879 0 0 1-.88.879z"/>
        <path fill="#393939" fill-rule="nonzero" d="M1.66 70.977a.879.879 0 1 1 0-1.758c13.576 0 21.908-9.88 21.99-9.961a.88.88 0 1 1 1.36 1.119c-.358.416-8.924 10.6-23.35 10.6zM92.34 70.977c-14.426 0-22.992-10.184-23.35-10.618a.88.88 0 1 1 1.36-1.119c.082.1 8.414 9.961 21.99 9.961a.879.879 0 0 1 0 1.758v.018zM24.33 57.887a.879.879 0 0 1-.879-.88v-1.429a.879.879 0 1 1 1.758 0v1.442a.879.879 0 0 1-.879.867zM69.67 57.887a.879.879 0 0 1-.879-.88v-1.429a.879.879 0 0 1 1.758 0v1.442a.879.879 0 0 1-.88.867zM65.27 18.242a4.254 4.254 0 1 1 0-8.508 4.254 4.254 0 0 1 0 8.508zm0-7.388a3.14 3.14 0 1 0 0 6.28 3.14 3.14 0 0 0 0-6.28zM55.238 12.283a1.406 1.406 0 1 1 1.295-1.4 1.348 1.348 0 0 1-1.295 1.4zm0-2.22a.826.826 0 1 0 .71.82.773.773 0 0 0-.71-.82zM40.725 24.236a1.406 1.406 0 1 1 1.295-1.406c.03.746-.55 1.375-1.295 1.406zm0-2.22a.826.826 0 1 0 .709.814.768.768 0 0 0-.71-.814zM25.32 10.59a1.406 1.406 0 1 1 1.295-1.406c.03.745-.55 1.374-1.295 1.406zm0-2.22a.826.826 0 1 0 .71.814.768.768 0 0 0-.71-.815zM72.81 39.758H21.22a.586.586 0 0 1-.416-.17.586.586 0 0 1-.17-.416l.082-8.994a.586.586 0 0 1 .82-.533c.03 0 2.49 1.084 4.225.937.662-.059 2.408.035 4.617.147 3.844.199 10.266.533 11.414-.065a6.281 6.281 0 0 0 1.693-1.5c.85-.95 1.817-2.033 3.516-2.033a6.041 6.041 0 0 1 3.299 1.219c.89.586 1.465.896 2.08.738.79-.309 1.544-.701 2.25-1.172 1.992-1.172 4.728-2.766 7.617-2.842 2.572-.058 5.215-1.265 7.336-2.232.96-.489 1.968-.881 3.006-1.172a.586.586 0 0 1 .709.586l.082 16.922c0 .155-.06.305-.17.416a.586.586 0 0 1-.398.164zm-51.005-1.172h50.443l-.076-15.55c-.586.21-1.29.532-2.063.89-2.22 1.008-4.98 2.273-7.793 2.344-2.607.064-5.191 1.576-7.072 2.677-.794.527-1.65.954-2.549 1.272-1.172.293-2.086-.3-3-.88a5.01 5.01 0 0 0-2.672-1.036c-1.207 0-1.886.761-2.671 1.646a7.266 7.266 0 0 1-2.022 1.758c-1.33.691-6.017.51-12.017.2-2.08-.106-3.874-.2-4.46-.153a10.4 10.4 0 0 1-3.978-.71l-.07 7.542z"/>
        <path fill="#FFF" fill-rule="nonzero" d="M27.664 39.172s.328-8.303.328-8.924c0-.621-.75-8.127-.75-8.127l.375-5.86 2.625 6.821 1.125-13.963.938 14.526 1.875 8.49 1.5-8.49 2.062 6.199 1.108 9.328H27.664z"/>
        <path fill="#393939" fill-rule="nonzero" d="M27.664 40.068a.902.902 0 0 1-.633-.27.867.867 0 0 1-.24-.644c.129-3.328.322-8.443.322-8.888 0-.446-.38-4.43-.744-8.04a.586.586 0 0 1 0-.14l.375-5.86a.885.885 0 0 1 .744-.814h.13a.885.885 0 0 1 .82.586l1.242 3.223.797-10.166a.879.879 0 1 1 1.757 0l.938 14.478.902 4.102.733-4.137a.879.879 0 0 1 .802-.72h.065a.879.879 0 0 1 .832.585l2.062 6.194c.018.055.03.112.036.17l1.125 9.345a.867.867 0 0 1-.868.985l-11.197.011zm10.213-1.757l-.996-8.268-.938-2.824-.896 5.074a.879.879 0 0 1-1.723.035l-1.875-8.484a.586.586 0 0 1 0-.135l-.158-2.432-.152 1.881a.879.879 0 0 1-.785.78h-.135a.879.879 0 0 1-.815-.586l-1.172-3.077-.123 1.905c.077.715.745 7.453.745 8.115 0 .498-.194 5.572-.293 8.045l9.316-.03z"/>
        <path fill="#FFF" fill-rule="nonzero" d="M31.355 8.54c.31-.001.568.24.586.55l.938 14.478 1.225 5.567.99-5.584a.586.586 0 0 1 .533-.48h.047a.586.586 0 0 1 .55.404l2.063 6.193a.686.686 0 0 1 0 .117l1.125 9.34a.586.586 0 0 1-.146.457.586.586 0 0 1-.434.2H27.664a.586.586 0 0 1-.422-.177.586.586 0 0 1-.164-.433c.111-2.865.322-8.42.322-8.9 0-.481-.445-5.063-.744-8.069a.252.252 0 0 1 0-.094l.375-5.859a.586.586 0 0 1 .492-.54h.088a.586.586 0 0 1 .551.376l1.7 4.424.92-11.403a.586.586 0 0 1 .585-.539l-.012-.029zM30.23 23.702a.586.586 0 0 1-.539-.375l-1.675-4.353-.2 3.158c.094.96.745 7.506.745 8.133 0 .533-.229 6.398-.305 8.338h9.96l-1.042-8.625-1.307-3.95-1.096 6.211a.586.586 0 0 1-.585.487.586.586 0 0 1-.586-.463l-1.875-8.485a.451.451 0 0 1 0-.088l-.422-6.445-.475 5.912a.586.586 0 0 1-.498.533h-.094l-.006.012zm1.143-15.732a1.172 1.172 0 0 0-1.172 1.078l-.726 8.818-.78-2.015a1.172 1.172 0 0 0-1.095-.756.896.896 0 0 0-.176 0 1.172 1.172 0 0 0-.99 1.084l-.375 5.86a.937.937 0 0 0 0 .18c.369 3.663.744 7.659.744 8.016 0 .446-.194 5.555-.323 8.877a1.172 1.172 0 0 0 1.184 1.23h11.191a1.172 1.172 0 0 0 1.16-1.312l-1.124-9.34a2.238 2.238 0 0 0-.047-.228l-2.069-6.2a1.172 1.172 0 0 0-1.107-.802h-.094c-.532.043-.969.44-1.06.967l-.475 2.677-.586-2.642-.932-14.408a1.172 1.172 0 0 0-1.171-1.102l.023.018zm-2.93 14.168v-.44l.703 1.828c.174.45.603.747 1.084.75h.188c.284-.043.543-.189.727-.41a.252.252 0 0 0 0 .065l1.875 8.49c.12.547.611.933 1.171.92a1.172 1.172 0 0 0 1.172-.973l.698-3.931.585 1.699.956 7.91h-8.737c.106-2.567.281-7.266.281-7.752 0-.662-.644-7.184-.744-8.145l.041-.011z"/>
        <path fill="#F15642" fill-rule="nonzero" d="M72.81 39.758H21.22a.586.586 0 0 1-.586-.586V5.352c0-.324.262-.586.586-.586h51.62c.324 0 .587.262.587.586v33.82a.587.587 0 0 1-.615.586zm-51.005-1.172h50.449V5.938h-50.45v32.648z"/>
        <path fill="#393939" fill-rule="nonzero" d="M51.049 17.416c-.867 0-1.81-.258-2.215-.78-.234-.298-.48-.925.457-1.786a.305.305 0 0 1 .422 0 .31.31 0 0 1 0 .427c-.451.405-.586.739-.393.979.451.586 2.227.709 2.813.328.586-.38 1.476-1.318 1.37-2.18-.081-.674-.743-1.236-1.974-1.67-2.842-1.013-5.953.106-8.695 1.09-.797.281-1.553.551-2.256.756-1.172.334-2.127.275-2.818-.176a2.273 2.273 0 0 1-.961-1.482.299.299 0 0 1 .586-.076c.086.432.338.813.703 1.06.539.352 1.318.381 2.344.094.685-.193 1.43-.457 2.214-.738 2.842-1.02 6.06-2.174 9.1-1.096 1.465.521 2.262 1.248 2.344 2.168.152 1.225-1.008 2.344-1.64 2.748a2.666 2.666 0 0 1-1.401.334z"/>
        <path d="M-28-37h150v150H-28z"/>
    </g>
</svg>
