<?xml version="1.0" encoding="UTF-8"?>
<svg width="56px" height="56px" viewBox="0 0 56 56" version="1.1" xmlns="http://www.w3.org/2000/svg" xmlns:xlink="http://www.w3.org/1999/xlink">
    <!-- Generator: Sketch 55.2 (78181) - https://sketchapp.com -->
    <title>icon/login/kakaotalk</title>
    <desc>Created with Sketch.</desc>
    <g id="icon/login/kakaotalk" stroke="none" stroke-width="1" fill="none" fill-rule="evenodd">
        <g id="Group">
            <circle id="Oval" stroke="#C4C4C4" opacity="0.4" cx="28" cy="28" r="28"></circle>
            <g id="kakaotalk" transform="translate(13.000000, 16.000000)" fill-rule="nonzero">
                <path d="M15,0.551470588 C7.08115809,0.551470588 0.661764706,5.61300551 0.661764706,11.8566176 C0.661764706,15.8932445 3.34549632,19.4352022 7.38253676,21.4352482 C7.1629136,22.192693 5.97118566,26.3080423 5.92375919,26.6313419 C5.92375919,26.6313419 5.89522059,26.8742647 6.05252757,26.9669118 C6.20983456,27.0595588 6.39485294,26.9875919 6.39485294,26.9875919 C6.84595588,26.9245864 11.6259651,23.5669577 12.4533088,22.9839154 C13.2798254,23.1009651 14.1308824,23.1617647 15,23.1617647 C22.9188419,23.1617647 29.3382353,18.1003676 29.3382353,11.8566176 C29.3382353,5.61300551 22.9188419,0.551470588 15,0.551470588 Z" id="Path" fill="#000000"></path>
                <path d="M7.07261029,15.803079 C6.61640625,15.803079 6.24540441,15.4487592 6.24540441,15.0130974 L6.24540441,10.0988051 L4.9546875,10.0988051 C4.50703125,10.0988051 4.14292279,9.73538603 4.14292279,9.28883272 C4.14292279,8.84227941 4.50716912,8.47886029 4.9546875,8.47886029 L9.19053309,8.47886029 C9.63818934,8.47886029 10.0022978,8.84227941 10.0022978,9.28883272 C10.0022978,9.73538603 9.63805147,10.0988051 9.19053309,10.0988051 L7.89981618,10.0988051 L7.89981618,15.0130974 C7.89981618,15.4487592 7.52881434,15.803079 7.07261029,15.803079 Z M14.3261029,15.792326 C13.9811581,15.792326 13.7172794,15.6522518 13.6377298,15.4269761 L13.228125,14.3546415 L10.7056985,14.3545037 L10.295818,15.4275276 C10.2165441,15.6523897 9.95280331,15.792326 9.60785846,15.792326 C9.42641507,15.7925112 9.24706445,15.7535751 9.08203125,15.678171 C8.85399816,15.5729779 8.6347886,15.2837316 8.88598346,14.5035386 L10.8646599,9.29545037 C11.0040441,8.89935662 11.4274357,8.49126838 11.9662224,8.47899816 C12.5065257,8.49113051 12.9299173,8.89935662 13.0695772,9.29627757 L15.0474265,14.5020221 C15.2991728,15.2840074 15.0799632,15.5733915 14.8519301,15.6783088 C14.6868576,15.753579 14.5075265,15.7924638 14.3261029,15.792326 C14.3259651,15.792326 14.3261029,15.792326 14.3261029,15.792326 L14.3261029,15.792326 Z M12.7931526,12.8893842 L11.9669118,10.5421875 L11.140671,12.8893842 L12.7931526,12.8893842 L12.7931526,12.8893842 Z M16.3786765,15.6824449 C15.9414982,15.6824449 15.5859375,15.3421875 15.5859375,14.9241728 L15.5859375,9.30606618 C15.5859375,8.84986213 15.9647978,8.47886029 16.4303768,8.47886029 C16.8959559,8.47886029 17.2748162,8.84986213 17.2748162,9.30606618 L17.2748162,14.1659007 L19.0326287,14.1659007 C19.469807,14.1659007 19.8253676,14.5061581 19.8253676,14.9241728 C19.8253676,15.3421875 19.469807,15.6824449 19.0326287,15.6824449 L16.3786765,15.6824449 Z M20.9743566,15.7923254 C20.5181526,15.7923254 20.1471507,15.4213235 20.1471507,14.9651195 L20.1471507,9.30606618 C20.1471507,8.84986213 20.5181526,8.47886029 20.9743566,8.47886029 C21.4305607,8.47886029 21.8015625,8.84986213 21.8015625,9.30606618 L21.8015625,11.0840074 L24.1094669,8.77610294 C24.228171,8.6573989 24.3912684,8.59204963 24.5682904,8.59204963 C24.7748162,8.59204963 24.9821691,8.68111213 25.137546,8.8363511 C25.2824449,8.98111213 25.3688879,9.16737132 25.3807445,9.36079963 C25.392739,9.55588235 25.3278033,9.73469669 25.1982077,9.86443015 L23.3131434,11.7492187 L25.3493107,14.4467371 C25.4821035,14.6215377 25.5393084,14.8422633 25.5081342,15.0595588 C25.4783496,15.2769898 25.362767,15.4734503 25.1871783,15.6051011 C25.0441305,15.7138313 24.8692935,15.7724979 24.689614,15.7720588 C24.4297083,15.7732684 24.1845907,15.6512977 24.0288143,15.4432445 L22.0888787,12.8728401 L21.8018382,13.1598805 L21.8018382,14.9647059 C21.8013066,15.4215133 21.4311639,15.7917176 20.9743566,15.7923254 L20.9743566,15.7923254 Z" id="Shape" fill="#FFE812"></path>
            </g>
        </g>
    </g>
</svg>