<?xml version="1.0" encoding="UTF-8"?>
<svg width="34px" height="34px" viewBox="0 0 34 34" version="1.1" xmlns="http://www.w3.org/2000/svg" xmlns:xlink="http://www.w3.org/1999/xlink">
    <!-- Generator: Sketch 55.2 (78181) - https://sketchapp.com -->
    <title>icon/home/selected</title>
    <desc>Created with Sketch.</desc>
    <defs>
        <polygon id="path-1" points="0.0001 0.515 26.834 0.515 26.834 13.74735 0.0001 13.74735"></polygon>
        <polygon id="path-3" points="0.0724 0.6361 18.7594 0.6361 18.7594 14 0.0724 14"></polygon>
    </defs>
    <g id="icon/home/selected" stroke="none" stroke-width="1" fill="none" fill-rule="evenodd">
        <g id="Home">
            <g id="Group-3" transform="translate(4.000000, 5.485200)">
                <mask id="mask-2" fill="white">
                    <use xlink:href="#path-1"></use>
                </mask>
                <g id="Clip-2"></g>
                <path d="M26.0251,13.7471 C25.8181,13.7471 25.6101,13.6681 25.4531,13.5111 L14.5391,2.5971 C13.9201,1.9771 12.9141,1.9771 12.2961,2.5971 L1.3811,13.5111 C1.0661,13.8261 0.5531,13.8261 0.2371,13.5111 C-0.0789,13.1941 -0.0789,12.6821 0.2371,12.3661 L11.1511,1.4521 C12.4001,0.2021 14.4341,0.2021 15.6831,1.4521 L26.5971,12.3661 C26.9131,12.6821 26.9131,13.1941 26.5971,13.5111 C26.4391,13.6681 26.2321,13.7471 26.0251,13.7471" id="Fill-1" fill="#FFFFFF" mask="url(#mask-2)"></path>
            </g>
            <g id="Group-6" transform="translate(8.000000, 15.485200)">
                <mask id="mask-4" fill="white">
                    <use xlink:href="#path-3"></use>
                </mask>
                <g id="Clip-5"></g>
                <path d="M15.5544,14.0001 L3.2774,14.0001 C1.5104,14.0001 0.0724,12.5631 0.0724,10.7951 L0.0724,1.4451 C0.0724,0.9981 0.4344,0.6361 0.8814,0.6361 C1.3284,0.6361 1.6914,0.9981 1.6914,1.4451 L1.6914,10.7951 C1.6914,11.6701 2.4024,12.3811 3.2774,12.3811 L15.5544,12.3811 C16.4294,12.3811 17.1404,11.6701 17.1404,10.7951 L17.1404,1.4451 C17.1404,0.9981 17.5024,0.6361 17.9494,0.6361 C18.3964,0.6361 18.7594,0.9981 18.7594,1.4451 L18.7594,10.7951 C18.7594,12.5631 17.3214,14.0001 15.5544,14.0001" id="Fill-4" fill="#FFFFFF" mask="url(#mask-4)"></path>
            </g>
            <path d="M20.1574,28.7968 C19.7104,28.7968 19.3484,28.4348 19.3484,27.9868 L19.3484,21.4318 C19.3484,21.0268 19.0194,20.6978 18.6144,20.6978 L16.0444,20.6978 C15.6404,20.6978 15.3114,21.0268 15.3114,21.4318 L15.3114,27.9868 C15.3114,28.4348 14.9494,28.7968 14.5014,28.7968 C14.0544,28.7968 13.6924,28.4348 13.6924,27.9868 L13.6924,21.4318 C13.6924,20.1348 14.7474,19.0798 16.0444,19.0798 L18.6144,19.0798 C19.9114,19.0798 20.9674,20.1348 20.9674,21.4318 L20.9674,27.9868 C20.9674,28.4348 20.6044,28.7968 20.1574,28.7968" id="Fill-7" fill="#FFFFFF"></path>
            <rect id="Rectangle" x="0" y="0" width="34" height="34"></rect>
        </g>
    </g>
</svg>