<?xml version="1.0" encoding="UTF-8"?>
<svg width="34px" height="34px" viewBox="0 0 34 34" version="1.1" xmlns="http://www.w3.org/2000/svg" xmlns:xlink="http://www.w3.org/1999/xlink">
    <!-- Generator: Sketch 55.2 (78181) - https://sketchapp.com -->
    <title>icon/home/unselected </title>
    <desc>Created with Sketch.</desc>
    <g id="icon/home/unselected-" stroke="none" stroke-width="1" fill="none" fill-rule="evenodd">
        <g id="Home">
            <path d="M30.0251,19.2323 C29.8181,19.2323 29.6101,19.1533 29.4531,18.9963 L18.5391,8.0823 C17.9201,7.4623 16.9141,7.4623 16.2961,8.0823 L5.3811,18.9963 C5.0661,19.3113 4.5531,19.3113 4.2371,18.9963 C3.9211,18.6793 3.9211,18.1673 4.2371,17.8513 L15.1511,6.9373 C16.4001,5.6873 18.4341,5.6873 19.6831,6.9373 L30.5971,17.8513 C30.9131,18.1673 30.9131,18.6793 30.5971,18.9963 C30.4391,19.1533 30.2321,19.2323 30.0251,19.2323" id="Fill-1" fill="#626261"></path>
            <path d="M23.5544,29.4853 L11.2774,29.4853 C9.5104,29.4853 8.0724,28.0483 8.0724,26.2803 L8.0724,16.9303 C8.0724,16.4833 8.4344,16.1213 8.8814,16.1213 C9.3284,16.1213 9.6914,16.4833 9.6914,16.9303 L9.6914,26.2803 C9.6914,27.1553 10.4024,27.8663 11.2774,27.8663 L23.5544,27.8663 C24.4294,27.8663 25.1404,27.1553 25.1404,26.2803 L25.1404,16.9303 C25.1404,16.4833 25.5024,16.1213 25.9494,16.1213 C26.3964,16.1213 26.7594,16.4833 26.7594,16.9303 L26.7594,26.2803 C26.7594,28.0483 25.3214,29.4853 23.5544,29.4853" id="Fill-4" fill="#626261"></path>
            <path d="M20.1574,28.7968 C19.7104,28.7968 19.3484,28.4348 19.3484,27.9868 L19.3484,21.4318 C19.3484,21.0268 19.0194,20.6978 18.6144,20.6978 L16.0444,20.6978 C15.6404,20.6978 15.3114,21.0268 15.3114,21.4318 L15.3114,27.9868 C15.3114,28.4348 14.9494,28.7968 14.5014,28.7968 C14.0544,28.7968 13.6924,28.4348 13.6924,27.9868 L13.6924,21.4318 C13.6924,20.1348 14.7474,19.0798 16.0444,19.0798 L18.6144,19.0798 C19.9114,19.0798 20.9674,20.1348 20.9674,21.4318 L20.9674,27.9868 C20.9674,28.4348 20.6044,28.7968 20.1574,28.7968" id="Fill-7" fill="#626261"></path>
            <rect id="Rectangle" x="0" y="0" width="34" height="34"></rect>
        </g>
    </g>
</svg>