<?xml version="1.0" encoding="UTF-8"?>
<svg width="38px" height="38px" viewBox="0 0 38 38" version="1.1" xmlns="http://www.w3.org/2000/svg" xmlns:xlink="http://www.w3.org/1999/xlink">
    <!-- Generator: Sketch 55.2 (78181) - https://sketchapp.com -->
    <title>icon/myPage/etc</title>
    <desc>Created with Sketch.</desc>
    <g id="icon/myPage/etc" stroke="none" stroke-width="1" fill="none" fill-rule="evenodd" opacity="0.6">
        <g id="icon/etc">
            <rect id="Rectangle" x="0" y="0" width="38" height="38"></rect>
            <path d="M11.1948,27.835 L3.8,27.835 L3.8,8.8426 L11.1948,8.8426 L11.1948,10.8376 L6.061,10.8376 L6.061,16.929 L10.8756,16.929 L10.8756,18.924 L6.061,18.924 L6.061,25.8134 L11.1948,25.8134 L11.1948,27.835 Z M18.6809529,27.835 L16.4465529,27.835 L16.4465529,10.8642 L12.8821529,10.8642 L12.8821529,8.8426 L22.2453529,8.8426 L22.2453529,10.8642 L18.6809529,10.8642 L18.6809529,27.835 Z M28.1656,10.5716 C27.2434621,10.5716 26.4898029,10.9306964 25.9046,11.6489 C25.3193971,12.3671036 24.8938013,13.3202607 24.6278,14.5084 C24.3617987,15.6965393 24.2288,16.9733265 24.2288,18.3388 C24.2288,20.7505454 24.5923297,22.6435598 25.3194,24.0179 C26.0464703,25.3922402 27.039527,26.0794 28.2986,26.0794 C28.8128692,26.0794 29.300531,26.0129007 29.7616,25.8799 C30.222669,25.7468993 30.6659979,25.5740011 31.0916,25.3612 L31.0916,27.3828 C30.2403957,27.8616024 29.2207393,28.101 28.0326,28.101 C26.773527,28.101 25.6829379,27.7108706 24.7608,26.9306 C23.8386621,26.1503294 23.1293358,25.0331406 22.6328,23.579 C22.1362642,22.1248594 21.888,20.369277 21.888,18.3122 C21.888,16.503391 22.1140977,14.863074 22.5663,13.3912 C23.0185023,11.919326 23.7012288,10.7445044 24.6145,9.8667 C25.5277712,8.98889561 26.6848597,8.55 28.0858,8.55 C29.3271395,8.55 30.4797947,8.86919681 31.5438,9.5076 L30.7724,11.3962 C30.3822647,11.1479321 29.9699688,10.9484341 29.5355,10.7977 C29.1010312,10.6469659 28.6444024,10.5716 28.1656,10.5716 Z" id="ETC" stroke="#FFFFFF" fill="#1F1F1F" fill-rule="nonzero"></path>
            <circle id="Oval" fill="#1F1F1F" cx="33.763" cy="26.125" r="1.425"></circle>
        </g>
    </g>
</svg>