<?xml version="1.0" encoding="UTF-8"?>
<svg width="38px" height="38px" viewBox="0 0 38 38" version="1.1" xmlns="http://www.w3.org/2000/svg" xmlns:xlink="http://www.w3.org/1999/xlink">
    <!-- Generator: Sketch 55.2 (78181) - https://sketchapp.com -->
    <title>icon/myPage/musical</title>
    <desc>Created with Sketch.</desc>
    <defs>
        <polygon id="path-1" points="0 0.613011892 15.0760995 0.613011892 15.0760995 18.7538011 0 18.7538011"></polygon>
        <polygon id="path-3" points="0.775785405 0.613011892 15.8521622 0.613011892 15.8521622 18.7538011 0.775785405 18.7538011"></polygon>
        <polygon id="path-5" points="0 0.612919459 34.3386486 0.612919459 34.3386486 32.3513514 0 32.3513514"></polygon>
    </defs>
    <g id="icon/myPage/musical" stroke="none" stroke-width="1" fill="none" fill-rule="evenodd" opacity="0.6">
        <g id="icon/musical">
            <rect id="Rectangle" x="0" y="0" width="38" height="38"></rect>
            <g id="Group-24" transform="translate(0.950000, 1.900000)">
                <path d="M25.1432854,30.5369951 L9.32162595,30.5369951 C8.96391243,30.5369951 8.67367459,30.2467573 8.67367459,29.8890438 C8.67367459,29.5313303 8.96391243,29.2410924 9.32162595,29.2410924 L25.1432854,29.2410924 C25.5019232,29.2410924 25.7912368,29.5313303 25.7912368,29.8890438 C25.7912368,30.2467573 25.5019232,30.5369951 25.1432854,30.5369951" id="Fill-1" stroke="#FFFFFF" fill="#1F1F1F"></path>
                <path d="M13.5969032,7.01229405 C13.2401141,7.01229405 12.9498762,6.72205622 12.9498762,6.3643427 C12.9498762,6.00662919 13.2401141,5.71639135 13.5969032,5.71639135 L20.7410059,5.71639135 C21.0987195,5.71639135 21.3889573,6.00662919 21.3889573,6.3643427 C21.3889573,6.72205622 21.0987195,7.01229405 20.7410059,7.01229405 L13.5969032,7.01229405 Z" id="Fill-9" stroke="#FFFFFF" fill="#1F1F1F"></path>
                <path d="M13.5969032,9.0256573 C13.2401141,9.0256573 12.9498762,8.73541946 12.9498762,8.37770595 C12.9498762,8.01999243 13.2401141,7.72975459 13.5969032,7.72975459 L20.7410059,7.72975459 C21.0987195,7.72975459 21.3889573,8.01999243 21.3889573,8.37770595 C21.3889573,8.73541946 21.0987195,9.0256573 20.7410059,9.0256573 L13.5969032,9.0256573 Z" id="Fill-11" stroke="#FFFFFF" fill="#1F1F1F"></path>
                <path d="M0.971834595,18.7419697 C0.798061622,18.7419697 0.624288649,18.6717211 0.496731892,18.5339968 C0.253634595,18.272413 0.268423784,17.862013 0.530931892,17.6189157 C8.53835351,10.1938184 7.53361297,2.77796432 7.52252108,2.70401838 C7.46891027,2.35000216 7.71293189,2.0209427 8.06694811,1.96733189 C8.42188865,1.91372108 8.75094811,2.15866703 8.80363459,2.51175892 C8.81565081,2.59679676 9.10404,4.61274811 8.32575892,7.61033189 C7.61587784,10.3435589 5.84117514,14.4632724 1.4127373,18.5691211 C1.28795351,18.6846616 1.12989405,18.7419697 0.971834595,18.7419697" id="Fill-16" stroke="#FFFFFF" fill="#1F1F1F"></path>
                <path d="M33.3665368,18.7419697 C33.2094016,18.7419697 33.0513422,18.6846616 32.9265584,18.5691211 C28.4981205,14.4632724 26.7234178,10.3435589 26.0135368,7.61033189 C25.2352557,4.61274811 25.5227205,2.59679676 25.5347368,2.51175892 C25.5883476,2.15866703 25.917407,1.91372108 26.2714232,1.96733189 C26.6254395,2.02001838 26.8694611,2.35000216 26.8167746,2.70309405 C26.812153,2.7391427 26.5607368,4.60812649 27.2863314,7.35521838 C27.9592395,9.90265622 29.6378124,13.7515427 33.8083638,17.6189157 C34.0699476,17.862013 34.0847368,18.272413 33.8425638,18.5339968 C33.715007,18.6717211 33.5403097,18.7419697 33.3665368,18.7419697" id="Fill-18" stroke="#FFFFFF" fill="#1F1F1F"></path>
                <path d="M5.83091514,32.3391503 C5.49353676,32.3391503 5.20884486,32.0784908 5.18481243,31.7364908 C4.79567189,26.1923935 0.966196216,21.8684043 0.928298919,21.8258854 C0.689823243,21.55968 0.711082703,21.1502043 0.977288108,20.9108043 C1.24349351,20.6714043 1.65296919,20.6935881 1.89236919,20.9597935 C2.06244486,21.14928 6.05737459,25.6627557 6.47701784,31.645907 C6.50289892,32.0026962 6.23392054,32.3123449 5.87620703,32.3382259 C5.86141784,32.3391503 5.84570432,32.3391503 5.83091514,32.3391503" id="Fill-20" stroke="#FFFFFF" fill="#1F1F1F"></path>
                <path d="M27.8718908,32.3382259 C27.5141773,32.3123449 27.2451989,32.0026962 27.27108,31.645907 C27.6907232,25.6627557 31.685653,21.14928 31.8557286,20.9597935 C32.0951286,20.6935881 32.5046043,20.6714043 32.7708097,20.9108043 C33.0370151,21.1502043 33.0591989,21.55968 32.8207232,21.8258854 C32.7634151,21.8896638 28.9505773,26.2210476 28.5632854,31.7364908 C28.539253,32.0784908 28.2545611,32.3391503 27.918107,32.3391503 C27.9023935,32.3391503 27.8876043,32.3391503 27.8718908,32.3382259 Z" id="Fill-22" stroke="#FFFFFF" fill="#1F1F1F"></path>
                <g id="Group-5" transform="translate(0.000000, 0.311775)">
                    <mask id="mask-2" fill="white">
                        <use xlink:href="#path-1"></use>
                    </mask>
                    <g id="Clip-4"></g>
                    <path d="M0.971834595,18.7538011 C0.434802162,18.7538011 -0.000554594595,18.3184443 -0.000554594595,17.7823362 C-0.000554594595,17.2453038 0.434802162,16.809947 0.971834595,16.809947 C7.67688324,16.809947 13.1322454,9.98011459 13.1322454,1.58447676 C13.1322454,1.04744432 13.5676022,0.613011892 14.1037103,0.613011892 C14.6407427,0.613011892 15.0760995,1.04744432 15.0760995,1.58447676 C15.0760995,11.0514065 8.74909946,18.7538011 0.971834595,18.7538011" id="Fill-3" stroke="#FFFFFF" fill="#1F1F1F" mask="url(#mask-2)"></path>
                </g>
                <g id="Group-8" transform="translate(18.486486, 0.311775)">
                    <mask id="mask-4" fill="white">
                        <use xlink:href="#path-3"></use>
                    </mask>
                    <g id="Clip-7"></g>
                    <path d="M14.8809746,18.7538011 C7.10370973,18.7538011 0.775785405,11.0514065 0.775785405,1.58447676 C0.775785405,1.04744432 1.21114216,0.613011892 1.74817459,0.613011892 C2.28520703,0.613011892 2.72056378,1.04744432 2.72056378,1.58447676 C2.72056378,9.98011459 8.17500162,16.809947 14.8809746,16.809947 C15.4170827,16.809947 15.8524395,17.2453038 15.8524395,17.7823362 C15.8524395,18.3184443 15.4170827,18.7538011 14.8809746,18.7538011" id="Fill-6" stroke="#FFFFFF" fill="#1F1F1F" mask="url(#mask-4)"></path>
                </g>
                <g id="Group-15" transform="translate(0.000000, 0.311775)">
                    <mask id="mask-6" fill="white">
                        <use xlink:href="#path-5"></use>
                    </mask>
                    <g id="Clip-14"></g>
                    <path d="M1.94403892,30.4075897 L8.06491459,30.4075897 C7.73215784,25.6537897 5.01649297,21.3344222 1.94403892,20.5598384 L1.94403892,30.4075897 Z M26.2741038,30.4075897 L32.3949795,30.4075897 L32.3949795,20.5598384 C29.3225254,21.3344222 26.6068605,25.6537897 26.2741038,30.4075897 L26.2741038,30.4075897 Z M25.2675146,32.3514438 C24.7314065,32.3514438 24.2969741,31.916087 24.2969741,31.3790546 C24.2969741,28.3334059 25.2185254,25.1712924 26.8259254,22.7042708 C28.3593795,20.3509411 30.3087795,18.9136168 32.3949795,18.5725411 L32.3949795,2.55677351 L1.94403892,2.55677351 L1.94403892,18.5725411 C4.03023892,18.9136168 5.97963892,20.3509411 7.51216865,22.7042708 C9.12049297,25.1712924 10.0429686,28.3334059 10.0429686,31.3790546 C10.0429686,31.916087 9.60761189,32.3514438 9.07057946,32.3514438 L0.97164973,32.3514438 C0.434617297,32.3514438 -0.000739459459,31.916087 -0.000739459459,31.3790546 L-0.000739459459,1.58438432 C-0.000739459459,1.04735189 0.434617297,0.612919459 0.97164973,0.612919459 L33.3673686,0.612919459 C33.9034768,0.612919459 34.3388335,1.04735189 34.3388335,1.58438432 L34.3388335,31.3790546 C34.3388335,31.916087 33.9034768,32.3514438 33.3673686,32.3514438 L25.2675146,32.3514438 Z" id="Fill-13" stroke="#FFFFFF" fill="#1F1F1F" mask="url(#mask-6)"></path>
                </g>
            </g>
        </g>
    </g>
</svg>