<?xml version="1.0" encoding="UTF-8"?>
<svg width="30px" height="30px" viewBox="0 0 30 30" version="1.1" xmlns="http://www.w3.org/2000/svg" xmlns:xlink="http://www.w3.org/1999/xlink">
    <!-- Generator: Sketch 55.2 (78181) - https://sketchapp.com -->
    <title>icon/cal</title>
    <desc>Created with Sketch.</desc>
    <defs>
        <polygon id="path-1" points="0 21.368 17.894 21.368 17.894 -3.55271368e-15 0 -3.55271368e-15"></polygon>
    </defs>
    <g id="icon/cal" stroke="none" stroke-width="1" fill="none" fill-rule="evenodd">
        <g id="Group-7" transform="translate(6.000000, 4.000000)">
            <path d="M17.2845,7.1496 L0.6205,7.1496 C0.2835,7.1496 0.0115,6.8776 0.0115,6.5406 C0.0115,6.2036 0.2835,5.9306 0.6205,5.9306 L17.2845,5.9306 C17.6205,5.9306 17.8935,6.2036 17.8935,6.5406 C17.8935,6.8776 17.6205,7.1496 17.2845,7.1496" id="Fill-1" fill="#4C4C4C"></path>
            <mask id="mask-2" fill="white">
                <use xlink:href="#path-1"></use>
            </mask>
            <g id="Clip-4"></g>
            <path d="M1.219,20.15 L16.675,20.15 L16.675,3.088 L1.219,3.088 L1.219,20.15 Z M17.284,21.368 L0.61,21.368 C0.273,21.368 0,21.095 0,20.759 L0,2.478 C0,2.142 0.273,1.868 0.61,1.868 L17.284,1.868 C17.62,1.868 17.894,2.142 17.894,2.478 L17.894,20.759 C17.894,21.095 17.62,21.368 17.284,21.368 L17.284,21.368 Z" id="Fill-3" fill="#4C4C4C" mask="url(#mask-2)"></path>
            <path d="M4.6829,4.343 C4.3459,4.343 4.0739,4.07 4.0739,3.734 L4.0739,0.61 C4.0739,0.273 4.3459,0 4.6829,0 C5.0189,0 5.2919,0.273 5.2919,0.61 L5.2919,3.734 C5.2919,4.07 5.0189,4.343 4.6829,4.343" id="Fill-5" fill="#4C4C4C" mask="url(#mask-2)"></path>
            <path d="M12.8069,4.343 C12.4709,4.343 12.1979,4.07 12.1979,3.734 L12.1979,0.61 C12.1979,0.273 12.4709,0 12.8069,0 C13.1439,0 13.4159,0.273 13.4159,0.61 L13.4159,3.734 C13.4159,4.07 13.1439,4.343 12.8069,4.343" id="Fill-6" fill="#4C4C4C" mask="url(#mask-2)"></path>
        </g>
        <rect id="Rectangle" x="0" y="0" width="30" height="30"></rect>
    </g>
</svg>