<?xml version="1.0" encoding="UTF-8"?>
<svg width="34px" height="34px" viewBox="0 0 34 34" version="1.1" xmlns="http://www.w3.org/2000/svg" xmlns:xlink="http://www.w3.org/1999/xlink">
    <!-- Generator: Sketch 55.2 (78181) - https://sketchapp.com -->
    <title>icon/delete</title>
    <desc>Created with Sketch.</desc>
    <defs>
        <polygon id="path-1" points="0.2283 0.6195 18.6093 0.6195 18.6093 19 0.2283 19"></polygon>
    </defs>
    <g id="icon/delete" stroke="none" stroke-width="1" fill="none" fill-rule="evenodd">
        <g id="Group-12" transform="translate(4.000000, 6.000000)">
            <g id="Group-3" transform="translate(4.000000, 3.961900)">
                <mask id="mask-2" fill="white">
                    <use xlink:href="#path-1"></use>
                </mask>
                <g id="Clip-2"></g>
                <path d="M14.6623,19.0005 L4.1753,19.0005 C1.9993,19.0005 0.2283,17.2295 0.2283,15.0535 L0.2283,1.3535 C0.2283,0.9475 0.5573,0.6195 0.9613,0.6195 C1.3673,0.6195 1.6953,0.9475 1.6953,1.3535 L1.6953,15.0535 C1.6953,16.4205 2.8083,17.5335 4.1753,17.5335 L14.6623,17.5335 C16.0303,17.5335 17.1423,16.4205 17.1423,15.0535 L17.1423,1.3535 C17.1423,0.9475 17.4713,0.6195 17.8753,0.6195 C18.2813,0.6195 18.6093,0.9475 18.6093,1.3535 L18.6093,15.0535 C18.6093,17.2295 16.8383,19.0005 14.6623,19.0005" id="Fill-1" fill="#1F1F1F" mask="url(#mask-2)"></path>
            </g>
            <path d="M26.1042,6.0473 L0.7332,6.0473 C0.3282,6.0473 0.0002,5.7193 0.0002,5.3153 C0.0002,4.9093 0.3282,4.5813 0.7332,4.5813 L26.1042,4.5813 C26.5092,4.5813 26.8372,4.9093 26.8372,5.3153 C26.8372,5.7193 26.5092,6.0473 26.1042,6.0473" id="Fill-4" fill="#1F1F1F"></path>
            <path d="M10.6701,15.8051 C10.2651,15.8051 9.9371,15.4771 9.9371,15.0721 L9.9371,10.1351 C9.9371,9.7301 10.2651,9.4021 10.6701,9.4021 C11.0751,9.4021 11.4031,9.7301 11.4031,10.1351 L11.4031,15.0721 C11.4031,15.4771 11.0751,15.8051 10.6701,15.8051" id="Fill-6" fill="#1F1F1F"></path>
            <path d="M15.9558,15.8051 C15.5508,15.8051 15.2228,15.4771 15.2228,15.0721 L15.2228,10.1351 C15.2228,9.7301 15.5508,9.4021 15.9558,9.4021 C16.3608,9.4021 16.6888,9.7301 16.6888,10.1351 L16.6888,15.0721 C16.6888,15.4771 16.3608,15.8051 15.9558,15.8051" id="Fill-8" fill="#1F1F1F"></path>
            <path d="M18.3654,5.6196 C17.9604,5.6196 17.6324,5.2916 17.6324,4.8866 L17.6324,2.5226 C17.6324,1.9396 17.1584,1.4666 16.5754,1.4666 L10.2614,1.4666 C9.6794,1.4666 9.2054,1.9396 9.2054,2.5226 L9.2054,4.8866 C9.2054,5.2916 8.8774,5.6196 8.4724,5.6196 C8.0674,5.6196 7.7394,5.2916 7.7394,4.8866 L7.7394,2.5226 C7.7394,1.1316 8.8704,0.0006 10.2614,0.0006 L16.5754,0.0006 C17.9674,0.0006 19.0984,1.1316 19.0984,2.5226 L19.0984,4.8866 C19.0984,5.2916 18.7704,5.6196 18.3654,5.6196" id="Fill-10" fill="#1F1F1F"></path>
        </g>
        <rect id="Rectangle" x="0" y="0" width="34" height="34"></rect>
    </g>
</svg>