<?xml version="1.0" encoding="UTF-8"?>
<svg width="34px" height="34px" viewBox="0 0 34 34" version="1.1" xmlns="http://www.w3.org/2000/svg" xmlns:xlink="http://www.w3.org/1999/xlink">
    <!-- Generator: Sketch 55.2 (78181) - https://sketchapp.com -->
    <title>icon/edit</title>
    <desc>Created with Sketch.</desc>
    <g id="icon/edit" stroke="none" stroke-width="1" fill="none" fill-rule="evenodd">
        <g id="Group">
            <g id="Group-9" transform="translate(6.000000, 7.000000)">
                <path d="M22.5781717,4.87095844 L19.1301028,1.42143964 C19.5669231,1.06026745 20.1140296,0.862379699 20.6892484,0.862379699 C21.3444788,0.862379699 21.9586221,1.11757921 22.4213921,1.57823595 C22.8852433,2.03889269 23.1371719,2.65526439 23.1371719,3.31056483 C23.1371719,3.88908914 22.9393053,4.43301013 22.5781717,4.87095844 L22.5781717,4.87095844 Z M14.1434319,13.3217388 L12.7345784,11.9127347 L20.5681497,4.07832606 L21.9770032,5.48733014 L14.1434319,13.3217388 Z M18.5127157,2.02591645 L19.9540064,3.46736114 L12.1204351,11.3017698 L10.6791444,9.86032513 L18.5127157,2.02591645 Z M23.029048,0.971596439 C21.7380495,-0.32386548 19.6372036,-0.32386548 18.3462051,0.971596439 L9.76117313,9.55430199 C9.69413636,9.62134593 9.65304931,9.70677288 9.64007445,9.79976931 L9.00430634,14.5112281 C8.98484405,14.6453159 9.03241854,14.7794038 9.12540503,14.8724002 C9.20541666,14.9524204 9.3167842,15 9.42923298,15 C9.44761403,15 9.46815756,15 9.48653861,14.9967559 L12.3247891,14.6139567 C12.5615803,14.5815161 12.728091,14.3641639 12.6956538,14.1284288 C12.6642979,13.8916123 12.4458878,13.7250838 12.2101778,13.7575244 L9.93417126,14.0635476 L10.3785602,10.7773132 L13.8363602,14.2365642 C13.9163718,14.315503 14.0288206,14.3641639 14.1401882,14.3641639 C14.2515557,14.3641639 14.3640045,14.3198284 14.4440161,14.2365642 L23.029048,5.65385863 C23.655085,5.02775475 24,4.19619363 24,3.31056483 C24,2.42493602 23.655085,1.59445626 23.029048,0.971596439 L23.029048,0.971596439 Z" id="Fill-1" fill="#000000"></path>
                <path d="M22.5781717,4.87095844 L19.1301028,1.42143964 C19.5669231,1.06026745 20.1140296,0.862379699 20.6892484,0.862379699 C21.3444788,0.862379699 21.9586221,1.11757921 22.4213921,1.57823595 C22.8852433,2.03889269 23.1371719,2.65526439 23.1371719,3.31056483 C23.1371719,3.88908914 22.9393053,4.43301013 22.5781717,4.87095844 Z M14.1434319,13.3217388 L12.7345784,11.9127347 L20.5681497,4.07832606 L21.9770032,5.48733014 L14.1434319,13.3217388 Z M18.5127157,2.02591645 L19.9540064,3.46736114 L12.1204351,11.3017698 L10.6791444,9.86032513 L18.5127157,2.02591645 Z M23.029048,0.971596439 C21.7380495,-0.32386548 19.6372036,-0.32386548 18.3462051,0.971596439 L9.76117313,9.55430199 C9.69413636,9.62134593 9.65304931,9.70677288 9.64007445,9.79976931 L9.00430634,14.5112281 C8.98484405,14.6453159 9.03241854,14.7794038 9.12540503,14.8724002 C9.20541666,14.9524204 9.3167842,15 9.42923298,15 C9.44761403,15 9.46815756,15 9.48653861,14.9967559 L12.3247891,14.6139567 C12.5615803,14.5815161 12.728091,14.3641639 12.6956538,14.1284288 C12.6642979,13.8916123 12.4458878,13.7250838 12.2101778,13.7575244 L9.93417126,14.0635476 L10.3785602,10.7773132 L13.8363602,14.2365642 C13.9163718,14.315503 14.0288206,14.3641639 14.1401882,14.3641639 C14.2515557,14.3641639 14.3640045,14.3198284 14.4440161,14.2365642 L23.029048,5.65385863 C23.655085,5.02775475 24,4.19619363 24,3.31056483 C24,2.42493602 23.655085,1.59445626 23.029048,0.971596439 Z" id="Stroke-3" stroke="#060001" stroke-width="0.25"></path>
                <path d="M16.491325,21 L4.50867496,21 C2.02272378,21 0,18.9772762 0,16.491325 L0,4.50867496 C0,2.02272378 2.02272378,0 4.50867496,0 L15.5637955,0 C15.8658068,0 16.11193,0.245048365 16.11193,0.5481345 C16.11193,0.851220636 15.8658068,1.096269 15.5637955,1.096269 L4.50867496,1.096269 C2.62782128,1.096269 1.096269,2.62782128 1.096269,4.50867496 L1.096269,16.491325 C1.096269,18.3732535 2.62782128,19.9026562 4.50867496,19.9026562 L16.491325,19.9026562 C18.3721787,19.9026562 19.9026562,18.3732535 19.9026562,16.491325 L19.9026562,10.4994626 C19.9026562,10.1974513 20.1487794,9.95132811 20.4518655,9.95132811 C20.7549516,9.95132811 21,10.1974513 21,10.4994626 L21,16.491325 C21,18.9772762 18.9772762,21 16.491325,21" id="Fill-5" fill="#000000"></path>
                <path d="M16.491325,21 L4.50867496,21 C2.02272378,21 0,18.9772762 0,16.491325 L0,4.50867496 C0,2.02272378 2.02272378,0 4.50867496,0 L15.5637955,0 C15.8658068,0 16.11193,0.245048365 16.11193,0.5481345 C16.11193,0.851220636 15.8658068,1.096269 15.5637955,1.096269 L4.50867496,1.096269 C2.62782128,1.096269 1.096269,2.62782128 1.096269,4.50867496 L1.096269,16.491325 C1.096269,18.3732535 2.62782128,19.9026562 4.50867496,19.9026562 L16.491325,19.9026562 C18.3721787,19.9026562 19.9026562,18.3732535 19.9026562,16.491325 L19.9026562,10.4994626 C19.9026562,10.1974513 20.1487794,9.95132811 20.4518655,9.95132811 C20.7549516,9.95132811 21,10.1974513 21,10.4994626 L21,16.491325 C21,18.9772762 18.9772762,21 16.491325,21 Z" id="Stroke-7" stroke="#040000" stroke-width="0.25"></path>
            </g>
            <rect id="Rectangle" x="0" y="0" width="34" height="34"></rect>
        </g>
    </g>
</svg>