<?xml version="1.0" encoding="UTF-8"?>
<svg width="44px" height="44px" viewBox="0 0 44 44" version="1.1" xmlns="http://www.w3.org/2000/svg" xmlns:xlink="http://www.w3.org/1999/xlink">
    <!-- Generator: Sketch 55.2 (78181) - https://sketchapp.com -->
    <title>icon/imageedit</title>
    <desc>Created with Sketch.</desc>
    <g id="icon/imageedit" stroke="none" stroke-width="1" fill="none" fill-rule="evenodd">
        <g id="Group-2" transform="translate(2.000000, 2.000000)">
            <circle id="Oval" fill="#8F8F8F" opacity="0.5" cx="20" cy="20" r="20"></circle>
            <g id="Group" transform="translate(6.000000, 6.000000)">
                <path d="M13.993,11.965 C12.447,11.965 11.19,13.222 11.19,14.768 C11.19,16.313 12.447,17.57 13.993,17.57 C15.538,17.57 16.796,16.313 16.796,14.768 C16.796,13.222 15.538,11.965 13.993,11.965" id="Fill-1" fill="#FAFAFA"></path>
                <path d="M21.3182,11.5568 C20.9982,11.5568 20.7372,11.2968 20.7372,10.9758 C20.7372,10.6548 20.9982,10.3948 21.3182,10.3948 C21.6392,10.3948 21.8992,10.6548 21.8992,10.9758 C21.8992,11.2968 21.6392,11.5568 21.3182,11.5568 M13.9932,19.2198 C11.5382,19.2198 9.5412,17.2228 9.5412,14.7678 C9.5412,12.3128 11.5382,10.3158 13.9932,10.3158 C16.4472,10.3158 18.4442,12.3128 18.4442,14.7678 C18.4442,17.2228 16.4472,19.2198 13.9932,19.2198 M23.7402,9.3468 C23.5862,9.1948 23.3772,9.1088 23.1602,9.1088 L23.1502,9.1088 L18.4592,9.1658 L18.4592,6.8248 C18.4592,6.3698 18.0892,5.9998 17.6342,5.9998 L10.3502,5.9998 C9.8952,5.9998 9.5262,6.3698 9.5262,6.8248 L9.5262,9.1658 L4.8352,9.1088 C4.6192,9.1008 4.4022,9.1918 4.2452,9.3468 C4.0892,9.5018 4.0002,9.7128 4.0002,9.9338 L4.0002,20.2328 C4.0002,20.6888 4.3692,21.0578 4.8252,21.0578 L23.1602,21.0578 C23.6162,21.0578 23.9852,20.6888 23.9852,20.2328 L23.9852,9.9338 C23.9852,9.7128 23.8972,9.5018 23.7402,9.3468" id="Fill-3" fill="#FAFAFA"></path>
                <rect id="Rectangle" x="0" y="0" width="28" height="28"></rect>
            </g>
        </g>
    </g>
</svg>