<?xml version="1.0" encoding="UTF-8"?>
<svg width="44px" height="44px" viewBox="0 0 44 44" version="1.1" xmlns="http://www.w3.org/2000/svg" xmlns:xlink="http://www.w3.org/1999/xlink">
    <!-- Generator: Sketch 55.2 (78181) - https://sketchapp.com -->
    <title>icon/star</title>
    <desc>Created with Sketch.</desc>
    <g id="icon/star" stroke="none" stroke-width="1" fill="none" fill-rule="evenodd">
        <g id="btn_wish">
            <rect id="Rectangle" x="0" y="0" width="44" height="44"></rect>
            <path d="M22.3659941,11.2235483 L25.2924779,17.1533131 C25.3519412,17.2737703 25.4668501,17.3572639 25.5998199,17.3765875 L32.1436565,18.3274652 C32.4784343,18.3760996 32.6121311,18.7874833 32.3698774,19.0236148 L27.6346598,23.6392934 C27.5385006,23.7330419 27.4945727,23.8681545 27.517302,24.0005504 L28.6351285,30.5179843 C28.6922959,30.8514229 28.3423653,31.1056535 28.0429058,30.9482325 L22.1899,27.8711389 C22.0710116,27.8086144 21.9289731,27.8086144 21.8100847,27.8711389 L15.9570406,30.9482325 C15.6576194,31.1056535 15.3076505,30.8514229 15.3648562,30.5179843 L16.4826827,24.0005504 C16.5053737,23.8681545 16.4614841,23.7330419 16.3652866,23.6392934 L11.6301073,19.0236148 C11.3878918,18.7874833 11.5215504,18.3760996 11.8562899,18.3274652 L18.4001648,17.3765875 C18.5330963,17.3572639 18.6480434,17.2737703 18.7075068,17.1533131 L21.6339905,11.2235483 C21.783682,10.9201858 22.2162644,10.9201858 22.3659941,11.2235483 Z" id="Stroke-1" stroke="#C4C4C4" stroke-linecap="round" stroke-linejoin="round"></path>
        </g>
    </g>
</svg>