<?xml version="1.0" encoding="UTF-8"?>
<svg width="34px" height="34px" viewBox="0 0 34 34" version="1.1" xmlns="http://www.w3.org/2000/svg" xmlns:xlink="http://www.w3.org/1999/xlink">
    <!-- Generator: Sketch 55.2 (78181) - https://sketchapp.com -->
    <title>icon/ticket</title>
    <desc>Created with Sketch.</desc>
    <defs>
        <polygon id="path-1" points="0 23.5202 28.175 23.5202 28.175 0.0002 0 0.0002"></polygon>
    </defs>
    <g id="icon/ticket" stroke="none" stroke-width="1" fill="none" fill-rule="evenodd">
        <g id="Group-24" transform="translate(2.000000, 5.000000)">
            <path d="M19.0673,22.4409 L26.2093,22.4409 L26.2093,13.6239 L19.0663,13.6239 L18.1493,14.5479 C17.9403,14.7589 17.6003,14.7609 17.3883,14.5529 L16.4393,13.6239 L1.9663,13.6239 L1.9663,22.4409 L16.3943,22.4409 L17.3423,21.2119 C17.4473,21.0759 17.6103,20.9979 17.7813,21.0019 C17.9523,21.0039 18.1123,21.0889 18.2113,21.2289 L19.0673,22.4409 Z M26.7483,23.5199 L18.7883,23.5199 C18.6123,23.5199 18.4483,23.4349 18.3473,23.2929 L17.7513,22.4489 L17.0863,23.3099 C16.9843,23.4429 16.8263,23.5199 16.6593,23.5199 L1.4263,23.5199 C1.1293,23.5199 0.8873,23.2789 0.8873,22.9799 L0.8873,13.0839 C0.8873,12.7859 1.1293,12.5439 1.4263,12.5439 L16.6593,12.5439 C16.8003,12.5439 16.9363,12.5989 17.0373,12.6979 L17.7603,13.4069 L18.4573,12.7039 C18.5593,12.6009 18.6963,12.5439 18.8403,12.5439 L26.7483,12.5439 C27.0463,12.5439 27.2883,12.7859 27.2883,13.0839 L27.2883,22.9799 C27.2883,23.2789 27.0463,23.5199 26.7483,23.5199 L26.7483,23.5199 Z" id="Fill-1" fill="#1F1F1F"></path>
            <path d="M17.9413,15.9623 C17.8213,15.9623 17.7253,15.8653 17.7253,15.7463 L17.7253,15.2423 C17.7253,15.1233 17.8213,15.0263 17.9413,15.0263 C18.0603,15.0263 18.1573,15.1233 18.1573,15.2423 L18.1573,15.7463 C18.1573,15.8653 18.0603,15.9623 17.9413,15.9623" id="Fill-3" fill="#1F1F1F"></path>
            <path d="M17.9413,17.6752 C17.8213,17.6752 17.7253,17.5782 17.7253,17.4592 L17.7253,16.6032 C17.7253,16.4842 17.8213,16.3872 17.9413,16.3872 C18.0603,16.3872 18.1573,16.4842 18.1573,16.6032 L18.1573,17.4592 C18.1573,17.5782 18.0603,17.6752 17.9413,17.6752 M17.9413,19.3882 C17.8213,19.3882 17.7253,19.2922 17.7253,19.1722 L17.7253,18.3162 C17.7253,18.1962 17.8213,18.1002 17.9413,18.1002 C18.0603,18.1002 18.1573,18.1962 18.1573,18.3162 L18.1573,19.1722 C18.1573,19.2922 18.0603,19.3882 17.9413,19.3882" id="Fill-5" fill="#1F1F1F"></path>
            <path d="M17.9413,20.7485 C17.8213,20.7485 17.7253,20.6515 17.7253,20.5325 L17.7253,20.0285 C17.7253,19.9095 17.8213,19.8125 17.9413,19.8125 C18.0603,19.8125 18.1573,19.9095 18.1573,20.0285 L18.1573,20.5325 C18.1573,20.6515 18.0603,20.7485 17.9413,20.7485" id="Fill-7" fill="#1F1F1F"></path>
            <path d="M14.3422,15.603 L3.5452,15.603 C3.3462,15.603 3.1852,15.442 3.1852,15.243 C3.1852,15.044 3.3462,14.883 3.5452,14.883 L14.3422,14.883 C14.5412,14.883 14.7022,15.044 14.7022,15.243 C14.7022,15.442 14.5412,15.603 14.3422,15.603" id="Fill-9" fill="#1F1F1F"></path>
            <path d="M9.8437,17.1274 L3.5457,17.1274 C3.3467,17.1274 3.1857,16.9664 3.1857,16.7684 C3.1857,16.5684 3.3467,16.4074 3.5457,16.4074 L9.8437,16.4074 C10.0427,16.4074 10.2037,16.5684 10.2037,16.7684 C10.2037,16.9664 10.0427,17.1274 9.8437,17.1274" id="Fill-11" fill="#1F1F1F"></path>
            <path d="M6.2445,21.0854 L3.5455,21.0854 C3.3465,21.0854 3.1855,20.9244 3.1855,20.7264 C3.1855,20.5264 3.3465,20.3654 3.5455,20.3654 L6.2445,20.3654 C6.4435,20.3654 6.6045,20.5264 6.6045,20.7264 C6.6045,20.9244 6.4435,21.0854 6.2445,21.0854" id="Fill-13" fill="#1F1F1F"></path>
            <mask id="mask-2" fill="white">
                <use xlink:href="#path-1"></use>
            </mask>
            <g id="Clip-16"></g>
            <path d="M19.988,20.8342 L24.779,20.8342 L24.779,15.1422 L19.988,15.1422 L19.988,20.8342 Z M25.139,21.5542 L19.628,21.5542 C19.43,21.5542 19.268,21.3932 19.268,21.1952 L19.268,14.7812 C19.268,14.5832 19.43,14.4222 19.628,14.4222 L25.139,14.4222 C25.338,14.4222 25.499,14.5832 25.499,14.7812 L25.499,21.1952 C25.499,21.3932 25.338,21.5542 25.139,21.5542 L25.139,21.5542 Z" id="Fill-15" fill="#1F1F1F" mask="url(#mask-2)"></path>
            <path d="M1.1996,13.5727 C0.9986,13.5727 0.8056,13.4607 0.7126,13.2667 L0.0536,11.8947 C-0.0754,11.6277 0.0366,11.3067 0.3026,11.1767 L13.9876,4.4857 C14.1146,4.4247 14.2606,4.4147 14.3946,4.4587 L15.3556,4.7777 L15.6736,3.8407 C15.7196,3.7037 15.8176,3.5917 15.9476,3.5277 L23.0516,0.0547 C23.3196,-0.0753 23.6426,0.0347 23.7736,0.3027 L28.1206,9.1937 C28.2516,9.4617 28.1406,9.7857 27.8726,9.9167 L21.2456,13.1557 C20.9776,13.2867 20.6546,13.1767 20.5236,12.9077 C20.3926,12.6397 20.5036,12.3167 20.7716,12.1857 L26.9136,9.1827 L23.0406,1.2617 L16.6236,4.3987 L16.2066,5.6327 C16.1116,5.9137 15.8066,6.0647 15.5256,5.9717 L14.2636,5.5527 L1.2586,11.9107 L1.6856,12.7997 C1.8146,13.0677 1.7016,13.3897 1.4326,13.5197 C1.3576,13.5557 1.2776,13.5727 1.1996,13.5727" id="Fill-17" fill="#1F1F1F" mask="url(#mask-2)"></path>
            <path d="M16.5458,7.017 C16.4658,7.017 16.3888,6.972 16.3518,6.896 L16.1298,6.443 C16.0778,6.335 16.1228,6.206 16.2298,6.154 C16.3368,6.102 16.4658,6.146 16.5188,6.253 L16.7398,6.705 C16.7928,6.813 16.7478,6.943 16.6408,6.995 C16.6098,7.009 16.5778,7.017 16.5458,7.017" id="Fill-18" fill="#1F1F1F" mask="url(#mask-2)"></path>
            <path d="M17.4403,8.8461 C17.3603,8.8461 17.2833,8.8011 17.2463,8.7251 L16.7983,7.8101 C16.7463,7.7021 16.7913,7.5741 16.8983,7.5211 C17.0053,7.4691 17.1343,7.5131 17.1873,7.6201 L17.6343,8.5341 C17.6863,8.6421 17.6423,8.7721 17.5353,8.8241 C17.5043,8.8381 17.4723,8.8461 17.4403,8.8461 M18.3343,10.6751 C18.2543,10.6751 18.1773,10.6301 18.1403,10.5541 L17.6933,9.6391 C17.6413,9.5321 17.6853,9.4031 17.7923,9.3501 C17.8993,9.2981 18.0283,9.3421 18.0813,9.4501 L18.5283,10.3641 C18.5803,10.4711 18.5363,10.6011 18.4293,10.6531 C18.3983,10.6671 18.3663,10.6751 18.3343,10.6751" id="Fill-19" fill="#1F1F1F" mask="url(#mask-2)"></path>
            <path d="M19.0028,12.0424 C18.9228,12.0424 18.8458,11.9974 18.8088,11.9214 L18.5868,11.4684 C18.5348,11.3604 18.5798,11.2314 18.6868,11.1794 C18.7938,11.1274 18.9228,11.1714 18.9758,11.2784 L19.1968,11.7314 C19.2488,11.8384 19.2048,11.9684 19.0978,12.0204 C19.0668,12.0354 19.0348,12.0424 19.0028,12.0424" id="Fill-20" fill="#1F1F1F" mask="url(#mask-2)"></path>
            <path d="M3.392,13.0307 C3.259,13.0307 3.131,12.9567 3.068,12.8287 C2.981,12.6497 3.055,12.4347 3.234,12.3467 L12.933,7.6047 C13.112,7.5177 13.328,7.5927 13.414,7.7707 C13.502,7.9497 13.428,8.1647 13.249,8.2527 L3.55,12.9947 C3.499,13.0187 3.445,13.0307 3.392,13.0307" id="Fill-21" fill="#1F1F1F" mask="url(#mask-2)"></path>
            <path d="M6.4789,13.2494 C6.3469,13.2494 6.2199,13.1764 6.1569,13.0494 C6.0679,12.8714 6.1399,12.6554 6.3179,12.5664 L9.5589,10.9524 C9.7369,10.8634 9.9529,10.9364 10.0419,11.1134 C10.1299,11.2924 10.0579,11.5084 9.8799,11.5974 L6.6389,13.2114 C6.5879,13.2364 6.5329,13.2494 6.4789,13.2494" id="Fill-22" fill="#1F1F1F" mask="url(#mask-2)"></path>
            <path d="M18.119,5.3578 L20.619,10.4728 L24.924,8.3688 L22.423,3.2538 L18.119,5.3578 Z M20.454,11.3138 C20.415,11.3138 20.375,11.3068 20.337,11.2948 C20.247,11.2628 20.173,11.1978 20.131,11.1118 L17.314,5.3508 C17.227,5.1718 17.301,4.9568 17.48,4.8698 L22.431,2.4498 C22.516,2.4078 22.615,2.4008 22.705,2.4318 C22.795,2.4628 22.87,2.5288 22.911,2.6148 L25.728,8.3758 C25.815,8.5538 25.742,8.7698 25.563,8.8568 L20.612,11.2778 C20.562,11.3008 20.509,11.3138 20.454,11.3138 L20.454,11.3138 Z" id="Fill-23" fill="#1F1F1F" mask="url(#mask-2)"></path>
        </g>
        <rect id="Rectangle" x="0" y="0" width="34" height="34"></rect>
    </g>
</svg>