<?xml version="1.0" encoding="UTF-8"?>
<svg width="34px" height="34px" viewBox="0 0 34 34" version="1.1" xmlns="http://www.w3.org/2000/svg" xmlns:xlink="http://www.w3.org/1999/xlink">
    <!-- Generator: Sketch 55.2 (78181) - https://sketchapp.com -->
    <title>icon/write</title>
    <desc>Created with Sketch.</desc>
    <g id="icon/write" stroke="none" stroke-width="1" fill="none" fill-rule="evenodd">
        <path d="M28.3377496,12.7706797 L22.2289287,6.66113382 C23.0045621,6.02130186 23.9726885,5.67024361 24.9917689,5.67024361 C26.1523883,5.67024361 27.2394074,6.12322199 28.0603333,6.93858307 C28.8812592,7.75394415 29.3285222,8.84675449 29.3285222,10.0075116 C29.3285222,11.0323752 28.9775056,11.9949542 28.3377496,12.7706797 L28.3377496,12.7706797 Z M13.3968984,27.7416151 L10.9001513,25.2445152 L24.7766297,11.3664467 L27.2733767,13.86349 L13.3968984,27.7416151 Z M21.136248,7.73129524 L23.6896106,10.2849608 L9.81313224,24.1630859 L7.25976963,21.6094203 L21.136248,7.73129524 Z M29.1360293,5.86275942 C26.8487599,3.56955638 23.1291164,3.56955638 20.841847,5.86275942 L5.63490252,21.0658463 C5.51600981,21.1847531 5.44240956,21.3375767 5.41976333,21.5018379 L4.29311331,29.8479646 C4.25914396,30.0857782 4.34406733,30.3235919 4.50825251,30.4877965 C4.64979145,30.6293523 4.84794598,30.7142857 5.04610051,30.7142857 C5.08006985,30.7142857 5.1140392,30.7142857 5.14800855,30.7085669 L10.1754719,30.0290993 C10.5944272,29.972477 10.8888282,29.587502 10.8322127,29.168497 C10.7755971,28.749492 10.3906111,28.4550561 9.97165586,28.5116783 L5.94062665,29.0552524 L6.72758319,23.2344236 L12.8533888,29.3610128 C12.9949278,29.5025686 13.1930823,29.587502 13.3912368,29.587502 C13.5893913,29.587502 13.7875459,29.5082308 13.9290848,29.3610128 L29.1360293,14.157926 C30.2456946,13.048129 30.8571429,11.5759492 30.8571429,10.0075116 C30.8571429,8.43907395 30.2456946,6.96689422 29.1360293,5.86275942 L29.1360293,5.86275942 Z" id="Fill-1" fill="#F2EBE3"></path>
        <rect id="Rectangle" x="0" y="0" width="34" height="34"></rect>
    </g>
</svg>