<?xml version="1.0" encoding="UTF-8"?>
<svg width="40px" height="40px" viewBox="0 0 40 40" version="1.1" xmlns="http://www.w3.org/2000/svg" xmlns:xlink="http://www.w3.org/1999/xlink">
    <!-- Generator: Sketch 55.2 (78181) - https://sketchapp.com -->
    <title>icon/concert</title>
    <desc>Created with Sketch.</desc>
    <defs>
        <polygon id="path-1" points="0 0.0004 35.078 0.0004 35.078 26.0064 0 26.0064"></polygon>
    </defs>
    <g id="icon/concert" stroke="none" stroke-width="1" fill="none" fill-rule="evenodd">
        <rect id="Rectangle" x="0" y="0" width="40" height="40"></rect>
        <g id="Group-11" transform="translate(2.000000, 7.000000)">
            <mask id="mask-2" fill="white">
                <use xlink:href="#path-1"></use>
            </mask>
            <g id="Clip-2"></g>
            <path d="M2.281,23.7254 L32.798,23.7254 L32.798,16.1324 L2.281,16.1324 L2.281,23.7254 Z M33.938,26.0064 L1.14,26.0064 C0.511,26.0064 0,25.4964 0,24.8664 L0,14.9924 C0,14.3624 0.511,13.8524 1.14,13.8524 L33.938,13.8524 C34.568,13.8524 35.078,14.3624 35.078,14.9924 L35.078,24.8664 C35.078,25.4964 34.568,26.0064 33.938,26.0064 L33.938,26.0064 Z" id="Fill-1" fill="#1F1F1F" mask="url(#mask-2)"></path>
            <path d="M3.181,13.7434 L8.375,13.7434 L8.375,6.7564 L3.181,6.7564 L3.181,13.7434 Z M9.135,15.2644 L2.421,15.2644 C2.001,15.2644 1.66,14.9234 1.66,14.5034 L1.66,5.9964 C1.66,5.5764 2.001,5.2354 2.421,5.2354 L9.135,5.2354 C9.555,5.2354 9.895,5.5764 9.895,5.9964 L9.895,14.5034 C9.895,14.9234 9.555,15.2644 9.135,15.2644 L9.135,15.2644 Z" id="Fill-3" fill="#1F1F1F" mask="url(#mask-2)"></path>
            <path d="M5.8368,9.7684 C5.4658,9.7684 5.1628,10.0704 5.1628,10.4424 C5.1628,10.8144 5.4658,11.1174 5.8368,11.1174 C6.2088,11.1174 6.5118,10.8144 6.5118,10.4424 C6.5118,10.0704 6.2088,9.7684 5.8368,9.7684 M5.8368,12.6374 C4.6268,12.6374 3.6428,11.6534 3.6428,10.4424 C3.6428,9.2324 4.6268,8.2474 5.8368,8.2474 C7.0478,8.2474 8.0318,9.2324 8.0318,10.4424 C8.0318,11.6534 7.0478,12.6374 5.8368,12.6374" id="Fill-4" fill="#1F1F1F" mask="url(#mask-2)"></path>
            <path d="M20.0721,1.5204 C19.7001,1.5204 19.3981,1.8234 19.3981,2.1944 C19.3981,2.5664 19.7001,2.8694 20.0721,2.8694 C20.4441,2.8694 20.7471,2.5664 20.7471,2.1944 C20.7471,1.8234 20.4441,1.5204 20.0721,1.5204 M20.0721,4.3894 C18.8621,4.3894 17.8781,3.4054 17.8781,2.1944 C17.8781,0.9844 18.8621,-0.0006 20.0721,-0.0006 C21.2821,-0.0006 22.2661,0.9844 22.2661,2.1944 C22.2661,3.4054 21.2821,4.3894 20.0721,4.3894" id="Fill-5" fill="#1F1F1F" mask="url(#mask-2)"></path>
            <path d="M27.984,13.7434 L33.177,13.7434 L33.177,6.7564 L27.984,6.7564 L27.984,13.7434 Z M33.938,15.2644 L27.223,15.2644 C26.804,15.2644 26.464,14.9234 26.464,14.5034 L26.464,5.9964 C26.464,5.5764 26.804,5.2354 27.223,5.2354 L33.938,5.2354 C34.358,5.2354 34.698,5.5764 34.698,5.9964 L34.698,14.5034 C34.698,14.9234 34.358,15.2644 33.938,15.2644 L33.938,15.2644 Z" id="Fill-6" fill="#1F1F1F" mask="url(#mask-2)"></path>
            <path d="M30.6405,9.7684 C30.2685,9.7684 29.9655,10.0704 29.9655,10.4424 C29.9655,10.8144 30.2685,11.1174 30.6405,11.1174 C31.0125,11.1174 31.3145,10.8144 31.3145,10.4424 C31.3145,10.0704 31.0125,9.7684 30.6405,9.7684 M30.6405,12.6374 C29.4305,12.6374 28.4455,11.6534 28.4455,10.4424 C28.4455,9.2324 29.4305,8.2474 30.6405,8.2474 C31.8505,8.2474 32.8345,9.2324 32.8345,10.4424 C32.8345,11.6534 31.8505,12.6374 30.6405,12.6374" id="Fill-7" fill="#1F1F1F" mask="url(#mask-2)"></path>
            <path d="M32.9862,19.1127 L1.1402,19.1127 C0.7202,19.1127 0.3802,18.7727 0.3802,18.3527 C0.3802,17.9327 0.7202,17.5917 1.1402,17.5917 L32.9862,17.5917 C33.4062,17.5917 33.7472,17.9327 33.7472,18.3527 C33.7472,18.7727 33.4062,19.1127 32.9862,19.1127" id="Fill-8" fill="#1F1F1F" mask="url(#mask-2)"></path>
            <path d="M15.2694,6.1088 C15.0304,6.1088 14.7934,5.9958 14.6464,5.7838 C14.4054,5.4398 14.4894,4.9658 14.8334,4.7258 L18.4214,2.2188 C18.7664,1.9788 19.2404,2.0628 19.4804,2.4068 C19.7214,2.7508 19.6364,3.2248 19.2924,3.4648 L15.7054,5.9718 C15.5724,6.0648 15.4194,6.1088 15.2694,6.1088" id="Fill-9" fill="#1F1F1F" mask="url(#mask-2)"></path>
            <path d="M17.2147,15.264 C16.8007,15.264 16.4607,14.931 16.4547,14.515 L16.3037,4.106 C16.2967,3.686 16.6327,3.341 17.0527,3.335 L17.0637,3.335 C17.4787,3.335 17.8177,3.668 17.8227,4.084 L17.9757,14.493 C17.9817,14.913 17.6467,15.258 17.2267,15.264 L17.2147,15.264 Z" id="Fill-10" fill="#1F1F1F" mask="url(#mask-2)"></path>
        </g>
    </g>
</svg>