<?xml version="1.0" encoding="UTF-8"?>
<svg width="40px" height="40px" viewBox="0 0 40 40" version="1.1" xmlns="http://www.w3.org/2000/svg" xmlns:xlink="http://www.w3.org/1999/xlink">
    <!-- Generator: Sketch 55.2 (78181) - https://sketchapp.com -->
    <title>icon/etc</title>
    <desc>Created with Sketch.</desc>
    <g id="icon/etc" stroke="none" stroke-width="1" fill="none" fill-rule="evenodd">
        <rect id="Rectangle" x="0" y="0" width="40" height="40"></rect>
        <path d="M11.784,29.3 L4,29.3 L4,9.308 L11.784,9.308 L11.784,11.408 L6.38,11.408 L6.38,17.82 L11.448,17.82 L11.448,19.92 L6.38,19.92 L6.38,27.172 L11.784,27.172 L11.784,29.3 Z M19.664161,29.3 L17.312161,29.3 L17.312161,11.436 L13.560161,11.436 L13.560161,9.308 L23.416161,9.308 L23.416161,11.436 L19.664161,11.436 L19.664161,29.3 Z M29.648,11.128 C28.6773285,11.128 27.8840031,11.5059962 27.268,12.262 C26.6519969,13.0180038 26.2040014,14.0213271 25.924,15.272 C25.6439986,16.5226729 25.504,17.8666595 25.504,19.304 C25.504,21.8426794 25.8866628,23.8353261 26.652,25.282 C27.4173372,26.7286739 28.46266,27.452 29.788,27.452 C30.329336,27.452 30.8426642,27.3820007 31.328,27.242 C31.8133358,27.1019993 32.2799978,26.9200011 32.728,26.696 L32.728,28.824 C31.8319955,29.3280025 30.7586729,29.58 29.508,29.58 C28.18266,29.58 27.0346715,29.1693374 26.064,28.348 C25.0933285,27.5266626 24.3466693,26.3506743 23.824,24.82 C23.3013307,23.2893257 23.04,21.4413442 23.04,19.276 C23.04,17.3719905 23.2779976,15.6453411 23.754,14.096 C24.2300024,12.5466589 24.9486619,11.3100046 25.91,10.386 C26.8713381,9.46199538 28.089326,9 29.564,9 C30.8706732,9 32.0839944,9.33599664 33.204,10.008 L32.392,11.996 C31.9813313,11.7346654 31.5473356,11.5246675 31.09,11.366 C30.6326644,11.2073325 30.1520025,11.128 29.648,11.128 Z" id="ETC" fill="#1F1F1F" fill-rule="nonzero"></path>
        <circle id="Oval" fill="#1F1F1F" cx="35.54" cy="27.5" r="1.5"></circle>
    </g>
</svg>