<?xml version="1.0" encoding="UTF-8"?>
<svg width="40px" height="40px" viewBox="0 0 40 40" version="1.1" xmlns="http://www.w3.org/2000/svg" xmlns:xlink="http://www.w3.org/1999/xlink">
    <!-- Generator: Sketch 55.2 (78181) - https://sketchapp.com -->
    <title>icon/exhibition</title>
    <desc>Created with Sketch.</desc>
    <g id="icon/exhibition" stroke="none" stroke-width="1" fill="none" fill-rule="evenodd">
        <g id="Group-23" transform="translate(1.000000, 2.000000)" fill="#000000">
            <path d="M12.9584,2.198 C12.5124,2.198 12.1484,2.561 12.1484,3.008 L12.1484,19.256 C12.1484,19.702 12.5124,20.066 12.9584,20.066 L24.6994,20.066 C25.1464,20.066 25.5094,19.702 25.5094,19.256 L25.5094,3.008 C25.5094,2.561 25.1464,2.198 24.6994,2.198 L12.9584,2.198 Z M31.5754,25.3757715 C30.9275311,25.9012539 30.1476594,26.3849085 29.2443,26.8165 C26.5353,28.1105 22.9573,28.8235 19.1703,28.8235 C15.3833,28.8235 11.8053,28.1105 9.0963,26.8165 C7.7823444,26.1887409 6.72964327,25.4508355 5.9644,24.6342799 L5.9644,33.9238 L8.4857,33.9238 C9.0917,33.9238 9.5847,34.4158 9.5847,35.0228 C9.5847,35.6298 9.0917,36.1218 8.4857,36.1218 L1.0987,36.1218 C0.4917,36.1218 0.0007,35.6298 0.0007,35.0228 C0.0007,34.4158 0.4917,33.9238 1.0987,33.9238 L3.6194,33.9238 L3.6194,22.149645 C2.47344098,21.7088698 1.6208867,20.6393196 1.5223,19.3357 C1.4553,18.4617 1.7323,17.6147 2.3033,16.9497 C2.8733,16.2847 3.6693,15.8817 4.5433,15.8157 C5.4173,15.7497 6.2643,16.0257 6.9293,16.5967 C7.5933,17.1677 7.9963,17.9627 8.0633,18.8367 C8.1293,19.7107 7.8523,20.5577 7.2813,21.2227 C7.12096917,21.409425 6.94297756,21.5754933 6.75053521,21.7192444 C7.33998287,24.1299569 12.2754716,26.6255 19.1703,26.6255 C22.6363,26.6255 25.8783,25.9895 28.2973,24.8335 C29.9430059,24.0469607 31.0466722,23.0861091 31.4634723,22.1059186 C31.1578597,21.9754003 30.8707141,21.797278 30.6114,21.5747 C29.9464,21.0037 29.5444,20.2087 29.4774,19.3357 C29.3394,17.5317 30.6944,15.9527 32.4984,15.8157 C33.3724,15.7497 34.2194,16.0257 34.8844,16.5967 C35.5494,17.1677 35.9524,17.9627 36.0194,18.8367 C36.0854,19.7107 35.8084,20.5577 35.2364,21.2227 C34.8756629,21.64356 34.4244066,21.9594819 33.9204,22.1514544 L33.9204,33.9238 L36.4418,33.9238 C37.0478,33.9238 37.5408,34.4158 37.5408,35.0228 C37.5408,35.6298 37.0478,36.1218 36.4418,36.1218 L29.0548,36.1218 C28.4478,36.1218 27.9558,35.6298 27.9558,35.0228 C27.9558,34.4158 28.4478,33.9238 29.0548,33.9238 L31.5754,33.9238 L31.5754,25.3757715 Z M32.5687701,20.1541171 C32.6271899,20.1445015 32.6871616,20.1395 32.7483,20.1395 C32.8091595,20.1395 32.868863,20.144456 32.9270305,20.1539859 C33.1768974,20.112321 33.4026503,19.9849457 33.5694,19.7907 C33.7574,19.5717 33.8494,19.2917 33.8274,19.0037 C33.8054,18.7157 33.6724,18.4527 33.4524,18.2647 C33.2554,18.0947 33.0084,18.0037 32.7494,18.0037 C32.7224,18.0037 32.6934,18.0047 32.6654,18.0067 C32.0704,18.0517 31.6234,18.5727 31.6694,19.1687 C31.6904,19.4567 31.8234,19.7187 32.0434,19.9067 C32.1950043,20.0375366 32.3763202,20.1218888 32.5687701,20.1541171 Z M24.6994,22.264 L12.9584,22.264 C11.3004,22.264 9.9504,20.914 9.9504,19.256 L9.9504,3.008 C9.9504,1.349 11.3004,0 12.9584,0 L24.6994,0 C26.3574,0 27.7074,1.349 27.7074,3.008 L27.7074,19.256 C27.7074,20.914 26.3574,22.264 24.6994,22.264 Z M4.7943,18.0037 C4.7663,18.0037 4.7373,18.0047 4.7103,18.0067 C4.4213,18.0287 4.1593,18.1617 3.9713,18.3807 C3.7823,18.6007 3.6903,18.8797 3.7133,19.1687 C3.7583,19.7627 4.2793,20.2117 4.8743,20.1657 C5.1623,20.1437 5.4253,20.0097 5.6133,19.7907 C5.8023,19.5717 5.8933,19.2917 5.8713,19.0037 C5.8493,18.7157 5.7163,18.4527 5.4973,18.2647 C5.2993,18.0947 5.0523,18.0037 4.7943,18.0037 Z" id="Fill-21"></path>
        </g>
        <rect id="Rectangle" x="0" y="0" width="40" height="40"></rect>
    </g>
</svg>