<?xml version="1.0" encoding="UTF-8"?>
<svg width="40px" height="40px" viewBox="0 0 40 40" version="1.1" xmlns="http://www.w3.org/2000/svg" xmlns:xlink="http://www.w3.org/1999/xlink">
    <!-- Generator: Sketch 55.2 (78181) - https://sketchapp.com -->
    <title>icon/musical</title>
    <desc>Created with Sketch.</desc>
    <defs>
        <polygon id="path-1" points="0 0.6632 16.3104 0.6632 16.3104 20.2892 0 20.2892"></polygon>
        <polygon id="path-3" points="0.8393 0.6632 17.15 0.6632 17.15 20.2892 0.8393 20.2892"></polygon>
        <polygon id="path-5" points="0 0.6631 37.15 0.6631 37.15 35 0 35"></polygon>
    </defs>
    <g id="icon/musical" stroke="none" stroke-width="1" fill="none" fill-rule="evenodd">
        <rect id="Rectangle" x="0" y="0" width="40" height="40"></rect>
        <g id="Group-24" transform="translate(1.000000, 2.000000)">
            <path d="M27.2018,33.0371 L10.0848,33.0371 C9.6978,33.0371 9.3838,32.7231 9.3838,32.3361 C9.3838,31.9491 9.6978,31.6351 10.0848,31.6351 L27.2018,31.6351 C27.5898,31.6351 27.9028,31.9491 27.9028,32.3361 C27.9028,32.7231 27.5898,33.0371 27.2018,33.0371" id="Fill-1" fill="#000000"></path>
            <g id="Group-5" transform="translate(0.000000, 0.337300)">
                <mask id="mask-2" fill="white">
                    <use xlink:href="#path-1"></use>
                </mask>
                <g id="Clip-4"></g>
                <path d="M1.0514,20.2892 C0.4704,20.2892 -0.0006,19.8182 -0.0006,19.2382 C-0.0006,18.6572 0.4704,18.1862 1.0514,18.1862 C8.3054,18.1862 14.2074,10.7972 14.2074,1.7142 C14.2074,1.1332 14.6784,0.6632 15.2584,0.6632 C15.8394,0.6632 16.3104,1.1332 16.3104,1.7142 C16.3104,11.9562 9.4654,20.2892 1.0514,20.2892" id="Fill-3" fill="#000000" mask="url(#mask-2)"></path>
            </g>
            <g id="Group-8" transform="translate(20.000000, 0.337300)">
                <mask id="mask-4" fill="white">
                    <use xlink:href="#path-3"></use>
                </mask>
                <g id="Clip-7"></g>
                <path d="M16.0993,20.2892 C7.6853,20.2892 0.8393,11.9562 0.8393,1.7142 C0.8393,1.1332 1.3103,0.6632 1.8913,0.6632 C2.4723,0.6632 2.9433,1.1332 2.9433,1.7142 C2.9433,10.7972 8.8443,18.1862 16.0993,18.1862 C16.6793,18.1862 17.1503,18.6572 17.1503,19.2382 C17.1503,19.8182 16.6793,20.2892 16.0993,20.2892" id="Fill-6" fill="#000000" mask="url(#mask-4)"></path>
            </g>
            <path d="M22.4391,7.5864 L14.7101,7.5864 C14.3241,7.5864 14.0101,7.2724 14.0101,6.8854 C14.0101,6.4984 14.3241,6.1844 14.7101,6.1844 L22.4391,6.1844 C22.8261,6.1844 23.1401,6.4984 23.1401,6.8854 C23.1401,7.2724 22.8261,7.5864 22.4391,7.5864" id="Fill-9" fill="#000000"></path>
            <path d="M22.4391,9.7646 L14.7101,9.7646 C14.3241,9.7646 14.0101,9.4506 14.0101,9.0636 C14.0101,8.6766 14.3241,8.3626 14.7101,8.3626 L22.4391,8.3626 C22.8261,8.3626 23.1401,8.6766 23.1401,9.0636 C23.1401,9.4506 22.8261,9.7646 22.4391,9.7646" id="Fill-11" fill="#000000"></path>
            <g id="Group-15" transform="translate(0.000000, 0.337300)">
                <mask id="mask-6" fill="white">
                    <use xlink:href="#path-5"></use>
                </mask>
                <g id="Clip-14"></g>
                <path d="M2.1032,32.8971 L8.7252,32.8971 C8.3652,27.7541 5.4272,23.0811 2.1032,22.2431 L2.1032,32.8971 Z M28.4252,32.8971 L35.0472,32.8971 L35.0472,22.2431 C31.7232,23.0811 28.7852,27.7541 28.4252,32.8971 L28.4252,32.8971 Z M36.0992,35.0001 L27.3362,35.0001 C26.7562,35.0001 26.2862,34.5291 26.2862,33.9481 C26.2862,30.6531 27.2832,27.2321 29.0222,24.5631 C30.6812,22.0171 32.7902,20.4621 35.0472,20.0931 L35.0472,2.7661 L2.1032,2.7661 L2.1032,20.0931 C4.3602,20.4621 6.4692,22.0171 8.1272,24.5631 C9.8672,27.2321 10.8652,30.6531 10.8652,33.9481 C10.8652,34.5291 10.3942,35.0001 9.8132,35.0001 L1.0512,35.0001 C0.4702,35.0001 -0.0008,34.5291 -0.0008,33.9481 L-0.0008,1.7141 C-0.0008,1.1331 0.4702,0.6631 1.0512,0.6631 L36.0992,0.6631 C36.6792,0.6631 37.1502,1.1331 37.1502,1.7141 L37.1502,33.9481 C37.1502,34.5291 36.6792,35.0001 36.0992,35.0001 L36.0992,35.0001 Z" id="Fill-13" fill="#000000" mask="url(#mask-6)"></path>
            </g>
            <path d="M1.0514,20.2764 C0.8634,20.2764 0.6754,20.2004 0.5374,20.0514 C0.2744,19.7684 0.2904,19.3244 0.5744,19.0614 C9.2374,11.0284 8.1504,3.0054 8.1384,2.9254 C8.0804,2.5424 8.3444,2.1864 8.7274,2.1284 C9.1114,2.0704 9.4674,2.3354 9.5244,2.7174 C9.5374,2.8094 9.8494,4.9904 9.0074,8.2334 C8.2394,11.1904 6.3194,15.6474 1.5284,20.0894 C1.3934,20.2144 1.2224,20.2764 1.0514,20.2764" id="Fill-16" fill="#000000"></path>
            <path d="M36.0983,20.2764 C35.9283,20.2764 35.7573,20.2144 35.6223,20.0894 C30.8313,15.6474 28.9113,11.1904 28.1433,8.2334 C27.3013,4.9904 27.6123,2.8094 27.6253,2.7174 C27.6833,2.3354 28.0393,2.0704 28.4223,2.1284 C28.8053,2.1854 29.0693,2.5424 29.0123,2.9244 C29.0073,2.9634 28.7353,4.9854 29.5203,7.9574 C30.2483,10.7134 32.0643,14.8774 36.5763,19.0614 C36.8593,19.3244 36.8753,19.7684 36.6133,20.0514 C36.4753,20.2004 36.2863,20.2764 36.0983,20.2764" id="Fill-18" fill="#1F1F1F"></path>
            <path d="M6.3083,34.9868 C5.9433,34.9868 5.6353,34.7048 5.6093,34.3348 C5.1883,28.3368 1.0453,23.6588 1.0043,23.6128 C0.7463,23.3248 0.7693,22.8818 1.0573,22.6228 C1.3453,22.3638 1.7883,22.3878 2.0473,22.6758 C2.2313,22.8808 6.5533,27.7638 7.0073,34.2368 C7.0353,34.6228 6.7443,34.9578 6.3573,34.9858 C6.3413,34.9868 6.3243,34.9868 6.3083,34.9868" id="Fill-20" fill="#000000"></path>
            <path d="M30.2038,34.9868 C30.1868,34.9868 30.1708,34.9868 30.1538,34.9858 C29.7668,34.9578 29.4758,34.6228 29.5038,34.2368 C29.9578,27.7638 34.2798,22.8808 34.4638,22.6758 C34.7228,22.3878 35.1658,22.3638 35.4538,22.6228 C35.7418,22.8818 35.7658,23.3248 35.5078,23.6128 C35.4458,23.6818 31.3208,28.3678 30.9018,34.3348 C30.8758,34.7048 30.5678,34.9868 30.2038,34.9868" id="Fill-22" fill="#000000"></path>
        </g>
    </g>
</svg>