<?xml version="1.0" encoding="UTF-8"?>
<svg width="40px" height="40px" viewBox="0 0 40 40" version="1.1" xmlns="http://www.w3.org/2000/svg" xmlns:xlink="http://www.w3.org/1999/xlink">
    <!-- Generator: Sketch 55.2 (78181) - https://sketchapp.com -->
    <title>icon/play</title>
    <desc>Created with Sketch.</desc>
    <g id="icon/play" stroke="none" stroke-width="1" fill="none" fill-rule="evenodd">
        <rect id="Rectangle" x="0" y="0" width="40" height="40"></rect>
        <g id="Group-17" transform="translate(1.000000, 3.083333)" fill="#1F1F1F">
            <path d="M2.06509359,8.91493116 C1.87962457,19.3488083 5.43784241,26.1631089 8.51041016,30.0773748 C9.43561112,31.2571734 10.8507505,31.9298565 12.3806019,31.9185461 C13.9308228,31.9090304 15.3491784,31.2103147 16.2711631,30.0024008 C21.8202247,22.7372151 22.7540023,12.1794227 22.9094532,8.91493116 L2.06509359,8.91493116 Z M12.3473676,33.9166667 C10.1774872,33.9166667 8.18557135,32.9607486 6.87335121,31.2884126 C3.50489069,26.9951117 -0.415688604,19.4477323 0.0356550883,7.87779128 C0.0570965939,7.34151915 0.511656512,6.91666667 1.06377528,6.91666667 L23.9708077,6.91666667 C24.5379356,6.91666667 24.9989279,7.36338656 25,7.91423695 C25,8.48591346 24.9378196,22.0083015 17.9243032,31.1936538 C16.6131551,32.9097246 14.5965815,33.9031297 12.3945389,33.9166667 L12.3473676,33.9166667 Z" id="Fill-1"></path>
            <path d="M9.30873087,17.9166667 C8.92637264,17.9166667 8.61746175,17.5806994 8.61746175,17.1674715 C8.61746175,16.2005414 7.89162916,15.4138865 6.99945995,15.4138865 C6.10729073,15.4138865 5.38145815,16.2005414 5.38145815,17.1674715 C5.38145815,17.5806994 5.07146715,17.9166667 4.69126913,17.9166667 C4.30891089,17.9166667 4,17.5806994 4,17.1674715 C4,15.3752561 5.34473447,13.9166667 6.99945995,13.9166667 C8.65418542,13.9166667 10,15.3752561 10,17.1674715 C10,17.5806994 9.69108911,17.9166667 9.30873087,17.9166667" id="Fill-4"></path>
            <path d="M18.3087309,17.9166667 C17.9263726,17.9166667 17.6174617,17.5806994 17.6174617,17.1674715 C17.6174617,16.2005414 16.8916292,15.4138865 15.9994599,15.4138865 C15.1072907,15.4138865 14.3814581,16.2005414 14.3814581,17.1674715 C14.3814581,17.5806994 14.0714671,17.9166667 13.6912691,17.9166667 C13.3089109,17.9166667 13,17.5806994 13,17.1674715 C13,15.3752561 14.3447345,13.9166667 15.9994599,13.9166667 C17.6541854,13.9166667 19,15.3752561 19,17.1674715 C19,17.5806994 18.6910891,17.9166667 18.3087309,17.9166667" id="Fill-6"></path>
            <path d="M12.5,26.9166667 C10.0200969,26.9166667 8,24.9743187 8,22.5875262 C8,22.2175052 8.31271186,21.9166667 8.69842615,21.9166667 C9.08196126,21.9166667 9.39467312,22.2175052 9.39467312,22.5875262 C9.39467312,24.2353249 10.7882567,25.5749476 12.5,25.5749476 C14.2128329,25.5749476 15.6064165,24.2353249 15.6064165,22.5875262 C15.6064165,22.2175052 15.9180387,21.9166667 16.3026634,21.9166667 C16.6883777,21.9166667 17,22.2175052 17,22.5875262 C17,24.9743187 14.9809927,26.9166667 12.5,26.9166667" id="Fill-8"></path>
            <path d="M25.3479332,27.9166667 C23.1779678,27.9166667 21.1849018,26.9607854 19.8737024,25.2885139 C19.5284806,24.8501414 19.6153221,24.2222586 20.0677556,23.8880126 C20.5201891,23.5537666 21.1656037,23.638109 21.5097534,24.0764816 C22.4285579,25.2479046 23.8255267,25.9184792 25.3479332,25.9184792 L25.3800967,25.9184792 C26.9314504,25.9080666 28.3498616,25.2093778 29.2718824,24.0025517 C34.8286662,16.7261923 35.7560477,6.17817843 35.9115047,2.91589536 L15.0641843,2.91589536 C15.0373814,4.49341175 15.0942036,6.04385525 15.234651,7.53807045 C15.2861126,8.08785834 14.8701311,8.5730878 14.3040532,8.62410978 C13.7369031,8.67513177 13.2372965,8.26903844 13.1858349,7.72029181 C13.0078634,5.83768479 12.9574739,3.87281784 13.0357384,1.87879547 C13.0561087,1.34254403 13.5106864,0.916666667 14.0638989,0.916666667 L36.9707565,0.916666667 C37.5389787,0.916666667 37.998917,1.36441059 38,1.91523975 C38.0010612,2.4868942 37.9378063,16.0087608 30.9240151,25.1927176 C29.6138878,26.9097635 27.5983073,27.902089 25.3940342,27.9166667 C25.3779525,27.9166667 25.3629428,27.9166667 25.3479332,27.9166667" id="Fill-10"></path>
            <path d="M28.9994599,11.9166667 C27.3458146,11.9166667 26,10.4580773 26,8.66469125 C26,8.25146327 26.3089109,7.91666667 26.690189,7.91666667 C27.0725473,7.91666667 27.3814581,8.25146327 27.3814581,8.66469125 C27.3814581,9.63162131 28.1072907,10.4182763 28.9994599,10.4182763 C29.8916292,10.4182763 30.6174617,9.63162131 30.6174617,8.66469125 C30.6174617,8.25146327 30.9274527,7.91666667 31.3087309,7.91666667 C31.690009,7.91666667 32,8.25146327 32,8.66469125 C32,10.4580773 30.6541854,11.9166667 28.9994599,11.9166667" id="Fill-13"></path>
            <path d="M29.3511721,20.9166667 C28.9922892,20.9166667 28.7023443,20.6168763 28.7023443,20.2458071 C28.7023443,18.5990566 27.4067161,17.2583857 25.8140465,17.2583857 C25.1662324,17.2583857 24.5559287,17.4743187 24.0470043,17.8820755 C23.7621283,18.1095388 23.3555971,18.0560797 23.1356039,17.7625786 C22.9166245,17.4701258 22.968328,17.0487421 23.2511764,16.822327 C23.9912457,16.2300839 24.8762874,15.9166667 25.8140465,15.9166667 C28.1214406,15.9166667 30,17.8590147 30,20.2458071 C30,20.6168763 29.710055,20.9166667 29.3511721,20.9166667" id="Fill-15"></path>
        </g>
    </g>
</svg>